  0
SECTION
  2
HEADER
  9
$ACADVER
  1
AC1009
  9
$ANGBASE
  50
0.0
  9
$ANGDIR
  70
0
  9
$ATTDIA
  70
0
  9
$ATTMODE
  70
0
  9
$ATTREQ
  70
1
  9
$AUNITS
  70
0
  9
$AUPREC
  70
2
  9
$AXISMODE
  70
0
  9
$CECOLOR
  62
256
  9
$CELTYPE
  6
BYLAYER
  9
$CLAYER
  8
0
  9
$DIMALT
  70
0
  9
$DIMALTD
  70
2
  9
$DIMALTF
  40
0.0
  9
$DIMAPOST
  1

  9
$DIMASO
  70
1
  9
$DIMASZ
  40
4.0
  9
$DIMBLK
  1

  9
$DIMBLK1
  1

  9
$DIMBLK2
  1

  9
$DIMCEN
  40
0.09
  9
$DIMCLRD
  70
256
  9
$DIMCLRE
  70
256
  9
$DIMCLRT
  70
256
  9
$DIMDLE
  40
0.0
  9
$DIMDLI
  40
10.0
  9
$DIMEXE
  40
3.0
  9
$DIMEXO
  40
1.5
  9
$DIMGAP
  40
1.5
  9
$DIMLFAC
  40
1.0
  9
$DIMLIM
  70
0
  9
$DIMPOST
  1

  9
$DIMRND
  40
0.1
  9
$DIMSAH
  70
0
  9
$DIMSCALE
  40
1.0
  9
$DIMSE1
  70
0
  9
$DIMSE2
  70
0
  9
$DIMSHO
  70
1
  9
$DIMSOXD
  70
0
  9
$DIMSTYLE
  2
*UNNAMED
  9
$DIMTAD
  70
1
  9
$DIMTFAC
  40
1.0
  9
$DIMTIH
  70
1
  9
$DIMTIX
  70
0
  9
$DIMTM
  40
0.0
  9
$DIMTOFL
  70
1
  9
$DIMTOH
  70
1
  9
$DIMTOL
  70
0
  9
$DIMTP
  40
0.0
  9
$DIMTSZ
  40
0.0
  9
$DIMTVP
  40
0.0
  9
$DIMTXT
  40
5.0
  9
$DIMZIN
  70
8
  9
$DRAGMODE
  70
0
  9
$ELEVATION
  40
0.0
  9
$EXTMAX
  10
0.0
  20
0.0
  30
0.0
  9
$EXTMIN
  10
0.0
  20
0.0
  30
0.0
  9
$FILLETRAD
  40
1.0
  9
$FILLMODE
  70
1
  9
$INSBASE
  10
0.0
  20
0.0
  30
0.0
  9
$LIMMAX
  10
24.7015273741
  20
16.8440246604
  9
$LIMMIN
  10
-22.9371241701
  20
-16.8398703709
  9
$LTSCALE
  40
1.0
  9
$LUNITS
  70
2
  9
$LUPREC
  70
2
  9
$MENU
  1
acad
  9
$MIRRTEXT
  70
0
  9
$ORTHOMODE
  70
0
  9
$OSMODE
  70
0
  9
$PDMODE
  70
0
  9
$PDSIZE
  40
0.0
  9
$PEXTMAX
  10
0.0
  20
0.0
  30
0.0
  9
$PEXTMIN
  10
0.0
  20
0.0
  30
0.0
  9
$PLIMCHECK
  70
0
  9
$PLIMMAX
  10
0.0
  20
0.0
  9
$PLIMMIN
  10
0.0
  20
0.0
  9
$PLINEWID
  40
0.0
  9
$PUCSXDIR
  10
1.0
  20
0.0
  30
0.0
  9
$PUCSYDIR
  10
0.0
  20
1.0
  30
0.0
  9
$QTEXTMODE
  70
0
  9
$SHADEDGE
  70
3
  9
$SHADEDIF
  70
70
  9
$SKETCHINC
  40
1.0
  9
$SPLFRAME
  70
0
  9
$SPLINESEGS
  70
20
  9
$SPLINETYPE
  70
1
  9
$SURFTAB1
  70
6
  9
$SURFTAB2
  70
6
  9
$TDINDWG
  40
0.0
  9
$TDUPDATE
  40
2449702.6679593748
  9
$TDUSRTIMER
  40
0.0
  9
$TEXTSIZE
  40
0.6000000238
  9
$TEXTSTYLE
  7
STANDARD
  9
$TILEMODE
  70
1
  9
$TRACEWID
  40
1.0
  9
$UCSORG
  10
0.0
  20
0.0
  30
0.0
  9
$UCSXDIR
  10
1.0
  20
0.0
  30
0.0
  9
$UCSYDIR
  10
0.0
  20
1.0
  30
0.0
  9
$UNITMODE
  70
0
  9
$WORLDVIEW
  70
1
  9
$GRIDMODE
  70
1
  9
$PINSBASE
  10
0.0
  20
0.0
  30
0.0
  9
$PSLTSCALE
  70
1
  9
$TREEDEPTH
  70
3020
  0
ENDSEC
  0
SECTION
  2
TABLES
  0
TABLE
  2
VPORT
  70
1
  0
VPORT
  2
*ACTIVE
  70
0
  10
0.0
  20
0.0
  11
1.0
  21
1.0
  12
0.8822002411
  22
-0.0147705078
  13
0.0
  23
0.0
  14
1.0
  24
1.0
  15
1.0
  25
1.0
  16
0.0
  26
0.0
  36
1.0
  17
0.0
  27
0.0
  37
0.0
  40
34.3912696838
  41
1.697619035737
  42
50.0
  43
0.0
  44
0.0
  50
0.0
  51
0.0
  71
0
  72
100
  73
1
  74
1
  75
0
  76
1
  77
0
  78
0
  0
ENDTAB
  0
TABLE
  2
LTYPE
  70
11
  0
LTYPE
  2
CONTINUOUS
  70
0
  3
CONTINUOUS
  72
65
  73
0
  40
0.0
  0
LTYPE
  2
BORDER
  70
0
  3
BORDER
  72
65
  73
6
  40
1.75
  49
0.5
  49
-0.25
  49
0.5
  49
-0.25
  49
0.0
  49
-0.25
  0
LTYPE
  2
CENTER
  70
0
  3
CENTER
  72
65
  73
4
  40
2.0
  49
1.25
  49
-0.25
  49
0.25
  49
-0.25
  0
LTYPE
  2
DASHDOT
  70
0
  3
DASHDOT
  72
65
  73
4
  40
1.0
  49
0.5
  49
-0.25
  49
0.0
  49
-0.25
  0
LTYPE
  2
DASHED
  70
0
  3
DASHED
  72
65
  73
2
  40
0.75
  49
0.5
  49
-0.25
  0
LTYPE
  2
DIVIDE
  70
0
  3
DIVIDE
  72
65
  73
6
  40
1.25
  49
0.5
  49
-0.25
  49
0.0
  49
-0.25
  49
0.0
  49
-0.25
  0
LTYPE
  2
DOT
  70
0
  3
DOT
  72
65
  73
2
  40
0.25
  49
0.0
  49
-0.25
  0
LTYPE
  2
HIDDEN
  70
0
  3
HIDDEN
  72
65
  73
2
  40
0.375
  49
0.25
  49
-0.125
  0
LTYPE
  2
PHANTOM
  70
0
  3
PHANTOM
  72
65
  73
6
  40
2.5
  49
1.25
  49
-0.25
  49
0.25
  49
-0.25
  49
0.25
  49
-0.25
  0
LTYPE
  2
$AUXILIARY
  70
0
  3
$AUXILIARY
  72
65
  73
2
  40
0.10000000149
  49
0.050000000745
  49
-0.050000000745
  0
LTYPE
  2
$INVISIBLE
  70
0
  3
$INVISIBLE
  72
65
  73
2
  40
200.0
  49
-100.0
  49
-100.0
  0
ENDTAB
  0
TABLE
  2
LAYER
  70
8
  0
LAYER
  2
0
  70
64
  6
CONTINUOUS
  62
7
  0
LAYER
  2
Church Outline
  70
64
  6
CONTINUOUS
  62
7
  0
LAYER
  2
Boundary
  70
64
  6
CONTINUOUS
  62
7
  0
LAYER
  2
Path
  70
64
  6
CONTINUOUS
  62
7
  0
LAYER
  2
Grave
  70
64
  6
CONTINUOUS
  62
7
  0
LAYER
  2
Tree
  70
64
  6
CONTINUOUS
  62
7
  0
LAYER
  2
Numbers
  70
64
  6
CONTINUOUS
  62
7
  0
LAYER
  2
Area Labels
  70
64
  6
CONTINUOUS
  62
7
  0
ENDTAB
  0
TABLE
  2
STYLE
  70
1
  0
STYLE
  2
STANDARD
  70
0
  3
txt
  4

  40
0.0
  41
1.0
  42
0.2
  50
0.0
  71
0
  0
ENDTAB
  0
ENDSEC
  0
SECTION
  2
BLOCKS
  0
ENDSEC
  0
SECTION
  2
ENTITIES
  0
POLYLINE
  8
Church Outline
  6
CONTINUOUS
  62
7
  40
0.10000000149
  41
0.10000000149
  66
1
  70
1
  0
VERTEX
  8
Church Outline
  10
-2.365726470947
  20
8.200733184814
  30
0.0
  0
VERTEX
  8
Church Outline
  10
-1.457004547119
  20
9.533519744873
  30
0.0
  0
VERTEX
  8
Church Outline
  10
-0.245380401611
  20
8.745960235596
  30
0.0
  0
VERTEX
  8
Church Outline
  10
5.933917999268
  20
10.283206939697
  30
0.0
  0
VERTEX
  8
Church Outline
  10
6.721477508545
  20
11.676578521729
  30
0.0
  0
VERTEX
  8
Church Outline
  10
8.114849090576
  20
10.949604034424
  30
0.0
  0
VERTEX
  8
Church Outline
  10
7.387866973877
  20
9.495655059814
  30
0.0
  0
VERTEX
  8
Church Outline
  10
8.478336334229
  20
4.262943267822
  30
0.0
  0
VERTEX
  8
Church Outline
  10
20.585361480713
  20
7.412075042725
  30
0.0
  0
VERTEX
  8
Church Outline
  10
22.295581817627
  20
0.232654571533
  30
0.0
  0
VERTEX
  8
Church Outline
  10
10.208194732666
  20
-2.823093414307
  30
0.0
  0
VERTEX
  8
Church Outline
  10
12.038463592529
  20
-9.875865936279
  30
0.0
  0
VERTEX
  8
Church Outline
  10
3.605617523193
  20
-11.93265914917
  30
0.0
  0
VERTEX
  8
Church Outline
  10
1.974941253662
  20
-5.316638946533
  30
0.0
  0
VERTEX
  8
Church Outline
  10
-20.387729644775
  20
-10.684215545654
  30
0.0
  0
VERTEX
  8
Church Outline
  10
-22.295574188232
  20
-2.721035003662
  30
0.0
  0
VERTEX
  8
Church Outline
  10
-0.063632965088
  20
2.32434463501
  30
0.0
  0
VERTEX
  8
Church Outline
  10
-1.214679718018
  20
7.473751068115
  30
0.0
  0
SEQEND
  0
POLYLINE
  8
Church Outline
  6
CONTINUOUS
  62
7
  40
0.10000000149
  41
0.10000000149
  66
1
  0
VERTEX
  8
Church Outline
  10
-9.611713409424
  20
-8.120723724365
  30
0.0
  0
VERTEX
  8
Church Outline
  10
-9.318927764893
  20
-9.555370330811
  30
0.0
  0
SEQEND
  0
POLYLINE
  8
Church Outline
  6
CONTINUOUS
  62
7
  40
0.10000000149
  41
0.10000000149
  66
1
  0
VERTEX
  8
Church Outline
  10
-7.620777130127
  20
-7.622989654541
  30
0.0
  0
VERTEX
  8
Church Outline
  10
-7.298709869385
  20
-9.174747467041
  30
0.0
  0
SEQEND
  0
POLYLINE
  8
Church Outline
  6
CONTINUOUS
  62
7
  40
0.10000000149
  41
0.10000000149
  66
1
  0
VERTEX
  8
Church Outline
  10
-7.298709869385
  20
-9.174747467041
  30
0.0
  0
VERTEX
  8
Church Outline
  10
-9.260372161865
  20
-9.613925933838
  30
0.0
  0
SEQEND
  0
POLYLINE
  8
Church Outline
  6
CONTINUOUS
  62
7
  40
0.10000000149
  41
0.10000000149
  66
1
  0
VERTEX
  8
Church Outline
  10
4.729122161865
  20
-4.039402008057
  30
0.0
  0
VERTEX
  8
Church Outline
  10
4.415325164795
  20
-2.897914886475
  30
0.0
  0
VERTEX
  8
Church Outline
  10
2.944591522217
  20
-3.276103973389
  30
0.0
  0
VERTEX
  8
Church Outline
  10
2.685047149658
  20
-2.334072113037
  30
0.0
  0
VERTEX
  8
Church Outline
  10
2.069423675537
  20
-2.168209075928
  30
0.0
  0
VERTEX
  8
Church Outline
  10
1.406497955322
  20
-2.938335418701
  30
0.0
  0
VERTEX
  8
Church Outline
  10
1.827297210693
  20
-4.750072479248
  30
0.0
  0
VERTEX
  8
Church Outline
  10
-1.840419769287
  20
-5.639392852783
  30
0.0
  0
VERTEX
  8
Church Outline
  10
-1.977993011475
  20
-6.265438079834
  30
0.0
  0
VERTEX
  8
Church Outline
  10
-5.118732452393
  20
-7.019290924072
  30
0.0
  0
VERTEX
  8
Church Outline
  10
-5.723834991455
  20
-6.580615997314
  30
0.0
  0
VERTEX
  8
Church Outline
  10
-8.24165725708
  20
-7.191013336182
  30
0.0
  0
VERTEX
  8
Church Outline
  10
-8.105175018311
  20
-7.736110687256
  30
0.0
  0
VERTEX
  8
Church Outline
  10
-9.174587249756
  20
-7.992794036865
  30
0.0
  0
VERTEX
  8
Church Outline
  10
-9.323444366455
  20
-7.453052520752
  30
0.0
  0
VERTEX
  8
Church Outline
  10
-11.921581268311
  20
-8.082767486572
  30
0.0
  0
VERTEX
  8
Church Outline
  10
-12.001583099365
  20
-8.685596466064
  30
0.0
  0
VERTEX
  8
Church Outline
  10
-14.760623931885
  20
-9.333576202393
  30
0.0
  0
VERTEX
  8
Church Outline
  10
-15.12707901001
  20
-8.859683990479
  30
0.0
  0
VERTEX
  8
Church Outline
  10
-19.931560516357
  20
-10.021633148193
  30
0.0
  0
VERTEX
  8
Church Outline
  10
-20.343395233154
  20
-8.2336769104
  30
0.0
  0
VERTEX
  8
Church Outline
  10
-21.008083343506
  20
-8.094913482666
  30
0.0
  0
VERTEX
  8
Church Outline
  10
-21.569522857666
  20
-5.916065216064
  30
0.0
  0
VERTEX
  8
Church Outline
  10
-21.008335113525
  20
-5.346858978271
  30
0.0
  0
VERTEX
  8
Church Outline
  10
-21.527889251709
  20
-3.091243743896
  30
0.0
  0
VERTEX
  8
Church Outline
  10
-16.862491607666
  20
-1.996822357178
  30
0.0
  0
VERTEX
  8
Church Outline
  10
-16.738246917725
  20
-1.464580535889
  30
0.0
  0
VERTEX
  8
Church Outline
  10
-14.644283294678
  20
-0.984630584717
  30
0.0
  0
VERTEX
  8
Church Outline
  10
-14.364528656006
  20
-1.422420501709
  30
0.0
  0
VERTEX
  8
Church Outline
  10
-6.005504608154
  20
0.499706268311
  30
0.0
  0
VERTEX
  8
Church Outline
  10
-5.891918182373
  20
1.001659393311
  30
0.0
  0
VERTEX
  8
Church Outline
  10
-4.108806610107
  20
1.406322479248
  30
0.0
  0
VERTEX
  8
Church Outline
  10
-3.829822540283
  20
0.999996185303
  30
0.0
  0
VERTEX
  8
Church Outline
  10
0.303134918213
  20
1.950351715088
  30
0.0
  0
VERTEX
  8
Church Outline
  10
0.700656890869
  20
0.487285614014
  30
0.0
  0
VERTEX
  8
Church Outline
  10
1.562755584717
  20
0.264881134033
  30
0.0
  0
VERTEX
  8
Church Outline
  10
1.986972808838
  20
0.766223907471
  30
0.0
  0
VERTEX
  8
Church Outline
  10
1.80163192749
  20
1.767482757568
  30
0.0
  0
VERTEX
  8
Church Outline
  10
3.177738189697
  20
2.120532989502
  30
0.0
  0
VERTEX
  8
Church Outline
  10
2.980487823486
  20
2.948970794678
  30
0.0
  0
VERTEX
  8
Church Outline
  10
0.569683074951
  20
2.438404083252
  30
0.0
  0
VERTEX
  8
Church Outline
  10
0.236217498779
  20
3.819828033447
  30
0.0
  0
VERTEX
  8
Church Outline
  10
-0.36600112915
  20
3.677043914795
  30
0.0
  0
VERTEX
  8
Church Outline
  10
-0.536945343018
  20
4.441799163818
  30
0.0
  0
VERTEX
  8
Church Outline
  10
0.073497772217
  20
4.580699920654
  30
0.0
  0
VERTEX
  8
Church Outline
  10
0.00687789917
  20
4.868274688721
  30
0.0
  0
VERTEX
  8
Church Outline
  10
-0.637500762939
  20
4.891635894775
  30
0.0
  0
VERTEX
  8
Church Outline
  10
-0.676387786865
  20
5.065608978271
  30
0.0
  0
VERTEX
  8
Church Outline
  10
-0.109561920166
  20
5.370975494385
  30
0.0
  0
VERTEX
  8
Church Outline
  10
-0.739253997803
  20
8.089382171631
  30
0.0
  0
VERTEX
  8
Church Outline
  10
1.871730804443
  20
8.747356414795
  30
0.0
  0
VERTEX
  8
Church Outline
  10
1.961444854736
  20
9.294956207275
  30
0.0
  0
VERTEX
  8
Church Outline
  10
3.341823577881
  20
9.638362884521
  30
0.0
  0
VERTEX
  8
Church Outline
  10
3.627269744873
  20
9.176662445068
  30
0.0
  0
VERTEX
  8
Church Outline
  10
6.510997772217
  20
9.881847381592
  30
0.0
  0
VERTEX
  8
Church Outline
  10
6.774440765381
  20
8.855663299561
  30
0.0
  0
VERTEX
  8
Church Outline
  10
7.142757415771
  20
8.940662384033
  30
0.0
  0
VERTEX
  8
Church Outline
  10
7.652736663818
  20
6.589084625244
  30
0.0
  0
VERTEX
  8
Church Outline
  10
7.312747955322
  20
6.504093170166
  30
0.0
  0
VERTEX
  8
Church Outline
  10
7.793552398682
  20
4.118350982666
  30
0.0
  0
VERTEX
  8
Church Outline
  10
4.787967681885
  20
3.40115737915
  30
0.0
  0
VERTEX
  8
Church Outline
  10
5.024890899658
  20
2.564960479736
  30
0.0
  0
VERTEX
  8
Church Outline
  10
6.992862701416
  20
3.037403106689
  30
0.0
  0
VERTEX
  8
Church Outline
  10
7.3825340271
  20
1.634601593018
  30
0.0
  0
VERTEX
  8
Church Outline
  10
8.439723968506
  20
2.479259490967
  30
0.0
  0
VERTEX
  8
Church Outline
  10
8.106067657471
  20
3.812534332275
  30
0.0
  0
VERTEX
  8
Church Outline
  10
10.287647247314
  20
4.379177093506
  30
0.0
  0
VERTEX
  8
Church Outline
  10
10.344310760498
  20
4.719165802002
  30
0.0
  0
VERTEX
  8
Church Outline
  10
11.052616119385
  20
4.917491912842
  30
0.0
  0
VERTEX
  8
Church Outline
  10
11.222606658936
  20
4.60583114624
  30
0.0
  0
VERTEX
  8
Church Outline
  10
14.942729949951
  20
5.515651702881
  30
0.0
  0
VERTEX
  8
Church Outline
  10
14.97091293335
  20
5.957210540771
  30
0.0
  0
VERTEX
  8
Church Outline
  10
15.327922821045
  20
6.051158905029
  30
0.0
  0
VERTEX
  8
Church Outline
  10
15.525211334229
  20
5.684757232666
  30
0.0
  0
VERTEX
  8
Church Outline
  10
16.981433868408
  20
6.041767120361
  30
0.0
  0
VERTEX
  8
Church Outline
  10
16.981433868408
  20
6.483325958252
  30
0.0
  0
VERTEX
  8
Church Outline
  10
17.357227325439
  20
6.567882537842
  30
0.0
  0
VERTEX
  8
Church Outline
  10
17.573314666748
  20
6.201480865479
  30
0.0
  0
VERTEX
  8
Church Outline
  10
18.85103225708
  20
6.511516571045
  30
0.0
  0
VERTEX
  8
Church Outline
  10
18.860424041748
  20
6.981258392334
  30
0.0
  0
VERTEX
  8
Church Outline
  10
19.25500869751
  20
7.065814971924
  30
0.0
  0
VERTEX
  8
Church Outline
  10
19.508678436279
  20
6.68062210083
  30
0.0
  0
VERTEX
  8
Church Outline
  10
20.213298797607
  20
6.859127044678
  30
0.0
  0
VERTEX
  8
Church Outline
  10
20.657222747803
  20
5.172481536865
  30
0.0
  0
VERTEX
  8
Church Outline
  10
21.138874053955
  20
5.00248336792
  30
0.0
  0
VERTEX
  8
Church Outline
  10
21.594608306885
  20
3.175304412842
  30
0.0
  0
VERTEX
  8
Church Outline
  10
21.254657745361
  20
2.665493011475
  30
0.0
  0
VERTEX
  8
Church Outline
  10
21.727550506592
  20
0.685894012451
  30
0.0
  0
VERTEX
  8
Church Outline
  10
21.117649078369
  20
0.528499603271
  30
0.0
  0
VERTEX
  8
Church Outline
  10
21.117649078369
  20
-0.061725616455
  30
0.0
  0
VERTEX
  8
Church Outline
  10
20.586444854736
  20
-0.199443817139
  30
0.0
  0
VERTEX
  8
Church Outline
  10
20.212635040283
  20
0.292407989502
  30
0.0
  0
VERTEX
  8
Church Outline
  10
19.248607635498
  20
0.036647796631
  30
0.0
  0
VERTEX
  8
Church Outline
  10
19.169910430908
  20
-0.553577423096
  30
0.0
  0
VERTEX
  8
Church Outline
  10
18.619029998779
  20
-0.691295623779
  30
0.0
  0
VERTEX
  8
Church Outline
  10
18.264896392822
  20
-0.238796234131
  30
0.0
  0
VERTEX
  8
Church Outline
  10
17.281192779541
  20
-0.494556427002
  30
0.0
  0
VERTEX
  8
Church Outline
  10
17.182819366455
  20
-1.045436859131
  30
0.0
  0
VERTEX
  8
Church Outline
  10
16.651615142822
  20
-1.183155059814
  30
0.0
  0
VERTEX
  8
Church Outline
  10
16.277805328369
  20
-0.750324249268
  30
0.0
  0
VERTEX
  8
Church Outline
  10
13.956241607666
  20
-1.365139007568
  30
0.0
  0
VERTEX
  8
Church Outline
  10
14.084117889404
  20
-1.837314605713
  30
0.0
  0
VERTEX
  8
Church Outline
  10
13.257808685303
  20
-2.043895721436
  30
0.0
  0
VERTEX
  8
Church Outline
  10
13.12992477417
  20
-1.571720123291
  30
0.0
  0
VERTEX
  8
Church Outline
  10
12.303607940674
  20
-1.778293609619
  30
0.0
  0
VERTEX
  8
Church Outline
  10
12.283939361572
  20
-2.289821624756
  30
0.0
  0
VERTEX
  8
Church Outline
  10
11.959308624268
  20
-2.368518829346
  30
0.0
  0
VERTEX
  8
Church Outline
  10
11.693714141846
  20
-1.965198516846
  30
0.0
  0
VERTEX
  8
Church Outline
  10
11.024791717529
  20
-2.142269134521
  30
0.0
  0
VERTEX
  8
Church Outline
  10
11.005115509033
  20
-2.624286651611
  30
0.0
  0
VERTEX
  8
Church Outline
  10
10.685626983643
  20
-2.702396392822
  30
0.0
  0
VERTEX
  8
Church Outline
  10
10.434566497803
  20
-2.309497833252
  30
0.0
  0
VERTEX
  8
Church Outline
  10
9.775478363037
  20
-2.466892242432
  30
0.0
  0
VERTEX
  8
Church Outline
  10
9.318553924561
  20
-0.856716156006
  30
0.0
  0
VERTEX
  8
Church Outline
  10
8.033802032471
  20
-0.709987640381
  30
0.0
  0
VERTEX
  8
Church Outline
  10
8.336360931396
  20
-1.889644622803
  30
0.0
  0
VERTEX
  8
Church Outline
  10
6.431987762451
  20
-2.379344940186
  30
0.0
  0
VERTEX
  8
Church Outline
  10
6.773090362549
  20
-3.516948699951
  30
0.0
  0
VERTEX
  8
Church Outline
  10
6.761180877686
  20
-3.520000457764
  30
0.0
  0
SEQEND
  0
POLYLINE
  8
Church Outline
  6
CONTINUOUS
  62
7
  40
0.10000000149
  41
0.10000000149
  66
1
  0
VERTEX
  8
Church Outline
  10
6.758754730225
  20
-3.516651153564
  30
0.0
  0
VERTEX
  8
Church Outline
  10
9.657154083252
  20
-2.776630401611
  30
0.0
  0
VERTEX
  8
Church Outline
  10
10.397167205811
  20
-5.592807769775
  30
0.0
  0
VERTEX
  8
Church Outline
  10
10.911067962646
  20
-5.586391448975
  30
0.0
  0
VERTEX
  8
Church Outline
  10
11.044681549072
  20
-6.090007781982
  30
0.0
  0
VERTEX
  8
Church Outline
  10
10.582172393799
  20
-6.4381980896
  30
0.0
  0
VERTEX
  8
Church Outline
  10
11.332462310791
  20
-9.495922088623
  30
0.0
  0
VERTEX
  8
Church Outline
  10
8.475177764893
  20
-10.163990020752
  30
0.0
  0
VERTEX
  8
Church Outline
  10
8.403232574463
  20
-10.760120391846
  30
0.0
  0
VERTEX
  8
Church Outline
  10
7.169872283936
  20
-11.059474945068
  30
0.0
  0
VERTEX
  8
Church Outline
  10
6.830699920654
  20
-10.535297393799
  30
0.0
  0
VERTEX
  8
Church Outline
  10
4.117305755615
  20
-11.15198135376
  30
0.0
  0
VERTEX
  8
Church Outline
  10
3.397846221924
  20
-8.283115386963
  30
0.0
  0
VERTEX
  8
Church Outline
  10
2.678386688232
  20
-8.242008209229
  30
0.0
  0
VERTEX
  8
Church Outline
  10
2.585880279541
  20
-7.871997833252
  30
0.0
  0
VERTEX
  8
Church Outline
  10
3.192287445068
  20
-7.440319061279
  30
0.0
  0
VERTEX
  8
Church Outline
  10
2.760608673096
  20
-5.632656097412
  30
0.0
  0
VERTEX
  8
Church Outline
  10
3.510898590088
  20
-4.337627410889
  30
0.0
  0
VERTEX
  8
Church Outline
  10
4.723705291748
  20
-4.031848907471
  30
0.0
  0
SEQEND
  0
POLYLINE
  8
Grave
  6
CONTINUOUS
  62
7
  40
0.050000000745
  41
0.050000000745
  66
1
  70
1
  0
VERTEX
  8
Grave
  10
4.118244171143
  20
-10.126194000244
  30
0.0
  0
VERTEX
  8
Grave
  10
4.956523895264
  20
-9.918994903564
  30
0.0
  0
VERTEX
  8
Grave
  10
5.149105072021
  20
-10.695468902588
  30
0.0
  0
VERTEX
  8
Grave
  10
4.310832977295
  20
-10.902675628662
  30
0.0
  0
SEQEND
  0
POLYLINE
  8
Grave
  6
CONTINUOUS
  62
7
  40
0.050000000745
  41
0.050000000745
  66
1
  70
1
  0
VERTEX
  8
Grave
  10
3.875598907471
  20
-9.171558380127
  30
0.0
  0
VERTEX
  8
Grave
  10
5.62894821167
  20
-8.764430999756
  30
0.0
  0
VERTEX
  8
Grave
  10
5.809902191162
  20
-9.543704986572
  30
0.0
  0
VERTEX
  8
Grave
  10
4.056545257568
  20
-9.950832366943
  30
0.0
  0
SEQEND
  0
POLYLINE
  8
Grave
  6
CONTINUOUS
  62
7
  40
0.050000000745
  41
0.050000000745
  66
1
  70
1
  0
VERTEX
  8
Grave
  10
3.616756439209
  20
-8.212314605713
  30
0.0
  0
VERTEX
  8
Grave
  10
5.370105743408
  20
-7.805187225342
  30
0.0
  0
VERTEX
  8
Grave
  10
5.5510597229
  20
-8.584461212158
  30
0.0
  0
VERTEX
  8
Grave
  10
3.797710418701
  20
-8.991588592529
  30
0.0
  0
SEQEND
  0
POLYLINE
  8
Grave
  6
CONTINUOUS
  62
7
  40
0.050000000745
  41
0.050000000745
  66
1
  70
1
  0
VERTEX
  8
Grave
  10
3.236103057861
  20
-6.446094512939
  30
0.0
  0
VERTEX
  8
Grave
  10
4.989452362061
  20
-6.038967132568
  30
0.0
  0
VERTEX
  8
Grave
  10
5.170406341553
  20
-6.81823348999
  30
0.0
  0
VERTEX
  8
Grave
  10
3.417057037354
  20
-7.225368499756
  30
0.0
  0
SEQEND
  0
POLYLINE
  8
Grave
  6
CONTINUOUS
  62
7
  40
0.050000000745
  41
0.050000000745
  66
1
  70
1
  0
VERTEX
  8
Grave
  10
9.144817352295
  20
-8.966564178467
  30
0.0
  0
VERTEX
  8
Grave
  10
10.898166656494
  20
-8.559436798096
  30
0.0
  0
VERTEX
  8
Grave
  10
11.079120635986
  20
-9.338703155518
  30
0.0
  0
VERTEX
  8
Grave
  10
9.325771331787
  20
-9.745830535889
  30
0.0
  0
SEQEND
  0
POLYLINE
  8
Grave
  6
CONTINUOUS
  62
7
  40
0.050000000745
  41
0.050000000745
  66
1
  70
1
  0
VERTEX
  8
Grave
  10
7.773471832275
  20
-3.636867523193
  30
0.0
  0
VERTEX
  8
Grave
  10
9.526821136475
  20
-3.229740142822
  30
0.0
  0
VERTEX
  8
Grave
  10
9.707775115967
  20
-4.009014129639
  30
0.0
  0
VERTEX
  8
Grave
  10
7.954418182373
  20
-4.41614151001
  30
0.0
  0
SEQEND
  0
POLYLINE
  8
Grave
  6
CONTINUOUS
  62
7
  40
0.050000000745
  41
0.050000000745
  66
1
  70
1
  0
VERTEX
  8
Grave
  10
8.032314300537
  20
-4.637996673584
  30
0.0
  0
VERTEX
  8
Grave
  10
9.785663604736
  20
-4.230869293213
  30
0.0
  0
VERTEX
  8
Grave
  10
9.966617584229
  20
-5.010135650635
  30
0.0
  0
VERTEX
  8
Grave
  10
8.213260650635
  20
-5.417263031006
  30
0.0
  0
SEQEND
  0
POLYLINE
  8
Grave
  6
CONTINUOUS
  62
7
  40
0.050000000745
  41
0.050000000745
  66
1
  70
1
  0
VERTEX
  8
Grave
  10
8.275928497314
  20
-5.612468719482
  30
0.0
  0
VERTEX
  8
Grave
  10
10.029277801514
  20
-5.205341339111
  30
0.0
  0
VERTEX
  8
Grave
  10
10.210231781006
  20
-5.984607696533
  30
0.0
  0
VERTEX
  8
Grave
  10
8.456882476807
  20
-6.391735076904
  30
0.0
  0
SEQEND
  0
POLYLINE
  8
Grave
  6
CONTINUOUS
  62
7
  40
0.050000000745
  41
0.050000000745
  66
1
  70
1
  0
VERTEX
  8
Grave
  10
8.549999237061
  20
-6.632610321045
  30
0.0
  0
VERTEX
  8
Grave
  10
10.30334854126
  20
-6.225482940674
  30
0.0
  0
VERTEX
  8
Grave
  10
10.484302520752
  20
-7.00475692749
  30
0.0
  0
VERTEX
  8
Grave
  10
8.730945587158
  20
-7.411884307861
  30
0.0
  0
SEQEND
  0
POLYLINE
  8
Grave
  6
CONTINUOUS
  62
7
  40
0.050000000745
  41
0.050000000745
  66
1
  70
1
  0
VERTEX
  8
Grave
  10
9.179775238037
  20
-7.584445953369
  30
0.0
  0
VERTEX
  8
Grave
  10
10.357280731201
  20
-7.311031341553
  30
0.0
  0
VERTEX
  8
Grave
  10
10.478801727295
  20
-7.834369659424
  30
0.0
  0
VERTEX
  8
Grave
  10
9.301296234131
  20
-8.10778427124
  30
0.0
  0
SEQEND
  0
POLYLINE
  8
Grave
  6
CONTINUOUS
  62
7
  40
0.050000000745
  41
0.050000000745
  66
1
  70
1
  0
VERTEX
  8
Grave
  10
9.316806793213
  20
-8.147815704346
  30
0.0
  0
VERTEX
  8
Grave
  10
10.494312286377
  20
-7.874393463135
  30
0.0
  0
VERTEX
  8
Grave
  10
10.615833282471
  20
-8.3977394104
  30
0.0
  0
VERTEX
  8
Grave
  10
9.438327789307
  20
-8.671154022217
  30
0.0
  0
SEQEND
  0
POLYLINE
  8
Grave
  6
CONTINUOUS
  62
7
  40
0.050000000745
  41
0.050000000745
  66
1
  70
1
  0
VERTEX
  8
Grave
  10
5.033382415771
  20
-9.906391143799
  30
0.0
  0
VERTEX
  8
Grave
  10
5.870204925537
  20
-9.693408966064
  30
0.0
  0
VERTEX
  8
Grave
  10
6.068141937256
  20
-10.46854019165
  30
0.0
  0
VERTEX
  8
Grave
  10
5.23131942749
  20
-10.681522369385
  30
0.0
  0
SEQEND
  0
POLYLINE
  8
Grave
  6
CONTINUOUS
  62
7
  40
0.050000000745
  41
0.050000000745
  66
1
  70
1
  0
VERTEX
  8
Grave
  10
3.660320281982
  20
-7.420764923096
  30
0.0
  0
VERTEX
  8
Grave
  10
4.837825775146
  20
-7.147350311279
  30
0.0
  0
VERTEX
  8
Grave
  10
4.95934677124
  20
-7.67068862915
  30
0.0
  0
VERTEX
  8
Grave
  10
3.781841278076
  20
-7.944103240967
  30
0.0
  0
SEQEND
  0
POLYLINE
  8
Grave
  6
CONTINUOUS
  62
7
  40
0.050000000745
  41
0.050000000745
  66
1
  70
1
  0
VERTEX
  8
Grave
  10
19.528003692627
  20
1.562831878662
  30
0.0
  0
VERTEX
  8
Grave
  10
21.281360626221
  20
1.969959259033
  30
0.0
  0
VERTEX
  8
Grave
  10
21.462306976318
  20
1.190685272217
  30
0.0
  0
VERTEX
  8
Grave
  10
19.708957672119
  20
0.783557891846
  30
0.0
  0
SEQEND
  0
POLYLINE
  8
Grave
  6
CONTINUOUS
  62
7
  40
0.050000000745
  41
0.050000000745
  66
1
  70
1
  0
VERTEX
  8
Grave
  10
18.5500831604
  20
5.594036102295
  30
0.0
  0
VERTEX
  8
Grave
  10
20.295146942139
  20
6.035343170166
  30
0.0
  0
VERTEX
  8
Grave
  10
20.491291046143
  20
5.259754180908
  30
0.0
  0
VERTEX
  8
Grave
  10
18.746227264404
  20
4.818454742432
  30
0.0
  0
SEQEND
  0
POLYLINE
  8
Grave
  6
CONTINUOUS
  62
7
  40
0.050000000745
  41
0.050000000745
  66
1
  70
1
  0
VERTEX
  8
Grave
  10
5.54829788208
  20
4.766910552979
  30
0.0
  0
VERTEX
  8
Grave
  10
7.301654815674
  20
5.17403793335
  30
0.0
  0
VERTEX
  8
Grave
  10
7.482601165771
  20
4.394771575928
  30
0.0
  0
VERTEX
  8
Grave
  10
5.729251861572
  20
3.987644195557
  30
0.0
  0
SEQEND
  0
POLYLINE
  8
Grave
  6
CONTINUOUS
  62
7
  40
0.050000000745
  41
0.050000000745
  66
1
  70
1
  0
VERTEX
  8
Grave
  10
5.285236358643
  20
5.743991851807
  30
0.0
  0
VERTEX
  8
Grave
  10
7.038593292236
  20
6.151119232178
  30
0.0
  0
VERTEX
  8
Grave
  10
7.219539642334
  20
5.371845245361
  30
0.0
  0
VERTEX
  8
Grave
  10
5.466190338135
  20
4.96471786499
  30
0.0
  0
SEQEND
  0
POLYLINE
  8
Grave
  6
CONTINUOUS
  62
7
  40
0.050000000745
  41
0.050000000745
  66
1
  70
1
  0
VERTEX
  8
Grave
  10
1.940166473389
  20
8.449733734131
  30
0.0
  0
VERTEX
  8
Grave
  10
3.693523406982
  20
8.856861114502
  30
0.0
  0
VERTEX
  8
Grave
  10
3.87446975708
  20
8.07759475708
  30
0.0
  0
VERTEX
  8
Grave
  10
2.121120452881
  20
7.670467376709
  30
0.0
  0
SEQEND
  0
TEXT
  8
Numbers
  62
7
  10
16.476490020752
  20
-0.657018661499
  1
1
  40
0.525003433228
  7
STANDARD
  72
5
  11
16.835590362549
  21
-0.657018661499
  31
0.0
  0
TEXT
  8
Numbers
  62
7
  10
19.024753570557
  20
6.238288879395
  1
2
  40
0.524997711182
  7
STANDARD
  72
5
  11
19.383853912354
  21
6.238288879395
  31
0.0
  0
TEXT
  8
Numbers
  62
7
  10
17.188503265381
  20
5.563745498657
  1
3
  40
0.525003433228
  7
STANDARD
  72
5
  11
17.547603607178
  21
5.563745498657
  31
0.0
  0
TEXT
  8
Numbers
  62
7
  10
15.089931488037
  20
5.151529312134
  1
4
  40
0.525003433228
  7
STANDARD
  72
5
  11
15.449031829834
  21
5.151529312134
  31
0.0
  0
TEXT
  8
Numbers
  62
7
  10
19.399501800537
  20
5.263948440552
  1
5
  40
0.525003433228
  7
STANDARD
  72
5
  11
19.758602142334
  21
5.263948440552
  31
0.0
  0
TEXT
  8
Numbers
  62
7
  10
20.298885345459
  20
1.216707229614
  1
6
  40
0.525003433228
  7
STANDARD
  72
5
  11
20.657985687256
  21
1.216707229614
  31
0.0
  0
TEXT
  8
Numbers
  62
7
  10
12.95389175415
  20
4.439514160156
  1
7
  40
0.524997711182
  7
STANDARD
  72
5
  11
13.312992095947
  21
4.439514160156
  31
0.0
  0
POLYLINE
  8
Grave
  6
CONTINUOUS
  62
7
  40
0.050000000745
  41
0.050000000745
  66
1
  70
1
  0
VERTEX
  8
Grave
  10
7.176296234131
  20
-10.161991119385
  30
0.0
  0
VERTEX
  8
Grave
  10
6.76916885376
  20
-8.408641815186
  30
0.0
  0
VERTEX
  8
Grave
  10
7.548442840576
  20
-8.227687835693
  30
0.0
  0
VERTEX
  8
Grave
  10
7.955570220947
  20
-9.981044769287
  30
0.0
  0
SEQEND
  0
POINT
  8
0
  62
7
  10
-22.664443969727
  20
12.45264339447
  1001
ACAD
  1000
TCW30POINT
  1002
{
  1070
0
  1040
0.20000000298
  1000
Point
  1070
0
  1071
0
  1040
1.0
  1040
0.0
  1000
CONTINUOUS
  1000
0
  1071
1
  1071
242
  1010
-22.664443969727
  1020
12.45264339447
  1002
}
  0
POINT
  8
0
  62
7
  10
22.664445877075
  20
-12.45263671875
  1001
ACAD
  1000
TCW30POINT
  1002
{
  1070
0
  1040
0.20000000298
  1000
Point
  1070
0
  1071
0
  1040
1.0
  1040
0.0
  1000
CONTINUOUS
  1000
0
  1071
1
  1071
242
  1010
22.664445877075
  1020
-12.45263671875
  1002
}
  0
ENDSEC
  0
EOF
