  0
SECTION
  2
HEADER
  9
$ACADVER
  1
AC1009
  9
$ANGBASE
  50
0.0
  9
$ANGDIR
  70
0
  9
$ATTDIA
  70
0
  9
$ATTMODE
  70
0
  9
$ATTREQ
  70
1
  9
$AUNITS
  70
0
  9
$AUPREC
  70
2
  9
$AXISMODE
  70
0
  9
$CECOLOR
  62
256
  9
$CELTYPE
  6
BYLAYER
  9
$CLAYER
  8
0
  9
$DIMALT
  70
0
  9
$DIMALTD
  70
2
  9
$DIMALTF
  40
0.0
  9
$DIMAPOST
  1

  9
$DIMASO
  70
1
  9
$DIMASZ
  40
4.0
  9
$DIMBLK
  1

  9
$DIMBLK1
  1

  9
$DIMBLK2
  1

  9
$DIMCEN
  40
0.09
  9
$DIMCLRD
  70
256
  9
$DIMCLRE
  70
256
  9
$DIMCLRT
  70
256
  9
$DIMDLE
  40
0.0
  9
$DIMDLI
  40
10.0
  9
$DIMEXE
  40
3.0
  9
$DIMEXO
  40
1.5
  9
$DIMGAP
  40
1.5
  9
$DIMLFAC
  40
1.0
  9
$DIMLIM
  70
0
  9
$DIMPOST
  1

  9
$DIMRND
  40
0.1
  9
$DIMSAH
  70
0
  9
$DIMSCALE
  40
1.0
  9
$DIMSE1
  70
0
  9
$DIMSE2
  70
0
  9
$DIMSHO
  70
1
  9
$DIMSOXD
  70
0
  9
$DIMSTYLE
  2
*UNNAMED
  9
$DIMTAD
  70
1
  9
$DIMTFAC
  40
1.0
  9
$DIMTIH
  70
1
  9
$DIMTIX
  70
0
  9
$DIMTM
  40
0.0
  9
$DIMTOFL
  70
1
  9
$DIMTOH
  70
1
  9
$DIMTOL
  70
0
  9
$DIMTP
  40
0.0
  9
$DIMTSZ
  40
0.0
  9
$DIMTVP
  40
0.0
  9
$DIMTXT
  40
5.0
  9
$DIMZIN
  70
8
  9
$DRAGMODE
  70
0
  9
$ELEVATION
  40
0.0
  9
$EXTMAX
  10
0.0
  20
0.0
  30
0.0
  9
$EXTMIN
  10
0.0
  20
0.0
  30
0.0
  9
$FILLETRAD
  40
1.0
  9
$FILLMODE
  70
1
  9
$INSBASE
  10
0.0
  20
0.0
  30
0.0
  9
$LIMMAX
  10
224.7106373997
  20
162.7543235519
  9
$LIMMIN
  10
-9.7622248002
  20
-3.0345689129
  9
$LTSCALE
  40
1.0
  9
$LUNITS
  70
2
  9
$LUPREC
  70
2
  9
$MENU
  1
acad
  9
$MIRRTEXT
  70
0
  9
$ORTHOMODE
  70
0
  9
$OSMODE
  70
0
  9
$PDMODE
  70
0
  9
$PDSIZE
  40
0.0
  9
$PEXTMAX
  10
0.0
  20
0.0
  30
0.0
  9
$PEXTMIN
  10
0.0
  20
0.0
  30
0.0
  9
$PLIMCHECK
  70
0
  9
$PLIMMAX
  10
0.0
  20
0.0
  9
$PLIMMIN
  10
0.0
  20
0.0
  9
$PLINEWID
  40
0.0
  9
$PUCSXDIR
  10
1.0
  20
0.0
  30
0.0
  9
$PUCSYDIR
  10
0.0
  20
1.0
  30
0.0
  9
$QTEXTMODE
  70
0
  9
$SHADEDGE
  70
3
  9
$SHADEDIF
  70
70
  9
$SKETCHINC
  40
1.0
  9
$SPLFRAME
  70
0
  9
$SPLINESEGS
  70
20
  9
$SPLINETYPE
  70
1
  9
$SURFTAB1
  70
6
  9
$SURFTAB2
  70
6
  9
$TDINDWG
  40
0.0
  9
$TDUPDATE
  40
2449702.6679593748
  9
$TDUSRTIMER
  40
0.0
  9
$TEXTSIZE
  40
0.6000000238
  9
$TEXTSTYLE
  7
STANDARD
  9
$TILEMODE
  70
1
  9
$TRACEWID
  40
1.0
  9
$UCSORG
  10
0.0
  20
0.0
  30
0.0
  9
$UCSXDIR
  10
1.0
  20
0.0
  30
0.0
  9
$UCSYDIR
  10
0.0
  20
1.0
  30
0.0
  9
$UNITMODE
  70
0
  9
$WORLDVIEW
  70
1
  9
$GRIDMODE
  70
1
  9
$PINSBASE
  10
0.0
  20
0.0
  30
0.0
  9
$PSLTSCALE
  70
1
  9
$TREEDEPTH
  70
3020
  0
ENDSEC
  0
SECTION
  2
TABLES
  0
TABLE
  2
VPORT
  70
1
  0
VPORT
  2
*ACTIVE
  70
0
  10
0.0
  20
0.0
  11
1.0
  21
1.0
  12
100.1267623901
  22
79.77838408945
  13
0.0
  23
0.0
  14
1.0
  24
1.0
  15
1.0
  25
1.0
  16
0.0
  26
0.0
  36
1.0
  17
0.0
  27
0.0
  37
0.0
  40
163.7868902683
  41
1.697619048115
  42
50.0
  43
0.0
  44
0.0
  50
0.0
  51
0.0
  71
0
  72
100
  73
1
  74
1
  75
0
  76
1
  77
0
  78
0
  0
ENDTAB
  0
TABLE
  2
LTYPE
  70
11
  0
LTYPE
  2
CONTINUOUS
  70
0
  3
CONTINUOUS
  72
65
  73
0
  40
0.0
  0
LTYPE
  2
BORDER
  70
0
  3
BORDER
  72
65
  73
6
  40
1.75
  49
0.5
  49
-0.25
  49
0.5
  49
-0.25
  49
0.0
  49
-0.25
  0
LTYPE
  2
CENTER
  70
0
  3
CENTER
  72
65
  73
4
  40
2.0
  49
1.25
  49
-0.25
  49
0.25
  49
-0.25
  0
LTYPE
  2
DASHDOT
  70
0
  3
DASHDOT
  72
65
  73
4
  40
1.0
  49
0.5
  49
-0.25
  49
0.0
  49
-0.25
  0
LTYPE
  2
DASHED
  70
0
  3
DASHED
  72
65
  73
2
  40
0.75
  49
0.5
  49
-0.25
  0
LTYPE
  2
DIVIDE
  70
0
  3
DIVIDE
  72
65
  73
6
  40
1.25
  49
0.5
  49
-0.25
  49
0.0
  49
-0.25
  49
0.0
  49
-0.25
  0
LTYPE
  2
DOT
  70
0
  3
DOT
  72
65
  73
2
  40
0.25
  49
0.0
  49
-0.25
  0
LTYPE
  2
HIDDEN
  70
0
  3
HIDDEN
  72
65
  73
2
  40
0.375
  49
0.25
  49
-0.125
  0
LTYPE
  2
PHANTOM
  70
0
  3
PHANTOM
  72
65
  73
6
  40
2.5
  49
1.25
  49
-0.25
  49
0.25
  49
-0.25
  49
0.25
  49
-0.25
  0
LTYPE
  2
$AUXILIARY
  70
0
  3
$AUXILIARY
  72
65
  73
2
  40
0.10000000149
  49
0.050000000745
  49
-0.050000000745
  0
LTYPE
  2
$INVISIBLE
  70
0
  3
$INVISIBLE
  72
65
  73
2
  40
200.0
  49
-100.0
  49
-100.0
  0
ENDTAB
  0
TABLE
  2
LAYER
  70
8
  0
LAYER
  2
0
  70
64
  6
CONTINUOUS
  62
7
  0
LAYER
  2
Church Outline
  70
64
  6
CONTINUOUS
  62
7
  0
LAYER
  2
Boundary
  70
64
  6
CONTINUOUS
  62
7
  0
LAYER
  2
Path
  70
64
  6
CONTINUOUS
  62
7
  0
LAYER
  2
Grave
  70
64
  6
CONTINUOUS
  62
7
  0
LAYER
  2
Tree
  70
64
  6
CONTINUOUS
  62
7
  0
LAYER
  2
Numbers
  70
64
  6
CONTINUOUS
  62
7
  0
LAYER
  2
Area Labels
  70
64
  6
CONTINUOUS
  62
7
  0
ENDTAB
  0
TABLE
  2
STYLE
  70
1
  0
STYLE
  2
STANDARD
  70
0
  3
txt
  4

  40
0.0
  41
1.0
  42
0.2
  50
0.0
  71
0
  0
ENDTAB
  0
ENDSEC
  0
SECTION
  2
BLOCKS
  0
BLOCK
  8
Path
  70
65
  2
*C0
  10
0.0
  20
0.0
  30
0.0
  3
*C
  0
POLYLINE
  8
Path
  6
CONTINUOUS
  62
7
  40
0.019999999553
  41
0.019999999553
  66
1
  0
VERTEX
  8
Path
  10
95.86449432373
  20
113.393211364746
  30
0.0
  0
VERTEX
  8
Path
  10
95.797536886533
  20
113.678344450474
  30
0.0
  0
VERTEX
  8
Path
  10
95.730769640605
  20
113.963029560089
  30
0.0
  0
VERTEX
  8
Path
  10
95.664382777214
  20
114.24681871748
  30
0.0
  0
VERTEX
  8
Path
  10
95.59856648763
  20
114.529263946533
  30
0.0
  0
VERTEX
  8
Path
  10
95.533510963122
  20
114.809917271137
  30
0.0
  0
VERTEX
  8
Path
  10
95.469406394958
  20
115.088330715179
  30
0.0
  0
VERTEX
  8
Path
  10
95.406442974408
  20
115.364056302547
  30
0.0
  0
VERTEX
  8
Path
  10
95.344810892741
  20
115.636646057129
  30
0.0
  0
VERTEX
  8
Path
  10
95.284700341225
  20
115.905652002811
  30
0.0
  0
VERTEX
  8
Path
  10
95.226301511129
  20
116.170626163483
  30
0.0
  0
VERTEX
  8
Path
  10
95.169804593722
  20
116.43112056303
  30
0.0
  0
VERTEX
  8
Path
  10
95.115399780273
  20
116.686687225342
  30
0.0
  0
VERTEX
  8
Path
  10
95.063277262052
  20
116.936878174305
  30
0.0
  0
VERTEX
  8
Path
  10
95.013627230326
  20
117.181245433807
  30
0.0
  0
VERTEX
  8
Path
  10
94.966639876366
  20
117.419341027737
  30
0.0
  0
VERTEX
  8
Path
  10
94.922505391439
  20
117.65071697998
  30
0.0
  0
VERTEX
  8
Path
  10
94.881413966815
  20
117.874925314426
  30
0.0
  0
VERTEX
  8
Path
  10
94.843555793762
  20
118.091518054962
  30
0.0
  0
VERTEX
  8
Path
  10
94.778299967448
  20
118.500064849854
  30
0.0
  0
VERTEX
  8
Path
  10
94.751244473616
  20
118.691239929676
  30
0.0
  0
VERTEX
  8
Path
  10
94.727953657786
  20
118.873709377289
  30
0.0
  0
VERTEX
  8
Path
  10
94.70838837258
  20
119.047727082729
  30
0.0
  0
VERTEX
  8
Path
  10
94.692509470622
  20
119.213546936035
  30
0.0
  0
VERTEX
  8
Path
  10
94.680277804534
  20
119.371422827244
  30
0.0
  0
VERTEX
  8
Path
  10
94.671654226939
  20
119.521608646393
  30
0.0
  0
VERTEX
  8
Path
  10
94.66659959046
  20
119.66435828352
  30
0.0
  0
VERTEX
  8
Path
  10
94.665074747721
  20
119.799925628662
  30
0.0
  0
VERTEX
  8
Path
  10
94.667040551345
  20
119.928564571857
  30
0.0
  0
VERTEX
  8
Path
  10
94.672457853953
  20
120.050529003143
  30
0.0
  0
VERTEX
  8
Path
  10
94.68128750817
  20
120.166072812557
  30
0.0
  0
VERTEX
  8
Path
  10
94.693490366618
  20
120.275449890137
  30
0.0
  0
VERTEX
  8
Path
  10
94.70902728192
  20
120.378914125919
  30
0.0
  0
VERTEX
  8
Path
  10
94.7278591067
  20
120.476719409943
  30
0.0
  0
VERTEX
  8
Path
  10
94.749946693579
  20
120.569119632244
  30
0.0
  0
VERTEX
  8
Path
  10
94.775250895182
  20
120.656368682861
  30
0.0
  0
VERTEX
  8
Path
  10
94.803732564131
  20
120.738720451832
  30
0.0
  0
VERTEX
  8
Path
  10
94.83535255305
  20
120.816428829193
  30
0.0
  0
VERTEX
  8
Path
  10
94.907850901286
  20
120.958930969238
  30
0.0
  0
VERTEX
  8
Path
  10
94.948614743551
  20
121.024210718473
  30
0.0
  0
VERTEX
  8
Path
  10
94.992142982483
  20
121.085731875102
  30
0.0
  0
VERTEX
  8
Path
  10
95.038179136912
  20
121.143617568016
  30
0.0
  0
VERTEX
  8
Path
  10
95.086466725667
  20
121.197990926107
  30
0.0
  0
VERTEX
  8
Path
  10
95.136749267578
  20
121.248975078265
  30
0.0
  0
VERTEX
  8
Path
  10
95.188770281474
  20
121.296693153381
  30
0.0
  0
VERTEX
  8
Path
  10
95.242273286184
  20
121.341268280347
  30
0.0
  0
VERTEX
  8
Path
  10
95.297001800537
  20
121.382823588053
  30
0.0
  0
VERTEX
  8
Path
  10
95.352699343363
  20
121.421482205391
  30
0.0
  0
VERTEX
  8
Path
  10
95.409109433492
  20
121.457367261251
  30
0.0
  0
VERTEX
  8
Path
  10
95.465975589752
  20
121.490601884524
  30
0.0
  0
VERTEX
  8
Path
  10
95.523041330973
  20
121.521309204102
  30
0.0
  0
VERTEX
  8
Path
  10
95.580050175985
  20
121.549612348874
  30
0.0
  0
VERTEX
  8
Path
  10
95.636745643616
  20
121.575634447734
  30
0.0
  0
VERTEX
  8
Path
  10
95.692871252696
  20
121.59949862957
  30
0.0
  0
VERTEX
  8
Path
  10
95.748170522054
  20
121.621328023275
  30
0.0
  0
VERTEX
  8
Path
  10
95.80238697052
  20
121.641245757739
  30
0.0
  0
VERTEX
  8
Path
  10
95.855264116923
  20
121.659374961853
  30
0.0
  0
VERTEX
  8
Path
  10
95.955974578857
  20
121.690760294596
  30
0.0
  0
VERTEX
  8
Path
  10
96.003368266106
  20
121.704242598216
  30
0.0
  0
VERTEX
  8
Path
  10
96.048836730957
  20
121.716308390299
  30
0.0
  0
VERTEX
  8
Path
  10
96.09256349659
  20
121.726960302989
  30
0.0
  0
VERTEX
  8
Path
  10
96.134732086182
  20
121.736200968424
  30
0.0
  0
VERTEX
  8
Path
  10
96.175526022911
  20
121.744033018748
  30
0.0
  0
VERTEX
  8
Path
  10
96.215128829956
  20
121.7504590861
  30
0.0
  0
VERTEX
  8
Path
  10
96.253724030495
  20
121.755481802622
  30
0.0
  0
VERTEX
  8
Path
  10
96.291495147705
  20
121.759103800456
  30
0.0
  0
VERTEX
  8
Path
  10
96.328625704765
  20
121.761327711741
  30
0.0
  0
VERTEX
  8
Path
  10
96.365299224854
  20
121.76215616862
  30
0.0
  0
VERTEX
  8
Path
  10
96.401699231148
  20
121.761591803233
  30
0.0
  0
VERTEX
  8
Path
  10
96.438009246826
  20
121.759637247721
  30
0.0
  0
VERTEX
  8
Path
  10
96.474412795067
  20
121.756295134226
  30
0.0
  0
VERTEX
  8
Path
  10
96.511093399048
  20
121.751568094889
  30
0.0
  0
VERTEX
  8
Path
  10
96.548234581947
  20
121.745458761851
  30
0.0
  0
VERTEX
  8
Path
  10
96.586019866943
  20
121.737969767253
  30
0.0
  0
VERTEX
  8
Path
  10
96.624632777214
  20
121.729103743235
  30
0.0
  0
VERTEX
  8
Path
  10
96.664256835937
  20
121.71886332194
  30
0.0
  0
VERTEX
  8
Path
  10
96.747272491455
  20
121.694269816081
  30
0.0
  0
VERTEX
  8
Path
  10
96.790987991333
  20
121.679947679679
  30
0.0
  0
VERTEX
  8
Path
  10
96.836189872742
  20
121.664415777842
  30
0.0
  0
VERTEX
  8
Path
  10
96.882802799225
  20
121.647830845992
  30
0.0
  0
VERTEX
  8
Path
  10
96.930751434326
  20
121.630349619548
  30
0.0
  0
VERTEX
  8
Path
  10
96.979960441589
  20
121.61212883393
  30
0.0
  0
VERTEX
  8
Path
  10
97.030354484558
  20
121.593325224559
  30
0.0
  0
VERTEX
  8
Path
  10
97.081858226776
  20
121.574095526854
  30
0.0
  0
VERTEX
  8
Path
  10
97.134396331787
  20
121.554596476237
  30
0.0
  0
VERTEX
  8
Path
  10
97.187893463135
  20
121.534984808127
  30
0.0
  0
VERTEX
  8
Path
  10
97.242274284363
  20
121.515417257945
  30
0.0
  0
VERTEX
  8
Path
  10
97.297463459015
  20
121.49605056111
  30
0.0
  0
VERTEX
  8
Path
  10
97.353385650635
  20
121.477041453044
  30
0.0
  0
VERTEX
  8
Path
  10
97.409965522766
  20
121.458546669165
  30
0.0
  0
VERTEX
  8
Path
  10
97.467127738953
  20
121.440722944895
  30
0.0
  0
VERTEX
  8
Path
  10
97.524796962738
  20
121.423727015654
  30
0.0
  0
VERTEX
  8
Path
  10
97.582897857666
  20
121.407715616862
  30
0.0
  0
VERTEX
  8
Path
  10
97.64135508728
  20
121.392845483939
  30
0.0
  0
VERTEX
  8
Path
  10
97.700093315125
  20
121.379273352305
  30
0.0
  0
VERTEX
  8
Path
  10
97.818111419678
  20
121.356650034587
  30
0.0
  0
VERTEX
  8
Path
  10
97.877283394178
  20
121.347881997426
  30
0.0
  0
VERTEX
  8
Path
  10
97.936691645304
  20
121.340856971741
  30
0.0
  0
VERTEX
  8
Path
  10
97.996517460823
  20
121.335549761454
  30
0.0
  0
VERTEX
  8
Path
  10
98.056942128499
  20
121.331935170492
  30
0.0
  0
VERTEX
  8
Path
  10
98.118146936099
  20
121.329988002777
  30
0.0
  0
VERTEX
  8
Path
  10
98.180313171387
  20
121.329683062236
  30
0.0
  0
VERTEX
  8
Path
  10
98.243622122129
  20
121.330995152791
  30
0.0
  0
VERTEX
  8
Path
  10
98.308255076091
  20
121.333899078369
  30
0.0
  0
VERTEX
  8
Path
  10
98.374393321037
  20
121.338369642893
  30
0.0
  0
VERTEX
  8
Path
  10
98.442218144735
  20
121.344381650289
  30
0.0
  0
VERTEX
  8
Path
  10
98.511910834948
  20
121.35190990448
  30
0.0
  0
VERTEX
  8
Path
  10
98.583652679443
  20
121.360929209391
  30
0.0
  0
VERTEX
  8
Path
  10
98.657624965986
  20
121.371414368947
  30
0.0
  0
VERTEX
  8
Path
  10
98.73400898234
  20
121.383340187073
  30
0.0
  0
VERTEX
  8
Path
  10
98.812986016273
  20
121.396681467692
  30
0.0
  0
VERTEX
  8
Path
  10
98.89473735555
  20
121.41141301473
  30
0.0
  0
VERTEX
  8
Path
  10
98.979444287936
  20
121.427509632111
  30
0.0
  0
VERTEX
  8
Path
  10
99.067288101196
  20
121.444946123759
  30
0.0
  0
VERTEX
  8
Path
  10
99.253111521403
  20
121.483737945557
  30
0.0
  0
VERTEX
  8
Path
  10
99.351365049839
  20
121.505035284996
  30
0.0
  0
VERTEX
  8
Path
  10
99.452948685964
  20
121.527526123047
  30
0.0
  0
VERTEX
  8
Path
  10
99.557511793296
  20
121.551139672279
  30
0.0
  0
VERTEX
  8
Path
  10
99.664703735352
  20
121.575805145264
  30
0.0
  0
VERTEX
  8
Path
  10
99.77417387565
  20
121.60145175457
  30
0.0
  0
VERTEX
  8
Path
  10
99.885571577708
  20
121.628008712769
  30
0.0
  0
VERTEX
  8
Path
  10
99.998546205044
  20
121.65540523243
  30
0.0
  0
VERTEX
  8
Path
  10
100.112747121175
  20
121.683570526123
  30
0.0
  0
VERTEX
  8
Path
  10
100.22782368962
  20
121.712433806419
  30
0.0
  0
VERTEX
  8
Path
  10
100.343425273895
  20
121.741924285889
  30
0.0
  0
VERTEX
  8
Path
  10
100.45920123752
  20
121.771971177101
  30
0.0
  0
VERTEX
  8
Path
  10
100.57480094401
  20
121.802503692627
  30
0.0
  0
VERTEX
  8
Path
  10
100.689873756886
  20
121.833451045036
  30
0.0
  0
VERTEX
  8
Path
  10
100.804069039663
  20
121.864742446899
  30
0.0
  0
VERTEX
  8
Path
  10
100.91703615586
  20
121.896307110786
  30
0.0
  0
VERTEX
  8
Path
  10
101.028424468994
  20
121.928074249268
  30
0.0
  0
VERTEX
  8
Path
  10
101.137883342584
  20
121.959973074913
  30
0.0
  0
VERTEX
  8
Path
  10
101.245062140147
  20
121.991932800293
  30
0.0
  0
VERTEX
  8
Path
  10
101.451176961263
  20
122.055751800537
  30
0.0
  0
VERTEX
  8
Path
  10
101.549492869536
  20
122.087495181719
  30
0.0
  0
VERTEX
  8
Path
  10
101.644613101959
  20
122.119170399984
  30
0.0
  0
VERTEX
  8
Path
  10
101.736673968156
  20
122.150860754967
  30
0.0
  0
VERTEX
  8
Path
  10
101.825811777751
  20
122.182649546305
  30
0.0
  0
VERTEX
  8
Path
  10
101.912162840366
  20
122.214620073636
  30
0.0
  0
VERTEX
  8
Path
  10
101.995863465627
  20
122.246855636597
  30
0.0
  0
VERTEX
  8
Path
  10
102.077049963156
  20
122.279439534823
  30
0.0
  0
VERTEX
  8
Path
  10
102.155858642578
  20
122.312455067952
  30
0.0
  0
VERTEX
  8
Path
  10
102.232425813516
  20
122.345985535622
  30
0.0
  0
VERTEX
  8
Path
  10
102.306887785594
  20
122.380114237467
  30
0.0
  0
VERTEX
  8
Path
  10
102.379380868435
  20
122.414924473127
  30
0.0
  0
VERTEX
  8
Path
  10
102.450041371663
  20
122.450499542236
  30
0.0
  0
VERTEX
  8
Path
  10
102.519005604903
  20
122.486922744433
  30
0.0
  0
VERTEX
  8
Path
  10
102.586409877777
  20
122.524277379354
  30
0.0
  0
VERTEX
  8
Path
  10
102.65239049991
  20
122.562646746635
  30
0.0
  0
VERTEX
  8
Path
  10
102.717083780924
  20
122.602114145915
  30
0.0
  0
VERTEX
  8
Path
  10
102.780626030445
  20
122.642762876829
  30
0.0
  0
VERTEX
  8
Path
  10
102.843153558095
  20
122.684676239014
  30
0.0
  0
VERTEX
  8
Path
  10
102.965709686279
  20
122.772630055745
  30
0.0
  0
VERTEX
  8
Path
  10
103.026015953859
  20
122.818780314604
  30
0.0
  0
VERTEX
  8
Path
  10
103.085883024851
  20
122.866187633514
  30
0.0
  0
VERTEX
  8
Path
  10
103.14547749567
  20
122.914594542344
  30
0.0
  0
VERTEX
  8
Path
  10
103.204965962728
  20
122.963743570964
  30
0.0
  0
VERTEX
  8
Path
  10
103.264515022437
  20
123.013377249241
  30
0.0
  0
VERTEX
  8
Path
  10
103.32429127121
  20
123.063238107045
  30
0.0
  0
VERTEX
  8
Path
  10
103.384461305459
  20
123.113068674246
  30
0.0
  0
VERTEX
  8
Path
  10
103.445191721598
  20
123.162611480713
  30
0.0
  0
VERTEX
  8
Path
  10
103.506649116039
  20
123.211609056314
  30
0.0
  0
VERTEX
  8
Path
  10
103.569000085195
  20
123.259803930918
  30
0.0
  0
VERTEX
  8
Path
  10
103.632411225478
  20
123.306938634396
  30
0.0
  0
VERTEX
  8
Path
  10
103.697049133301
  20
123.352755696615
  30
0.0
  0
VERTEX
  8
Path
  10
103.763080405076
  20
123.396997647444
  30
0.0
  0
VERTEX
  8
Path
  10
103.830671637217
  20
123.439407016754
  30
0.0
  0
VERTEX
  8
Path
  10
103.899989426136
  20
123.479726334413
  30
0.0
  0
VERTEX
  8
Path
  10
103.971200368245
  20
123.51769813029
  30
0.0
  0
VERTEX
  8
Path
  10
104.044471059958
  20
123.553064934254
  30
0.0
  0
VERTEX
  8
Path
  10
104.119968097687
  20
123.585569276174
  30
0.0
  0
VERTEX
  8
Path
  10
104.278307596842
  20
123.640960693359
  30
0.0
  0
VERTEX
  8
Path
  10
104.361396166166
  20
123.663369429429
  30
0.0
  0
VERTEX
  8
Path
  10
104.446854957581
  20
123.682105429331
  30
0.0
  0
VERTEX
  8
Path
  10
104.534328057925
  20
123.697130829334
  30
0.0
  0
VERTEX
  8
Path
  10
104.623459554036
  20
123.708407765706
  30
0.0
  0
VERTEX
  8
Path
  10
104.713893532753
  20
123.715898374716
  30
0.0
  0
VERTEX
  8
Path
  10
104.805274080912
  20
123.719564792633
  30
0.0
  0
VERTEX
  8
Path
  10
104.897245285352
  20
123.719369155725
  30
0.0
  0
VERTEX
  8
Path
  10
104.98945123291
  20
123.71527360026
  30
0.0
  0
VERTEX
  8
Path
  10
105.081536010424
  20
123.707240262508
  30
0.0
  0
VERTEX
  8
Path
  10
105.173143704732
  20
123.695231278737
  30
0.0
  0
VERTEX
  8
Path
  10
105.263918402672
  20
123.679208785216
  30
0.0
  0
VERTEX
  8
Path
  10
105.353504191081
  20
123.659134918213
  30
0.0
  0
VERTEX
  8
Path
  10
105.441545156797
  20
123.634971813997
  30
0.0
  0
VERTEX
  8
Path
  10
105.527685386658
  20
123.606681608836
  30
0.0
  0
VERTEX
  8
Path
  10
105.611568967501
  20
123.574226438999
  30
0.0
  0
VERTEX
  8
Path
  10
105.692839986165
  20
123.537568440755
  30
0.0
  0
VERTEX
  8
Path
  10
105.771142529488
  20
123.496669750373
  30
0.0
  0
VERTEX
  8
Path
  10
105.846120684306
  20
123.45149250412
  30
0.0
  0
VERTEX
  8
Path
  10
105.984680175781
  20
123.348150889079
  30
0.0
  0
VERTEX
  8
Path
  10
106.047632984797
  20
123.289963801543
  30
0.0
  0
VERTEX
  8
Path
  10
106.106337544759
  20
123.227664755503
  30
0.0
  0
VERTEX
  8
Path
  10
106.160937734604
  20
123.161533939521
  30
0.0
  0
VERTEX
  8
Path
  10
106.211577433268
  20
123.091851542155
  30
0.0
  0
VERTEX
  8
Path
  10
106.258400519689
  20
123.018897751967
  30
0.0
  0
VERTEX
  8
Path
  10
106.301550872803
  20
122.942952757518
  30
0.0
  0
VERTEX
  8
Path
  10
106.341172371546
  20
122.864296747367
  30
0.0
  0
VERTEX
  8
Path
  10
106.377408894857
  20
122.783209910075
  30
0.0
  0
VERTEX
  8
Path
  10
106.410404321671
  20
122.699972434203
  30
0.0
  0
VERTEX
  8
Path
  10
106.440302530924
  20
122.614864508311
  30
0.0
  0
VERTEX
  8
Path
  10
106.467247401555
  20
122.52816632096
  30
0.0
  0
VERTEX
  8
Path
  10
106.4913828125
  20
122.44015806071
  30
0.0
  0
VERTEX
  8
Path
  10
106.512852642695
  20
122.351119916121
  30
0.0
  0
VERTEX
  8
Path
  10
106.531800771077
  20
122.261332075755
  30
0.0
  0
VERTEX
  8
Path
  10
106.548371076584
  20
122.171074728171
  30
0.0
  0
VERTEX
  8
Path
  10
106.562707438151
  20
122.08062806193
  30
0.0
  0
VERTEX
  8
Path
  10
106.574953734716
  20
121.990272265593
  30
0.0
  0
VERTEX
  8
Path
  10
106.585253845215
  20
121.90028752772
  30
0.0
  0
VERTEX
  8
Path
  10
106.600591023763
  20
121.722551981608
  30
0.0
  0
VERTEX
  8
Path
  10
106.605919636567
  20
121.635298445066
  30
0.0
  0
VERTEX
  8
Path
  10
106.609900300344
  20
121.549158088684
  30
0.0
  0
VERTEX
  8
Path
  10
106.61269961532
  20
121.464032468478
  30
0.0
  0
VERTEX
  8
Path
  10
106.614484181722
  20
121.379823140462
  30
0.0
  0
VERTEX
  8
Path
  10
106.615420599778
  20
121.296431660652
  30
0.0
  0
VERTEX
  8
Path
  10
106.615675469716
  20
121.213759585063
  30
0.0
  0
VERTEX
  8
Path
  10
106.615415391763
  20
121.131708469709
  30
0.0
  0
VERTEX
  8
Path
  10
106.614806966146
  20
121.050179870605
  30
0.0
  0
VERTEX
  8
Path
  10
106.614016793092
  20
120.969075343768
  30
0.0
  0
VERTEX
  8
Path
  10
106.613211472829
  20
120.888296445211
  30
0.0
  0
VERTEX
  8
Path
  10
106.612557605584
  20
120.807744730949
  30
0.0
  0
VERTEX
  8
Path
  10
106.612221791585
  20
120.727321756999
  30
0.0
  0
VERTEX
  8
Path
  10
106.612370631059
  20
120.646929079374
  30
0.0
  0
VERTEX
  8
Path
  10
106.613170724233
  20
120.566468254089
  30
0.0
  0
VERTEX
  8
Path
  10
106.614788671335
  20
120.485840837161
  30
0.0
  0
VERTEX
  8
Path
  10
106.617391072591
  20
120.404948384603
  30
0.0
  0
VERTEX
  8
Path
  10
106.62114452823
  20
120.323692452431
  30
0.0
  0
VERTEX
  8
Path
  10
106.626215638479
  20
120.241974596659
  30
0.0
  0
VERTEX
  8
Path
  10
106.640977223714
  20
120.076759338379
  30
0.0
  0
VERTEX
  8
Path
  10
106.650970608075
  20
119.993119318326
  30
0.0
  0
VERTEX
  8
Path
  10
106.662766301473
  20
119.908949221293
  30
0.0
  0
VERTEX
  8
Path
  10
106.676349157651
  20
119.824476225853
  30
0.0
  0
VERTEX
  8
Path
  10
106.691704030355
  20
119.739927510579
  30
0.0
  0
VERTEX
  8
Path
  10
106.708815773328
  20
119.655530254046
  30
0.0
  0
VERTEX
  8
Path
  10
106.727669240316
  20
119.571511634827
  30
0.0
  0
VERTEX
  8
Path
  10
106.748249285062
  20
119.488098831495
  30
0.0
  0
VERTEX
  8
Path
  10
106.770540761312
  20
119.405519022624
  30
0.0
  0
VERTEX
  8
Path
  10
106.794528522809
  20
119.323999386787
  30
0.0
  0
VERTEX
  8
Path
  10
106.820197423299
  20
119.243767102559
  30
0.0
  0
VERTEX
  8
Path
  10
106.847532316526
  20
119.165049348513
  30
0.0
  0
VERTEX
  8
Path
  10
106.876518056234
  20
119.088073303223
  30
0.0
  0
VERTEX
  8
Path
  10
106.907139496168
  20
119.013066145261
  30
0.0
  0
VERTEX
  8
Path
  10
106.939381490072
  20
118.940255053202
  30
0.0
  0
VERTEX
  8
Path
  10
106.973228891691
  20
118.86986720562
  30
0.0
  0
VERTEX
  8
Path
  10
107.008666554769
  20
118.802129781087
  30
0.0
  0
VERTEX
  8
Path
  10
107.045679333051
  20
118.737269958178
  30
0.0
  0
VERTEX
  8
Path
  10
107.084252080282
  20
118.675514915466
  30
0.0
  0
VERTEX
  8
Path
  10
107.166016896566
  20
118.562227884928
  30
0.0
  0
VERTEX
  8
Path
  10
107.209224109173
  20
118.511102294604
  30
0.0
  0
VERTEX
  8
Path
  10
107.254203322093
  20
118.463702440898
  30
0.0
  0
VERTEX
  8
Path
  10
107.301212005456
  20
118.419967744509
  30
0.0
  0
VERTEX
  8
Path
  10
107.350507629395
  20
118.379837626139
  30
0.0
  0
VERTEX
  8
Path
  10
107.402347664038
  20
118.343251506488
  30
0.0
  0
VERTEX
  8
Path
  10
107.456989579519
  20
118.310148806254
  30
0.0
  0
VERTEX
  8
Path
  10
107.514690845966
  20
118.280468946139
  30
0.0
  0
VERTEX
  8
Path
  10
107.575708933512
  20
118.254151346842
  30
0.0
  0
VERTEX
  8
Path
  10
107.640301312288
  20
118.231135429064
  30
0.0
  0
VERTEX
  8
Path
  10
107.708725452423
  20
118.211360613505
  30
0.0
  0
VERTEX
  8
Path
  10
107.78123882405
  20
118.194766320864
  30
0.0
  0
VERTEX
  8
Path
  10
107.858098897298
  20
118.181291971842
  30
0.0
  0
VERTEX
  8
Path
  10
107.9395631423
  20
118.170876987139
  30
0.0
  0
VERTEX
  8
Path
  10
108.025889029185
  20
118.163460787455
  30
0.0
  0
VERTEX
  8
Path
  10
108.117334028085
  20
118.15898279349
  30
0.0
  0
VERTEX
  8
Path
  10
108.214155609131
  20
118.157382425944
  30
0.0
  0
VERTEX
  8
Path
  10
108.316611242453
  20
118.158599105517
  30
0.0
  0
VERTEX
  8
Path
  10
108.424958398183
  20
118.162572252909
  30
0.0
  0
VERTEX
  8
Path
  10
108.660357157389
  20
118.178545633952
  30
0.0
  0
VERTEX
  8
Path
  10
108.787839139938
  20
118.190429756641
  30
0.0
  0
VERTEX
  8
Path
  10
108.921735158285
  20
118.204858315786
  30
0.0
  0
VERTEX
  8
Path
  10
109.061795315425
  20
118.22180101792
  30
0.0
  0
VERTEX
  8
Path
  10
109.207769714355
  20
118.24122756958
  30
0.0
  0
VERTEX
  8
Path
  10
109.359408458074
  20
118.263107677301
  30
0.0
  0
VERTEX
  8
Path
  10
109.516461649577
  20
118.287411047618
  30
0.0
  0
VERTEX
  8
Path
  10
109.678679391861
  20
118.314107387066
  30
0.0
  0
VERTEX
  8
Path
  10
109.845811787923
  20
118.343166402181
  30
0.0
  0
VERTEX
  8
Path
  10
110.01760894076
  20
118.374557799498
  30
0.0
  0
VERTEX
  8
Path
  10
110.193820953369
  20
118.408251285553
  30
0.0
  0
VERTEX
  8
Path
  10
110.374197928747
  20
118.444216566881
  30
0.0
  0
VERTEX
  8
Path
  10
110.558489969889
  20
118.482423350016
  30
0.0
  0
VERTEX
  8
Path
  10
110.746447179794
  20
118.522841341496
  30
0.0
  0
VERTEX
  8
Path
  10
110.937819661458
  20
118.565440247854
  30
0.0
  0
VERTEX
  8
Path
  10
111.132357517878
  20
118.610189775626
  30
0.0
  0
VERTEX
  8
Path
  10
111.329810852051
  20
118.657059631348
  30
0.0
  0
VERTEX
  8
Path
  10
111.529929766973
  20
118.706019521554
  30
0.0
  0
VERTEX
  8
Path
  10
111.732464365641
  20
118.757039152781
  30
0.0
  0
VERTEX
  8
Path
  10
112.143781026204
  20
118.865136464437
  30
0.0
  0
VERTEX
  8
Path
  10
112.352086011887
  20
118.922110647043
  30
0.0
  0
VERTEX
  8
Path
  10
112.561943400065
  20
118.980765931447
  30
0.0
  0
VERTEX
  8
Path
  10
112.773239600499
  20
119.040814558824
  30
0.0
  0
VERTEX
  8
Path
  10
112.985861022949
  20
119.101968770345
  30
0.0
  0
VERTEX
  8
Path
  10
113.199694077174
  20
119.163940807184
  30
0.0
  0
VERTEX
  8
Path
  10
113.414625172933
  20
119.226442910512
  30
0.0
  0
VERTEX
  8
Path
  10
113.630540719986
  20
119.289187321504
  30
0.0
  0
VERTEX
  8
Path
  10
113.847327128092
  20
119.351886281331
  30
0.0
  0
VERTEX
  8
Path
  10
114.064870807012
  20
119.414252031167
  30
0.0
  0
VERTEX
  8
Path
  10
114.283058166504
  20
119.475996812185
  30
0.0
  0
VERTEX
  8
Path
  10
114.501775616328
  20
119.536832865556
  30
0.0
  0
VERTEX
  8
Path
  10
114.720909566243
  20
119.596472432454
  30
0.0
  0
VERTEX
  8
Path
  10
114.94034642601
  20
119.654627754052
  30
0.0
  0
VERTEX
  8
Path
  10
115.159972605387
  20
119.711011071523
  30
0.0
  0
VERTEX
  8
Path
  10
115.379674514135
  20
119.765334626039
  30
0.0
  0
VERTEX
  8
Path
  10
115.599338562012
  20
119.817310658773
  30
0.0
  0
VERTEX
  8
Path
  10
115.818851158778
  20
119.866651410898
  30
0.0
  0
VERTEX
  8
Path
  10
116.038098714193
  20
119.913069123586
  30
0.0
  0
VERTEX
  8
Path
  10
116.475344340007
  20
119.995984395345
  30
0.0
  0
VERTEX
  8
Path
  10
116.693083677292
  20
120.031924105803
  30
0.0
  0
VERTEX
  8
Path
  10
116.909914296468
  20
120.063895755768
  30
0.0
  0
VERTEX
  8
Path
  10
117.125533291499
  20
120.091717600664
  30
0.0
  0
VERTEX
  8
Path
  10
117.339637756348
  20
120.115207895915
  30
0.0
  0
VERTEX
  8
Path
  10
117.551924784978
  20
120.134184896946
  30
0.0
  0
VERTEX
  8
Path
  10
117.762091471354
  20
120.148466859182
  30
0.0
  0
VERTEX
  8
Path
  10
117.969834909439
  20
120.157872038047
  30
0.0
  0
VERTEX
  8
Path
  10
118.174852193197
  20
120.162218688965
  30
0.0
  0
VERTEX
  8
Path
  10
118.37684041659
  20
120.161325067361
  30
0.0
  0
VERTEX
  8
Path
  10
118.575496673584
  20
120.15500942866
  30
0.0
  0
VERTEX
  8
Path
  10
118.770518058141
  20
120.143090028286
  30
0.0
  0
VERTEX
  8
Path
  10
118.961601664225
  20
120.125385121663
  30
0.0
  0
VERTEX
  8
Path
  10
119.1484445858
  20
120.101712964217
  30
0.0
  0
VERTEX
  8
Path
  10
119.330743916829
  20
120.071891811371
  30
0.0
  0
VERTEX
  8
Path
  10
119.508196751277
  20
120.03573991855
  30
0.0
  0
VERTEX
  8
Path
  10
119.680500183105
  20
119.993075541178
  30
0.0
  0
VERTEX
  8
Path
  10
119.847351306279
  20
119.943716934681
  30
0.0
  0
VERTEX
  8
Path
  10
120.008447214762
  20
119.887482354482
  30
0.0
  0
VERTEX
  8
Path
  10
120.312161763509
  20
119.753658294678
  30
0.0
  0
VERTEX
  8
Path
  10
120.454281993866
  20
119.675782354514
  30
0.0
  0
VERTEX
  8
Path
  10
120.590079798381
  20
119.590765633901
  30
0.0
  0
VERTEX
  8
Path
  10
120.719896684011
  20
119.498888559818
  30
0.0
  0
VERTEX
  8
Path
  10
120.844074157715
  20
119.400431559245
  30
0.0
  0
VERTEX
  8
Path
  10
120.962953726451
  20
119.29567505916
  30
0.0
  0
VERTEX
  8
Path
  10
121.076876897176
  20
119.184899486542
  30
0.0
  0
VERTEX
  8
Path
  10
121.186185176849
  20
119.06838526837
  30
0.0
  0
VERTEX
  8
Path
  10
121.291220072428
  20
118.946412831624
  30
0.0
  0
VERTEX
  8
Path
  10
121.392323090871
  20
118.819262603283
  30
0.0
  0
VERTEX
  8
Path
  10
121.489835739136
  20
118.687215010325
  30
0.0
  0
VERTEX
  8
Path
  10
121.58409952418
  20
118.55055047973
  30
0.0
  0
VERTEX
  8
Path
  10
121.675455952962
  20
118.409549438477
  30
0.0
  0
VERTEX
  8
Path
  10
121.76424653244
  20
118.264492313544
  30
0.0
  0
VERTEX
  8
Path
  10
121.850812769572
  20
118.115659531911
  30
0.0
  0
VERTEX
  8
Path
  10
121.935496171316
  20
117.963331520557
  30
0.0
  0
VERTEX
  8
Path
  10
122.018638244629
  20
117.807788706462
  30
0.0
  0
VERTEX
  8
Path
  10
122.10058049647
  20
117.649311516603
  30
0.0
  0
VERTEX
  8
Path
  10
122.181664433797
  20
117.48818037796
  30
0.0
  0
VERTEX
  8
Path
  10
122.342623392741
  20
117.15907796224
  30
0.0
  0
VERTEX
  8
Path
  10
122.423127402941
  20
116.991633869966
  30
0.0
  0
VERTEX
  8
Path
  10
122.503814974467
  20
116.822455521901
  30
0.0
  0
VERTEX
  8
Path
  10
122.584703462283
  20
116.651621330102
  30
0.0
  0
VERTEX
  8
Path
  10
122.665810221354
  20
116.479209706624
  30
0.0
  0
VERTEX
  8
Path
  10
122.747152606646
  20
116.305299063524
  30
0.0
  0
VERTEX
  8
Path
  10
122.828747973124
  20
116.129967812856
  30
0.0
  0
VERTEX
  8
Path
  10
122.910613675753
  20
115.953294366678
  30
0.0
  0
VERTEX
  8
Path
  10
122.992767069499
  20
115.775357137044
  30
0.0
  0
VERTEX
  8
Path
  10
123.075225509326
  20
115.596234536012
  30
0.0
  0
VERTEX
  8
Path
  10
123.158006350199
  20
115.416004975637
  30
0.0
  0
VERTEX
  8
Path
  10
123.241126947085
  20
115.234746867975
  30
0.0
  0
VERTEX
  8
Path
  10
123.324604654948
  20
115.052538625081
  30
0.0
  0
VERTEX
  8
Path
  10
123.408456828753
  20
114.869458659013
  30
0.0
  0
VERTEX
  8
Path
  10
123.492700823466
  20
114.685585381826
  30
0.0
  0
VERTEX
  8
Path
  10
123.577353994052
  20
114.500997205575
  30
0.0
  0
VERTEX
  8
Path
  10
123.662433695475
  20
114.315772542318
  30
0.0
  0
VERTEX
  8
Path
  10
123.747957282702
  20
114.129989804109
  30
0.0
  0
VERTEX
  8
Path
  10
123.833942110697
  20
113.943727403005
  30
0.0
  0
VERTEX
  8
Path
  10
124.007364908854
  20
113.570077260335
  30
0.0
  0
VERTEX
  8
Path
  10
124.094823650201
  20
113.382869733016
  30
0.0
  0
VERTEX
  8
Path
  10
124.182729419708
  20
113.19563653183
  30
0.0
  0
VERTEX
  8
Path
  10
124.271015939871
  20
113.008596409639
  30
0.0
  0
VERTEX
  8
Path
  10
124.359616933187
  20
112.821968119303
  30
0.0
  0
VERTEX
  8
Path
  10
124.44846612215
  20
112.635970413685
  30
0.0
  0
VERTEX
  8
Path
  10
124.537497229258
  20
112.450822045644
  30
0.0
  0
VERTEX
  8
Path
  10
124.626643977006
  20
112.266741768042
  30
0.0
  0
VERTEX
  8
Path
  10
124.715840087891
  20
112.08394833374
  30
0.0
  0
VERTEX
  8
Path
  10
124.805019284407
  20
111.902660495599
  30
0.0
  0
VERTEX
  8
Path
  10
124.894115289052
  20
111.72309700648
  30
0.0
  0
VERTEX
  8
Path
  10
124.983061824322
  20
111.545476619244
  30
0.0
  0
VERTEX
  8
Path
  10
125.071792612712
  20
111.370018086751
  30
0.0
  0
VERTEX
  8
Path
  10
125.160241376718
  20
111.196940161864
  30
0.0
  0
VERTEX
  8
Path
  10
125.248341838837
  20
111.026461597443
  30
0.0
  0
VERTEX
  8
Path
  10
125.336027721564
  20
110.858801146348
  30
0.0
  0
VERTEX
  8
Path
  10
125.423232747396
  20
110.694177561442
  30
0.0
  0
VERTEX
  8
Path
  10
125.509890638828
  20
110.532809595585
  30
0.0
  0
VERTEX
  8
Path
  10
125.595935118357
  20
110.374916001638
  30
0.0
  0
VERTEX
  8
Path
  10
125.765918731689
  20
110.070426940918
  30
0.0
  0
VERTEX
  8
Path
  10
125.849732841333
  20
109.924220381101
  30
0.0
  0
VERTEX
  8
Path
  10
125.932713614146
  20
109.78207161204
  30
0.0
  0
VERTEX
  8
Path
  10
126.014839957714
  20
109.643907793999
  30
0.0
  0
VERTEX
  8
Path
  10
126.096090779622
  20
109.50965608724
  30
0.0
  0
VERTEX
  8
Path
  10
126.176444987456
  20
109.379243652026
  30
0.0
  0
VERTEX
  8
Path
  10
126.2558814888
  20
109.252597648621
  30
0.0
  0
VERTEX
  8
Path
  10
126.33437919124
  20
109.129645237287
  30
0.0
  0
VERTEX
  8
Path
  10
126.41191700236
  20
109.010313578288
  30
0.0
  0
VERTEX
  8
Path
  10
126.488473829746
  20
108.894529831886
  30
0.0
  0
VERTEX
  8
Path
  10
126.564028580983
  20
108.782221158346
  30
0.0
  0
VERTEX
  8
Path
  10
126.638560163657
  20
108.673314717929
  30
0.0
  0
VERTEX
  8
Path
  10
126.712047485352
  20
108.567737670898
  30
0.0
  0
VERTEX
  8
Path
  10
126.784469453653
  20
108.465417177518
  30
0.0
  0
VERTEX
  8
Path
  10
126.855804976145
  20
108.366280398051
  30
0.0
  0
VERTEX
  8
Path
  10
126.926032960415
  20
108.27025449276
  30
0.0
  0
VERTEX
  8
Path
  10
126.995132314046
  20
108.177266621908
  30
0.0
  0
VERTEX
  8
Path
  10
127.063081944625
  20
108.087243945758
  30
0.0
  0
VERTEX
  8
Path
  10
127.129860759735
  20
108.000113624573
  30
0.0
  0
VERTEX
  8
Path
  10
127.259821573893
  20
107.834238688151
  30
0.0
  0
VERTEX
  8
Path
  10
127.32298632892
  20
107.75534425052
  30
0.0
  0
VERTEX
  8
Path
  10
127.385045543671
  20
107.679025951386
  30
0.0
  0
VERTEX
  8
Path
  10
127.446127770583
  20
107.605186093489
  30
0.0
  0
VERTEX
  8
Path
  10
127.506361562093
  20
107.533726979574
  30
0.0
  0
VERTEX
  8
Path
  10
127.565875470638
  20
107.46455091238
  30
0.0
  0
VERTEX
  8
Path
  10
127.624798048655
  20
107.397560194651
  30
0.0
  0
VERTEX
  8
Path
  10
127.683257848581
  20
107.332657129129
  30
0.0
  0
VERTEX
  8
Path
  10
127.741383422852
  20
107.269744018555
  30
0.0
  0
VERTEX
  8
Path
  10
127.799303323905
  20
107.208723165671
  30
0.0
  0
VERTEX
  8
Path
  10
127.857146104177
  20
107.14949687322
  30
0.0
  0
VERTEX
  8
Path
  10
127.915040316105
  20
107.091967443943
  30
0.0
  0
VERTEX
  8
Path
  10
127.973114512126
  20
107.036037180583
  30
0.0
  0
VERTEX
  8
Path
  10
128.031497244676
  20
106.981608385881
  30
0.0
  0
VERTEX
  8
Path
  10
128.090317066193
  20
106.928583362579
  30
0.0
  0
VERTEX
  8
Path
  10
128.149702529112
  20
106.87686441342
  30
0.0
  0
VERTEX
  8
Path
  10
128.209782185872
  20
106.826353841146
  30
0.0
  0
VERTEX
  8
Path
  10
128.270684588909
  20
106.776953948498
  30
0.0
  0
VERTEX
  8
Path
  10
128.33253829066
  20
106.728567038218
  30
0.0
  0
VERTEX
  8
Path
  10
128.459613800049
  20
106.634441375732
  30
0.0
  0
VERTEX
  8
Path
  10
128.525417466323
  20
106.588622704983
  30
0.0
  0
VERTEX
  8
Path
  10
128.594635163625
  20
106.544119083405
  30
0.0
  0
VERTEX
  8
Path
  10
128.669343966961
  20
106.501525669575
  30
0.0
  0
VERTEX
  8
Path
  10
128.751620951335
  20
106.46143762207
  30
0.0
  0
VERTEX
  8
Path
  10
128.843543191751
  20
106.424450099468
  30
0.0
  0
VERTEX
  8
Path
  10
128.947187763214
  20
106.391158260345
  30
0.0
  0
VERTEX
  8
Path
  10
129.064631740729
  20
106.362157263279
  30
0.0
  0
VERTEX
  8
Path
  10
129.1979521993
  20
106.338042266846
  30
0.0
  0
VERTEX
  8
Path
  10
129.349226213932
  20
106.319408429623
  30
0.0
  0
VERTEX
  8
Path
  10
129.520530859629
  20
106.306850910187
  30
0.0
  0
VERTEX
  8
Path
  10
129.713943211397
  20
106.300964867115
  30
0.0
  0
VERTEX
  8
Path
  10
129.931540344238
  20
106.302345458984
  30
0.0
  0
VERTEX
  8
Path
  10
130.175399333159
  20
106.311587844372
  30
0.0
  0
VERTEX
  8
Path
  10
130.447597253164
  20
106.329287181854
  30
0.0
  0
VERTEX
  8
Path
  10
130.750211179256
  20
106.356038630009
  30
0.0
  0
VERTEX
  8
Path
  10
131.085318186442
  20
106.392437347412
  30
0.0
  0
VERTEX
  8
Path
  10
131.454995349725
  20
106.439078492641
  30
0.0
  0
VERTEX
  8
Path
  10
131.86131974411
  20
106.496557224274
  30
0.0
  0
VERTEX
  8
Path
  10
132.792218526204
  20
106.646408081055
  30
0.0
  0
VERTEX
  8
Path
  10
133.31997243309
  20
106.739709764481
  30
0.0
  0
VERTEX
  8
Path
  10
133.8868340861
  20
106.844665115356
  30
0.0
  0
VERTEX
  8
Path
  10
134.489032775243
  20
106.960304738998
  30
0.0
  0
VERTEX
  8
Path
  10
135.122797790527
  20
107.085659240723
  30
0.0
  0
VERTEX
  8
Path
  10
135.784358421961
  20
107.219759225845
  30
0.0
  0
VERTEX
  8
Path
  10
136.469943959554
  20
107.361635299683
  30
0.0
  0
VERTEX
  8
Path
  10
137.175783693314
  20
107.510318067551
  30
0.0
  0
VERTEX
  8
Path
  10
137.898106913249
  20
107.664838134766
  30
0.0
  0
VERTEX
  8
Path
  10
138.633142909368
  20
107.824226106644
  30
0.0
  0
VERTEX
  8
Path
  10
139.37712097168
  20
107.987512588501
  30
0.0
  0
VERTEX
  8
Path
  10
140.126270390193
  20
108.153728185654
  30
0.0
  0
VERTEX
  8
Path
  10
140.876820454915
  20
108.321903503418
  30
0.0
  0
VERTEX
  8
Path
  10
141.625000455856
  20
108.49106914711
  30
0.0
  0
VERTEX
  8
Path
  10
142.367039683024
  20
108.660255722046
  30
0.0
  0
VERTEX
  8
Path
  10
143.099167426427
  20
108.828493833542
  30
0.0
  0
VERTEX
  8
Path
  10
143.817612976074
  20
108.994814086914
  30
0.0
  0
VERTEX
  8
Path
  10
144.518605621974
  20
109.158247087479
  30
0.0
  0
VERTEX
  8
Path
  10
145.198374654134
  20
109.317823440552
  30
0.0
  0
VERTEX
  8
Path
  10
146.479159037272
  20
109.621528625488
  30
0.0
  0
VERTEX
  8
Path
  10
147.073457991282
  20
109.763935133616
  30
0.0
  0
VERTEX
  8
Path
  10
147.636400629679
  20
109.89990620931
  30
0.0
  0
VERTEX
  8
Path
  10
148.169166380564
  20
110.029771251678
  30
0.0
  0
VERTEX
  8
Path
  10
148.672934672038
  20
110.153859659831
  30
0.0
  0
VERTEX
  8
Path
  10
149.1488849322
  20
110.272500832876
  30
0.0
  0
VERTEX
  8
Path
  10
149.598196589152
  20
110.386024169922
  30
0.0
  0
VERTEX
  8
Path
  10
150.022049070994
  20
110.494759070079
  30
0.0
  0
VERTEX
  8
Path
  10
150.421621805827
  20
110.599034932454
  30
0.0
  0
VERTEX
  8
Path
  10
150.798094221751
  20
110.699181156158
  30
0.0
  0
VERTEX
  8
Path
  10
151.152645746867
  20
110.795527140299
  30
0.0
  0
VERTEX
  8
Path
  10
151.486455809275
  20
110.888402283986
  30
0.0
  0
VERTEX
  8
Path
  10
151.800703837077
  20
110.978135986328
  30
0.0
  0
VERTEX
  8
Path
  10
152.096569258372
  20
111.065057646434
  30
0.0
  0
VERTEX
  8
Path
  10
152.375231501261
  20
111.149496663411
  30
0.0
  0
VERTEX
  8
Path
  10
152.637869993846
  20
111.231782436371
  30
0.0
  0
VERTEX
  8
Path
  10
152.885664164225
  20
111.312244364421
  30
0.0
  0
VERTEX
  8
Path
  10
153.119793440501
  20
111.39121184667
  30
0.0
  0
VERTEX
  8
Path
  10
153.341437250773
  20
111.469014282227
  30
0.0
  0
VERTEX
  8
Path
  10
153.75198618571
  20
111.622441609701
  30
0.0
  0
VERTEX
  8
Path
  10
153.943128155073
  20
111.698671873728
  30
0.0
  0
VERTEX
  8
Path
  10
154.125770301819
  20
111.774734130859
  30
0.0
  0
VERTEX
  8
Path
  10
154.300359985034
  20
111.850637223562
  30
0.0
  0
VERTEX
  8
Path
  10
154.467344563802
  20
111.926389994303
  30
0.0
  0
VERTEX
  8
Path
  10
154.627171397209
  20
112.002001285553
  30
0.0
  0
VERTEX
  8
Path
  10
154.78028784434
  20
112.077479939779
  30
0.0
  0
VERTEX
  8
Path
  10
154.92714126428
  20
112.152834799449
  30
0.0
  0
VERTEX
  8
Path
  10
155.068179016113
  20
112.228074707031
  30
0.0
  0
VERTEX
  8
Path
  10
155.203848458926
  20
112.303208504995
  30
0.0
  0
VERTEX
  8
Path
  10
155.334596951803
  20
112.378245035807
  30
0.0
  0
VERTEX
  8
Path
  10
155.460871853828
  20
112.453193141937
  30
0.0
  0
VERTEX
  8
Path
  10
155.583120524089
  20
112.528061665853
  30
0.0
  0
VERTEX
  8
Path
  10
155.701790321668
  20
112.602859450022
  30
0.0
  0
VERTEX
  8
Path
  10
155.817328605652
  20
112.677595336914
  30
0.0
  0
VERTEX
  8
Path
  10
155.930182735125
  20
112.752278168996
  30
0.0
  0
VERTEX
  8
Path
  10
156.040800069173
  20
112.826916788737
  30
0.0
  0
VERTEX
  8
Path
  10
156.149627966881
  20
112.901520038605
  30
0.0
  0
VERTEX
  8
Path
  10
156.257113787333
  20
112.976096761068
  30
0.0
  0
VERTEX
  8
Path
  10
156.469848632813
  20
113.125205993652
  30
0.0
  0
SEQEND
  0
ENDBLK
  0
BLOCK
  8
Path
  70
65
  2
*C1
  10
0.0
  20
0.0
  30
0.0
  3
*C
  0
POLYLINE
  8
Path
  6
CONTINUOUS
  62
7
  40
0.019999999553
  41
0.019999999553
  66
1
  0
VERTEX
  8
Path
  10
157.237640380859
  20
110.541030883789
  30
0.0
  0
VERTEX
  8
Path
  10
157.071338765144
  20
110.499310316563
  30
0.0
  0
VERTEX
  8
Path
  10
156.903760658264
  20
110.457287708282
  30
0.0
  0
VERTEX
  8
Path
  10
156.733629569054
  20
110.414661017895
  30
0.0
  0
VERTEX
  8
Path
  10
156.559669006348
  20
110.371128204346
  30
0.0
  0
VERTEX
  8
Path
  10
156.380602478981
  20
110.326387226582
  30
0.0
  0
VERTEX
  8
Path
  10
156.195153495789
  20
110.280136043549
  30
0.0
  0
VERTEX
  8
Path
  10
156.002045565605
  20
110.232072614193
  30
0.0
  0
VERTEX
  8
Path
  10
155.800002197266
  20
110.181894897461
  30
0.0
  0
VERTEX
  8
Path
  10
155.587746899605
  20
110.129300852299
  30
0.0
  0
VERTEX
  8
Path
  10
155.364003181458
  20
110.073988437653
  30
0.0
  0
VERTEX
  8
Path
  10
155.127494551659
  20
110.015655612469
  30
0.0
  0
VERTEX
  8
Path
  10
154.876944519043
  20
109.954000335693
  30
0.0
  0
VERTEX
  8
Path
  10
154.611076592445
  20
109.888720566273
  30
0.0
  0
VERTEX
  8
Path
  10
154.328614280701
  20
109.819514263153
  30
0.0
  0
VERTEX
  8
Path
  10
154.028281092644
  20
109.746079385281
  30
0.0
  0
VERTEX
  8
Path
  10
153.708800537109
  20
109.668113891602
  30
0.0
  0
VERTEX
  8
Path
  10
153.368896122932
  20
109.585315741062
  30
0.0
  0
VERTEX
  8
Path
  10
153.007291358948
  20
109.497382892609
  30
0.0
  0
VERTEX
  8
Path
  10
152.213874816895
  20
109.304904937744
  30
0.0
  0
VERTEX
  8
Path
  10
151.779536192417
  20
109.19976301686
  30
0.0
  0
VERTEX
  8
Path
  10
151.318548069
  20
109.08832183965
  30
0.0
  0
VERTEX
  8
Path
  10
150.829790771008
  20
108.970322970867
  30
0.0
  0
VERTEX
  8
Path
  10
150.312144622803
  20
108.84550797526
  30
0.0
  0
VERTEX
  8
Path
  10
149.76448994875
  20
108.713618417581
  30
0.0
  0
VERTEX
  8
Path
  10
149.185707073212
  20
108.574395862579
  30
0.0
  0
VERTEX
  8
Path
  10
148.574676320553
  20
108.427581875006
  30
0.0
  0
VERTEX
  8
Path
  10
147.930278015137
  20
108.272918019613
  30
0.0
  0
VERTEX
  8
Path
  10
147.251392481327
  20
108.110145861149
  30
0.0
  0
VERTEX
  8
Path
  10
146.536900043488
  20
107.939006964366
  30
0.0
  0
VERTEX
  8
Path
  10
145.785681025982
  20
107.759242894014
  30
0.0
  0
VERTEX
  8
Path
  10
144.996615753174
  20
107.570595214844
  30
0.0
  0
VERTEX
  8
Path
  10
144.168584549427
  20
107.372805491606
  30
0.0
  0
VERTEX
  8
Path
  10
143.300467739105
  20
107.165615289052
  30
0.0
  0
VERTEX
  8
Path
  10
142.391145646572
  20
106.948766171932
  30
0.0
  0
VERTEX
  8
Path
  10
141.439498596191
  20
106.721999704997
  30
0.0
  0
VERTEX
  8
Path
  10
140.444406912327
  20
106.485057452997
  30
0.0
  0
VERTEX
  8
Path
  10
139.404750919342
  20
106.237680980682
  30
0.0
  0
VERTEX
  8
Path
  10
137.187267303467
  20
105.710591634115
  30
0.0
  0
VERTEX
  8
Path
  10
136.008372723579
  20
105.430635624727
  30
0.0
  0
VERTEX
  8
Path
  10
134.787469497681
  20
105.140854066213
  30
0.0
  0
VERTEX
  8
Path
  10
133.530472315788
  20
104.84263093551
  30
0.0
  0
VERTEX
  8
Path
  10
132.24329586792
  20
104.537350209554
  30
0.0
  0
VERTEX
  8
Path
  10
130.931854844093
  20
104.226395865281
  30
0.0
  0
VERTEX
  8
Path
  10
129.602063934326
  20
103.911151879628
  30
0.0
  0
VERTEX
  8
Path
  10
128.259837828636
  20
103.593002229532
  30
0.0
  0
VERTEX
  8
Path
  10
126.911091217041
  20
103.273330891927
  30
0.0
  0
VERTEX
  8
Path
  10
125.561738789558
  20
102.953521843751
  30
0.0
  0
VERTEX
  8
Path
  10
124.217695236206
  20
102.634959061941
  30
0.0
  0
VERTEX
  8
Path
  10
122.884875247002
  20
102.319026523431
  30
0.0
  0
VERTEX
  8
Path
  10
121.569193511963
  20
102.00710820516
  30
0.0
  0
VERTEX
  8
Path
  10
120.276564721107
  20
101.700588084062
  30
0.0
  0
VERTEX
  8
Path
  10
119.012903564453
  20
101.400850137075
  30
0.0
  0
VERTEX
  8
Path
  10
117.784124732018
  20
101.109278341134
  30
0.0
  0
VERTEX
  8
Path
  10
116.596142913818
  20
100.827256673177
  30
0.0
  0
VERTEX
  8
Path
  10
115.454872799873
  20
100.556169110139
  30
0.0
  0
VERTEX
  8
Path
  10
114.3662290802
  20
100.297399628957
  30
0.0
  0
VERTEX
  8
Path
  10
112.37047958374
  20
99.822350819906
  30
0.0
  0
VERTEX
  8
Path
  10
111.473642911593
  20
99.608497025172
  30
0.0
  0
VERTEX
  8
Path
  10
110.643729741414
  20
99.410442695618
  30
0.0
  0
VERTEX
  8
Path
  10
109.877293110847
  20
99.227517283758
  30
0.0
  0
VERTEX
  8
Path
  10
109.170886057536
  20
99.059050242106
  30
0.0
  0
VERTEX
  8
Path
  10
108.521061619123
  20
98.904371023178
  30
0.0
  0
VERTEX
  8
Path
  10
107.924372833252
  20
98.762809079488
  30
0.0
  0
VERTEX
  8
Path
  10
107.377372737567
  20
98.633693863551
  30
0.0
  0
VERTEX
  8
Path
  10
106.87661436971
  20
98.516354827881
  30
0.0
  0
VERTEX
  8
Path
  10
106.418650767326
  20
98.410121424993
  30
0.0
  0
VERTEX
  8
Path
  10
106.000034968058
  20
98.314323107402
  30
0.0
  0
VERTEX
  8
Path
  10
105.617320009549
  20
98.228289327621
  30
0.0
  0
VERTEX
  8
Path
  10
105.267058929443
  20
98.151349538167
  30
0.0
  0
VERTEX
  8
Path
  10
104.945804765383
  20
98.082833191554
  30
0.0
  0
VERTEX
  8
Path
  10
104.650110555013
  20
98.022069740295
  30
0.0
  0
VERTEX
  8
Path
  10
104.376529335976
  20
97.968388636907
  30
0.0
  0
VERTEX
  8
Path
  10
104.121614145915
  20
97.921119333903
  30
0.0
  0
VERTEX
  8
Path
  10
103.881918022474
  20
97.879591283798
  30
0.0
  0
VERTEX
  8
Path
  10
103.653994003296
  20
97.843133939107
  30
0.0
  0
VERTEX
  8
Path
  10
103.219674428304
  20
97.782749176025
  30
0.0
  0
VERTEX
  8
Path
  10
103.006956382275
  20
97.75758754015
  30
0.0
  0
VERTEX
  8
Path
  10
102.795651198069
  20
97.735455684662
  30
0.0
  0
VERTEX
  8
Path
  10
102.585740520318
  20
97.716324326992
  30
0.0
  0
VERTEX
  8
Path
  10
102.377205993652
  20
97.70016418457
  30
0.0
  0
VERTEX
  8
Path
  10
102.170029262702
  20
97.686945974827
  30
0.0
  0
VERTEX
  8
Path
  10
101.964191972097
  20
97.676640415192
  30
0.0
  0
VERTEX
  8
Path
  10
101.759675766468
  20
97.669218223095
  30
0.0
  0
VERTEX
  8
Path
  10
101.556462290446
  20
97.664650115967
  30
0.0
  0
VERTEX
  8
Path
  10
101.354533188661
  20
97.662906811237
  30
0.0
  0
VERTEX
  8
Path
  10
101.153870105743
  20
97.663959026337
  30
0.0
  0
VERTEX
  8
Path
  10
100.954454686324
  20
97.667777478695
  30
0.0
  0
VERTEX
  8
Path
  10
100.756268575033
  20
97.674332885742
  30
0.0
  0
VERTEX
  8
Path
  10
100.5592934165
  20
97.683595964909
  30
0.0
  0
VERTEX
  8
Path
  10
100.363510855357
  20
97.695537433624
  30
0.0
  0
VERTEX
  8
Path
  10
100.168902536233
  20
97.710128009319
  30
0.0
  0
VERTEX
  8
Path
  10
99.97545010376
  20
97.727338409424
  30
0.0
  0
VERTEX
  8
Path
  10
99.783135202567
  20
97.747139351368
  30
0.0
  0
VERTEX
  8
Path
  10
99.591939477285
  20
97.769501552582
  30
0.0
  0
VERTEX
  8
Path
  10
99.212832132975
  20
97.821792602539
  30
0.0
  0
VERTEX
  8
Path
  10
99.024905815442
  20
97.851640342236
  30
0.0
  0
VERTEX
  8
Path
  10
98.838157325745
  20
97.883796947479
  30
0.0
  0
VERTEX
  8
Path
  10
98.652700381915
  20
97.918097872257
  30
0.0
  0
VERTEX
  8
Path
  10
98.468648701986
  20
97.954378570557
  30
0.0
  0
VERTEX
  8
Path
  10
98.28611600399
  20
97.992474496365
  30
0.0
  0
VERTEX
  8
Path
  10
98.105216005961
  20
98.032221103668
  30
0.0
  0
VERTEX
  8
Path
  10
97.926062425931
  20
98.073453846455
  30
0.0
  0
VERTEX
  8
Path
  10
97.748768981934
  20
98.116008178711
  30
0.0
  0
VERTEX
  8
Path
  10
97.573449392001
  20
98.159719554424
  30
0.0
  0
VERTEX
  8
Path
  10
97.400217374166
  20
98.204423427582
  30
0.0
  0
VERTEX
  8
Path
  10
97.229186646461
  20
98.249955252171
  30
0.0
  0
VERTEX
  8
Path
  10
97.060470926921
  20
98.296150482178
  30
0.0
  0
VERTEX
  8
Path
  10
96.894183933576
  20
98.34284457159
  30
0.0
  0
VERTEX
  8
Path
  10
96.73043938446
  20
98.389872974396
  30
0.0
  0
VERTEX
  8
Path
  10
96.569350997607
  20
98.437071144581
  30
0.0
  0
VERTEX
  8
Path
  10
96.411032491048
  20
98.484274536133
  30
0.0
  0
VERTEX
  8
Path
  10
96.255597582817
  20
98.531318603039
  30
0.0
  0
VERTEX
  8
Path
  10
96.103159990946
  20
98.578038799286
  30
0.0
  0
VERTEX
  8
Path
  10
95.807731628418
  20
98.669849395752
  30
0.0
  0
VERTEX
  8
Path
  10
95.664943802039
  20
98.714647511641
  30
0.0
  0
VERTEX
  8
Path
  10
95.52546121343
  20
98.758684418996
  30
0.0
  0
VERTEX
  8
Path
  10
95.389250629902
  20
98.80201641798
  30
0.0
  0
VERTEX
  8
Path
  10
95.256278818766
  20
98.844699808757
  30
0.0
  0
VERTEX
  8
Path
  10
95.126512547334
  20
98.886790891488
  30
0.0
  0
VERTEX
  8
Path
  10
94.999918582916
  20
98.928345966339
  30
0.0
  0
VERTEX
  8
Path
  10
94.876463692824
  20
98.969421333472
  30
0.0
  0
VERTEX
  8
Path
  10
94.756114644368
  20
99.01007329305
  30
0.0
  0
VERTEX
  8
Path
  10
94.638838204861
  20
99.050358145237
  30
0.0
  0
VERTEX
  8
Path
  10
94.524601141612
  20
99.090332190196
  30
0.0
  0
VERTEX
  8
Path
  10
94.413370221933
  20
99.13005172809
  30
0.0
  0
VERTEX
  8
Path
  10
94.305112213135
  20
99.169573059082
  30
0.0
  0
VERTEX
  8
Path
  10
94.199793882529
  20
99.208952483336
  30
0.0
  0
VERTEX
  8
Path
  10
94.097381997426
  20
99.248246301015
  30
0.0
  0
VERTEX
  8
Path
  10
93.997843325138
  20
99.287510812283
  30
0.0
  0
VERTEX
  8
Path
  10
93.901144632975
  20
99.326802317301
  30
0.0
  0
VERTEX
  8
Path
  10
93.807252688249
  20
99.366177116235
  30
0.0
  0
VERTEX
  8
Path
  10
93.71613425827
  20
99.405691509247
  30
0.0
  0
VERTEX
  8
Path
  10
93.5420850118
  20
99.485364278158
  30
0.0
  0
VERTEX
  8
Path
  10
93.459052230994
  20
99.525618779977
  30
0.0
  0
VERTEX
  8
Path
  10
93.378447040558
  20
99.566139230092
  30
0.0
  0
VERTEX
  8
Path
  10
93.300023214181
  20
99.606883082231
  30
0.0
  0
VERTEX
  8
Path
  10
93.223534525553
  20
99.64780779012
  30
0.0
  0
VERTEX
  8
Path
  10
93.148734748363
  20
99.688870807489
  30
0.0
  0
VERTEX
  8
Path
  10
93.075377656301
  20
99.730029588064
  30
0.0
  0
VERTEX
  8
Path
  10
93.003217023055
  20
99.771241585573
  30
0.0
  0
VERTEX
  8
Path
  10
92.932006622314
  20
99.812464253743
  30
0.0
  0
VERTEX
  8
Path
  10
92.861500227769
  20
99.853655046304
  30
0.0
  0
VERTEX
  8
Path
  10
92.791451613108
  20
99.894771416982
  30
0.0
  0
VERTEX
  8
Path
  10
92.721614552021
  20
99.935770819505
  30
0.0
  0
VERTEX
  8
Path
  10
92.651742818197
  20
99.976610707601
  30
0.0
  0
VERTEX
  8
Path
  10
92.581590185324
  20
100.017248534997
  30
0.0
  0
VERTEX
  8
Path
  10
92.510910427094
  20
100.057641755422
  30
0.0
  0
VERTEX
  8
Path
  10
92.439457317193
  20
100.097747822603
  30
0.0
  0
VERTEX
  8
Path
  10
92.366984629313
  20
100.137524190267
  30
0.0
  0
VERTEX
  8
Path
  10
92.293246137142
  20
100.176928312143
  30
0.0
  0
VERTEX
  8
Path
  10
92.21799561437
  20
100.215917641958
  30
0.0
  0
VERTEX
  8
Path
  10
92.061973571777
  20
100.292481740316
  30
0.0
  0
VERTEX
  8
Path
  10
91.980769392967
  20
100.329983027617
  30
0.0
  0
VERTEX
  8
Path
  10
91.8974270401
  20
100.366969005585
  30
0.0
  0
VERTEX
  8
Path
  10
91.812059048653
  20
100.403466795762
  30
0.0
  0
VERTEX
  8
Path
  10
91.724777954102
  20
100.439503519694
  30
0.0
  0
VERTEX
  8
Path
  10
91.635696291924
  20
100.475106298923
  30
0.0
  0
VERTEX
  8
Path
  10
91.544926597595
  20
100.510302254995
  30
0.0
  0
VERTEX
  8
Path
  10
91.452581406593
  20
100.545118509452
  30
0.0
  0
VERTEX
  8
Path
  10
91.358773254395
  20
100.579582183838
  30
0.0
  0
VERTEX
  8
Path
  10
91.263614676476
  20
100.613720399698
  30
0.0
  0
VERTEX
  8
Path
  10
91.167218208313
  20
100.647560278575
  30
0.0
  0
VERTEX
  8
Path
  10
91.069696385384
  20
100.681128942013
  30
0.0
  0
VERTEX
  8
Path
  10
90.971161743164
  20
100.714453511556
  30
0.0
  0
VERTEX
  8
Path
  10
90.871726817131
  20
100.747561108748
  30
0.0
  0
VERTEX
  8
Path
  10
90.771504142761
  20
100.780478855133
  30
0.0
  0
VERTEX
  8
Path
  10
90.670606255531
  20
100.813233872255
  30
0.0
  0
VERTEX
  8
Path
  10
90.569145690918
  20
100.845853281657
  30
0.0
  0
VERTEX
  8
Path
  10
90.467234984398
  20
100.878364204884
  30
0.0
  0
VERTEX
  8
Path
  10
90.364986671448
  20
100.910793763479
  30
0.0
  0
VERTEX
  8
Path
  10
90.159927368164
  20
100.975517272949
  30
0.0
  0
SEQEND
  0
ENDBLK
  0
BLOCK
  8
Path
  70
65
  2
*C2
  10
0.0
  20
0.0
  30
0.0
  3
*C
  0
POLYLINE
  8
Path
  6
CONTINUOUS
  62
7
  40
0.019999999553
  41
0.019999999553
  66
1
  0
VERTEX
  8
Path
  10
119.197189331055
  20
110.247543334961
  30
0.0
  0
VERTEX
  8
Path
  10
119.324173022906
  20
110.270105377515
  30
0.0
  0
VERTEX
  8
Path
  10
119.45104028066
  20
110.292440920512
  30
0.0
  0
VERTEX
  8
Path
  10
119.577674670219
  20
110.314323464394
  30
0.0
  0
VERTEX
  8
Path
  10
119.703959757487
  20
110.335526509603
  30
0.0
  0
VERTEX
  8
Path
  10
119.829779108365
  20
110.355823556582
  30
0.0
  0
VERTEX
  8
Path
  10
119.955016288757
  20
110.374988105774
  30
0.0
  0
VERTEX
  8
Path
  10
120.079554864566
  20
110.392793657621
  30
0.0
  0
VERTEX
  8
Path
  10
120.203278401693
  20
110.409013712565
  30
0.0
  0
VERTEX
  8
Path
  10
120.326070466042
  20
110.42342177105
  30
0.0
  0
VERTEX
  8
Path
  10
120.447814623515
  20
110.435791333516
  30
0.0
  0
VERTEX
  8
Path
  10
120.568394440015
  20
110.445895900408
  30
0.0
  0
VERTEX
  8
Path
  10
120.687693481445
  20
110.453508972168
  30
0.0
  0
VERTEX
  8
Path
  10
120.805595313708
  20
110.458404049238
  30
0.0
  0
VERTEX
  8
Path
  10
120.921983502706
  20
110.46035463206
  30
0.0
  0
VERTEX
  8
Path
  10
121.036741614342
  20
110.459134221077
  30
0.0
  0
VERTEX
  8
Path
  10
121.149753214518
  20
110.454516316732
  30
0.0
  0
VERTEX
  8
Path
  10
121.260901869138
  20
110.446274419467
  30
0.0
  0
VERTEX
  8
Path
  10
121.370071144104
  20
110.434182029724
  30
0.0
  0
VERTEX
  8
Path
  10
121.582005818685
  20
110.397539774577
  30
0.0
  0
VERTEX
  8
Path
  10
121.684578021208
  20
110.372597120603
  30
0.0
  0
VERTEX
  8
Path
  10
121.784943134308
  20
110.343259239197
  30
0.0
  0
VERTEX
  8
Path
  10
121.883222750505
  20
110.309660894076
  30
0.0
  0
VERTEX
  8
Path
  10
121.979538462321
  20
110.271936848958
  30
0.0
  0
VERTEX
  8
Path
  10
122.074011862278
  20
110.230221867561
  30
0.0
  0
VERTEX
  8
Path
  10
122.166764542898
  20
110.184650713603
  30
0.0
  0
VERTEX
  8
Path
  10
122.257918096701
  20
110.1353581508
  30
0.0
  0
VERTEX
  8
Path
  10
122.347594116211
  20
110.082478942871
  30
0.0
  0
VERTEX
  8
Path
  10
122.435914193948
  20
110.026147853533
  30
0.0
  0
VERTEX
  8
Path
  10
122.522999922434
  20
109.966499646505
  30
0.0
  0
VERTEX
  8
Path
  10
122.608972894192
  20
109.903669085503
  30
0.0
  0
VERTEX
  8
Path
  10
122.693954701742
  20
109.837790934245
  30
0.0
  0
VERTEX
  8
Path
  10
122.778066937606
  20
109.768999956449
  30
0.0
  0
VERTEX
  8
Path
  10
122.861431194305
  20
109.697430915833
  30
0.0
  0
VERTEX
  8
Path
  10
122.944169064363
  20
109.623218576113
  30
0.0
  0
VERTEX
  8
Path
  10
123.026402140299
  20
109.546497701009
  30
0.0
  0
VERTEX
  8
Path
  10
123.108252014637
  20
109.467403054237
  30
0.0
  0
VERTEX
  8
Path
  10
123.189840279897
  20
109.386069399516
  30
0.0
  0
VERTEX
  8
Path
  10
123.352718353271
  20
109.217224121094
  30
0.0
  0
VERTEX
  8
Path
  10
123.434213894367
  20
109.129986828486
  30
0.0
  0
VERTEX
  8
Path
  10
123.5157094841
  20
109.041078404744
  30
0.0
  0
VERTEX
  8
Path
  10
123.597102002621
  20
108.950662435532
  30
0.0
  0
VERTEX
  8
Path
  10
123.678288330078
  20
108.85890250651
  30
0.0
  0
VERTEX
  8
Path
  10
123.759165346622
  20
108.765962203344
  30
0.0
  0
VERTEX
  8
Path
  10
123.839629932404
  20
108.672005111694
  30
0.0
  0
VERTEX
  8
Path
  10
123.919578967571
  20
108.577194817225
  30
0.0
  0
VERTEX
  8
Path
  10
123.998909332275
  20
108.481694905599
  30
0.0
  0
VERTEX
  8
Path
  10
124.077517906666
  20
108.385668962479
  30
0.0
  0
VERTEX
  8
Path
  10
124.155301570892
  20
108.289280573527
  30
0.0
  0
VERTEX
  8
Path
  10
124.232157205105
  20
108.192693324407
  30
0.0
  0
VERTEX
  8
Path
  10
124.307981689453
  20
108.096070800781
  30
0.0
  0
VERTEX
  8
Path
  10
124.382671904087
  20
107.999576588313
  30
0.0
  0
VERTEX
  8
Path
  10
124.456124729157
  20
107.903374272664
  30
0.0
  0
VERTEX
  8
Path
  10
124.528237044811
  20
107.807627439499
  30
0.0
  0
VERTEX
  8
Path
  10
124.598905731201
  20
107.712499674479
  30
0.0
  0
VERTEX
  8
Path
  10
124.668027668476
  20
107.618154563268
  30
0.0
  0
VERTEX
  8
Path
  10
124.735499736786
  20
107.524755691528
  30
0.0
  0
VERTEX
  8
Path
  10
124.865081787109
  20
107.341451009115
  30
0.0
  0
VERTEX
  8
Path
  10
124.926986389955
  20
107.25185536925
  30
0.0
  0
VERTEX
  8
Path
  10
124.986833807627
  20
107.163758308411
  30
0.0
  0
VERTEX
  8
Path
  10
125.044526083469
  20
107.077221409162
  30
0.0
  0
VERTEX
  8
Path
  10
125.099965260824
  20
106.992306254069
  30
0.0
  0
VERTEX
  8
Path
  10
125.153053383032
  20
106.909074425697
  30
0.0
  0
VERTEX
  8
Path
  10
125.203692493439
  20
106.827587506612
  30
0.0
  0
VERTEX
  8
Path
  10
125.251784635385
  20
106.747907079379
  30
0.0
  0
VERTEX
  8
Path
  10
125.297231852214
  20
106.670094726563
  30
0.0
  0
VERTEX
  8
Path
  10
125.339936187267
  20
106.594212030729
  30
0.0
  0
VERTEX
  8
Path
  10
125.379799683889
  20
106.520320574443
  30
0.0
  0
VERTEX
  8
Path
  10
125.41672438542
  20
106.448481940269
  30
0.0
  0
VERTEX
  8
Path
  10
125.450612335205
  20
106.378757710775
  30
0.0
  0
VERTEX
  8
Path
  10
125.481365576585
  20
106.311209468524
  30
0.0
  0
VERTEX
  8
Path
  10
125.508886152903
  20
106.245898796082
  30
0.0
  0
VERTEX
  8
Path
  10
125.533076107502
  20
106.182887276014
  30
0.0
  0
VERTEX
  8
Path
  10
125.553837483724
  20
106.122236490885
  30
0.0
  0
VERTEX
  8
Path
  10
125.571072324912
  20
106.064008023262
  30
0.0
  0
VERTEX
  8
Path
  10
125.584682674408
  20
106.008263455709
  30
0.0
  0
VERTEX
  8
Path
  10
125.600638071696
  20
105.904472351074
  30
0.0
  0
VERTEX
  8
Path
  10
125.602656592369
  20
105.85647969691
  30
0.0
  0
VERTEX
  8
Path
  10
125.599875111898
  20
105.810801579793
  30
0.0
  0
VERTEX
  8
Path
  10
125.591411990801
  20
105.767083889008
  30
0.0
  0
VERTEX
  8
Path
  10
125.5763855896
  20
105.724972513835
  30
0.0
  0
VERTEX
  8
Path
  10
125.553914268812
  20
105.684113343557
  30
0.0
  0
VERTEX
  8
Path
  10
125.523116388957
  20
105.644152267456
  30
0.0
  0
VERTEX
  8
Path
  10
125.483110310554
  20
105.604735174815
  30
0.0
  0
VERTEX
  8
Path
  10
125.433014394124
  20
105.565507954915
  30
0.0
  0
VERTEX
  8
Path
  10
125.371947000186
  20
105.52611649704
  30
0.0
  0
VERTEX
  8
Path
  10
125.299026489258
  20
105.48620669047
  30
0.0
  0
VERTEX
  8
Path
  10
125.21337122186
  20
105.445424424489
  30
0.0
  0
VERTEX
  8
Path
  10
125.114099558512
  20
105.403415588379
  30
0.0
  0
VERTEX
  8
Path
  10
125.000329859734
  20
105.359826071421
  30
0.0
  0
VERTEX
  8
Path
  10
124.871180486043
  20
105.314301762899
  30
0.0
  0
VERTEX
  8
Path
  10
124.725769797961
  20
105.266488552094
  30
0.0
  0
VERTEX
  8
Path
  10
124.563216156006
  20
105.216032328288
  30
0.0
  0
VERTEX
  8
Path
  10
124.382637920698
  20
105.162578980764
  30
0.0
  0
VERTEX
  8
Path
  10
124.183153452555
  20
105.105774398804
  30
0.0
  0
VERTEX
  8
Path
  10
123.723939259847
  20
104.980695088704
  30
0.0
  0
VERTEX
  8
Path
  10
123.462928321838
  20
104.911844717185
  30
0.0
  0
VERTEX
  8
Path
  10
123.182376986186
  20
104.839022136688
  30
0.0
  0
VERTEX
  8
Path
  10
122.884296006521
  20
104.762668704828
  30
0.0
  0
VERTEX
  8
Path
  10
122.570696136475
  20
104.683225779215
  30
0.0
  0
VERTEX
  8
Path
  10
122.243588129679
  20
104.601134717464
  30
0.0
  0
VERTEX
  8
Path
  10
121.904982739766
  20
104.516836877187
  30
0.0
  0
VERTEX
  8
Path
  10
121.556890720367
  20
104.430773615996
  30
0.0
  0
VERTEX
  8
Path
  10
121.201322825114
  20
104.343386291504
  30
0.0
  0
VERTEX
  8
Path
  10
120.840289807638
  20
104.255116261323
  30
0.0
  0
VERTEX
  8
Path
  10
120.47580242157
  20
104.166404883067
  30
0.0
  0
VERTEX
  8
Path
  10
120.109871420542
  20
104.077693514347
  30
0.0
  0
VERTEX
  8
Path
  10
119.744507558187
  20
103.989423512777
  30
0.0
  0
VERTEX
  8
Path
  10
119.381721588135
  20
103.902036235968
  30
0.0
  0
VERTEX
  8
Path
  10
119.023524264018
  20
103.815973041534
  30
0.0
  0
VERTEX
  8
Path
  10
118.671926339467
  20
103.731675287088
  30
0.0
  0
VERTEX
  8
Path
  10
118.328938568115
  20
103.649584330241
  30
0.0
  0
VERTEX
  8
Path
  10
117.996571703593
  20
103.570141528606
  30
0.0
  0
VERTEX
  8
Path
  10
117.676836499532
  20
103.493788239797
  30
0.0
  0
VERTEX
  8
Path
  10
117.083304087321
  20
103.352115631104
  30
0.0
  0
VERTEX
  8
Path
  10
116.813037728151
  20
103.287568686962
  30
0.0
  0
VERTEX
  8
Path
  10
116.560502094269
  20
103.2272146492
  30
0.0
  0
VERTEX
  8
Path
  10
116.324763989607
  20
103.170832838535
  30
0.0
  0
VERTEX
  8
Path
  10
116.104890218099
  20
103.118202575684
  30
0.0
  0
VERTEX
  8
Path
  10
115.899947583675
  20
103.069103181362
  30
0.0
  0
VERTEX
  8
Path
  10
115.709002890269
  20
103.023313976288
  30
0.0
  0
VERTEX
  8
Path
  10
115.531122941812
  20
102.980614281178
  30
0.0
  0
VERTEX
  8
Path
  10
115.365374542236
  20
102.940783416748
  30
0.0
  0
VERTEX
  8
Path
  10
115.210824495475
  20
102.903600703716
  30
0.0
  0
VERTEX
  8
Path
  10
115.066539605459
  20
102.868845462799
  30
0.0
  0
VERTEX
  8
Path
  10
114.931586676121
  20
102.836297014713
  30
0.0
  0
VERTEX
  8
Path
  10
114.805032511393
  20
102.805734680176
  30
0.0
  0
VERTEX
  8
Path
  10
114.685943915208
  20
102.776937779903
  30
0.0
  0
VERTEX
  8
Path
  10
114.573387691498
  20
102.749685634613
  30
0.0
  0
VERTEX
  8
Path
  10
114.466430644194
  20
102.723757565022
  30
0.0
  0
VERTEX
  8
Path
  10
114.36413957723
  20
102.698932891846
  30
0.0
  0
VERTEX
  8
Path
  10
114.265581294537
  20
102.674990935802
  30
0.0
  0
VERTEX
  8
Path
  10
114.169822600047
  20
102.651711017609
  30
0.0
  0
VERTEX
  8
Path
  10
113.982971191406
  20
102.606254577637
  30
0.0
  0
SEQEND
  0
ENDBLK
  0
BLOCK
  8
Path
  70
65
  2
*C3
  10
0.0
  20
0.0
  30
0.0
  3
*C
  0
POLYLINE
  8
Path
  6
CONTINUOUS
  62
7
  40
0.019999999553
  41
0.019999999553
  66
1
  0
VERTEX
  8
Path
  10
101.344192504883
  20
99.547073364258
  30
0.0
  0
VERTEX
  8
Path
  10
101.130303641637
  20
99.596440594832
  30
0.0
  0
VERTEX
  8
Path
  10
100.916522761027
  20
99.645833535512
  30
0.0
  0
VERTEX
  8
Path
  10
100.702957845688
  20
99.695277896404
  30
0.0
  0
VERTEX
  8
Path
  10
100.489716878255
  20
99.744799387614
  30
0.0
  0
VERTEX
  8
Path
  10
100.276907841365
  20
99.794423719247
  30
0.0
  0
VERTEX
  8
Path
  10
100.064638717651
  20
99.84417660141
  30
0.0
  0
VERTEX
  8
Path
  10
99.853017489751
  20
99.894083744208
  30
0.0
  0
VERTEX
  8
Path
  10
99.642152140299
  20
99.944170857747
  30
0.0
  0
VERTEX
  8
Path
  10
99.432150651932
  20
99.994463652134
  30
0.0
  0
VERTEX
  8
Path
  10
99.223121007284
  20
100.044987837474
  30
0.0
  0
VERTEX
  8
Path
  10
99.01517118899
  20
100.095769123872
  30
0.0
  0
VERTEX
  8
Path
  10
98.808409179688
  20
100.146833221436
  30
0.0
  0
VERTEX
  8
Path
  10
98.602942962011
  20
100.19820584027
  30
0.0
  0
VERTEX
  8
Path
  10
98.398880518595
  20
100.249912690481
  30
0.0
  0
VERTEX
  8
Path
  10
98.196329832077
  20
100.301979482174
  30
0.0
  0
VERTEX
  8
Path
  10
97.995398885091
  20
100.354431925456
  30
0.0
  0
VERTEX
  8
Path
  10
97.796195660273
  20
100.407295730432
  30
0.0
  0
VERTEX
  8
Path
  10
97.598828140259
  20
100.460596607208
  30
0.0
  0
VERTEX
  8
Path
  10
97.210032145182
  20
100.568612416585
  30
0.0
  0
VERTEX
  8
Path
  10
97.018820492109
  20
100.62336677138
  30
0.0
  0
VERTEX
  8
Path
  10
96.829881614685
  20
100.678589050293
  30
0.0
  0
VERTEX
  8
Path
  10
96.643328635852
  20
100.734232975324
  30
0.0
  0
VERTEX
  8
Path
  10
96.459274678548
  20
100.790252268473
  30
0.0
  0
VERTEX
  8
Path
  10
96.277832865715
  20
100.846600651741
  30
0.0
  0
VERTEX
  8
Path
  10
96.099116320292
  20
100.903231847127
  30
0.0
  0
VERTEX
  8
Path
  10
95.92323816522
  20
100.960099576632
  30
0.0
  0
VERTEX
  8
Path
  10
95.750311523438
  20
101.017157562256
  30
0.0
  0
VERTEX
  8
Path
  10
95.580449517886
  20
101.074359525998
  30
0.0
  0
VERTEX
  8
Path
  10
95.413765271505
  20
101.13165918986
  30
0.0
  0
VERTEX
  8
Path
  10
95.250371907234
  20
101.189010275841
  30
0.0
  0
VERTEX
  8
Path
  10
95.090382548014
  20
101.246366505941
  30
0.0
  0
VERTEX
  8
Path
  10
94.933910316785
  20
101.30368160216
  30
0.0
  0
VERTEX
  8
Path
  10
94.781068336487
  20
101.360909286499
  30
0.0
  0
VERTEX
  8
Path
  10
94.631969730059
  20
101.418003280958
  30
0.0
  0
VERTEX
  8
Path
  10
94.486727620443
  20
101.474917307536
  30
0.0
  0
VERTEX
  8
Path
  10
94.345455130577
  20
101.531605088234
  30
0.0
  0
VERTEX
  8
Path
  10
94.208265383403
  20
101.588020345052
  30
0.0
  0
VERTEX
  8
Path
  10
93.946586608887
  20
101.699848175049
  30
0.0
  0
VERTEX
  8
Path
  10
93.822287833532
  20
101.755186189175
  30
0.0
  0
VERTEX
  8
Path
  10
93.702308329264
  20
101.810174549103
  30
0.0
  0
VERTEX
  8
Path
  10
93.586545255661
  20
101.864874958515
  30
0.0
  0
VERTEX
  8
Path
  10
93.474895772298
  20
101.919349121094
  30
0.0
  0
VERTEX
  8
Path
  10
93.367257038752
  20
101.97365874052
  30
0.0
  0
VERTEX
  8
Path
  10
93.2635262146
  20
102.027865520477
  30
0.0
  0
VERTEX
  8
Path
  10
93.163600459417
  20
102.082031164646
  30
0.0
  0
VERTEX
  8
Path
  10
93.06737693278
  20
102.136217376709
  30
0.0
  0
VERTEX
  8
Path
  10
92.974752794266
  20
102.190485860348
  30
0.0
  0
VERTEX
  8
Path
  10
92.885625203451
  20
102.244898319244
  30
0.0
  0
VERTEX
  8
Path
  10
92.799891319911
  20
102.299516457081
  30
0.0
  0
VERTEX
  8
Path
  10
92.717448303223
  20
102.354401977539
  30
0.0
  0
VERTEX
  8
Path
  10
92.638193312963
  20
102.409616584301
  30
0.0
  0
VERTEX
  8
Path
  10
92.562023508708
  20
102.465221981049
  30
0.0
  0
VERTEX
  8
Path
  10
92.488836050034
  20
102.521279871464
  30
0.0
  0
VERTEX
  8
Path
  10
92.418528096517
  20
102.577851959229
  30
0.0
  0
VERTEX
  8
Path
  10
92.350996807734
  20
102.634999948025
  30
0.0
  0
VERTEX
  8
Path
  10
92.286139343262
  20
102.692785541534
  30
0.0
  0
VERTEX
  8
Path
  10
92.164034525553
  20
102.810516357422
  30
0.0
  0
VERTEX
  8
Path
  10
92.106578920682
  20
102.870567847252
  30
0.0
  0
VERTEX
  8
Path
  10
92.051370353699
  20
102.931400917053
  30
0.0
  0
VERTEX
  8
Path
  10
91.998290559451
  20
102.992974431038
  30
0.0
  0
VERTEX
  8
Path
  10
91.947221272786
  20
103.055247253418
  30
0.0
  0
VERTEX
  8
Path
  10
91.898044228554
  20
103.118178248405
  30
0.0
  0
VERTEX
  8
Path
  10
91.850641161601
  20
103.181726280212
  30
0.0
  0
VERTEX
  8
Path
  10
91.804893806775
  20
103.245850213051
  30
0.0
  0
VERTEX
  8
Path
  10
91.760683898926
  20
103.310508911133
  30
0.0
  0
VERTEX
  8
Path
  10
91.7178931729
  20
103.37566123867
  30
0.0
  0
VERTEX
  8
Path
  10
91.676403363546
  20
103.441266059875
  30
0.0
  0
VERTEX
  8
Path
  10
91.636096205711
  20
103.50728223896
  30
0.0
  0
VERTEX
  8
Path
  10
91.596853434245
  20
103.573668640137
  30
0.0
  0
VERTEX
  8
Path
  10
91.558556783994
  20
103.640384127617
  30
0.0
  0
VERTEX
  8
Path
  10
91.521087989807
  20
103.707387565613
  30
0.0
  0
VERTEX
  8
Path
  10
91.484328786532
  20
103.774637818336
  30
0.0
  0
VERTEX
  8
Path
  10
91.448160909017
  20
103.84209375
  30
0.0
  0
VERTEX
  8
Path
  10
91.41246609211
  20
103.909714224815
  30
0.0
  0
VERTEX
  8
Path
  10
91.377126070658
  20
103.977458106995
  30
0.0
  0
VERTEX
  8
Path
  10
91.307037353516
  20
104.113151550293
  30
0.0
  0
SEQEND
  0
ENDBLK
  0
BLOCK
  8
Path
  70
65
  2
*C4
  10
0.0
  20
0.0
  30
0.0
  3
*C
  0
POLYLINE
  8
Path
  6
CONTINUOUS
  62
7
  40
0.019999999553
  41
0.019999999553
  66
1
  0
VERTEX
  8
Path
  10
87.664505004883
  20
103.3115234375
  30
0.0
  0
VERTEX
  8
Path
  10
87.774306876024
  20
102.48184891208
  30
0.0
  0
VERTEX
  8
Path
  10
87.883834128062
  20
101.652719153086
  30
0.0
  0
VERTEX
  8
Path
  10
87.992812141895
  20
100.824678926945
  30
0.0
  0
VERTEX
  8
Path
  10
88.100966298421
  20
99.998273000081
  30
0.0
  0
VERTEX
  8
Path
  10
88.208021978537
  20
99.174046138922
  30
0.0
  0
VERTEX
  8
Path
  10
88.313704563141
  20
98.352543109894
  30
0.0
  0
VERTEX
  8
Path
  10
88.41773943313
  20
97.534308679422
  30
0.0
  0
VERTEX
  8
Path
  10
88.519851969401
  20
96.719887613932
  30
0.0
  0
VERTEX
  8
Path
  10
88.619767552853
  20
95.909824679852
  30
0.0
  0
VERTEX
  8
Path
  10
88.717211564382
  20
95.104664643606
  30
0.0
  0
VERTEX
  8
Path
  10
88.811909384886
  20
94.30495227162
  30
0.0
  0
VERTEX
  8
Path
  10
88.903586395264
  20
93.511232330322
  30
0.0
  0
VERTEX
  8
Path
  10
88.991967976411
  20
92.724049586137
  30
0.0
  0
VERTEX
  8
Path
  10
89.076779509226
  20
91.943948805491
  30
0.0
  0
VERTEX
  8
Path
  10
89.157746374607
  20
91.17147475481
  30
0.0
  0
VERTEX
  8
Path
  10
89.234593953451
  20
90.407172200521
  30
0.0
  0
VERTEX
  8
Path
  10
89.307047626654
  20
89.651585909049
  30
0.0
  0
VERTEX
  8
Path
  10
89.374832775116
  20
88.90526064682
  30
0.0
  0
VERTEX
  8
Path
  10
89.495299021403
  20
87.442572275798
  30
0.0
  0
VERTEX
  8
Path
  10
89.547576495488
  20
86.72712100935
  30
0.0
  0
VERTEX
  8
Path
  10
89.594960655212
  20
86.022043694814
  30
0.0
  0
VERTEX
  8
Path
  10
89.638050568263
  20
85.32681895558
  30
0.0
  0
VERTEX
  8
Path
  10
89.677445302327
  20
84.640925415039
  30
0.0
  0
VERTEX
  8
Path
  10
89.713743925095
  20
83.96384169658
  30
0.0
  0
VERTEX
  8
Path
  10
89.747545504252
  20
83.295046423594
  30
0.0
  0
VERTEX
  8
Path
  10
89.779449107488
  20
82.634018219471
  30
0.0
  0
VERTEX
  8
Path
  10
89.81005380249
  20
81.980235707601
  30
0.0
  0
VERTEX
  8
Path
  10
89.839958656947
  20
81.333177511374
  30
0.0
  0
VERTEX
  8
Path
  10
89.869762738546
  20
80.692322254181
  30
0.0
  0
VERTEX
  8
Path
  10
89.900065114975
  20
80.057148559411
  30
0.0
  0
VERTEX
  8
Path
  10
89.931464853923
  20
79.427135050456
  30
0.0
  0
VERTEX
  8
Path
  10
89.964561023076
  20
78.801760350704
  30
0.0
  0
VERTEX
  8
Path
  10
89.999952690125
  20
78.180503083547
  30
0.0
  0
VERTEX
  8
Path
  10
90.038238922755
  20
77.562841872374
  30
0.0
  0
VERTEX
  8
Path
  10
90.080018788656
  20
76.948255340576
  30
0.0
  0
VERTEX
  8
Path
  10
90.125891355515
  20
76.336222111543
  30
0.0
  0
VERTEX
  8
Path
  10
90.17645569102
  20
75.726220808665
  30
0.0
  0
VERTEX
  8
Path
  10
90.294055938721
  20
74.510228474935
  30
0.0
  0
VERTEX
  8
Path
  10
90.362160687764
  20
73.903167280356
  30
0.0
  0
VERTEX
  8
Path
  10
90.436577685038
  20
73.29588804245
  30
0.0
  0
VERTEX
  8
Path
  10
90.517130207062
  20
72.687704921563
  30
0.0
  0
VERTEX
  8
Path
  10
90.603641530355
  20
72.077932078044
  30
0.0
  0
VERTEX
  8
Path
  10
90.695934931437
  20
71.465883672237
  30
0.0
  0
VERTEX
  8
Path
  10
90.793833686829
  20
70.850873864492
  30
0.0
  0
VERTEX
  8
Path
  10
90.897161073049
  20
70.232216815154
  30
0.0
  0
VERTEX
  8
Path
  10
91.005740366618
  20
69.60922668457
  30
0.0
  0
VERTEX
  8
Path
  10
91.119394844055
  20
68.981217633088
  30
0.0
  0
VERTEX
  8
Path
  10
91.237947781881
  20
68.347503821055
  30
0.0
  0
VERTEX
  8
Path
  10
91.361222456614
  20
67.707399408817
  30
0.0
  0
VERTEX
  8
Path
  10
91.489042144775
  20
67.060218556722
  30
0.0
  0
VERTEX
  8
Path
  10
91.621230122884
  20
66.405275425116
  30
0.0
  0
VERTEX
  8
Path
  10
91.75760966746
  20
65.741884174347
  30
0.0
  0
VERTEX
  8
Path
  10
91.898004055023
  20
65.069358964761
  30
0.0
  0
VERTEX
  8
Path
  10
92.042236562093
  20
64.387013956706
  30
0.0
  0
VERTEX
  8
Path
  10
92.19013046519
  20
63.694163310528
  30
0.0
  0
VERTEX
  8
Path
  10
92.341509040833
  20
62.990121186574
  30
0.0
  0
VERTEX
  8
Path
  10
92.654013315837
  20
61.545719146729
  30
0.0
  0
VERTEX
  8
Path
  10
92.8147904013
  20
60.804212266445
  30
0.0
  0
VERTEX
  8
Path
  10
92.978374263763
  20
60.050118839264
  30
0.0
  0
VERTEX
  8
Path
  10
93.144617178122
  20
59.284101315022
  30
0.0
  0
VERTEX
  8
Path
  10
93.313371419271
  20
58.506822143555
  30
0.0
  0
VERTEX
  8
Path
  10
93.484489262104
  20
57.7189437747
  30
0.0
  0
VERTEX
  8
Path
  10
93.657822981517
  20
56.921128658295
  30
0.0
  0
VERTEX
  8
Path
  10
93.833224852403
  20
56.114039244175
  30
0.0
  0
VERTEX
  8
Path
  10
94.010547149658
  20
55.298337982178
  30
0.0
  0
VERTEX
  8
Path
  10
94.189642148177
  20
54.47468732214
  30
0.0
  0
VERTEX
  8
Path
  10
94.370362122854
  20
53.643749713898
  30
0.0
  0
VERTEX
  8
Path
  10
94.552559348583
  20
52.806187607288
  30
0.0
  0
VERTEX
  8
Path
  10
94.73608610026
  20
51.962663452148
  30
0.0
  0
VERTEX
  8
Path
  10
94.92079465278
  20
51.113839698315
  30
0.0
  0
VERTEX
  8
Path
  10
95.106537281036
  20
50.260378795624
  30
0.0
  0
VERTEX
  8
Path
  10
95.293166259925
  20
49.402943193912
  30
0.0
  0
VERTEX
  8
Path
  10
95.480533864339
  20
48.542195343018
  30
0.0
  0
VERTEX
  8
Path
  10
95.668492369175
  20
47.678797692776
  30
0.0
  0
VERTEX
  8
Path
  10
95.856894049327
  20
46.813412693024
  30
0.0
  0
VERTEX
  8
Path
  10
96.234436035156
  20
45.079330444336
  30
0.0
  0
SEQEND
  0
ENDBLK
  0
BLOCK
  8
Path
  70
65
  2
*C5
  10
0.0
  20
0.0
  30
0.0
  3
*C
  0
POLYLINE
  8
Path
  6
CONTINUOUS
  62
7
  40
0.019999999553
  41
0.019999999553
  66
1
  0
VERTEX
  8
Path
  10
178.709060668945
  20
44.115154266357
  30
0.0
  0
VERTEX
  8
Path
  10
176.620608975887
  20
43.703283401608
  30
0.0
  0
VERTEX
  8
Path
  10
174.533350200653
  20
43.291662568092
  30
0.0
  0
VERTEX
  8
Path
  10
172.448477261066
  20
42.880541797042
  30
0.0
  0
VERTEX
  8
Path
  10
170.367183074951
  20
42.47017111969
  30
0.0
  0
VERTEX
  8
Path
  10
168.290660560131
  20
42.060800567269
  30
0.0
  0
VERTEX
  8
Path
  10
166.22010263443
  20
41.652680171013
  30
0.0
  0
VERTEX
  8
Path
  10
164.156702215672
  20
41.246059962153
  30
0.0
  0
VERTEX
  8
Path
  10
162.10165222168
  20
40.841189971924
  30
0.0
  0
VERTEX
  8
Path
  10
160.056145570278
  20
40.438320231557
  30
0.0
  0
VERTEX
  8
Path
  10
158.021375179291
  20
40.037700772285
  30
0.0
  0
VERTEX
  8
Path
  10
155.998533966541
  20
39.639581625342
  30
0.0
  0
VERTEX
  8
Path
  10
153.988814849854
  20
39.24421282196
  30
0.0
  0
VERTEX
  8
Path
  10
151.993410747051
  20
38.851844393373
  30
0.0
  0
VERTEX
  8
Path
  10
150.013514575958
  20
38.462726370811
  30
0.0
  0
VERTEX
  8
Path
  10
148.050319254398
  20
38.07710878551
  30
0.0
  0
VERTEX
  8
Path
  10
146.105017700195
  20
37.695241668701
  30
0.0
  0
VERTEX
  8
Path
  10
144.178802831173
  20
37.317375051618
  30
0.0
  0
VERTEX
  8
Path
  10
142.272867565155
  20
36.943758965492
  30
0.0
  0
VERTEX
  8
Path
  10
138.526607513428
  20
36.210278511047
  30
0.0
  0
VERTEX
  8
Path
  10
136.688909885883
  20
35.850960819801
  30
0.0
  0
VERTEX
  8
Path
  10
134.877711467743
  20
35.497173472087
  30
0.0
  0
VERTEX
  8
Path
  10
133.095653111935
  20
35.149446186781
  30
0.0
  0
VERTEX
  8
Path
  10
131.345375671387
  20
34.80830868276
  30
0.0
  0
VERTEX
  8
Path
  10
129.629519999027
  20
34.474290678898
  30
0.0
  0
VERTEX
  8
Path
  10
127.950726947784
  20
34.147921894073
  30
0.0
  0
VERTEX
  8
Path
  10
126.311637370586
  20
33.82973204716
  30
0.0
  0
VERTEX
  8
Path
  10
124.714892120361
  20
33.520250857035
  30
0.0
  0
VERTEX
  8
Path
  10
123.163132050037
  20
33.220008042574
  30
0.0
  0
VERTEX
  8
Path
  10
121.658998012543
  20
32.929533322652
  30
0.0
  0
VERTEX
  8
Path
  10
120.205130860806
  20
32.649356416146
  30
0.0
  0
VERTEX
  8
Path
  10
118.804171447754
  20
32.380007041931
  30
0.0
  0
VERTEX
  8
Path
  10
117.458760626316
  20
32.122014918884
  30
0.0
  0
VERTEX
  8
Path
  10
116.17153924942
  20
31.875909765879
  30
0.0
  0
VERTEX
  8
Path
  10
114.945148169994
  20
31.642221301794
  30
0.0
  0
VERTEX
  8
Path
  10
113.782228240967
  20
31.421479245504
  30
0.0
  0
VERTEX
  8
Path
  10
112.685420315266
  20
31.214213315884
  30
0.0
  0
VERTEX
  8
Path
  10
111.657365245819
  20
31.020953231812
  30
0.0
  0
VERTEX
  8
Path
  10
109.818077087402
  20
30.67856947581
  30
0.0
  0
VERTEX
  8
Path
  10
109.011049307823
  20
30.530303241611
  30
0.0
  0
VERTEX
  8
Path
  10
108.276879417419
  20
30.39694972833
  30
0.0
  0
VERTEX
  8
Path
  10
107.611749890327
  20
30.277826654712
  30
0.0
  0
VERTEX
  8
Path
  10
107.011843200684
  20
30.172251739502
  30
0.0
  0
VERTEX
  8
Path
  10
106.473341822624
  20
30.079542701443
  30
0.0
  0
VERTEX
  8
Path
  10
105.992428230286
  20
29.99901725928
  30
0.0
  0
VERTEX
  8
Path
  10
105.565284897804
  20
29.929993131757
  30
0.0
  0
VERTEX
  8
Path
  10
105.188094299316
  20
29.871788037618
  30
0.0
  0
VERTEX
  8
Path
  10
104.857038908958
  20
29.823719695608
  30
0.0
  0
VERTEX
  8
Path
  10
104.568301200867
  20
29.785105824471
  30
0.0
  0
VERTEX
  8
Path
  10
104.318063649178
  20
29.75526414295
  30
0.0
  0
VERTEX
  8
Path
  10
104.102508728027
  20
29.733512369792
  30
0.0
  0
VERTEX
  8
Path
  10
103.917818911552
  20
29.719168223739
  30
0.0
  0
VERTEX
  8
Path
  10
103.760176673889
  20
29.711549423536
  30
0.0
  0
VERTEX
  8
Path
  10
103.625764489174
  20
29.709973687927
  30
0.0
  0
VERTEX
  8
Path
  10
103.510764831543
  20
29.713758735657
  30
0.0
  0
VERTEX
  8
Path
  10
103.411360175133
  20
29.722222285469
  30
0.0
  0
VERTEX
  8
Path
  10
103.32373299408
  20
29.734682056109
  30
0.0
  0
VERTEX
  8
Path
  10
103.16854095459
  20
29.768861134847
  30
0.0
  0
VERTEX
  8
Path
  10
103.093982713699
  20
29.789321471532
  30
0.0
  0
VERTEX
  8
Path
  10
103.019781860352
  20
29.811682450612
  30
0.0
  0
VERTEX
  8
Path
  10
102.945970884323
  20
29.835895337423
  30
0.0
  0
VERTEX
  8
Path
  10
102.872582275391
  20
29.861911397298
  30
0.0
  0
VERTEX
  8
Path
  10
102.799648523331
  20
29.889681895574
  30
0.0
  0
VERTEX
  8
Path
  10
102.72720211792
  20
29.919158097585
  30
0.0
  0
VERTEX
  8
Path
  10
102.655275548935
  20
29.950291268667
  30
0.0
  0
VERTEX
  8
Path
  10
102.583901306152
  20
29.983032674154
  30
0.0
  0
VERTEX
  8
Path
  10
102.513111879349
  20
30.017333579381
  30
0.0
  0
VERTEX
  8
Path
  10
102.442939758301
  20
30.053145249685
  30
0.0
  0
VERTEX
  8
Path
  10
102.373417432785
  20
30.090418950399
  30
0.0
  0
VERTEX
  8
Path
  10
102.304577392578
  20
30.129105946859
  30
0.0
  0
VERTEX
  8
Path
  10
102.236452127457
  20
30.1691575044
  30
0.0
  0
VERTEX
  8
Path
  10
102.169074127197
  20
30.210524888357
  30
0.0
  0
VERTEX
  8
Path
  10
102.102475881577
  20
30.253159364065
  30
0.0
  0
VERTEX
  8
Path
  10
102.036689880371
  20
30.297012196859
  30
0.0
  0
VERTEX
  8
Path
  10
101.971748613358
  20
30.342034652074
  30
0.0
  0
VERTEX
  8
Path
  10
101.907684570313
  20
30.388177995046
  30
0.0
  0
VERTEX
  8
Path
  10
101.782318115234
  20
30.483632405599
  30
0.0
  0
VERTEX
  8
Path
  10
101.721065395991
  20
30.532910230438
  30
0.0
  0
VERTEX
  8
Path
  10
101.660728139242
  20
30.583499363899
  30
0.0
  0
VERTEX
  8
Path
  10
101.601247114182
  20
30.635736430844
  30
0.0
  0
VERTEX
  8
Path
  10
101.542563090007
  20
30.689958056132
  30
0.0
  0
VERTEX
  8
Path
  10
101.484616835912
  20
30.746500864625
  30
0.0
  0
VERTEX
  8
Path
  10
101.427349121094
  20
30.805701481183
  30
0.0
  0
VERTEX
  8
Path
  10
101.370700714747
  20
30.867896530668
  30
0.0
  0
VERTEX
  8
Path
  10
101.314612386068
  20
30.933422637939
  30
0.0
  0
VERTEX
  8
Path
  10
101.259024904251
  20
31.002616427859
  30
0.0
  0
VERTEX
  8
Path
  10
101.203879038493
  20
31.075814525286
  30
0.0
  0
VERTEX
  8
Path
  10
101.149115557988
  20
31.153353555083
  30
0.0
  0
VERTEX
  8
Path
  10
101.094675231934
  20
31.23557014211
  30
0.0
  0
VERTEX
  8
Path
  10
101.040498829524
  20
31.322800911228
  30
0.0
  0
VERTEX
  8
Path
  10
100.986527119954
  20
31.415382487297
  30
0.0
  0
VERTEX
  8
Path
  10
100.932700872421
  20
31.513651495179
  30
0.0
  0
VERTEX
  8
Path
  10
100.87896085612
  20
31.617944559733
  30
0.0
  0
VERTEX
  8
Path
  10
100.825247840246
  20
31.728598305821
  30
0.0
  0
VERTEX
  8
Path
  10
100.771502593994
  20
31.845949358304
  30
0.0
  0
VERTEX
  8
Path
  10
100.663678487142
  20
32.102089881897
  30
0.0
  0
VERTEX
  8
Path
  10
100.60946208175
  20
32.241559877396
  30
0.0
  0
VERTEX
  8
Path
  10
100.554862023671
  20
32.389117326736
  30
0.0
  0
VERTEX
  8
Path
  10
100.499704583009
  20
32.545142502785
  30
0.0
  0
VERTEX
  8
Path
  10
100.443816029867
  20
32.710015678406
  30
0.0
  0
VERTEX
  8
Path
  10
100.387022634347
  20
32.884117126465
  30
0.0
  0
VERTEX
  8
Path
  10
100.329150666555
  20
33.067827119827
  30
0.0
  0
VERTEX
  8
Path
  10
100.270026396592
  20
33.261525931358
  30
0.0
  0
VERTEX
  8
Path
  10
100.209476094564
  20
33.465593833923
  30
0.0
  0
VERTEX
  8
Path
  10
100.147326030572
  20
33.680411100388
  30
0.0
  0
VERTEX
  8
Path
  10
100.083402474721
  20
33.906358003616
  30
0.0
  0
VERTEX
  8
Path
  10
100.017531697114
  20
34.143814816475
  30
0.0
  0
VERTEX
  8
Path
  10
99.949539967855
  20
34.393161811829
  30
0.0
  0
VERTEX
  8
Path
  10
99.879253557046
  20
34.654779262543
  30
0.0
  0
VERTEX
  8
Path
  10
99.806498734792
  20
34.929047441483
  30
0.0
  0
VERTEX
  8
Path
  10
99.731101771196
  20
35.216346621513
  30
0.0
  0
VERTEX
  8
Path
  10
99.652888936361
  20
35.5170570755
  30
0.0
  0
VERTEX
  8
Path
  10
99.57168650039
  20
35.831559076309
  30
0.0
  0
VERTEX
  8
Path
  10
99.487320733388
  20
36.160232896805
  30
0.0
  0
VERTEX
  8
Path
  10
99.308404286702
  20
36.861617088318
  30
0.0
  0
VERTEX
  8
Path
  10
99.213583728949
  20
37.234922937115
  30
0.0
  0
VERTEX
  8
Path
  10
99.115370410919
  20
37.622931289355
  30
0.0
  0
VERTEX
  8
Path
  10
99.014056093057
  20
38.025032010198
  30
0.0
  0
VERTEX
  8
Path
  10
98.909932535807
  20
38.440614964803
  30
0.0
  0
VERTEX
  8
Path
  10
98.803291499615
  20
38.869070018331
  30
0.0
  0
VERTEX
  8
Path
  10
98.694424744924
  20
39.309787035942
  30
0.0
  0
VERTEX
  8
Path
  10
98.58362403218
  20
39.762155882796
  30
0.0
  0
VERTEX
  8
Path
  10
98.471181121826
  20
40.225566424052
  30
0.0
  0
VERTEX
  8
Path
  10
98.357387774309
  20
40.699408524871
  30
0.0
  0
VERTEX
  8
Path
  10
98.242535750071
  20
41.183072050412
  30
0.0
  0
VERTEX
  8
Path
  10
98.126916809559
  20
41.675946865837
  30
0.0
  0
VERTEX
  8
Path
  10
98.010822713216
  20
42.177422836304
  30
0.0
  0
VERTEX
  8
Path
  10
97.894545221488
  20
42.686889826973
  30
0.0
  0
VERTEX
  8
Path
  10
97.778376094818
  20
43.203737703005
  30
0.0
  0
VERTEX
  8
Path
  10
97.662607093652
  20
43.72735632956
  30
0.0
  0
VERTEX
  8
Path
  10
97.547529978434
  20
44.257135571798
  30
0.0
  0
VERTEX
  8
Path
  10
97.433436509609
  20
44.792465294878
  30
0.0
  0
VERTEX
  8
Path
  10
97.320618447622
  20
45.33273536396
  30
0.0
  0
VERTEX
  8
Path
  10
97.099975585938
  20
46.425656000773
  30
0.0
  0
VERTEX
  8
Path
  10
96.992636262417
  20
46.977242145061
  30
0.0
  0
VERTEX
  8
Path
  10
96.887151119232
  20
47.532263173421
  30
0.0
  0
VERTEX
  8
Path
  10
96.783223648548
  20
48.091044028441
  30
0.0
  0
VERTEX
  8
Path
  10
96.680557342529
  20
48.65390965271
  30
0.0
  0
VERTEX
  8
Path
  10
96.57885569334
  20
49.221184988817
  30
0.0
  0
VERTEX
  8
Path
  10
96.477822193146
  20
49.79319497935
  30
0.0
  0
VERTEX
  8
Path
  10
96.37716033411
  20
50.370264566898
  30
0.0
  0
VERTEX
  8
Path
  10
96.276573608398
  20
50.952718694051
  30
0.0
  0
VERTEX
  8
Path
  10
96.175765508175
  20
51.540882303397
  30
0.0
  0
VERTEX
  8
Path
  10
96.074439525604
  20
52.135080337524
  30
0.0
  0
VERTEX
  8
Path
  10
95.972299152851
  20
52.735637739023
  30
0.0
  0
VERTEX
  8
Path
  10
95.86904788208
  20
53.34287945048
  30
0.0
  0
VERTEX
  8
Path
  10
95.764389205456
  20
53.957130414486
  30
0.0
  0
VERTEX
  8
Path
  10
95.658026615143
  20
54.578715573629
  30
0.0
  0
VERTEX
  8
Path
  10
95.549663603306
  20
55.207959870497
  30
0.0
  0
VERTEX
  8
Path
  10
95.439003662109
  20
55.845188247681
  30
0.0
  0
VERTEX
  8
Path
  10
95.325750283718
  20
56.490725647767
  30
0.0
  0
VERTEX
  8
Path
  10
95.209606960297
  20
57.144897013346
  30
0.0
  0
VERTEX
  8
Path
  10
94.967464447021
  20
58.480441411336
  30
0.0
  0
VERTEX
  8
Path
  10
94.841020430247
  20
59.162068902493
  30
0.0
  0
VERTEX
  8
Path
  10
94.7113895696
  20
59.851257570903
  30
0.0
  0
VERTEX
  8
Path
  10
94.579164489746
  20
60.545959800561
  30
0.0
  0
VERTEX
  8
Path
  10
94.444937815348
  20
61.244127975464
  30
0.0
  0
VERTEX
  8
Path
  10
94.309302171071
  20
61.943714479605
  30
0.0
  0
VERTEX
  8
Path
  10
94.17285018158
  20
62.642671696981
  30
0.0
  0
VERTEX
  8
Path
  10
94.036174471537
  20
63.338952011585
  30
0.0
  0
VERTEX
  8
Path
  10
93.899867665609
  20
64.030507807414
  30
0.0
  0
VERTEX
  8
Path
  10
93.764522388458
  20
64.715291468461
  30
0.0
  0
VERTEX
  8
Path
  10
93.63073126475
  20
65.391255378723
  30
0.0
  0
VERTEX
  8
Path
  10
93.499086919149
  20
66.056351922194
  30
0.0
  0
VERTEX
  8
Path
  10
93.370181976318
  20
66.708533482869
  30
0.0
  0
VERTEX
  8
Path
  10
93.244609060923
  20
67.345752444744
  30
0.0
  0
VERTEX
  8
Path
  10
93.122960797628
  20
67.965961191813
  30
0.0
  0
VERTEX
  8
Path
  10
93.005829811096
  20
68.567112108072
  30
0.0
  0
VERTEX
  8
Path
  10
92.893808725993
  20
69.147157577515
  30
0.0
  0
VERTEX
  8
Path
  10
92.787490166982
  20
69.704049984137
  30
0.0
  0
VERTEX
  8
Path
  10
92.687466758728
  20
70.235741711934
  30
0.0
  0
VERTEX
  8
Path
  10
92.508675893148
  20
71.215332667033
  30
0.0
  0
VERTEX
  8
Path
  10
92.430929294109
  20
71.659757726749
  30
0.0
  0
VERTEX
  8
Path
  10
92.36086199824
  20
72.074518030167
  30
0.0
  0
VERTEX
  8
Path
  10
92.29808028396
  20
72.461292347829
  30
0.0
  0
VERTEX
  8
Path
  10
92.242190429688
  20
72.821759450277
  30
0.0
  0
VERTEX
  8
Path
  10
92.192798713843
  20
73.157598108053
  30
0.0
  0
VERTEX
  8
Path
  10
92.149511414846
  20
73.4704870917
  30
0.0
  0
VERTEX
  8
Path
  10
92.111934811115
  20
73.76210517176
  30
0.0
  0
VERTEX
  8
Path
  10
92.079675181071
  20
74.034131118774
  30
0.0
  0
VERTEX
  8
Path
  10
92.052338803132
  20
74.288243703286
  30
0.0
  0
VERTEX
  8
Path
  10
92.029531955719
  20
74.526121695836
  30
0.0
  0
VERTEX
  8
Path
  10
92.01086091725
  20
74.749443866968
  30
0.0
  0
VERTEX
  8
Path
  10
91.995931966146
  20
74.959888987223
  30
0.0
  0
VERTEX
  8
Path
  10
91.984351380825
  20
75.159135827144
  30
0.0
  0
VERTEX
  8
Path
  10
91.975725439707
  20
75.348863157272
  30
0.0
  0
VERTEX
  8
Path
  10
91.969660421213
  20
75.530749748151
  30
0.0
  0
VERTEX
  8
Path
  10
91.96576260376
  20
75.706474370321
  30
0.0
  0
VERTEX
  8
Path
  10
91.963638265769
  20
75.877715794325
  30
0.0
  0
VERTEX
  8
Path
  10
91.962893685659
  20
76.046152790705
  30
0.0
  0
VERTEX
  8
Path
  10
91.96396891276
  20
76.381328582764
  30
0.0
  0
VERTEX
  8
Path
  10
91.965025446574
  20
76.551482821306
  30
0.0
  0
VERTEX
  8
Path
  10
91.966031870524
  20
76.725895125071
  30
0.0
  0
VERTEX
  8
Path
  10
91.966739481608
  20
76.906591675282
  30
0.0
  0
VERTEX
  8
Path
  10
91.966899576823
  20
77.095598653158
  30
0.0
  0
VERTEX
  8
Path
  10
91.966263453166
  20
77.29494223992
  30
0.0
  0
VERTEX
  8
Path
  10
91.964582407633
  20
77.506648616791
  30
0.0
  0
VERTEX
  8
Path
  10
91.961607737223
  20
77.73274396499
  30
0.0
  0
VERTEX
  8
Path
  10
91.957090738932
  20
77.975254465739
  30
0.0
  0
VERTEX
  8
Path
  10
91.950782709757
  20
78.236206300259
  30
0.0
  0
VERTEX
  8
Path
  10
91.942434946696
  20
78.51762564977
  30
0.0
  0
VERTEX
  8
Path
  10
91.931798746745
  20
78.821538695494
  30
0.0
  0
VERTEX
  8
Path
  10
91.918625406901
  20
79.149971618652
  30
0.0
  0
VERTEX
  8
Path
  10
91.902666224162
  20
79.504950600465
  30
0.0
  0
VERTEX
  8
Path
  10
91.883672495524
  20
79.888501822154
  30
0.0
  0
VERTEX
  8
Path
  10
91.861395517985
  20
80.302651464939
  30
0.0
  0
VERTEX
  8
Path
  10
91.835586588542
  20
80.749425710042
  30
0.0
  0
VERTEX
  8
Path
  10
91.805997004191
  20
81.230850738684
  30
0.0
  0
VERTEX
  8
Path
  10
91.77237806193
  20
81.748952732086
  30
0.0
  0
VERTEX
  8
Path
  10
91.692057291667
  20
82.903292338053
  30
0.0
  0
VERTEX
  8
Path
  10
91.644939303716
  20
83.542888320287
  30
0.0
  0
VERTEX
  8
Path
  10
91.593284622192
  20
84.223102035522
  30
0.0
  0
VERTEX
  8
Path
  10
91.537332020442
  20
84.941795708338
  30
0.0
  0
VERTEX
  8
Path
  10
91.47732027181
  20
85.696831563314
  30
0.0
  0
VERTEX
  8
Path
  10
91.413488149643
  20
86.486071825027
  30
0.0
  0
VERTEX
  8
Path
  10
91.346074427287
  20
87.307378718058
  30
0.0
  0
VERTEX
  8
Path
  10
91.275317878087
  20
88.158614466985
  30
0.0
  0
VERTEX
  8
Path
  10
91.201457275391
  20
89.037641296387
  30
0.0
  0
VERTEX
  8
Path
  10
91.124731392543
  20
89.942321430842
  30
0.0
  0
VERTEX
  8
Path
  10
91.045379002889
  20
90.87051709493
  30
0.0
  0
VERTEX
  8
Path
  10
90.963638879776
  20
91.820090513229
  30
0.0
  0
VERTEX
  8
Path
  10
90.879749796549
  20
92.788903910319
  30
0.0
  0
VERTEX
  8
Path
  10
90.793950526555
  20
93.774819510778
  30
0.0
  0
VERTEX
  8
Path
  10
90.70647984314
  20
94.775699539185
  30
0.0
  0
VERTEX
  8
Path
  10
90.617576519648
  20
95.789406220118
  30
0.0
  0
VERTEX
  8
Path
  10
90.527479329427
  20
96.813801778158
  30
0.0
  0
VERTEX
  8
Path
  10
90.436427045822
  20
97.846748437881
  30
0.0
  0
VERTEX
  8
Path
  10
90.344658442179
  20
98.886108423869
  30
0.0
  0
VERTEX
  8
Path
  10
90.159927368164
  20
100.975517272949
  30
0.0
  0
SEQEND
  0
ENDBLK
  0
BLOCK
  8
Path
  70
65
  2
*C6
  10
0.0
  20
0.0
  30
0.0
  3
*C
  0
POLYLINE
  8
Path
  6
CONTINUOUS
  62
7
  40
0.019999999553
  41
0.019999999553
  66
1
  0
VERTEX
  8
Path
  10
96.255180358887
  20
45.189273834229
  30
0.0
  0
VERTEX
  8
Path
  10
96.356415955385
  20
44.68813110129
  30
0.0
  0
VERTEX
  8
Path
  10
96.45746167628
  20
44.187773190816
  30
0.0
  0
VERTEX
  8
Path
  10
96.558127645969
  20
43.68898492527
  30
0.0
  0
VERTEX
  8
Path
  10
96.658223988851
  20
43.192551127116
  30
0.0
  0
VERTEX
  8
Path
  10
96.757560829322
  20
42.699256618818
  30
0.0
  0
VERTEX
  8
Path
  10
96.855948291779
  20
42.209886222839
  30
0.0
  0
VERTEX
  8
Path
  10
96.953196500619
  20
41.725224761645
  30
0.0
  0
VERTEX
  8
Path
  10
97.049115580241
  20
41.246057057699
  30
0.0
  0
VERTEX
  8
Path
  10
97.143515655041
  20
40.773167933464
  30
0.0
  0
VERTEX
  8
Path
  10
97.236206849416
  20
40.307342211405
  30
0.0
  0
VERTEX
  8
Path
  10
97.326999287764
  20
39.849364713987
  30
0.0
  0
VERTEX
  8
Path
  10
97.415703094482
  20
39.400020263672
  30
0.0
  0
VERTEX
  8
Path
  10
97.502128393968
  20
38.960093682925
  30
0.0
  0
VERTEX
  8
Path
  10
97.586085310618
  20
38.53036979421
  30
0.0
  0
VERTEX
  8
Path
  10
97.66738396883
  20
38.111633419991
  30
0.0
  0
VERTEX
  8
Path
  10
97.745834493001
  20
37.704669382731
  30
0.0
  0
VERTEX
  8
Path
  10
97.821247007529
  20
37.310262504896
  30
0.0
  0
VERTEX
  8
Path
  10
97.89343163681
  20
36.929197608948
  30
0.0
  0
VERTEX
  8
Path
  10
98.027357737223
  20
36.210233052572
  30
0.0
  0
VERTEX
  8
Path
  10
98.08873211511
  20
35.873658307433
  30
0.0
  0
VERTEX
  8
Path
  10
98.146195053101
  20
35.55209645621
  30
0.0
  0
VERTEX
  8
Path
  10
98.199632623355
  20
35.244863943537
  30
0.0
  0
VERTEX
  8
Path
  10
98.248930898031
  20
34.95127721405
  30
0.0
  0
VERTEX
  8
Path
  10
98.293975949287
  20
34.670652712385
  30
0.0
  0
VERTEX
  8
Path
  10
98.334653849284
  20
34.402306883176
  30
0.0
  0
VERTEX
  8
Path
  10
98.370850670179
  20
34.14555617106
  30
0.0
  0
VERTEX
  8
Path
  10
98.402452484131
  20
33.899717020671
  30
0.0
  0
VERTEX
  8
Path
  10
98.429345363299
  20
33.664105876644
  30
0.0
  0
VERTEX
  8
Path
  10
98.451415379842
  20
33.438039183617
  30
0.0
  0
VERTEX
  8
Path
  10
98.468548605919
  20
33.220833386223
  30
0.0
  0
VERTEX
  8
Path
  10
98.480631113688
  20
33.011804929097
  30
0.0
  0
VERTEX
  8
Path
  10
98.487548975309
  20
32.810270256877
  30
0.0
  0
VERTEX
  8
Path
  10
98.489188262939
  20
32.615545814196
  30
0.0
  0
VERTEX
  8
Path
  10
98.485435048739
  20
32.426948045691
  30
0.0
  0
VERTEX
  8
Path
  10
98.476175404867
  20
32.243793395996
  30
0.0
  0
VERTEX
  8
Path
  10
98.461295403481
  20
32.065398309747
  30
0.0
  0
VERTEX
  8
Path
  10
98.44068111674
  20
31.89107923158
  30
0.0
  0
VERTEX
  8
Path
  10
98.38179397583
  20
31.551934878031
  30
0.0
  0
VERTEX
  8
Path
  10
98.343331242085
  20
31.385885954181
  30
0.0
  0
VERTEX
  8
Path
  10
98.298906368256
  20
31.222039590518
  30
0.0
  0
VERTEX
  8
Path
  10
98.248633283138
  20
31.060573005239
  30
0.0
  0
VERTEX
  8
Path
  10
98.192625915527
  20
30.901663416545
  30
0.0
  0
VERTEX
  8
Path
  10
98.130998194218
  20
30.745488042633
  30
0.0
  0
VERTEX
  8
Path
  10
98.063864048004
  20
30.592224101702
  30
0.0
  0
VERTEX
  8
Path
  10
97.991337405682
  20
30.442048811952
  30
0.0
  0
VERTEX
  8
Path
  10
97.913532196045
  20
30.295139391581
  30
0.0
  0
VERTEX
  8
Path
  10
97.830562347889
  20
30.151673058788
  30
0.0
  0
VERTEX
  8
Path
  10
97.742541790009
  20
30.011827031771
  30
0.0
  0
VERTEX
  8
Path
  10
97.649584451199
  20
29.87577852873
  30
0.0
  0
VERTEX
  8
Path
  10
97.551804260254
  20
29.743704767863
  30
0.0
  0
VERTEX
  8
Path
  10
97.449315145969
  20
29.615782967369
  30
0.0
  0
VERTEX
  8
Path
  10
97.34223103714
  20
29.492190345446
  30
0.0
  0
VERTEX
  8
Path
  10
97.23066586256
  20
29.373104120294
  30
0.0
  0
VERTEX
  8
Path
  10
97.114733551025
  20
29.258701510111
  30
0.0
  0
VERTEX
  8
Path
  10
96.99454803133
  20
29.149159733097
  30
0.0
  0
VERTEX
  8
Path
  10
96.870223232269
  20
29.044656007449
  30
0.0
  0
VERTEX
  8
Path
  10
96.60961151123
  20
28.851471583049
  30
0.0
  0
VERTEX
  8
Path
  10
96.473233875593
  20
28.763003968279
  30
0.0
  0
VERTEX
  8
Path
  10
96.331261248271
  20
28.67943516318
  30
0.0
  0
VERTEX
  8
Path
  10
96.181896130562
  20
28.600094271461
  30
0.0
  0
VERTEX
  8
Path
  10
96.023341023763
  20
28.52431039683
  30
0.0
  0
VERTEX
  8
Path
  10
95.853798429171
  20
28.451412642996
  30
0.0
  0
VERTEX
  8
Path
  10
95.671470848084
  20
28.380730113665
  30
0.0
  0
VERTEX
  8
Path
  10
95.474560781797
  20
28.311591912548
  30
0.0
  0
VERTEX
  8
Path
  10
95.261270731608
  20
28.243327143351
  30
0.0
  0
VERTEX
  8
Path
  10
95.029803198814
  20
28.175264909784
  30
0.0
  0
VERTEX
  8
Path
  10
94.778360684713
  20
28.106734315554
  30
0.0
  0
VERTEX
  8
Path
  10
94.5051456906
  20
28.03706446437
  30
0.0
  0
VERTEX
  8
Path
  10
94.208360717773
  20
27.965584459941
  30
0.0
  0
VERTEX
  8
Path
  10
93.88620826753
  20
27.891623405973
  30
0.0
  0
VERTEX
  8
Path
  10
93.536890841166
  20
27.814510406176
  30
0.0
  0
VERTEX
  8
Path
  10
93.15861093998
  20
27.733574564258
  30
0.0
  0
VERTEX
  8
Path
  10
92.749571065267
  20
27.648144983927
  30
0.0
  0
VERTEX
  8
Path
  10
92.307973718325
  20
27.557550768892
  30
0.0
  0
VERTEX
  8
Path
  10
91.832021400452
  20
27.46112102286
  30
0.0
  0
VERTEX
  8
Path
  10
90.769861857096
  20
27.248071352641
  30
0.0
  0
VERTEX
  8
Path
  10
90.180935175737
  20
27.130337487419
  30
0.0
  0
VERTEX
  8
Path
  10
89.555716777802
  20
27.005451615334
  30
0.0
  0
VERTEX
  8
Path
  10
88.897662413756
  20
26.87410994939
  30
0.0
  0
VERTEX
  8
Path
  10
88.210227834066
  20
26.737008702596
  30
0.0
  0
VERTEX
  8
Path
  10
87.496868789196
  20
26.594844087958
  30
0.0
  0
VERTEX
  8
Path
  10
86.761041029612
  20
26.448312318484
  30
0.0
  0
VERTEX
  8
Path
  10
86.00620030578
  20
26.29810960718
  30
0.0
  0
VERTEX
  8
Path
  10
85.235802368164
  20
26.144932167053
  30
0.0
  0
VERTEX
  8
Path
  10
84.45330296723
  20
25.989476211111
  30
0.0
  0
VERTEX
  8
Path
  10
83.662157853444
  20
25.83243795236
  30
0.0
  0
VERTEX
  8
Path
  10
82.865822777271
  20
25.674513603806
  30
0.0
  0
VERTEX
  8
Path
  10
82.067753489176
  20
25.516399378459
  30
0.0
  0
VERTEX
  8
Path
  10
81.271405739625
  20
25.358791489323
  30
0.0
  0
VERTEX
  8
Path
  10
80.480235279083
  20
25.202386149406
  30
0.0
  0
VERTEX
  8
Path
  10
79.697697858016
  20
25.047879571716
  30
0.0
  0
VERTEX
  8
Path
  10
78.927249226888
  20
24.895967969259
  30
0.0
  0
VERTEX
  8
Path
  10
78.172345136166
  20
24.747347555041
  30
0.0
  0
VERTEX
  8
Path
  10
77.436441336314
  20
24.602714542071
  30
0.0
  0
VERTEX
  8
Path
  10
76.035457611084
  20
24.328195571899
  30
0.0
  0
VERTEX
  8
Path
  10
75.376559217532
  20
24.199552249471
  30
0.0
  0
VERTEX
  8
Path
  10
74.746104302088
  20
24.076782432874
  30
0.0
  0
VERTEX
  8
Path
  10
74.143168800592
  20
23.95968358767
  30
0.0
  0
VERTEX
  8
Path
  10
73.566828648885
  20
23.848053179423
  30
0.0
  0
VERTEX
  8
Path
  10
73.016159782807
  20
23.741688673695
  30
0.0
  0
VERTEX
  8
Path
  10
72.490238138199
  20
23.640387536049
  30
0.0
  0
VERTEX
  8
Path
  10
71.988139650901
  20
23.543947232048
  30
0.0
  0
VERTEX
  8
Path
  10
71.508940256755
  20
23.452165227254
  30
0.0
  0
VERTEX
  8
Path
  10
71.0517158916
  20
23.364838987231
  30
0.0
  0
VERTEX
  8
Path
  10
70.615542491277
  20
23.281765977542
  30
0.0
  0
VERTEX
  8
Path
  10
70.199495991627
  20
23.202743663748
  30
0.0
  0
VERTEX
  8
Path
  10
69.802652328491
  20
23.127569511414
  30
0.0
  0
VERTEX
  8
Path
  10
69.424087437709
  20
23.056040986101
  30
0.0
  0
VERTEX
  8
Path
  10
69.062877255122
  20
22.987955553373
  30
0.0
  0
VERTEX
  8
Path
  10
68.71809771657
  20
22.923110678792
  30
0.0
  0
VERTEX
  8
Path
  10
68.388824757894
  20
22.861303827922
  30
0.0
  0
VERTEX
  8
Path
  10
68.074134314934
  20
22.802332466324
  30
0.0
  0
VERTEX
  8
Path
  10
67.773102323532
  20
22.745994059563
  30
0.0
  0
VERTEX
  8
Path
  10
67.208317438761
  20
22.640405972799
  30
0.0
  0
VERTEX
  8
Path
  10
66.942764940659
  20
22.59076388224
  30
0.0
  0
VERTEX
  8
Path
  10
66.687465778987
  20
22.543020558675
  30
0.0
  0
VERTEX
  8
Path
  10
66.441787031094
  20
22.497049417575
  30
0.0
  0
VERTEX
  8
Path
  10
66.205095774333
  20
22.45272387441
  30
0.0
  0
VERTEX
  8
Path
  10
65.976759086053
  20
22.40991734465
  30
0.0
  0
VERTEX
  8
Path
  10
65.756144043605
  20
22.368503243764
  30
0.0
  0
VERTEX
  8
Path
  10
65.542617724339
  20
22.328354987224
  30
0.0
  0
VERTEX
  8
Path
  10
65.335547205607
  20
22.289345990499
  30
0.0
  0
VERTEX
  8
Path
  10
65.134299564759
  20
22.251349669059
  30
0.0
  0
VERTEX
  8
Path
  10
64.938241879145
  20
22.214239438375
  30
0.0
  0
VERTEX
  8
Path
  10
64.746741226117
  20
22.177888713916
  30
0.0
  0
VERTEX
  8
Path
  10
64.559164683024
  20
22.142170911153
  30
0.0
  0
VERTEX
  8
Path
  10
64.374879327218
  20
22.106959445556
  30
0.0
  0
VERTEX
  8
Path
  10
64.193252236048
  20
22.072127732595
  30
0.0
  0
VERTEX
  8
Path
  10
64.013650486867
  20
22.03754918774
  30
0.0
  0
VERTEX
  8
Path
  10
63.835441157023
  20
22.003097226461
  30
0.0
  0
VERTEX
  8
Path
  10
63.657991323868
  20
21.968645264228
  30
0.0
  0
VERTEX
  8
Path
  10
63.480668064753
  20
21.934066716512
  30
0.0
  0
VERTEX
  8
Path
  10
63.123869578044
  20
21.86402352651
  30
0.0
  0
VERTEX
  8
Path
  10
62.943248760541
  20
21.828331032077
  30
0.0
  0
VERTEX
  8
Path
  10
62.760944358826
  20
21.792157515526
  30
0.0
  0
VERTEX
  8
Path
  10
62.577044982592
  20
21.755528293808
  30
0.0
  0
VERTEX
  8
Path
  10
62.391639241536
  20
21.718468683879
  30
0.0
  0
VERTEX
  8
Path
  10
62.204815745354
  20
21.68100400269
  30
0.0
  0
VERTEX
  8
Path
  10
62.016663103739
  20
21.643159567197
  30
0.0
  0
VERTEX
  8
Path
  10
61.827269926389
  20
21.604960694353
  30
0.0
  0
VERTEX
  8
Path
  10
61.636724822998
  20
21.566432701111
  30
0.0
  0
VERTEX
  8
Path
  10
61.445116403262
  20
21.527600904425
  30
0.0
  0
VERTEX
  8
Path
  10
61.252533276876
  20
21.488490621249
  30
0.0
  0
VERTEX
  8
Path
  10
61.059064053535
  20
21.449127168536
  30
0.0
  0
VERTEX
  8
Path
  10
60.864797342936
  20
21.409535863241
  30
0.0
  0
VERTEX
  8
Path
  10
60.669821754773
  20
21.369742022316
  30
0.0
  0
VERTEX
  8
Path
  10
60.474225898743
  20
21.329770962715
  30
0.0
  0
VERTEX
  8
Path
  10
60.278098384539
  20
21.289648001393
  30
0.0
  0
VERTEX
  8
Path
  10
60.081527821859
  20
21.249398455302
  30
0.0
  0
VERTEX
  8
Path
  10
59.884602820396
  20
21.209047641397
  30
0.0
  0
VERTEX
  8
Path
  10
59.687411989848
  20
21.16862087663
  30
0.0
  0
VERTEX
  8
Path
  10
59.292587280273
  20
21.087640762329
  30
0.0
  0
SEQEND
  0
ENDBLK
  0
BLOCK
  8
Path
  70
65
  2
*C7
  10
0.0
  20
0.0
  30
0.0
  3
*C
  0
POLYLINE
  8
Path
  6
CONTINUOUS
  62
7
  40
0.019999999553
  41
0.019999999553
  66
1
  0
VERTEX
  8
Path
  10
59.495121002197
  20
19.264827728271
  30
0.0
  0
VERTEX
  8
Path
  10
60.892222549041
  20
19.543234966119
  30
0.0
  0
VERTEX
  8
Path
  10
62.286994946162
  20
19.821173842112
  30
0.0
  0
VERTEX
  8
Path
  10
63.677109043837
  20
20.098175994396
  30
0.0
  0
VERTEX
  8
Path
  10
65.060235692342
  20
20.373773061117
  30
0.0
  0
VERTEX
  8
Path
  10
66.434045741955
  20
20.647496680419
  30
0.0
  0
VERTEX
  8
Path
  10
67.796210042954
  20
20.918878490448
  30
0.0
  0
VERTEX
  8
Path
  10
69.144399445613
  20
21.18745012935
  30
0.0
  0
VERTEX
  8
Path
  10
70.476284800212
  20
21.45274323527
  30
0.0
  0
VERTEX
  8
Path
  10
71.789536957026
  20
21.714289446354
  30
0.0
  0
VERTEX
  8
Path
  10
73.081826766332
  20
21.971620400747
  30
0.0
  0
VERTEX
  8
Path
  10
74.350825078408
  20
22.224267736594
  30
0.0
  0
VERTEX
  8
Path
  10
75.59420274353
  20
22.471763092041
  30
0.0
  0
VERTEX
  8
Path
  10
76.809630611976
  20
22.713638105234
  30
0.0
  0
VERTEX
  8
Path
  10
77.994779534022
  20
22.949424414317
  30
0.0
  0
VERTEX
  8
Path
  10
79.147320359945
  20
23.178653657436
  30
0.0
  0
VERTEX
  8
Path
  10
80.264923940023
  20
23.400857472738
  30
0.0
  0
VERTEX
  8
Path
  10
81.345261124531
  20
23.615567498366
  30
0.0
  0
VERTEX
  8
Path
  10
82.386002763748
  20
23.822315372467
  30
0.0
  0
VERTEX
  8
Path
  10
84.339382807414
  20
24.210051218669
  30
0.0
  0
VERTEX
  8
Path
  10
85.247962077856
  20
24.390222722212
  30
0.0
  0
VERTEX
  8
Path
  10
86.111224196752
  20
24.561280157725
  30
0.0
  0
VERTEX
  8
Path
  10
86.930435007016
  20
24.723476694266
  30
0.0
  0
VERTEX
  8
Path
  10
87.706860351562
  20
24.877065500895
  30
0.0
  0
VERTEX
  8
Path
  10
88.441766073306
  20
25.022299746672
  30
0.0
  0
VERTEX
  8
Path
  10
89.136418015162
  20
25.159432600657
  30
0.0
  0
VERTEX
  8
Path
  10
89.792082020044
  20
25.288717231909
  30
0.0
  0
VERTEX
  8
Path
  10
90.410023930868
  20
25.410406809489
  30
0.0
  0
VERTEX
  8
Path
  10
90.991509590546
  20
25.524754502455
  30
0.0
  0
VERTEX
  8
Path
  10
91.537804841995
  20
25.632013479869
  30
0.0
  0
VERTEX
  8
Path
  10
92.050175528129
  20
25.732436910788
  30
0.0
  0
VERTEX
  8
Path
  10
92.529887491862
  20
25.826277964274
  30
0.0
  0
VERTEX
  8
Path
  10
92.978206576109
  20
25.913789809386
  30
0.0
  0
VERTEX
  8
Path
  10
93.396398623784
  20
25.995225615184
  30
0.0
  0
VERTEX
  8
Path
  10
93.785729477803
  20
26.070838550727
  30
0.0
  0
VERTEX
  8
Path
  10
94.147464981079
  20
26.140881785075
  30
0.0
  0
VERTEX
  8
Path
  10
94.482870976528
  20
26.205608487288
  30
0.0
  0
VERTEX
  8
Path
  10
94.793213307063
  20
26.265271826426
  30
0.0
  0
VERTEX
  8
Path
  10
95.343770345052
  20
26.370421091715
  30
0.0
  0
VERTEX
  8
Path
  10
95.586516737938
  20
26.416371161024
  30
0.0
  0
VERTEX
  8
Path
  10
95.809262835185
  20
26.458017373721
  30
0.0
  0
VERTEX
  8
Path
  10
96.013274477323
  20
26.495359729091
  30
0.0
  0
VERTEX
  8
Path
  10
96.199817504883
  20
26.52839822642
  30
0.0
  0
VERTEX
  8
Path
  10
96.370157758395
  20
26.557132864992
  30
0.0
  0
VERTEX
  8
Path
  10
96.525561078389
  20
26.581563644091
  30
0.0
  0
VERTEX
  8
Path
  10
96.667293305397
  20
26.601690563003
  30
0.0
  0
VERTEX
  8
Path
  10
96.796620279948
  20
26.617513621012
  30
0.0
  0
VERTEX
  8
Path
  10
96.914807842573
  20
26.629032817403
  30
0.0
  0
VERTEX
  8
Path
  10
97.023121833801
  20
26.636248151461
  30
0.0
  0
VERTEX
  8
Path
  10
97.122828094165
  20
26.639159622471
  30
0.0
  0
VERTEX
  8
Path
  10
97.215192464193
  20
26.637767229716
  30
0.0
  0
VERTEX
  8
Path
  10
97.301480784416
  20
26.632070972482
  30
0.0
  0
VERTEX
  8
Path
  10
97.382958895365
  20
26.622070850054
  30
0.0
  0
VERTEX
  8
Path
  10
97.460892637571
  20
26.607766861717
  30
0.0
  0
VERTEX
  8
Path
  10
97.536547851563
  20
26.589159006755
  30
0.0
  0
VERTEX
  8
Path
  10
97.611190377871
  20
26.566247284452
  30
0.0
  0
VERTEX
  8
Path
  10
97.686086057027
  20
26.539031694094
  30
0.0
  0
VERTEX
  8
Path
  10
97.841700236003
  20
26.471688906352
  30
0.0
  0
VERTEX
  8
Path
  10
97.924659273783
  20
26.431612341444
  30
0.0
  0
VERTEX
  8
Path
  10
98.011187967936
  20
26.387535709063
  30
0.0
  0
VERTEX
  8
Path
  10
98.100805300395
  20
26.339762811939
  30
0.0
  0
VERTEX
  8
Path
  10
98.193030253092
  20
26.288597452799
  30
0.0
  0
VERTEX
  8
Path
  10
98.287381807963
  20
26.234343434374
  30
0.0
  0
VERTEX
  8
Path
  10
98.38337894694
  20
26.17730455939
  30
0.0
  0
VERTEX
  8
Path
  10
98.480540651957
  20
26.117784630577
  30
0.0
  0
VERTEX
  8
Path
  10
98.578385904948
  20
26.056087450663
  30
0.0
  0
VERTEX
  8
Path
  10
98.676433687846
  20
25.992516822378
  30
0.0
  0
VERTEX
  8
Path
  10
98.774202982585
  20
25.927376548449
  30
0.0
  0
VERTEX
  8
Path
  10
98.871212771098
  20
25.860970431606
  30
0.0
  0
VERTEX
  8
Path
  10
98.966982035319
  20
25.793602274577
  30
0.0
  0
VERTEX
  8
Path
  10
99.061029757182
  20
25.72557588009
  30
0.0
  0
VERTEX
  8
Path
  10
99.15287491862
  20
25.657195050875
  30
0.0
  0
VERTEX
  8
Path
  10
99.242036501567
  20
25.58876358966
  30
0.0
  0
VERTEX
  8
Path
  10
99.328033487956
  20
25.520585299174
  30
0.0
  0
VERTEX
  8
Path
  10
99.410384859721
  20
25.452963982145
  30
0.0
  0
VERTEX
  8
Path
  10
99.488609598796
  20
25.386203441302
  30
0.0
  0
VERTEX
  8
Path
  10
99.630755106608
  20
25.256479899089
  30
0.0
  0
VERTEX
  8
Path
  10
99.693880507946
  20
25.193808042487
  30
0.0
  0
VERTEX
  8
Path
  10
99.751955216726
  20
25.131313408852
  30
0.0
  0
VERTEX
  8
Path
  10
99.805498227278
  20
25.067401036779
  30
0.0
  0
VERTEX
  8
Path
  10
99.855028533936
  20
25.000475964864
  30
0.0
  0
VERTEX
  8
Path
  10
99.901065131028
  20
24.928943231702
  30
0.0
  0
VERTEX
  8
Path
  10
99.944127012889
  20
24.851207875888
  30
0.0
  0
VERTEX
  8
Path
  10
99.984733173847
  20
24.765674936016
  30
0.0
  0
VERTEX
  8
Path
  10
100.023402608236
  20
24.670749450684
  30
0.0
  0
VERTEX
  8
Path
  10
100.060654310385
  20
24.564836458484
  30
0.0
  0
VERTEX
  8
Path
  10
100.097007274628
  20
24.446340998014
  30
0.0
  0
VERTEX
  8
Path
  10
100.132980495294
  20
24.313668107867
  30
0.0
  0
VERTEX
  8
Path
  10
100.169092966716
  20
24.16522282664
  30
0.0
  0
VERTEX
  8
Path
  10
100.205863683224
  20
23.999410192927
  30
0.0
  0
VERTEX
  8
Path
  10
100.24381163915
  20
23.814635245323
  30
0.0
  0
VERTEX
  8
Path
  10
100.283455828826
  20
23.609303022424
  30
0.0
  0
VERTEX
  8
Path
  10
100.325315246582
  20
23.381818562826
  30
0.0
  0
VERTEX
  8
Path
  10
100.369908886751
  20
23.130586905122
  30
0.0
  0
VERTEX
  8
Path
  10
100.417755743663
  20
22.854013087908
  30
0.0
  0
VERTEX
  8
Path
  10
100.525285085042
  20
22.218459129333
  30
0.0
  0
VERTEX
  8
Path
  10
100.58587897412
  20
21.856805950761
  30
0.0
  0
VERTEX
  8
Path
  10
100.651042552948
  20
21.46653208065
  30
0.0
  0
VERTEX
  8
Path
  10
100.72053531154
  20
21.049143871188
  30
0.0
  0
VERTEX
  8
Path
  10
100.794116739909
  20
20.606147674561
  30
0.0
  0
VERTEX
  8
Path
  10
100.871546328068
  20
20.139049842954
  30
0.0
  0
VERTEX
  8
Path
  10
100.95258356603
  20
19.649356728554
  30
0.0
  0
VERTEX
  8
Path
  10
101.036987943808
  20
19.138574683547
  30
0.0
  0
VERTEX
  8
Path
  10
101.124518951416
  20
18.60821006012
  30
0.0
  0
VERTEX
  8
Path
  10
101.214936078866
  20
18.059769210458
  30
0.0
  0
VERTEX
  8
Path
  10
101.307998816172
  20
17.494758486748
  30
0.0
  0
VERTEX
  8
Path
  10
101.403466653347
  20
16.914684241176
  30
0.0
  0
VERTEX
  8
Path
  10
101.501099080404
  20
16.321052825928
  30
0.0
  0
VERTEX
  8
Path
  10
101.600655587355
  20
15.71537059319
  30
0.0
  0
VERTEX
  8
Path
  10
101.701895664215
  20
15.099143895149
  30
0.0
  0
VERTEX
  8
Path
  10
101.804578800996
  20
14.473879083991
  30
0.0
  0
VERTEX
  8
Path
  10
101.908464487712
  20
13.841082511902
  30
0.0
  0
VERTEX
  8
Path
  10
102.013312214375
  20
13.202260531068
  30
0.0
  0
VERTEX
  8
Path
  10
102.118881470998
  20
12.558919493675
  30
0.0
  0
VERTEX
  8
Path
  10
102.33122253418
  20
11.264705657959
  30
0.0
  0
SEQEND
  0
ENDBLK
  0
BLOCK
  8
Path
  70
65
  2
*C8
  10
0.0
  20
0.0
  30
0.0
  3
*C
  0
POLYLINE
  8
Path
  6
CONTINUOUS
  62
7
  40
0.019999999553
  41
0.019999999553
  66
1
  0
VERTEX
  8
Path
  10
102.229949951172
  20
11.214071273804
  30
0.0
  0
VERTEX
  8
Path
  10
99.900802612305
  20
-0.330408632755
  30
0.0
  0
SEQEND
  0
ENDBLK
  0
BLOCK
  8
Path
  70
65
  2
*C9
  10
0.0
  20
0.0
  30
0.0
  3
*C
  0
POLYLINE
  8
Path
  6
CONTINUOUS
  62
7
  40
0.019999999553
  41
0.019999999553
  66
1
  0
VERTEX
  8
Path
  10
179.067123413086
  20
42.79313659668
  30
0.0
  0
VERTEX
  8
Path
  10
176.887790041606
  20
42.369421038429
  30
0.0
  0
VERTEX
  8
Path
  10
174.710819478353
  20
41.946131399473
  30
0.0
  0
VERTEX
  8
Path
  10
172.538574531555
  20
41.523693599105
  30
0.0
  0
VERTEX
  8
Path
  10
170.37341800944
  20
41.10253355662
  30
0.0
  0
VERTEX
  8
Path
  10
168.217712720235
  20
40.683077191313
  30
0.0
  0
VERTEX
  8
Path
  10
166.073821472168
  20
40.265750422478
  30
0.0
  0
VERTEX
  8
Path
  10
163.944107073466
  20
39.850979169408
  30
0.0
  0
VERTEX
  8
Path
  10
161.830932332357
  20
39.4391893514
  30
0.0
  0
VERTEX
  8
Path
  10
159.736660057068
  20
39.030806887746
  30
0.0
  0
VERTEX
  8
Path
  10
157.663653055827
  20
38.626257697741
  30
0.0
  0
VERTEX
  8
Path
  10
155.614274136861
  20
38.22596770068
  30
0.0
  0
VERTEX
  8
Path
  10
153.590886108398
  20
37.830362815857
  30
0.0
  0
VERTEX
  8
Path
  10
151.595851778666
  20
37.439868962566
  30
0.0
  0
VERTEX
  8
Path
  10
149.631533955892
  20
37.054912060102
  30
0.0
  0
VERTEX
  8
Path
  10
147.700295448303
  20
36.675918027759
  30
0.0
  0
VERTEX
  8
Path
  10
145.804499064128
  20
36.303312784831
  30
0.0
  0
VERTEX
  8
Path
  10
143.946507611593
  20
35.937522250613
  30
0.0
  0
VERTEX
  8
Path
  10
142.128683898926
  20
35.578972344399
  30
0.0
  0
VERTEX
  8
Path
  10
138.622990926107
  20
34.88529809316
  30
0.0
  0
VERTEX
  8
Path
  10
136.939411650181
  20
34.550962130149
  30
0.0
  0
VERTEX
  8
Path
  10
135.30283755366
  20
34.225189732869
  30
0.0
  0
VERTEX
  8
Path
  10
133.713017651399
  20
33.908026081165
  30
0.0
  0
VERTEX
  8
Path
  10
132.169700958252
  20
33.599516354879
  30
0.0
  0
VERTEX
  8
Path
  10
130.672636489073
  20
33.299705733856
  30
0.0
  0
VERTEX
  8
Path
  10
129.221573258718
  20
33.008639397939
  30
0.0
  0
VERTEX
  8
Path
  10
127.81626028204
  20
32.726362526973
  30
0.0
  0
VERTEX
  8
Path
  10
126.456446573893
  20
32.452920300802
  30
0.0
  0
VERTEX
  8
Path
  10
125.141881149133
  20
32.188357899268
  30
0.0
  0
VERTEX
  8
Path
  10
123.872313022614
  20
31.932720502218
  30
0.0
  0
VERTEX
  8
Path
  10
122.647491209189
  20
31.686053289493
  30
0.0
  0
VERTEX
  8
Path
  10
121.467164723714
  20
31.448401440938
  30
0.0
  0
VERTEX
  8
Path
  10
120.331082581043
  20
31.219810136398
  30
0.0
  0
VERTEX
  8
Path
  10
119.238993796031
  20
31.000324555715
  30
0.0
  0
VERTEX
  8
Path
  10
118.190647383531
  20
30.789989878734
  30
0.0
  0
VERTEX
  8
Path
  10
117.185792358398
  20
30.588851285299
  30
0.0
  0
VERTEX
  8
Path
  10
116.224177735488
  20
30.396953955253
  30
0.0
  0
VERTEX
  8
Path
  10
115.305552529653
  20
30.214343068441
  30
0.0
  0
VERTEX
  8
Path
  10
113.59626642863
  20
29.877161343892
  30
0.0
  0
VERTEX
  8
Path
  10
112.804931504091
  20
29.722605649233
  30
0.0
  0
VERTEX
  8
Path
  10
112.054549701691
  20
29.577065817515
  30
0.0
  0
VERTEX
  8
Path
  10
111.343837681929
  20
29.440135728916
  30
0.0
  0
VERTEX
  8
Path
  10
110.671512105306
  20
29.311409263611
  30
0.0
  0
VERTEX
  8
Path
  10
110.03628963232
  20
29.190480301778
  30
0.0
  0
VERTEX
  8
Path
  10
109.436886923472
  20
29.076942723592
  30
0.0
  0
VERTEX
  8
Path
  10
108.872020639261
  20
28.970390409231
  30
0.0
  0
VERTEX
  8
Path
  10
108.340407440186
  20
28.870417238871
  30
0.0
  0
VERTEX
  8
Path
  10
107.840763986746
  20
28.776617092689
  30
0.0
  0
VERTEX
  8
Path
  10
107.371806939443
  20
28.688583850861
  30
0.0
  0
VERTEX
  8
Path
  10
106.932252958775
  20
28.605911393563
  30
0.0
  0
VERTEX
  8
Path
  10
106.520818705241
  20
28.528193600972
  30
0.0
  0
VERTEX
  8
Path
  10
106.136220839341
  20
28.455024353266
  30
0.0
  0
VERTEX
  8
Path
  10
105.777176021576
  20
28.385997530619
  30
0.0
  0
VERTEX
  8
Path
  10
105.442400912444
  20
28.32070701321
  30
0.0
  0
VERTEX
  8
Path
  10
105.130612172445
  20
28.258746681213
  30
0.0
  0
VERTEX
  8
Path
  10
104.840526462078
  20
28.199710414807
  30
0.0
  0
VERTEX
  8
Path
  10
104.570860441844
  20
28.143192094167
  30
0.0
  0
VERTEX
  8
Path
  10
104.08765411377
  20
28.036084810893
  30
0.0
  0
VERTEX
  8
Path
  10
103.871631058534
  20
27.984726927996
  30
0.0
  0
VERTEX
  8
Path
  10
103.671397925059
  20
27.934522427877
  30
0.0
  0
VERTEX
  8
Path
  10
103.486174963474
  20
27.885325107018
  30
0.0
  0
VERTEX
  8
Path
  10
103.31518242391
  20
27.836988761902
  30
0.0
  0
VERTEX
  8
Path
  10
103.157640556494
  20
27.78936718901
  30
0.0
  0
VERTEX
  8
Path
  10
103.012769611359
  20
27.742314184825
  30
0.0
  0
VERTEX
  8
Path
  10
102.879789838632
  20
27.695683545828
  30
0.0
  0
VERTEX
  8
Path
  10
102.757921488444
  20
27.649329068502
  30
0.0
  0
VERTEX
  8
Path
  10
102.646384810925
  20
27.603104549328
  30
0.0
  0
VERTEX
  8
Path
  10
102.544400056203
  20
27.55686378479
  30
0.0
  0
VERTEX
  8
Path
  10
102.45118747441
  20
27.510460571369
  30
0.0
  0
VERTEX
  8
Path
  10
102.365967315674
  20
27.463748705546
  30
0.0
  0
VERTEX
  8
Path
  10
102.287959830125
  20
27.416581983805
  30
0.0
  0
VERTEX
  8
Path
  10
102.216385267893
  20
27.368814202627
  30
0.0
  0
VERTEX
  8
Path
  10
102.150463879108
  20
27.320299158494
  30
0.0
  0
VERTEX
  8
Path
  10
102.0894159139
  20
27.270890647888
  30
0.0
  0
VERTEX
  8
Path
  10
102.032461622397
  20
27.220442467292
  30
0.0
  0
VERTEX
  8
Path
  10
101.97882125473
  20
27.168808413188
  30
0.0
  0
VERTEX
  8
Path
  10
101.878363291423
  20
27.061397870382
  30
0.0
  0
VERTEX
  8
Path
  10
101.830124276956
  20
27.005369586786
  30
0.0
  0
VERTEX
  8
Path
  10
101.782908672333
  20
26.947814288457
  30
0.0
  0
VERTEX
  8
Path
  10
101.736765213172
  20
26.888829444726
  30
0.0
  0
VERTEX
  8
Path
  10
101.691742635091
  20
26.828512524923
  30
0.0
  0
VERTEX
  8
Path
  10
101.64788967371
  20
26.766960998376
  30
0.0
  0
VERTEX
  8
Path
  10
101.605255064646
  20
26.704272334417
  30
0.0
  0
VERTEX
  8
Path
  10
101.563887543519
  20
26.640544002374
  30
0.0
  0
VERTEX
  8
Path
  10
101.523835845947
  20
26.575873471578
  30
0.0
  0
VERTEX
  8
Path
  10
101.485148707549
  20
26.510358211358
  30
0.0
  0
VERTEX
  8
Path
  10
101.447874863942
  20
26.444095691045
  30
0.0
  0
VERTEX
  8
Path
  10
101.412063050747
  20
26.377183379968
  30
0.0
  0
VERTEX
  8
Path
  10
101.377762003581
  20
26.309718747457
  30
0.0
  0
VERTEX
  8
Path
  10
101.345020458062
  20
26.241799262842
  30
0.0
  0
VERTEX
  8
Path
  10
101.313887149811
  20
26.173522395452
  30
0.0
  0
VERTEX
  8
Path
  10
101.284410814444
  20
26.104985614618
  30
0.0
  0
VERTEX
  8
Path
  10
101.256640187581
  20
26.036286389669
  30
0.0
  0
VERTEX
  8
Path
  10
101.230624004841
  20
25.967522189935
  30
0.0
  0
VERTEX
  8
Path
  10
101.206411001841
  20
25.898790484746
  30
0.0
  0
VERTEX
  8
Path
  10
101.163589477539
  20
25.761814435323
  30
0.0
  0
VERTEX
  8
Path
  10
101.145073012193
  20
25.693678390662
  30
0.0
  0
VERTEX
  8
Path
  10
101.128522177378
  20
25.625444883347
  30
0.0
  0
VERTEX
  8
Path
  10
101.11395321703
  20
25.556691548189
  30
0.0
  0
VERTEX
  8
Path
  10
101.101382375081
  20
25.486996019999
  30
0.0
  0
VERTEX
  8
Path
  10
101.090825895468
  20
25.41593593359
  30
0.0
  0
VERTEX
  8
Path
  10
101.082300022125
  20
25.343088923772
  30
0.0
  0
VERTEX
  8
Path
  10
101.075820998987
  20
25.268032625357
  30
0.0
  0
VERTEX
  8
Path
  10
101.071405069987
  20
25.190344673157
  30
0.0
  0
VERTEX
  8
Path
  10
101.069068479061
  20
25.109602701982
  30
0.0
  0
VERTEX
  8
Path
  10
101.068827470144
  20
25.025384346644
  30
0.0
  0
VERTEX
  8
Path
  10
101.070698287169
  20
24.937267241955
  30
0.0
  0
VERTEX
  8
Path
  10
101.074697174072
  20
24.844829022725
  30
0.0
  0
VERTEX
  8
Path
  10
101.080840374788
  20
24.747647323767
  30
0.0
  0
VERTEX
  8
Path
  10
101.08914413325
  20
24.645299779892
  30
0.0
  0
VERTEX
  8
Path
  10
101.099624693394
  20
24.537364025911
  30
0.0
  0
VERTEX
  8
Path
  10
101.112298299154
  20
24.423417696635
  30
0.0
  0
VERTEX
  8
Path
  10
101.127181194464
  20
24.303038426876
  30
0.0
  0
VERTEX
  8
Path
  10
101.144289623261
  20
24.175803851446
  30
0.0
  0
VERTEX
  8
Path
  10
101.185248057048
  20
23.899079322815
  30
0.0
  0
VERTEX
  8
Path
  10
101.2091197203
  20
23.748798788726
  30
0.0
  0
VERTEX
  8
Path
  10
101.235216915131
  20
23.590298385143
  30
0.0
  0
VERTEX
  8
Path
  10
101.263490907828
  20
23.423480643809
  30
0.0
  0
VERTEX
  8
Path
  10
101.293892964681
  20
23.248248096466
  30
0.0
  0
VERTEX
  8
Path
  10
101.326374351978
  20
23.064503274858
  30
0.0
  0
VERTEX
  8
Path
  10
101.360886336009
  20
22.872148710728
  30
0.0
  0
VERTEX
  8
Path
  10
101.397380183061
  20
22.671086935818
  30
0.0
  0
VERTEX
  8
Path
  10
101.435807159424
  20
22.461220481873
  30
0.0
  0
VERTEX
  8
Path
  10
101.476118531386
  20
22.242451880634
  30
0.0
  0
VERTEX
  8
Path
  10
101.518265565236
  20
22.014683663845
  30
0.0
  0
VERTEX
  8
Path
  10
101.562199527264
  20
21.777818363249
  30
0.0
  0
VERTEX
  8
Path
  10
101.607871683757
  20
21.53175851059
  30
0.0
  0
VERTEX
  8
Path
  10
101.655233301004
  20
21.276406637609
  30
0.0
  0
VERTEX
  8
Path
  10
101.704235645294
  20
21.011665276051
  30
0.0
  0
VERTEX
  8
Path
  10
101.754829982917
  20
20.737436957657
  30
0.0
  0
VERTEX
  8
Path
  10
101.80696758016
  20
20.453624214172
  30
0.0
  0
VERTEX
  8
Path
  10
101.860599703312
  20
20.160129577339
  30
0.0
  0
VERTEX
  8
Path
  10
101.915677618663
  20
19.856855578899
  30
0.0
  0
VERTEX
  8
Path
  10
102.029975891113
  20
19.220579624176
  30
0.0
  0
VERTEX
  8
Path
  10
102.089096073151
  20
18.887482907474
  30
0.0
  0
VERTEX
  8
Path
  10
102.149450866699
  20
18.544818012714
  30
0.0
  0
VERTEX
  8
Path
  10
102.210975292206
  20
18.193088528216
  30
0.0
  0
VERTEX
  8
Path
  10
102.273604370117
  20
17.832798042297
  30
0.0
  0
VERTEX
  8
Path
  10
102.33727312088
  20
17.464450143278
  30
0.0
  0
VERTEX
  8
Path
  10
102.401916564941
  20
17.088548419476
  30
0.0
  0
VERTEX
  8
Path
  10
102.467469722748
  20
16.70559645921
  30
0.0
  0
VERTEX
  8
Path
  10
102.533867614746
  20
16.3160978508
  30
0.0
  0
VERTEX
  8
Path
  10
102.601045261383
  20
15.920556182563
  30
0.0
  0
VERTEX
  8
Path
  10
102.668937683105
  20
15.51947504282
  30
0.0
  0
VERTEX
  8
Path
  10
102.73747990036
  20
15.113358019888
  30
0.0
  0
VERTEX
  8
Path
  10
102.806606933594
  20
14.702708702087
  30
0.0
  0
VERTEX
  8
Path
  10
102.876253803253
  20
14.288030677736
  30
0.0
  0
VERTEX
  8
Path
  10
102.946355529785
  20
13.869827535152
  30
0.0
  0
VERTEX
  8
Path
  10
103.016847133636
  20
13.448602862656
  30
0.0
  0
VERTEX
  8
Path
  10
103.087663635254
  20
13.024860248566
  30
0.0
  0
VERTEX
  8
Path
  10
103.158740055084
  20
12.5991032812
  30
0.0
  0
VERTEX
  8
Path
  10
103.230011413574
  20
12.171835548878
  30
0.0
  0
VERTEX
  8
Path
  10
103.37287902832
  20
11.314782142639
  30
0.0
  0
SEQEND
  0
ENDBLK
  0
BLOCK
  8
Path
  70
65
  2
*C10
  10
0.0
  20
0.0
  30
0.0
  3
*C
  0
POLYLINE
  8
Path
  6
CONTINUOUS
  62
7
  40
0.019999999553
  41
0.019999999553
  66
1
  0
VERTEX
  8
Path
  10
103.242919921875
  20
11.379758834839
  30
0.0
  0
VERTEX
  8
Path
  10
100.903671264648
  20
-0.316489070654
  30
0.0
  0
SEQEND
  0
ENDBLK
  0
ENDSEC
  0
SECTION
  2
ENTITIES
  0
POLYLINE
  8
Boundary
  6
CONTINUOUS
  62
7
  40
0.10000000149
  41
0.10000000149
  66
1
  0
VERTEX
  8
Boundary
  10
146.3603515625
  20
154.383148193359
  30
0.0
  0
VERTEX
  8
Boundary
  10
140.669082641602
  20
153.419296264648
  30
0.0
  0
VERTEX
  8
Boundary
  10
140.485488891602
  20
155.117492675781
  30
0.0
  0
SEQEND
  0
POLYLINE
  8
Boundary
  6
CONTINUOUS
  62
7
  40
0.10000000149
  41
0.10000000149
  66
1
  0
VERTEX
  8
Boundary
  10
130.250396728516
  20
153.373397827148
  30
0.0
  0
VERTEX
  8
Boundary
  10
126.92073059082
  20
160.017639160156
  30
0.0
  0
SEQEND
  0
POLYLINE
  8
Boundary
  6
CONTINUOUS
  62
7
  40
0.10000000149
  41
0.10000000149
  66
1
  0
VERTEX
  8
Boundary
  10
26.033008575439
  20
130.649887084961
  30
0.0
  0
VERTEX
  8
Boundary
  10
34.496173858643
  20
135.251174926758
  30
0.0
  0
VERTEX
  8
Boundary
  10
19.257207870483
  20
159.969268798828
  30
0.0
  0
SEQEND
  0
POLYLINE
  8
Boundary
  6
CONTINUOUS
  62
7
  40
0.10000000149
  41
0.10000000149
  66
1
  0
VERTEX
  8
Boundary
  10
24.973628997803
  20
150.607955932617
  30
0.0
  0
VERTEX
  8
Boundary
  10
41.449417114258
  20
159.997940063477
  30
0.0
  0
SEQEND
  0
POLYLINE
  8
Boundary
  6
CONTINUOUS
  62
7
  40
0.10000000149
  41
0.10000000149
  66
1
  0
VERTEX
  8
Boundary
  10
146.309356689453
  20
156.066787719727
  30
0.0
  0
VERTEX
  8
Boundary
  10
165.624328613281
  20
159.056182861328
  30
0.0
  0
SEQEND
  0
POLYLINE
  8
Boundary
  6
CONTINUOUS
  62
7
  40
0.10000000149
  41
0.10000000149
  66
1
  0
VERTEX
  8
Boundary
  10
165.0
  20
160.0
  30
0.0
  0
VERTEX
  8
Boundary
  10
168.161743164063
  20
153.162826538086
  30
0.0
  0
VERTEX
  8
Boundary
  10
167.998046875
  20
128.484405517578
  30
0.0
  0
SEQEND
  0
POLYLINE
  8
Boundary
  6
CONTINUOUS
  62
7
  40
0.10000000149
  41
0.10000000149
  66
1
  0
VERTEX
  8
Boundary
  10
150.972793579102
  20
129.814514160156
  30
0.0
  0
VERTEX
  8
Boundary
  10
153.2646484375
  20
130.305633544922
  30
0.0
  0
VERTEX
  8
Boundary
  10
154.410583496094
  20
125.558204650879
  30
0.0
  0
VERTEX
  8
Boundary
  10
152.200576782227
  20
124.739677429199
  30
0.0
  0
SEQEND
  0
POLYLINE
  8
Boundary
  6
CONTINUOUS
  62
7
  40
0.10000000149
  41
0.10000000149
  66
1
  70
1
  0
VERTEX
  8
Boundary
  10
155.474655151367
  20
126.949691772461
  30
0.0
  0
VERTEX
  8
Boundary
  10
156.047622680664
  20
121.874855041504
  30
0.0
  0
VERTEX
  8
Boundary
  10
160.63134765625
  20
122.529670715332
  30
0.0
  0
VERTEX
  8
Boundary
  10
160.63134765625
  20
120.319664001465
  30
0.0
  0
VERTEX
  8
Boundary
  10
164.887664794922
  20
120.810775756836
  30
0.0
  0
VERTEX
  8
Boundary
  10
164.887664794922
  20
122.693374633789
  30
0.0
  0
VERTEX
  8
Boundary
  10
169.143981933594
  20
123.430046081543
  30
0.0
  0
VERTEX
  8
Boundary
  10
168.489151000977
  20
128.423034667969
  30
0.0
  0
VERTEX
  8
Boundary
  10
164.150985717773
  20
127.931915283203
  30
0.0
  0
VERTEX
  8
Boundary
  10
163.987289428711
  20
129.650817871094
  30
0.0
  0
VERTEX
  8
Boundary
  10
159.403564453125
  20
129.077850341797
  30
0.0
  0
VERTEX
  8
Boundary
  10
159.567260742188
  20
127.440803527832
  30
0.0
  0
SEQEND
  0
POLYLINE
  8
Boundary
  6
CONTINUOUS
  62
7
  40
0.10000000149
  41
0.10000000149
  66
1
  0
VERTEX
  8
Boundary
  10
168.161743164063
  20
144.138656616211
  30
0.0
  0
VERTEX
  8
Boundary
  10
199.96061706543
  20
147.706756591797
  30
0.0
  0
SEQEND
  0
POLYLINE
  8
Boundary
  6
CONTINUOUS
  62
7
  40
0.10000000149
  41
0.10000000149
  66
1
  0
VERTEX
  8
Boundary
  10
169.143981933594
  20
123.839309692383
  30
0.0
  0
VERTEX
  8
Boundary
  10
199.878036499023
  20
127.972480773926
  30
0.0
  0
SEQEND
  0
POLYLINE
  8
Boundary
  6
CONTINUOUS
  62
7
  40
0.10000000149
  41
0.10000000149
  66
1
  0
VERTEX
  8
Boundary
  10
169.062133789063
  20
123.430053710938
  30
0.0
  0
VERTEX
  8
Boundary
  10
170.371765136719
  20
121.874862670898
  30
0.0
  0
VERTEX
  8
Boundary
  10
170.781036376953
  20
121.629302978516
  30
0.0
  0
VERTEX
  8
Boundary
  10
177.656616210938
  20
122.120414733887
  30
0.0
  0
VERTEX
  8
Boundary
  10
183.140716552734
  20
122.857086181641
  30
0.0
  0
VERTEX
  8
Boundary
  10
188.788513183594
  20
119.50114440918
  30
0.0
  0
VERTEX
  8
Boundary
  10
194.763717651367
  20
120.728927612305
  30
0.0
  0
VERTEX
  8
Boundary
  10
196.237060546875
  20
120.728927612305
  30
0.0
  0
VERTEX
  8
Boundary
  10
199.96061706543
  20
120.954010009766
  30
0.0
  0
SEQEND
  0
POLYLINE
  8
Boundary
  6
CONTINUOUS
  62
7
  40
0.10000000149
  41
0.10000000149
  66
1
  0
VERTEX
  8
Boundary
  10
157.799545288086
  20
109.259185791016
  30
0.0
  0
VERTEX
  8
Boundary
  10
200.253540039063
  20
115.80736541748
  30
0.0
  0
SEQEND
  0
POLYLINE
  8
Boundary
  6
CONTINUOUS
  62
7
  40
0.10000000149
  41
0.10000000149
  66
1
  0
VERTEX
  8
Boundary
  10
164.784255981445
  20
91.142570495605
  30
0.0
  0
VERTEX
  8
Boundary
  10
194.687591552734
  20
99.000381469727
  30
0.0
  0
VERTEX
  8
Boundary
  10
200.253540039063
  20
100.637428283691
  30
0.0
  0
SEQEND
  0
POLYLINE
  8
Church Outline
  6
CONTINUOUS
  62
7
  40
0.10000000149
  41
0.10000000149
  66
1
  70
1
  0
VERTEX
  8
Church Outline
  10
95.372848510742
  20
119.680465698242
  30
0.0
  0
VERTEX
  8
Church Outline
  10
96.28157043457
  20
121.013252258301
  30
0.0
  0
VERTEX
  8
Church Outline
  10
97.493194580078
  20
120.225692749023
  30
0.0
  0
VERTEX
  8
Church Outline
  10
103.672492980957
  20
121.762939453125
  30
0.0
  0
VERTEX
  8
Church Outline
  10
104.460052490234
  20
123.156311035156
  30
0.0
  0
VERTEX
  8
Church Outline
  10
105.853424072266
  20
122.429336547852
  30
0.0
  0
VERTEX
  8
Church Outline
  10
105.126441955566
  20
120.975387573242
  30
0.0
  0
VERTEX
  8
Church Outline
  10
106.216911315918
  20
115.74267578125
  30
0.0
  0
VERTEX
  8
Church Outline
  10
118.323936462402
  20
118.891807556152
  30
0.0
  0
VERTEX
  8
Church Outline
  10
120.034156799316
  20
111.712387084961
  30
0.0
  0
VERTEX
  8
Church Outline
  10
107.946769714355
  20
108.656639099121
  30
0.0
  0
VERTEX
  8
Church Outline
  10
109.777038574219
  20
101.603866577148
  30
0.0
  0
VERTEX
  8
Church Outline
  10
101.344192504883
  20
99.547073364258
  30
0.0
  0
VERTEX
  8
Church Outline
  10
99.713516235352
  20
106.163093566895
  30
0.0
  0
VERTEX
  8
Church Outline
  10
77.350845336914
  20
100.795516967773
  30
0.0
  0
VERTEX
  8
Church Outline
  10
75.443000793457
  20
108.758697509766
  30
0.0
  0
VERTEX
  8
Church Outline
  10
97.674942016602
  20
113.804077148438
  30
0.0
  0
VERTEX
  8
Church Outline
  10
96.523895263672
  20
118.953483581543
  30
0.0
  0
SEQEND
  0
INSERT
  8
Path
  6
CONTINUOUS
  62
7
  2
*C0
  10
0.0
  20
0.0
  1001
ACAD
  1000
TCW30CURVE
  1002
{
  1070
20
  1070
0
  1070
1
  1000
Path
  1070
0
  1071
0
  1040
1.0
  1040
0.019999999553
  1000
CONTINUOUS
  1000
Path
  1071
27
  1071
162
  1010
95.86449432373
  1020
113.393211364746
  1071
130
  1010
94.524711608887
  1020
119.097366333008
  1071
130
  1010
94.70645904541
  1020
121.217712402344
  1071
130
  1010
96.096557617188
  1020
121.785369873047
  1071
130
  1010
96.643157958984
  1020
121.785369873047
  1071
130
  1010
97.814445495605
  1020
121.23876953125
  1071
130
  1010
99.00772857666
  1020
121.399452209473
  1071
130
  1010
101.673309326172
  1020
122.065849304199
  1071
130
  1010
103.00609588623
  1020
122.671661376953
  1071
130
  1010
104.096565246582
  1020
123.883285522461
  1071
130
  1010
106.277488708496
  1020
123.640960693359
  1071
130
  1010
106.701560974121
  1020
121.641777038574
  1071
130
  1010
106.519813537598
  1020
120.127243041992
  1071
130
  1010
107.065048217773
  1020
118.30980682373
  1071
130
  1010
108.216094970703
  1020
118.006896972656
  1071
130
  1010
112.03271484375
  1020
118.733879089355
  1071
130
  1010
116.515731811523
  1020
120.248405456543
  1071
130
  1010
120.756423950195
  1020
120.248405456543
  1071
130
  1010
122.33154296875
  1020
117.279922485352
  1071
130
  1010
123.97314453125
  1020
113.586372375488
  1071
130
  1010
125.820068359375
  1020
109.795051574707
  1071
130
  1010
127.342094421387
  1020
107.655982971191
  1071
130
  1010
128.370483398438
  1020
106.586448669434
  1071
130
  1010
129.933654785156
  1020
105.804870605469
  1071
130
  1010
148.648208618164
  1020
110.07251739502
  1071
130
  1010
154.34846496582
  1020
111.634231567383
  1071
162
  1010
156.469848632813
  1020
113.125205993652
  1002
}
  0
INSERT
  8
Path
  6
CONTINUOUS
  62
7
  2
*C1
  10
0.0
  20
0.0
  1001
ACAD
  1000
TCW30CURVE
  1002
{
  1070
20
  1070
0
  1070
1
  1000
Path
  1070
0
  1071
0
  1040
1.0
  1040
0.019999999553
  1000
CONTINUOUS
  1000
Path
  1071
10
  1071
162
  1010
157.237640380859
  1020
110.541030883789
  1071
130
  1010
153.915863037109
  1020
109.707626342773
  1071
130
  1010
140.38215637207
  1020
106.457893371582
  1071
130
  1010
107.67911529541
  1020
98.724349975586
  1071
130
  1010
103.12425994873
  1020
97.578811645508
  1071
130
  1010
99.141891479492
  1020
97.656898498535
  1071
130
  1010
95.585166931152
  1020
98.724349975586
  1071
130
  1010
93.363830566406
  1020
99.464797973633
  1071
130
  1010
92.212020874023
  1020
100.328643798828
  1071
162
  1010
90.159927368164
  1020
100.975517272949
  1002
}
  0
INSERT
  8
Path
  6
CONTINUOUS
  62
7
  2
*C2
  10
0.0
  20
0.0
  1001
ACAD
  1000
TCW30CURVE
  1002
{
  1070
20
  1070
0
  1070
1
  1000
Path
  1070
0
  1071
0
  1040
1.0
  1040
0.019999999553
  1000
CONTINUOUS
  1000
Path
  1071
8
  1071
162
  1010
119.197189331055
  1020
110.247543334961
  1071
130
  1010
121.737251281738
  1020
110.69953918457
  1071
130
  1010
123.345840454102
  1020
109.339538574219
  1071
130
  1010
124.995697021484
  1020
107.245651245117
  1071
130
  1010
125.861862182617
  1020
105.7265625
  1071
130
  1010
125.160682678223
  1020
105.274932861328
  1071
130
  1010
115.839042663574
  1020
103.057876586914
  1071
162
  1010
113.982971191406
  1020
102.606254577637
  1002
}
  0
INSERT
  8
Path
  6
CONTINUOUS
  62
7
  2
*C3
  10
0.0
  20
0.0
  1001
ACAD
  1000
TCW30CURVE
  1002
{
  1070
20
  1070
0
  1070
1
  1000
Path
  1070
0
  1071
0
  1040
1.0
  1040
0.019999999553
  1000
CONTINUOUS
  1000
Path
  1071
5
  1071
162
  1010
101.344192504883
  1020
99.547073364258
  1071
130
  1010
97.066055297852
  1020
100.534332275391
  1071
130
  1010
93.651779174805
  1020
101.727272033691
  1071
130
  1010
92.00634765625
  1020
102.755668640137
  1071
162
  1010
91.307037353516
  1020
104.113151550293
  1002
}
  0
INSERT
  8
Path
  6
CONTINUOUS
  62
7
  2
*C4
  10
0.0
  20
0.0
  1001
ACAD
  1000
TCW30CURVE
  1002
{
  1070
20
  1070
0
  1070
1
  1000
Path
  1070
0
  1071
0
  1040
1.0
  1040
0.019999999553
  1000
CONTINUOUS
  1000
Path
  1071
5
  1071
162
  1010
87.664505004883
  1020
103.3115234375
  1071
130
  1010
89.861457824707
  1020
86.716217041016
  1071
130
  1010
89.861457824707
  1020
74.479042053223
  1071
130
  1010
92.457046508789
  1020
62.428985595703
  1071
162
  1010
96.234436035156
  1020
45.079330444336
  1002
}
  0
POLYLINE
  8
Church Outline
  6
CONTINUOUS
  62
7
  40
0.10000000149
  41
0.10000000149
  66
1
  0
VERTEX
  8
Church Outline
  10
175.434295654297
  20
60.486274719238
  30
0.0
  0
VERTEX
  8
Church Outline
  10
171.901901245117
  20
59.822406768799
  30
0.0
  0
VERTEX
  8
Church Outline
  10
97.288597106934
  20
45.417610168457
  30
0.0
  0
SEQEND
  0
POLYLINE
  8
Church Outline
  6
CONTINUOUS
  62
7
  40
0.10000000149
  41
0.10000000149
  66
1
  0
VERTEX
  8
Church Outline
  10
96.241142272949
  20
45.157695770264
  30
0.0
  0
VERTEX
  8
Church Outline
  10
75.090286254883
  20
40.682872772217
  30
0.0
  0
VERTEX
  8
Church Outline
  10
54.127944946289
  20
36.632179260254
  30
0.0
  0
SEQEND
  0
INSERT
  8
Path
  6
CONTINUOUS
  62
7
  2
*C5
  10
0.0
  20
0.0
  1001
ACAD
  1000
TCW30CURVE
  1002
{
  1070
20
  1070
0
  1070
1
  1000
Path
  1070
0
  1071
0
  1040
1.0
  1040
0.019999999553
  1000
CONTINUOUS
  1000
Path
  1071
13
  1071
162
  1010
178.709060668945
  1020
44.115154266357
  1071
130
  1010
136.936050415039
  1020
35.876903533936
  1071
130
  1010
104.706382751465
  1020
29.638902664185
  1071
130
  1010
103.146881103516
  1020
29.638902664185
  1071
130
  1010
101.717338562012
  1020
30.418653488159
  1071
130
  1010
100.677673339844
  1020
31.588277816772
  1071
130
  1010
99.554039001465
  1020
35.840774536133
  1071
130
  1010
96.956596374512
  1020
46.218326568604
  1071
130
  1010
95.219429016113
  1020
57.839855194092
  1071
130
  1010
91.970474243164
  1020
73.304901123047
  1071
130
  1010
91.950729370117
  1020
76.232536315918
  1071
130
  1010
92.01042175293
  1020
80.052925109863
  1071
162
  1010
90.159927368164
  1020
100.975517272949
  1002
}
  0
POLYLINE
  8
Boundary
  6
CONTINUOUS
  62
7
  40
0.10000000149
  41
0.10000000149
  66
1
  70
1
  0
VERTEX
  8
Boundary
  10
2.961129903793
  20
117.941452026367
  30
0.0
  0
VERTEX
  8
Boundary
  10
26.033008575439
  20
130.649887084961
  30
0.0
  0
VERTEX
  8
Boundary
  10
29.611148834229
  20
123.42854309082
  30
0.0
  0
VERTEX
  8
Boundary
  10
36.774669647217
  20
126.451568603516
  30
0.0
  0
VERTEX
  8
Boundary
  10
46.230358123779
  20
130.990295410156
  30
0.0
  0
VERTEX
  8
Boundary
  10
64.233985900879
  20
139.689529418945
  30
0.0
  0
VERTEX
  8
Boundary
  10
90.709907531738
  20
145.778991699219
  30
0.0
  0
VERTEX
  8
Boundary
  10
115.521636962891
  20
150.393371582031
  30
0.0
  0
VERTEX
  8
Boundary
  10
130.34814453125
  20
153.419189453125
  30
0.0
  0
VERTEX
  8
Boundary
  10
146.309356689453
  20
156.066787719727
  30
0.0
  0
VERTEX
  8
Boundary
  10
146.384994506836
  20
151.754989624023
  30
0.0
  0
VERTEX
  8
Boundary
  10
146.611938476563
  20
149.485626220703
  30
0.0
  0
VERTEX
  8
Boundary
  10
150.999374389648
  20
129.779968261719
  30
0.0
  0
VERTEX
  8
Boundary
  10
153.420028686523
  20
119.794761657715
  30
0.0
  0
VERTEX
  8
Boundary
  10
155.991973876953
  20
114.688690185547
  30
0.0
  0
VERTEX
  8
Boundary
  10
157.958755493164
  20
108.485763549805
  30
0.0
  0
VERTEX
  8
Boundary
  10
159.622955322266
  20
105.157356262207
  30
0.0
  0
VERTEX
  8
Boundary
  10
164.766860961914
  20
90.964370727539
  30
0.0
  0
VERTEX
  8
Boundary
  10
175.434295654297
  20
60.504859924316
  30
0.0
  0
VERTEX
  8
Boundary
  10
182.239639282227
  20
26.989952087402
  30
0.0
  0
VERTEX
  8
Boundary
  10
101.829788208008
  20
11.196193695068
  30
0.0
  0
VERTEX
  8
Boundary
  10
60.224765777588
  20
3.026479959488
  30
0.0
  0
VERTEX
  8
Boundary
  10
54.173126220703
  20
36.650905609131
  30
0.0
  0
SEQEND
  0
POLYLINE
  8
Boundary
  6
CONTINUOUS
  62
7
  40
0.10000000149
  41
0.10000000149
  66
1
  0
VERTEX
  8
Boundary
  10
47.986591339111
  20
46.442005157471
  30
0.0
  0
VERTEX
  8
Boundary
  10
18.550485610962
  20
0.026399055496
  30
0.0
  0
SEQEND
  0
INSERT
  8
Path
  6
CONTINUOUS
  62
7
  2
*C6
  10
0.0
  20
0.0
  1001
ACAD
  1000
TCW30CURVE
  1002
{
  1070
20
  1070
0
  1070
1
  1000
Path
  1070
0
  1071
0
  1040
1.0
  1040
0.019999999553
  1000
CONTINUOUS
  1000
Path
  1071
9
  1071
162
  1010
96.255180358887
  1020
45.189273834229
  1071
130
  1010
98.28052520752
  1020
35.163803100586
  1071
130
  1010
98.786865234375
  1020
31.416912078857
  1071
130
  1010
96.862777709961
  1020
28.480157852173
  1071
130
  1010
93.419692993164
  1020
27.771286010742
  1071
130
  1010
74.077621459961
  1020
23.923126220703
  1071
130
  1010
66.482566833496
  1020
22.505382537842
  1071
130
  1010
63.242015838623
  1020
21.897779464722
  1071
162
  1010
59.292587280273
  1020
21.087640762329
  1002
}
  0
INSERT
  8
Path
  6
CONTINUOUS
  62
7
  2
*C7
  10
0.0
  20
0.0
  1001
ACAD
  1000
TCW30CURVE
  1002
{
  1070
20
  1070
0
  1070
1
  1000
Path
  1070
0
  1071
0
  1040
1.0
  1040
0.019999999553
  1000
CONTINUOUS
  1000
Path
  1071
7
  1071
162
  1010
59.495121002197
  1020
19.264827728271
  1071
130
  1010
87.444915771484
  1020
24.834533691406
  1071
130
  1010
96.761512756348
  1020
26.657344818115
  1071
130
  1010
97.571655273438
  1020
26.758613586426
  1071
130
  1010
100.002067565918
  1020
25.138334274292
  1071
130
  1010
100.204605102539
  1020
24.226928710938
  1071
162
  1010
102.33122253418
  1020
11.264705657959
  1002
}
  0
INSERT
  8
Path
  6
CONTINUOUS
  62
7
  2
*C8
  10
0.0
  20
0.0
  1001
ACAD
  1000
TCW30CURVE
  1002
{
  1070
20
  1070
0
  1070
1
  1000
Path
  1070
0
  1071
0
  1040
1.0
  1040
0.019999999553
  1000
CONTINUOUS
  1000
Path
  1071
2
  1071
130
  1010
102.229949951172
  1020
11.214071273804
  1071
130
  1010
99.900802612305
  1020
-0.330408632755
  1002
}
  0
INSERT
  8
Path
  6
CONTINUOUS
  62
7
  2
*C9
  10
0.0
  20
0.0
  1001
ACAD
  1000
TCW30CURVE
  1002
{
  1070
20
  1070
0
  1070
1
  1000
Path
  1070
0
  1071
0
  1040
1.0
  1040
0.019999999553
  1000
CONTINUOUS
  1000
Path
  1071
9
  1071
162
  1010
179.067123413086
  1020
42.79313659668
  1071
130
  1010
135.472579956055
  1020
34.317405700684
  1071
130
  1010
110.780502319336
  1020
29.249029159546
  1071
130
  1010
102.983009338379
  1020
27.949445724487
  1071
130
  1010
101.813385009766
  1020
27.169696807861
  1071
130
  1010
101.033630371094
  1020
25.740154266357
  1071
130
  1010
101.033630371094
  1020
24.440572738647
  1071
130
  1010
101.943336486816
  1020
19.892030715942
  1071
162
  1010
103.37287902832
  1020
11.314782142639
  1002
}
  0
INSERT
  8
Path
  6
CONTINUOUS
  62
7
  2
*C10
  10
0.0
  20
0.0
  1001
ACAD
  1000
TCW30CURVE
  1002
{
  1070
20
  1070
0
  1070
1
  1000
Path
  1070
0
  1071
0
  1040
1.0
  1040
0.019999999553
  1000
CONTINUOUS
  1000
Path
  1071
2
  1071
130
  1010
103.242919921875
  1020
11.379758834839
  1071
130
  1010
100.903671264648
  1020
-0.316489070654
  1002
}
  0
POLYLINE
  8
Boundary
  6
CONTINUOUS
  62
7
  40
0.10000000149
  41
0.10000000149
  66
1
  70
1
  0
VERTEX
  8
Boundary
  10
0.0
  20
0.0
  30
0.0
  0
VERTEX
  8
Boundary
  10
200.0
  20
0.0
  30
0.0
  0
VERTEX
  8
Boundary
  10
200.0
  20
160.0
  30
0.0
  0
VERTEX
  8
Boundary
  10
0.0
  20
160.0
  30
0.0
  0
SEQEND
  0
POLYLINE
  8
Boundary
  6
CONTINUOUS
  62
7
  40
0.009999999776
  41
0.009999999776
  66
1
  0
VERTEX
  8
Boundary
  10
56.884742736816
  20
21.442831039429
  30
0.0
  0
VERTEX
  8
Boundary
  10
59.080905914307
  20
21.979671478271
  30
0.0
  0
VERTEX
  8
Boundary
  10
59.764152526855
  20
18.319404602051
  30
0.0
  0
VERTEX
  8
Boundary
  10
57.519191741943
  20
17.782566070557
  30
0.0
  0
SEQEND
  0
POLYLINE
  8
Path
  6
CONTINUOUS
  62
7
  40
0.019999999553
  41
0.019999999553
  66
1
  0
VERTEX
  8
Path
  10
113.973007202148
  20
102.596466064453
  30
0.0
  0
VERTEX
  8
Path
  10
112.466720581055
  20
108.48543548584
  30
0.0
  0
SEQEND
  0
POLYLINE
  8
Path
  6
CONTINUOUS
  62
7
  40
0.019999999553
  41
0.019999999553
  66
1
  0
VERTEX
  8
Path
  10
112.780052185059
  20
102.221092224121
  30
0.0
  0
VERTEX
  8
Path
  10
111.255096435547
  20
108.243110656738
  30
0.0
  0
SEQEND
  0
POLYLINE
  8
Path
  6
CONTINUOUS
  62
7
  40
0.019999999553
  41
0.019999999553
  66
1
  0
VERTEX
  8
Path
  10
112.769752502441
  20
102.211608886719
  30
0.0
  0
VERTEX
  8
Path
  10
109.695037841797
  20
101.562019348145
  30
0.0
  0
SEQEND
  0
POLYLINE
  8
Path
  6
CONTINUOUS
  62
7
  40
0.050000000745
  41
0.050000000745
  66
1
  0
VERTEX
  8
Path
  10
2.961129903793
  20
117.941452026367
  30
0.0
  0
VERTEX
  8
Path
  10
0.0
  20
116.281684875488
  30
0.0
  0
SEQEND
  0
POLYLINE
  8
Path
  6
CONTINUOUS
  62
7
  40
0.050000000745
  41
0.050000000745
  66
1
  0
VERTEX
  8
Path
  10
111.245155334473
  20
108.253303527832
  30
0.0
  0
VERTEX
  8
Path
  10
108.276672363281
  20
107.526329040527
  30
0.0
  0
SEQEND
  0
POLYLINE
  8
Path
  6
CONTINUOUS
  62
7
  40
0.050000000745
  41
0.050000000745
  66
1
  0
VERTEX
  8
Path
  10
112.456787109375
  20
108.495628356934
  30
0.0
  0
VERTEX
  8
Path
  10
119.197189331055
  20
110.247543334961
  30
0.0
  0
SEQEND
  0
POLYLINE
  8
Church Outline
  6
CONTINUOUS
  62
7
  40
0.10000000149
  41
0.10000000149
  66
1
  0
VERTEX
  8
Church Outline
  10
88.126861572266
  20
103.359008789063
  30
0.0
  0
VERTEX
  8
Church Outline
  10
88.419647216797
  20
101.924362182617
  30
0.0
  0
SEQEND
  0
POLYLINE
  8
Church Outline
  6
CONTINUOUS
  62
7
  40
0.10000000149
  41
0.10000000149
  66
1
  0
VERTEX
  8
Church Outline
  10
90.117797851563
  20
103.856742858887
  30
0.0
  0
VERTEX
  8
Church Outline
  10
90.439865112305
  20
102.304985046387
  30
0.0
  0
SEQEND
  0
POLYLINE
  8
Church Outline
  6
CONTINUOUS
  62
7
  40
0.10000000149
  41
0.10000000149
  66
1
  0
VERTEX
  8
Church Outline
  10
90.439865112305
  20
102.304985046387
  30
0.0
  0
VERTEX
  8
Church Outline
  10
88.478202819824
  20
101.86580657959
  30
0.0
  0
SEQEND
  0
POLYLINE
  8
Boundary
  6
CONTINUOUS
  62
7
  40
0.009999999776
  41
0.009999999776
  66
1
  0
VERTEX
  8
Boundary
  10
75.433822631836
  20
108.758117675781
  30
0.0
  0
VERTEX
  8
Boundary
  10
18.859321594238
  20
92.640800476074
  30
0.0
  0
SEQEND
  0
POLYLINE
  8
Boundary
  6
CONTINUOUS
  62
7
  40
0.009999999776
  41
0.009999999776
  66
1
  0
VERTEX
  8
Boundary
  10
88.844169616699
  20
111.799995422363
  30
0.0
  0
VERTEX
  8
Boundary
  10
88.873527526855
  20
145.411758422852
  30
0.0
  0
SEQEND
  0
ENDSEC
  0
EOF
