  0
SECTION
  2
HEADER
  9
$ACADVER
  1
AC1014
  9
$ACADMAINTVER
 70
     9
  9
$DWGCODEPAGE
  3
ANSI_1252
  9
$INSBASE
 10
0.0
 20
0.0
 30
0.0
  9
$EXTMIN
 10
-14.52993557255062
 20
-12.29492593663403
 30
-0.01250000018626
  9
$EXTMAX
 10
14.53211466287503
 20
12.29492593663403
 30
0.025000000372529
  9
$LIMMIN
 10
-18.12078077283647
 20
-12.81344446206694
  9
$LIMMAX
 10
18.12295986316088
 20
12.81344446206694
  9
$ORTHOMODE
 70
     0
  9
$REGENMODE
 70
     1
  9
$FILLMODE
 70
     1
  9
$QTEXTMODE
 70
     0
  9
$MIRRTEXT
 70
     0
  9
$DRAGMODE
 70
     0
  9
$LTSCALE
 40
1.0
  9
$OSMODE
 70
     0
  9
$ATTMODE
 70
     1
  9
$TEXTSIZE
 40
0.07931034266949
  9
$TRACEWID
 40
1.0
  9
$TEXTSTYLE
  7
STANDARD
  9
$CLAYER
  8
0
  9
$CELTYPE
  6
BYLAYER
  9
$CECOLOR
 62
   256
  9
$CELTSCALE
 40
1.0
  9
$DELOBJ
 70
     1
  9
$DISPSILH
 70
     0
  9
$DIMSCALE
 40
1.0
  9
$DIMASZ
 40
0.25
  9
$DIMEXO
 40
0.0625
  9
$DIMDLI
 40
0.375
  9
$DIMRND
 40
0.01
  9
$DIMDLE
 40
0.0
  9
$DIMEXE
 40
0.125
  9
$DIMTP
 40
0.0
  9
$DIMTM
 40
0.0
  9
$DIMTXT
 40
0.1477272727272727
  9
$DIMCEN
 40
0.0
  9
$DIMTSZ
 40
0.0
  9
$DIMTOL
 70
     0
  9
$DIMLIM
 70
     0
  9
$DIMTIH
 70
     1
  9
$DIMTOH
 70
     0
  9
$DIMSE1
 70
     0
  9
$DIMSE2
 70
     0
  9
$DIMTAD
 70
     1
  9
$DIMZIN
 70
     1
  9
$DIMBLK
  1

  9
$DIMASO
 70
     1
  9
$DIMSHO
 70
     1
  9
$DIMPOST
  1

  9
$DIMAPOST
  1

  9
$DIMALT
 70
     0
  9
$DIMALTD
 70
     2
  9
$DIMALTF
 40
1.0
  9
$DIMLFAC
 40
1.0
  9
$DIMTOFL
 70
     1
  9
$DIMTVP
 40
0.0
  9
$DIMTIX
 70
     0
  9
$DIMSOXD
 70
     0
  9
$DIMSAH
 70
     0
  9
$DIMBLK1
  1

  9
$DIMBLK2
  1

  9
$DIMSTYLE
  2
STANDARD
  9
$DIMCLRD
 70
     0
  9
$DIMCLRE
 70
     0
  9
$DIMCLRT
 70
     0
  9
$DIMTFAC
 40
1.0
  9
$DIMGAP
 40
0.0625
  9
$DIMJUST
 70
     0
  9
$DIMSD1
 70
     0
  9
$DIMSD2
 70
     0
  9
$DIMTOLJ
 70
     1
  9
$DIMTZIN
 70
     0
  9
$DIMALTZ
 70
     0
  9
$DIMALTTZ
 70
     0
  9
$DIMFIT
 70
     3
  9
$DIMUPT
 70
     0
  9
$DIMUNIT
 70
     2
  9
$DIMDEC
 70
     2
  9
$DIMTDEC
 70
     3
  9
$DIMALTU
 70
     2
  9
$DIMALTTD
 70
     2
  9
$DIMTXSTY
  7
STANDARD
  9
$DIMAUNIT
 70
     0
  9
$LUNITS
 70
     2
  9
$LUPREC
 70
     2
  9
$SKETCHINC
 40
1.0
  9
$FILLETRAD
 40
1.0
  9
$AUNITS
 70
     0
  9
$AUPREC
 70
     2
  9
$MENU
  1
.
  9
$ELEVATION
 40
0.0
  9
$PELEVATION
 40
0.0
  9
$THICKNESS
 40
0.0
  9
$LIMCHECK
 70
     0
  9
$CHAMFERA
 40
0.0
  9
$CHAMFERB
 40
0.0
  9
$CHAMFERC
 40
0.0
  9
$CHAMFERD
 40
0.0
  9
$SKPOLY
 70
     0
  9
$TDCREATE
 40
2458778.704463611
  9
$TDUPDATE
 40
2458778.704545891
  9
$TDINDWG
 40
0.0
  9
$TDUSRTIMER
 40
0.0
  9
$USRTIMER
 70
     1
  9
$ANGBASE
 50
0.0
  9
$ANGDIR
 70
     0
  9
$PDMODE
 70
     0
  9
$PDSIZE
 40
0.0
  9
$PLINEWID
 40
0.0
  9
$COORDS
 70
     1
  9
$SPLFRAME
 70
     0
  9
$SPLINETYPE
 70
     6
  9
$SPLINESEGS
 70
    20
  9
$ATTDIA
 70
     0
  9
$ATTREQ
 70
     1
  9
$HANDLING
 70
     1
  9
$HANDSEED
  5
420
  9
$SURFTAB1
 70
     6
  9
$SURFTAB2
 70
     6
  9
$SURFTYPE
 70
     6
  9
$SURFU
 70
     6
  9
$SURFV
 70
     6
  9
$UCSNAME
  2

  9
$UCSORG
 10
0.0
 20
0.0
 30
0.0
  9
$UCSXDIR
 10
1.0
 20
0.0
 30
0.0
  9
$UCSYDIR
 10
0.0
 20
1.0
 30
0.0
  9
$PUCSNAME
  2

  9
$PUCSORG
 10
0.0
 20
0.0
 30
0.0
  9
$PUCSXDIR
 10
1.0
 20
0.0
 30
0.0
  9
$PUCSYDIR
 10
0.0
 20
1.0
 30
0.0
  9
$USERI1
 70
     0
  9
$USERI2
 70
     0
  9
$USERI3
 70
     0
  9
$USERI4
 70
     0
  9
$USERI5
 70
     0
  9
$USERR1
 40
0.0
  9
$USERR2
 40
0.0
  9
$USERR3
 40
0.0
  9
$USERR4
 40
0.0
  9
$USERR5
 40
0.0
  9
$WORLDVIEW
 70
     1
  9
$SHADEDGE
 70
     3
  9
$SHADEDIF
 70
    70
  9
$TILEMODE
 70
     1
  9
$MAXACTVP
 70
    64
  9
$PINSBASE
 10
0.0
 20
0.0
 30
0.0
  9
$PLIMCHECK
 70
     0
  9
$PEXTMIN
 10
0.0
 20
0.0
 30
0.0
  9
$PEXTMAX
 10
0.0
 20
0.0
 30
0.0
  9
$PLIMMIN
 10
0.0
 20
0.0
  9
$PLIMMAX
 10
0.0
 20
0.0
  9
$UNITMODE
 70
     0
  9
$VISRETAIN
 70
     1
  9
$PLINEGEN
 70
     0
  9
$PSLTSCALE
 70
     1
  9
$TREEDEPTH
 70
  3020
  9
$PICKSTYLE
 70
     1
  9
$CMLSTYLE
  2
STANDARD
  9
$CMLJUST
 70
     0
  9
$CMLSCALE
 40
1.0
  9
$PROXYGRAPHICS
 70
     1
  9
$MEASUREMENT
 70
     1
  0
ENDSEC
  0
SECTION
  2
CLASSES
  0
CLASS
  1
ACDBDICTIONARYWDFLT
  2
AcDbDictionaryWithDefault
  3
ObjectDBX Classes
 90
        0
280
     0
281
     0
  0
CLASS
  1
VISUALSTYLE
  2
AcDbVisualStyle
  3
ObjectDBX Classes
 90
     4095
280
     0
281
     0
  0
CLASS
  1
MATERIAL
  2
AcDbMaterial
  3
ObjectDBX Classes
 90
     1153
280
     0
281
     0
  0
CLASS
  1
SCALE
  2
AcDbScale
  3
ObjectDBX Classes
 90
     1153
280
     0
281
     0
  0
CLASS
  1
SUN
  2
AcDbSun
  3
SCENEOE
 90
     1153
280
     0
281
     0
  0
CLASS
  1
AEC_VARS_DWG_SETUP
  2
AecDbVarsDwgSetup
  3
AecBase60
 90
      129
280
     0
281
     0
  0
CLASS
  1
AEC_DISP_REP_2D_SECTION
  2
AecDbDispRep2dSection
  3
AecBase60
 90
      129
280
     0
281
     0
  0
CLASS
  1
AEC_DISP_PROPS_2D_SECTION
  2
AecDbDispProps2dSection
  3
AecBase60
 90
      129
280
     0
281
     0
  0
CLASS
  1
AEC_DISP_REP_CLIP_VOLUME_MODEL
  2
AecDbDispRepClipVolModel
  3
AecBase60
 90
      129
280
     0
281
     0
  0
CLASS
  1
AEC_DISP_PROPS_CLIP_VOLUME
  2
AecDbDispPropsClipVol
  3
AecBase60
 90
      129
280
     0
281
     0
  0
CLASS
  1
AEC_DISP_REP_CLIP_VOLUME_PLAN
  2
AecDbDispRepClipVolPlan
  3
AecBase60
 90
      129
280
     0
281
     0
  0
CLASS
  1
AEC_DISP_REP_CLIP_VOLUME_RESULT
  2
AecDbDispRepClipVolResult
  3
AecBase60
 90
      129
280
     0
281
     0
  0
CLASS
  1
AEC_DISP_REP_CLIP_VOLUME_RESULT_SUBDIV
  2
AecDbDispRepClipVolResSubDiv
  3
AecBase60
 90
      129
280
     0
281
     0
  0
CLASS
  1
AEC_DISP_PROPS_CLIP_VOLUME_RESULT
  2
AecDbDispPropsClipVolResSubDiv
  3
AecBase60
 90
      129
280
     0
281
     0
  0
CLASS
  1
AEC_DISP_REP_DISPLAYTHEME
  2
AecDbDispRepDisplayTheme
  3
AecBase60
 90
      129
280
     0
281
     0
  0
CLASS
  1
AEC_DISP_PROPS_DISPLAYTHEME
  2
AecDbDispPropsDisplayTheme
  3
AecBase60
 90
      129
280
     0
281
     0
  0
CLASS
  1
AEC_DISP_REP_ENT_REF
  2
AecDbDispRepEntRef
  3
AecBase60
 90
      129
280
     0
281
     0
  0
CLASS
  1
AEC_DISP_PROPS_ENT_REF
  2
AecDbDispPropsEntRef
  3
AecBase60
 90
      129
280
     0
281
     0
  0
CLASS
  1
AEC_DISP_REP_LAYOUT_CURVE
  2
AecDbDispRepLayoutCurve
  3
AecBase60
 90
      129
280
     0
281
     0
  0
CLASS
  1
AEC_DISP_PROPS_LAYOUT_CURVE
  2
AecDbDispPropsLayoutCurve
  3
AecBase60
 90
      129
280
     0
281
     0
  0
CLASS
  1
AEC_DISP_REP_LAYOUT_GRID2D
  2
AecDbDispRepLayoutGrid2d
  3
AecBase60
 90
      129
280
     0
281
     0
  0
CLASS
  1
AEC_DISP_PROPS_LAYOUT_GRID2D
  2
AecDbDispPropsLayoutGrid2d
  3
AecBase60
 90
      129
280
     0
281
     0
  0
CLASS
  1
AEC_DISP_REP_LAYOUT_GRID3D
  2
AecDbDispRepLayoutGrid3d
  3
AecBase60
 90
      129
280
     0
281
     0
  0
CLASS
  1
AEC_DISP_PROPS_LAYOUT_GRID3D
  2
AecDbDispPropsLayoutGrid3d
  3
AecBase60
 90
      129
280
     0
281
     0
  0
CLASS
  1
AEC_DISP_REP_MASKBLOCK_REF
  2
AecDbDispRepMaskBlockRef
  3
AecBase60
 90
      129
280
     0
281
     0
  0
CLASS
  1
AEC_DISP_PROPS_MASKBLOCK
  2
AecDbDispPropsMaskBlock
  3
AecBase60
 90
      129
280
     0
281
     0
  0
CLASS
  1
AEC_DISP_REP_MASKBLOCK_REF_RCP
  2
AecDbDispRepMaskBlockRefRcp
  3
AecArchBase60
 90
      129
280
     0
281
     0
  0
CLASS
  1
AEC_DISP_REP_MASS_ELEM_MODEL
  2
AecDbDispRepMassElemModel
  3
AecBase60
 90
      129
280
     0
281
     0
  0
CLASS
  1
AEC_DISP_PROPS_MASS_ELEM_MODEL
  2
AecDbDispPropsMassElem
  3
AecBase60
 90
      129
280
     0
281
     0
  0
CLASS
  1
AEC_DISP_REP_MASS_ELEM_SCHEM
  2
AecDbDispRepMassElemSchem
  3
AecBase60
 90
      129
280
     0
281
     0
  0
CLASS
  1
AEC_DISPREPAECDBDISPREPMASSELEMPLAN50
  2
AecDbDispRepMassElemPlan50
  3
AecArchDACHBase60
 90
      129
280
     0
281
     0
  0
CLASS
  1
AEC_DISPROPSMASSELEMPLANCOMMON
  2
AecDbDispPropsMassElemPlanCommon
  3
AecArchDACHBase60
 90
      129
280
     0
281
     0
  0
CLASS
  1
AEC_DISPREPAECDBDISPREPMASSELEMPLAN100
  2
AecDbDispRepMassElemPlan100
  3
AecArchDACHBase60
 90
      129
280
     0
281
     0
  0
CLASS
  1
AEC_DISP_REP_MASS_ELEM_RCP
  2
AecDbDispRepMassElemRcp
  3
AecArchBase60
 90
      129
280
     0
281
     0
  0
CLASS
  1
AEC_DISP_REP_MASS_GROUP_MODEL
  2
AecDbDispRepMassGroupModel
  3
AecBase60
 90
      129
280
     0
281
     0
  0
CLASS
  1
AEC_DISP_PROPS_MASS_GROUP
  2
AecDbDispPropsMassGroup
  3
AecBase60
 90
      129
280
     0
281
     0
  0
CLASS
  1
AEC_DISP_REP_MASS_GROUP_PLAN
  2
AecDbDispRepMassGroupPlan
  3
AecBase60
 90
      129
280
     0
281
     0
  0
CLASS
  1
AEC_DISPREPAECDBDISPREPMASSGROUPPLAN50
  2
AecDbDispRepMassGroupPlan50
  3
AecArchDACHBase60
 90
      129
280
     0
281
     0
  0
CLASS
  1
AEC_DISPROPSMASSGROUPPLANCOMMON
  2
AecDbDispPropsMassGroupPlanCommon
  3
AecArchDACHBase60
 90
      129
280
     0
281
     0
  0
CLASS
  1
AEC_DISPREPAECDBDISPREPMASSGROUPPLAN100
  2
AecDbDispRepMassGroupPlan100
  3
AecArchDACHBase60
 90
      129
280
     0
281
     0
  0
CLASS
  1
AEC_DISP_REP_MASS_GROUP_RCP
  2
AecDbDispRepMassGroupRcp
  3
AecArchBase60
 90
      129
280
     0
281
     0
  0
CLASS
  1
AEC_DISP_REP_MVBLOCK_REF
  2
AecDbDispRepMvBlockRef
  3
AecBase60
 90
      129
280
     0
281
     0
  0
CLASS
  1
AEC_DISP_REP_MVBLOCK_REF_MODEL
  2
AecDbDispRepMvBlockRefModel
  3
AecBase60
 90
      129
280
     0
281
     0
  0
CLASS
  1
AEC_AECDBDISPREPMVBLOCKREFPLAN100
  2
AecDbDispRepMvBlockRefPlan100
  3
AecBase60
 90
      129
280
     0
281
     0
  0
CLASS
  1
AEC_AECDBDISPREPMVBLOCKREFPLAN50
  2
AecDbDispRepMvBlockRefPlan50
  3
AecBase60
 90
      129
280
     0
281
     0
  0
CLASS
  1
AEC_DISP_REP_POLYGON_MODEL
  2
AecDbDispRepPolygonModel
  3
AecBase60
 90
      129
280
     0
281
     0
  0
CLASS
  1
AEC_DISP_PROPS_POLYGON_MODEL
  2
AecDbDispPropsPolygonModel
  3
AecBase60
 90
      129
280
     0
281
     0
  0
CLASS
  1
AEC_DISP_REP_POLYGON_TRUECOLOUR
  2
AecDbDispRepPolygonTrueColour
  3
AecBase60
 90
      129
280
     0
281
     0
  0
CLASS
  1
AEC_DISP_PROPS_POLYGON_TRUECOLOUR
  2
AecDbDispPropsPolygonTrueColour
  3
AecBase60
 90
      129
280
     0
281
     0
  0
CLASS
  1
AEC_DISP_REP_SLICE
  2
AecDbDispRepSlice
  3
AecBase60
 90
      129
280
     0
281
     0
  0
CLASS
  1
AEC_DISP_PROPS_SLICE
  2
AecDbDispPropsSlice
  3
AecBase60
 90
      129
280
     0
281
     0
  0
CLASS
  1
AEC_DISP_REP_ANCHOR
  2
AecDbDispRepAnchor
  3
AecBase60
 90
      129
280
     0
281
     0
  0
CLASS
  1
AEC_DISP_REP_ANCHOR_ENT_TO_NODE
  2
AecDbDispRepAnchorEntToNode
  3
AecBase60
 90
      129
280
     0
281
     0
  0
CLASS
  1
AEC_DISP_PROPS_ENT
  2
AecDbDispPropsEnt
  3
AecBase60
 90
      129
280
     0
281
     0
  0
CLASS
  1
AEC_DISP_REP_MATERIAL
  2
AecDbDispRepMaterial
  3
AecBase60
 90
      129
280
     0
281
     0
  0
CLASS
  1
AEC_DISP_PROPS_MATERIAL
  2
AecDbDispPropsMaterial
  3
AecBase60
 90
      129
280
     0
281
     0
  0
CLASS
  1
AEC_DISP_REP_EDITINPLACEPROFILE
  2
AecDbDispRepEditInPlaceProfile
  3
AecBase60
 90
      129
280
     0
281
     0
  0
CLASS
  1
AEC_DISP_PROPS_EDITINPLACEPROFILE_MODEL
  2
AecDbDispPropsEditInPlaceProfile
  3
AecBase60
 90
      129
280
     0
281
     0
  0
CLASS
  1
AEC_VARS_ARCHBASE
  2
AecDbVarsArchBase
  3
AecArchBase60
 90
      129
280
     0
281
     0
  0
CLASS
  1
AEC_DISP_REP_BDG_ELEVLINE_PLAN
  2
AecDbDispRepBdgElevLinePlan
  3
AecArchBase60
 90
      129
280
     0
281
     0
  0
CLASS
  1
AEC_DISP_REP_BDG_ELEVLINE_MODEL
  2
AecDbDispRepBdgElevLineModel
  3
AecArchBase60
 90
      129
280
     0
281
     0
  0
CLASS
  1
AEC_DISP_REP_BDG_ELEVLINE_RCP
  2
AecDbDispRepBdgElevLineRcp
  3
AecArchBase60
 90
      129
280
     0
281
     0
  0
CLASS
  1
AEC_AECDBDISPREPBDGELEVLINEPLAN100
  2
AecDbDispRepBdgElevLinePlan100
  3
AecBase60
 90
      129
280
     0
281
     0
  0
CLASS
  1
AEC_AECDBDISPREPBDGELEVLINEPLAN50
  2
AecDbDispRepBdgElevLinePlan50
  3
AecBase60
 90
      129
280
     0
281
     0
  0
CLASS
  1
AEC_DISP_REP_BDG_SECTIONLINE_MODEL
  2
AecDbDispRepBdgSectionLineModel
  3
AecArchBase60
 90
      129
280
     0
281
     0
  0
CLASS
  1
AEC_DISP_REP_BDG_SECTIONLINE_PLAN
  2
AecDbDispRepBdgSectionLinePlan
  3
AecArchBase60
 90
      129
280
     0
281
     0
  0
CLASS
  1
AEC_DISP_REP_BDG_SECTIONLINE_RCP
  2
AecDbDispRepBdgSectionLineRcp
  3
AecArchBase60
 90
      129
280
     0
281
     0
  0
CLASS
  1
AEC_AECDBDISPREPBDGSECTIONLINEPLAN100
  2
AecDbDispRepBdgSectionLinePlan100
  3
AecBase60
 90
      129
280
     0
281
     0
  0
CLASS
  1
AEC_AECDBDISPREPBDGSECTIONLINEPLAN50
  2
AecDbDispRepBdgSectionLinePlan50
  3
AecBase60
 90
      129
280
     0
281
     0
  0
CLASS
  1
AEC_DISP_REP_BDG_SECTION_SUBDIV
  2
AecDbDispRepBdgSectionSubDiv
  3
AecArchBase60
 90
      129
280
     0
281
     0
  0
CLASS
  1
AEC_DISP_REP_BDG_SECTION_MODEL
  2
AecDbDispRepBdgSectionModel
  3
AecArchBase60
 90
      129
280
     0
281
     0
  0
CLASS
  1
AEC_DISP_REP_CEILING_GRID
  2
AecDbDispRepCeilingGrid
  3
AecArchBase60
 90
      893
280
     0
281
     0
  0
CLASS
  1
AEC_DISP_REP_CEILING_GRID_MODEL
  2
AecDbDispRepCeilingGridModel
  3
AecArchBase60
 90
      129
280
     0
281
     0
  0
CLASS
  1
AEC_DISP_REP_CEILING_GRID_RCP
  2
AecDbDispRepCeilingGridRcp
  3
AecArchBase60
 90
      129
280
     0
281
     0
  0
CLASS
  1
AEC_AECDBDISPREPCEILINGGRIDPLAN100
  2
AecDbDispRepCeilingGridPlan100
  3
AecBase60
 90
      129
280
     0
281
     0
  0
CLASS
  1
AEC_AECDBDISPREPCEILINGGRIDPLAN50
  2
AecDbDispRepCeilingGridPlan50
  3
AecBase60
 90
      129
280
     0
281
     0
  0
CLASS
  1
AEC_DISP_REP_CURTAIN_WALL_LAYOUT_MODEL
  2
AecDbDispRepCurtainWallLayoutModel
  3
AecArchBase60
 90
      129
280
     0
281
     0
  0
CLASS
  1
AEC_DISP_PROPS_GRID_ASSEMBLY_MODEL
  2
AecDbDispPropsGridAssemblyModel
  3
AecArchBase60
 90
      129
280
     0
281
     0
  0
CLASS
  1
AEC_DISP_REP_CURTAIN_WALL_LAYOUT_PLAN
  2
AecDbDispRepCurtainWallLayoutPlan
  3
AecArchBase60
 90
      129
280
     0
281
     0
  0
CLASS
  1
AEC_DISP_PROPS_GRID_ASSEMBLY_PLAN
  2
AecDbDispPropsGridAssemblyPlan
  3
AecArchBase60
 90
      129
280
     0
281
     0
  0
CLASS
  1
AEC_AECDBDISPREPCURTAINWALLLAYOUTPLAN100
  2
AecDbDispRepCurtainWallLayoutPlan100
  3
AecBase60
 90
      129
280
     0
281
     0
  0
CLASS
  1
AEC_AECDBDISPREPCURTAINWALLLAYOUTPLAN50
  2
AecDbDispRepCurtainWallLayoutPlan50
  3
AecBase60
 90
      129
280
     0
281
     0
  0
CLASS
  1
AEC_DISP_REP_CURTAIN_WALL_UNIT_MODEL
  2
AecDbDispRepCurtainWallUnitModel
  3
AecArchBase60
 90
      129
280
     0
281
     0
  0
CLASS
  1
AEC_DISP_REP_CURTAIN_WALL_UNIT_PLAN
  2
AecDbDispRepCurtainWallUnitPlan
  3
AecArchBase60
 90
      129
280
     0
281
     0
  0
CLASS
  1
AEC_AECDBDISPREPCURTAINWALLUNITPLAN100
  2
AecDbDispRepCurtainWallUnitPlan100
  3
AecBase60
 90
      129
280
     0
281
     0
  0
CLASS
  1
AEC_AECDBDISPREPCURTAINWALLUNITPLAN50
  2
AecDbDispRepCurtainWallUnitPlan50
  3
AecBase60
 90
      129
280
     0
281
     0
  0
CLASS
  1
AEC_DISP_REP_DOOR_MODEL
  2
AecDbDispRepDoorModel
  3
AecArchBase60
 90
      129
280
     0
281
     0
  0
CLASS
  1
AEC_DISP_PROPS_DOOR
  2
AecDbDispPropsDoor
  3
AecArchBase60
 90
      129
280
     0
281
     0
  0
CLASS
  1
AEC_DISP_REP_DOOR_ELEV
  2
AecDbDispRepDoorElev
  3
AecArchBase60
 90
      129
280
     0
281
     0
  0
CLASS
  1
AEC_DISP_REP_DOOR_PLAN
  2
AecDbDispRepDoorPlan
  3
AecArchBase60
 90
      129
280
     0
281
     0
  0
CLASS
  1
AEC_DISP_REP_DOOR_NOMINAL
  2
AecDbDispRepDoorNominal
  3
AecArchBase60
 90
      129
280
     0
281
     0
  0
CLASS
  1
AEC_DISP_PROPS_DOOR_NOMINAL
  2
AecDbDispPropsDoorNominal
  3
AecArchBase60
 90
      129
280
     0
281
     0
  0
CLASS
  1
AEC_DISP_REP_DOOR_THRESHOLD_PLAN
  2
AecDbDispRepDoorThresholdPlan
  3
AecArchBase60
 90
      129
280
     0
281
     0
  0
CLASS
  1
AEC_DISP_PROPS_DOOR_THRESHOLD_PLAN
  2
AecDbDispPropsDoorThresholdPlan
  3
AecArchBase60
 90
      129
280
     0
281
     0
  0
CLASS
  1
AEC_DISP_REP_DOOR_PLAN_50
  2
AecDbDispRepDoorPlan50
  3
AecArchDACHBase60
 90
      129
280
     0
281
     0
  0
CLASS
  1
AEC_DISP_PROPS_DOOR_PLAN_50
  2
AecDbDispPropsDoorPlan50
  3
AecArchDACHBase60
 90
      129
280
     0
281
     0
  0
CLASS
  1
AEC_DISP_REP_DOOR_PLAN_HEKTO
  2
AecDbDispRepDoorPlanHekto
  3
AecArchDACHBase60
 90
      129
280
     0
281
     0
  0
CLASS
  1
AEC_DISP_PROPS_DOOR_PLAN_100
  2
AecDbDispPropsDoorPlan100
  3
AecArchDACHBase60
 90
      129
280
     0
281
     0
  0
CLASS
  1
AEC_DISP_REP_DOOR_RCP
  2
AecDbDispRepDoorRcp
  3
AecArchBase60
 90
      129
280
     0
281
     0
  0
CLASS
  1
AEC_DISP_REP_DOOR_THRESHOLD_SYMBOL_PLAN
  2
AecDbDispRepDoorThresholdSymbolPlan
  3
AecArchDACHBase60
 90
      129
280
     0
281
     0
  0
CLASS
  1
AEC_DISP_PROPS_DOOR_THRESHOLD_SYMBOL_PLAN
  2
AecDbDispPropsDoorThresholdSymbolPlan
  3
AecArchDACHBase60
 90
      129
280
     0
281
     0
  0
CLASS
  1
AEC_DISP_REP_OPENING
  2
AecDbDispRepOpening
  3
AecArchBase60
 90
      129
280
     0
281
     0
  0
CLASS
  1
AEC_DISP_PROPS_OPENING
  2
AecDbDispPropsOpening
  3
AecArchBase60
 90
      129
280
     0
281
     0
  0
CLASS
  1
AEC_DISP_REP_OPENING_MODEL
  2
AecDbDispRepOpeningModel
  3
AecArchBase60
 90
      129
280
     0
281
     0
  0
CLASS
  1
AEC_DISPREPAECDBDISPREPOPENINGPLAN100
  2
AecDbDispRepOpeningPlan100
  3
AecArchDACHBase60
 90
      129
280
     0
281
     0
  0
CLASS
  1
AEC_DISPROPSOPENINGPLANCOMMONHATCHED
  2
AecDbDispPropsOpeningPlanCommonHatched
  3
AecArchDACHBase60
 90
      129
280
     0
281
     0
  0
CLASS
  1
AEC_DISPREPAECDBDISPREPOPENINGPLAN50
  2
AecDbDispRepOpeningPlan50
  3
AecArchDACHBase60
 90
      129
280
     0
281
     0
  0
CLASS
  1
AEC_DISPREPAECDBDISPREPOPENINGPLANREFLECTED
  2
AecDbDispRepOpeningPlanReflected
  3
AecArchDACHBase60
 90
      129
280
     0
281
     0
  0
CLASS
  1
AEC_DISPROPSOPENINGPLANCOMMON
  2
AecDbDispPropsOpeningPlanCommon
  3
AecArchDACHBase60
 90
      129
280
     0
281
     0
  0
CLASS
  1
AEC_DISPREPAECDBDISPREPOPENINGSILLPLAN
  2
AecDbDispRepOpeningSillPlan
  3
AecArchDACHBase60
 90
      129
280
     0
281
     0
  0
CLASS
  1
AEC_DISPROPSOPENINGSILLPLAN
  2
AecDbDispPropsOpeningSillPlan
  3
AecArchDACHBase60
 90
      129
280
     0
281
     0
  0
CLASS
  1
AEC_DISP_REP_RAILING_MODEL
  2
AecDbDispRepRailingModel
  3
AecArchBase60
 90
      129
280
     0
281
     0
  0
CLASS
  1
AEC_DISP_PROPS_RAILING_MODEL
  2
AecDbDispPropsRailingModel
  3
AecArchBase60
 90
      129
280
     0
281
     0
  0
CLASS
  1
AEC_DISP_REP_RAILING_PLAN
  2
AecDbDispRepRailingPlan
  3
AecArchBase60
 90
      129
280
     0
281
     0
  0
CLASS
  1
AEC_DISP_PROPS_RAILING_PLAN
  2
AecDbDispPropsRailingPlan
  3
AecArchBase60
 90
      129
280
     0
281
     0
  0
CLASS
  1
AEC_DISP_REP_RAILING_PLAN_100
  2
AecDbDispRepRailingPlan100
  3
AecArchDACHBase60
 90
      129
280
     0
281
     0
  0
CLASS
  1
AEC_DISP_ROPS_RAILING_PLAN_100
  2
AecDbDispPropsRailingPlan100
  3
AecArchDACHBase60
 90
      129
280
     0
281
     0
  0
CLASS
  1
AEC_DISP_REP_RAILING_PLAN_50
  2
AecDbDispRepRailingPlan50
  3
AecArchDACHBase60
 90
      129
280
     0
281
     0
  0
CLASS
  1
AEC_DISP_ROPS_RAILING_PLAN_50
  2
AecDbDispPropsRailingPlan50
  3
AecArchDACHBase60
 90
      129
280
     0
281
     0
  0
CLASS
  1
AEC_DISP_REP_ROOF_MODEL
  2
AecDbDispRepRoofModel
  3
AecArchBase60
 90
      129
280
     0
281
     0
  0
CLASS
  1
AEC_DISP_PROPS_ROOF
  2
AecDbDispPropsRoof
  3
AecArchBase60
 90
      129
280
     0
281
     0
  0
CLASS
  1
AEC_DISP_REP_ROOF_PLAN
  2
AecDbDispRepRoofPlan
  3
AecArchBase60
 90
      129
280
     0
281
     0
  0
CLASS
  1
AEC_DISP_REP_ROOF_RCP
  2
AecDbDispRepRoofRcp
  3
AecArchBase60
 90
      129
280
     0
281
     0
  0
CLASS
  1
AEC_AECDBDISPREPROOFPLAN100
  2
AecDbDispRepRoofPlan100
  3
AecBase60
 90
      129
280
     0
281
     0
  0
CLASS
  1
AEC_AECDBDISPREPROOFPLAN50
  2
AecDbDispRepRoofPlan50
  3
AecBase60
 90
      129
280
     0
281
     0
  0
CLASS
  1
AEC_DISP_REP_ROOFSLAB_MODEL
  2
AecDbDispRepRoofSlabModel
  3
AecArchBase60
 90
      129
280
     0
281
     0
  0
CLASS
  1
AEC_DISP_PROPS_ROOFSLAB
  2
AecDbDispPropsRoofSlab
  3
AecArchBase60
 90
      129
280
     0
281
     0
  0
CLASS
  1
AEC_DISP_REP_ROOFSLAB_PLAN
  2
AecDbDispRepRoofSlabPlan
  3
AecArchBase60
 90
      129
280
     0
281
     0
  0
CLASS
  1
AEC_DISP_PROPS_ROOFSLAB_PLAN
  2
AecDbDispPropsRoofSlabPlan
  3
AecArchBase60
 90
      129
280
     0
281
     0
  0
CLASS
  1
AEC_AECDBDISPREPROOFSLABPLAN100
  2
AecDbDispRepRoofSlabPlan100
  3
AecBase60
 90
      129
280
     0
281
     0
  0
CLASS
  1
AEC_AECDBDISPREPROOFSLABPLAN50
  2
AecDbDispRepRoofSlabPlan50
  3
AecBase60
 90
      129
280
     0
281
     0
  0
CLASS
  1
AEC_DISP_REP_SLAB_MODEL
  2
AecDbDispRepSlabModel
  3
AecArchBase60
 90
      129
280
     0
281
     0
  0
CLASS
  1
AEC_DISP_PROPS_SLAB
  2
AecDbDispPropsSlab
  3
AecArchBase60
 90
      129
280
     0
281
     0
  0
CLASS
  1
AEC_DISP_REP_SLAB_PLAN
  2
AecDbDispRepSlabPlan
  3
AecArchBase60
 90
      129
280
     0
281
     0
  0
CLASS
  1
AEC_DISP_PROPS_SLAB_PLAN
  2
AecDbDispPropsSlabPlan
  3
AecArchBase60
 90
      129
280
     0
281
     0
  0
CLASS
  1
AEC_AECDBDISPREPSLABPLAN100
  2
AecDbDispRepSlabPlan100
  3
AecBase60
 90
      129
280
     0
281
     0
  0
CLASS
  1
AEC_AECDBDISPREPSLABPLAN50
  2
AecDbDispRepSlabPlan50
  3
AecBase60
 90
      129
280
     0
281
     0
  0
CLASS
  1
AEC_DISP_REP_SPACE_MODEL
  2
AecDbDispRepSpaceModel
  3
AecArchBase60
 90
      129
280
     0
281
     0
  0
CLASS
  1
AEC_DISP_PROPS_SPACE_MODEL
  2
AecDbDispPropsSpaceModel
  3
AecArchBase60
 90
      129
280
     0
281
     0
  0
CLASS
  1
AEC_DISP_REP_SPACE_PLAN
  2
AecDbDispRepSpacePlan
  3
AecArchBase60
 90
      129
280
     0
281
     0
  0
CLASS
  1
AEC_DISP_PROPS_SPACE_PLAN
  2
AecDbDispPropsSpacePlan
  3
AecArchBase60
 90
      129
280
     0
281
     0
  0
CLASS
  1
AEC_DISP_REP_SPACE_RCP
  2
AecDbDispRepSpaceRcp
  3
AecArchBase60
 90
      129
280
     0
281
     0
  0
CLASS
  1
AEC_DISP_REP_SPACE_VOLUME
  2
AecDbDispRepSpaceVolume
  3
AecArchBase60
 90
      129
280
     0
281
     0
  0
CLASS
  1
AEC_DISP_REP_SPACE_DECOMPOSED
  2
AecDbDispRepSpaceDecomposed
  3
AecArchBase60
 90
      129
280
     0
281
     0
  0
CLASS
  1
AEC_DISP_PROPS_SPACE_DECOMPOSED
  2
AecDbDispPropsSpaceDecomposed
  3
AecArchBase60
 90
      129
280
     0
281
     0
  0
CLASS
  1
AEC_AECDBDISPREPSPACEPLAN100
  2
AecDbDispRepSpacePlan100
  3
AecBase60
 90
      129
280
     0
281
     0
  0
CLASS
  1
AEC_AECDBDISPREPSPACEPLAN50
  2
AecDbDispRepSpacePlan50
  3
AecBase60
 90
      129
280
     0
281
     0
  0
CLASS
  1
AEC_DISP_REP_STAIR_MODEL
  2
AecDbDispRepStairModel
  3
AecArchBase60
 90
      129
280
     0
281
     0
  0
CLASS
  1
AEC_DISP_PROPS_STAIR_MODEL
  2
AecDbDispPropsStairModel
  3
AecArchBase60
 90
      129
280
     0
281
     0
  0
CLASS
  1
AEC_DISP_REP_STAIR_PLAN
  2
AecDbDispRepStairPlan
  3
AecArchBase60
 90
      129
280
     0
281
     0
  0
CLASS
  1
AEC_DISP_PROPS_STAIR_PLAN
  2
AecDbDispPropsStairPlan
  3
AecArchBase60
 90
      129
280
     0
281
     0
  0
CLASS
  1
AEC_DISP_REP_STAIR_RCP
  2
AecDbDispRepStairRcp
  3
AecArchBase60
 90
      129
280
     0
281
     0
  0
CLASS
  1
AEC_DISP_REP_STAIR_PLAN_100
  2
AecDbDispRepStairPlan100
  3
AecArchDACHBase60
 90
      129
280
     0
281
     0
  0
CLASS
  1
AEC_DISP_ROPS_STAIR_PLAN_100
  2
AecDbDispPropsStairPlan100
  3
AecArchDACHBase60
 90
      129
280
     0
281
     0
  0
CLASS
  1
AEC_DISP_REP_STAIR_PLAN_50
  2
AecDbDispRepStairPlan50
  3
AecArchDACHBase60
 90
      129
280
     0
281
     0
  0
CLASS
  1
AEC_DISP_ROPS_STAIR_PLAN_50
  2
AecDbDispPropsStairPlan50
  3
AecArchDACHBase60
 90
      129
280
     0
281
     0
  0
CLASS
  1
AEC_DISP_REP_STAIR_PLAN_OVERLAPPING
  2
AecDbDispRepStairPlanOverlapping
  3
AecArchBase60
 90
      129
280
     0
281
     0
  0
CLASS
  1
AEC_DISP_PROPS_STAIR_PLAN_OVERLAPPING
  2
AecDbDispPropsStairPlanOverlapping
  3
AecArchBase60
 90
      129
280
     0
281
     0
  0
CLASS
  1
AEC_DISP_REP_WALL_GRAPH
  2
AecDbDispRepWallGraph
  3
AecArchBase60
 90
      129
280
     0
281
     0
  0
CLASS
  1
AEC_DISP_PROPS_WALL_GRAPH
  2
AecDbDispPropsWallGraph
  3
AecArchBase60
 90
      129
280
     0
281
     0
  0
CLASS
  1
AEC_DISP_REP_WALL_MODEL
  2
AecDbDispRepWallModel
  3
AecArchBase60
 90
      129
280
     0
281
     0
  0
CLASS
  1
AEC_DISP_PROPS_WALL_MODEL
  2
AecDbDispPropsWallModel
  3
AecArchBase60
 90
      129
280
     0
281
     0
  0
CLASS
  1
AEC_DISP_REP_WALL_PLAN
  2
AecDbDispRepWallPlan
  3
AecArchBase60
 90
      129
280
     0
281
     0
  0
CLASS
  1
AEC_DISP_PROPS_WALL_PLAN
  2
AecDbDispPropsWallPlan
  3
AecArchBase60
 90
      129
280
     0
281
     0
  0
CLASS
  1
AEC_DISP_REP_WALL_RCP
  2
AecDbDispRepWallRcp
  3
AecArchBase60
 90
      129
280
     0
281
     0
  0
CLASS
  1
AEC_DISP_REP_WALL_SCHEM
  2
AecDbDispRepWallSchem
  3
AecArchBase60
 90
      129
280
     0
281
     0
  0
CLASS
  1
AEC_DISP_PROPS_WALL_SCHEM
  2
AecDbDispPropsWallSchem
  3
AecArchBase60
 90
      129
280
     0
281
     0
  0
CLASS
  1
AEC_AECDBDISPREPWALLPLAN100
  2
AecDbDispRepWallPlan100
  3
AecBase60
 90
      129
280
     0
281
     0
  0
CLASS
  1
AEC_AECDBDISPREPWALLPLAN50
  2
AecDbDispRepWallPlan50
  3
AecBase60
 90
      129
280
     0
281
     0
  0
CLASS
  1
AEC_DISP_REP_WINDOW_MODEL
  2
AecDbDispRepWindowModel
  3
AecArchBase60
 90
      129
280
     0
281
     0
  0
CLASS
  1
AEC_DISP_PROPS_WINDOW
  2
AecDbDispPropsWindow
  3
AecArchBase60
 90
      129
280
     0
281
     0
  0
CLASS
  1
AEC_DISP_REP_WINDOW_ELEV
  2
AecDbDispRepWindowElev
  3
AecArchBase60
 90
      129
280
     0
281
     0
  0
CLASS
  1
AEC_DISP_REP_WINDOW_PLAN
  2
AecDbDispRepWindowPlan
  3
AecArchBase60
 90
      129
280
     0
281
     0
  0
CLASS
  1
AEC_DISP_REP_WINDOW_NOMINAL
  2
AecDbDispRepWindowNominal
  3
AecArchBase60
 90
      129
280
     0
281
     0
  0
CLASS
  1
AEC_DISP_PROPS_WINDOW_NOMINAL
  2
AecDbDispPropsWindowNominal
  3
AecArchBase60
 90
      129
280
     0
281
     0
  0
CLASS
  1
AEC_DISP_REP_WINDOW_RCP
  2
AecDbDispRepWindowRcp
  3
AecArchBase60
 90
      129
280
     0
281
     0
  0
CLASS
  1
AEC_DISP_REP_WINDOW_SILL_PLAN
  2
AecDbDispRepWindowSillPlan
  3
AecArchBase60
 90
      129
280
     0
281
     0
  0
CLASS
  1
AEC_DISP_PROPS_WINDOW_SILL_PLAN
  2
AecDbDispPropsWindowSillPlan
  3
AecArchBase60
 90
      129
280
     0
281
     0
  0
CLASS
  1
AEC_DISP_REP_WINDOW_PLAN_100
  2
AecDbDispRepWindowPlan100
  3
AecArchDACHBase60
 90
      129
280
     0
281
     0
  0
CLASS
  1
AEC_DISP_PROPS_WINDOW_PLAN_100
  2
AecDbDispPropsWindowPlan100
  3
AecArchDACHBase60
 90
      129
280
     0
281
     0
  0
CLASS
  1
AEC_DISP_REP_WINDOW_PLAN_50
  2
AecDbDispRepWindowPlan50
  3
AecArchDACHBase60
 90
      129
280
     0
281
     0
  0
CLASS
  1
AEC_DISP_PROPS_WINDOW_PLAN_50
  2
AecDbDispPropsWindowPlan50
  3
AecArchDACHBase60
 90
      129
280
     0
281
     0
  0
CLASS
  1
AEC_DISP_REP_WINDOW_ASSEMBLY_MODEL
  2
AecDbDispRepWindowAssemblyModel
  3
AecArchBase60
 90
      129
280
     0
281
     0
  0
CLASS
  1
AEC_DISP_REP_WINDOW_ASSEMBLY_PLAN
  2
AecDbDispRepWindowAssemblyPlan
  3
AecArchBase60
 90
      129
280
     0
281
     0
  0
CLASS
  1
AEC_DISP_REP_WINDOWASSEMBLY_SILL_PLAN
  2
AecDbDispRepWindowAssemblySillPlan
  3
AecArchBase60
 90
      129
280
     0
281
     0
  0
CLASS
  1
AEC_DISP_PROPS_WINDOW_ASSEMBLY_SILL_PLAN
  2
AecDbDispPropsWindowAssemblySillPlan
  3
AecArchBase60
 90
      129
280
     0
281
     0
  0
CLASS
  1
AEC_AECDBDISPREPWINDOWASSEMBLYPLAN100
  2
AecDbDispRepWindowAssemblyPlan100
  3
AecBase60
 90
      129
280
     0
281
     0
  0
CLASS
  1
AEC_AECDBDISPREPWINDOWASSEMBLYPLAN50
  2
AecDbDispRepWindowAssemblyPlan50
  3
AecBase60
 90
      129
280
     0
281
     0
  0
CLASS
  1
AEC_DB_DISP_REP_DIM_GROUP_PLAN
  2
AecDbDispRepDimGroupPlan
  3
AecArchDACHBase60
 90
      129
280
     0
281
     0
  0
CLASS
  1
AEC_DISP_PROPS_DIM
  2
AecDbDispPropsDimGroup
  3
AecArchDACHBase60
 90
      129
280
     0
281
     0
  0
CLASS
  1
AEC_DB_DISP_REP_DIM_GROUP_PLAN100
  2
AecDbDispRepDimGroupPlan100
  3
AecArchDACHBase60
 90
      129
280
     0
281
     0
  0
CLASS
  1
AEC_DB_DISP_REP_DIM_GROUP_PLAN50
  2
AecDbDispRepDimGroupPlan50
  3
AecArchDACHBase60
 90
      129
280
     0
281
     0
  0
CLASS
  1
AEC_DISP_REP_SCHEDULE_TABLE
  2
AecDbDispRepScheduleTable
  3
AecSchedule50
 90
      129
280
     0
281
     0
  0
CLASS
  1
AEC_DISP_PROPS_SCHEDULE_TABLE
  2
AecDbDispPropsScheduleTable
  3
AecSchedule50
 90
      129
280
     0
281
     0
  0
CLASS
  1
AEC_DISP_REP_ANCHOR_TAG_TO_ENT
  2
AecDbDispRepAnchorTagToEnt
  3
AecScheduleData60
 90
      129
280
     0
281
     0
  0
CLASS
  1
AEC_DISP_REP_ANCHOR_EXT_TAG_TO_ENT
  2
AecDbDispRepAnchorExtendedTagToEnt
  3
AecScheduleData60
 90
      129
280
     0
281
     0
  0
CLASS
  1
AEC_DISP_REP_SET
  2
AecDbDispRepSet
  3
AecBase60
 90
      129
280
     0
281
     0
  0
CLASS
  1
AECS_DISP_REP_MEMBER_MODEL_DESIGN
  2
AecsDbDispRepMemberModelDesign
  3
AecStructureBase60
 90
      129
280
     0
281
     0
  0
CLASS
  1
AECS_DISP_PROPS_MEMBER
  2
AecsDbDispPropsMember
  3
AecStructureBase60
 90
      129
280
     0
281
     0
  0
CLASS
  1
AECS_DISP_REP_MEMBER_PLAN_DESIGN
  2
AecsDbDispRepMemberPlanDesign
  3
AecStructureBase60
 90
      129
280
     0
281
     0
  0
CLASS
  1
AECS_DISP_PROPS_MEMBER_PLAN
  2
AecsDbDispPropsMemberPlan
  3
AecStructureBase60
 90
      129
280
     0
281
     0
  0
CLASS
  1
AEC_DISP_REP_CONFIG
  2
AecDbDispRepConfig
  3
AecBase60
 90
      129
280
     0
281
     0
  0
CLASS
  1
MLEADERSTYLE
  2
AcDbMLeaderStyle
  3
ACDB_MLEADERSTYLE_CLASS
 90
     4095
280
     0
281
     0
  0
CLASS
  1
GEODATA
  2
AcDbGeoData
  3
ObjectDBX Classes
 90
     4095
280
     0
281
     0
  0
CLASS
  1
AEC_WALL_STYLE
  2
AecDbWallStyle
  3
AecArchBase60
 90
      129
280
     0
281
     0
  0
CLASS
  1
AEC_CLEANUP_GROUP_DEF
  2
AecDbCleanupGroupDef
  3
AecArchBase60
 90
      129
280
     0
281
     0
  0
CLASS
  1
AEC_ENDCAP_STYLE
  2
AecDbEndcapStyle
  3
AecArchBase60
 90
      129
280
     0
281
     0
  0
CLASS
  1
AEC_FRAME_DEF
  2
AecDbOpeningEndcapStyle
  3
AecArchBase60
 90
      129
280
     0
281
     0
  0
CLASS
  1
AEC_MATERIAL_DEF
  2
AecDbMaterialDef
  3
AecBase60
 90
      129
280
     0
281
     0
  0
CLASS
  1
TABLESTYLE
  2
AcDbTableStyle
  3
ObjectDBX Classes
 90
     4095
280
     0
281
     0
  0
CLASS
  1
TCOPTIONALDATA
  2
TcOptionalData
  3
ExTcadCustObjs|Description: TurboCAD extension data object
 90
     4095
280
     0
281
     0
  0
CLASS
  1
DICTIONARYVAR
  2
AcDbDictionaryVar
  3
ObjectDBX Classes
 90
        0
280
     0
281
     0
  0
CLASS
  1
XRECORD
  2
AcDbXrecord
  3
ObjectDBX Classes
 90
        0
280
     0
281
     0
  0
CLASS
  1
LWPOLYLINE
  2
AcDbPolyline
  3
ObjectDBX Classes
 90
        0
280
     0
281
     1
  0
CLASS
  1
HATCH
  2
AcDbHatch
  3
ObjectDBX Classes
 90
        0
280
     0
281
     1
  0
CLASS
  1
ACDBPLACEHOLDER
  2
AcDbPlaceHolder
  3
ObjectDBX Classes
 90
        0
280
     0
281
     0
  0
CLASS
  1
LAYOUT
  2
AcDbLayout
  3
ObjectDBX Classes
 90
        0
280
     0
281
     0
  0
ENDSEC
  0
SECTION
  2
TABLES
  0
TABLE
  2
VPORT
  5
8
330
0
100
AcDbSymbolTable
 70
     1
  0
VPORT
  5
29
330
8
100
AcDbSymbolTableRecord
100
AcDbViewportTableRecord
  2
*ACTIVE
 70
     0
 10
0.0
 20
0.0
 11
1.0
 21
1.0
 12
0.0
 22
0.0
 13
0.0
 23
0.0
 14
1.0
 24
1.0
 15
1.0
 25
1.0
 16
0.0
 26
0.0
 36
1.0
 17
0.0010895451622037
 27
0.0069278688110899
 37
0.0
 40
25.08164891073343
 41
1.95048439181916
 42
50.0
 43
0.0
 44
0.0
 50
0.0
 51
0.0
 71
     0
 72
   100
 73
     1
 74
     3
 75
     0
 76
     1
 77
     0
 78
     0
  0
ENDTAB
  0
TABLE
  2
LTYPE
  5
5
330
0
100
AcDbSymbolTable
 70
    13
  0
LTYPE
  5
14
330
5
100
AcDbSymbolTableRecord
100
AcDbLinetypeTableRecord
  2
BYBLOCK
 70
     0
  3

 72
    65
 73
     0
 40
0.0
  0
LTYPE
  5
15
330
5
100
AcDbSymbolTableRecord
100
AcDbLinetypeTableRecord
  2
BYLAYER
 70
     0
  3

 72
    65
 73
     0
 40
0.0
  0
LTYPE
  5
16
330
5
100
AcDbSymbolTableRecord
100
AcDbLinetypeTableRecord
  2
CONTINUOUS
 70
     0
  3
Solid line
 72
    65
 73
     0
 40
0.0
  0
LTYPE
  5
17B
330
5
100
AcDbSymbolTableRecord
100
AcDbLinetypeTableRecord
  2
BORDER
 70
     0
  3
BORDER
 72
    65
 73
     6
 40
1.75
 49
0.5
 74
     0
 49
-0.25
 74
     0
 49
0.5
 74
     0
 49
-0.25
 74
     0
 49
0.0
 74
     0
 49
-0.25
 74
     0
  0
LTYPE
  5
17C
330
5
100
AcDbSymbolTableRecord
100
AcDbLinetypeTableRecord
  2
CENTER
 70
     0
  3
CENTER
 72
    65
 73
     4
 40
2.0
 49
1.25
 74
     0
 49
-0.25
 74
     0
 49
0.25
 74
     0
 49
-0.25
 74
     0
  0
LTYPE
  5
17D
330
5
100
AcDbSymbolTableRecord
100
AcDbLinetypeTableRecord
  2
DASHDOT
 70
     0
  3
DASHDOT
 72
    65
 73
     4
 40
1.0
 49
0.5
 74
     0
 49
-0.25
 74
     0
 49
0.0
 74
     0
 49
-0.25
 74
     0
  0
LTYPE
  5
17E
330
5
100
AcDbSymbolTableRecord
100
AcDbLinetypeTableRecord
  2
DASHED
 70
     0
  3
DASHED
 72
    65
 73
     2
 40
0.75
 49
0.5
 74
     0
 49
-0.25
 74
     0
  0
LTYPE
  5
17F
330
5
100
AcDbSymbolTableRecord
100
AcDbLinetypeTableRecord
  2
DIVIDE
 70
     0
  3
DIVIDE
 72
    65
 73
     6
 40
1.25
 49
0.5
 74
     0
 49
-0.25
 74
     0
 49
0.0
 74
     0
 49
-0.25
 74
     0
 49
0.0
 74
     0
 49
-0.25
 74
     0
  0
LTYPE
  5
180
330
5
100
AcDbSymbolTableRecord
100
AcDbLinetypeTableRecord
  2
DOT
 70
     0
  3
DOT
 72
    65
 73
     2
 40
0.25
 49
0.0
 74
     0
 49
-0.25
 74
     0
  0
LTYPE
  5
181
330
5
100
AcDbSymbolTableRecord
100
AcDbLinetypeTableRecord
  2
HIDDEN
 70
     0
  3
HIDDEN
 72
    65
 73
     2
 40
0.375
 49
0.25
 74
     0
 49
-0.125
 74
     0
  0
LTYPE
  5
182
330
5
100
AcDbSymbolTableRecord
100
AcDbLinetypeTableRecord
  2
PHANTOM
 70
     0
  3
PHANTOM
 72
    65
 73
     6
 40
2.5
 49
1.25
 74
     0
 49
-0.25
 74
     0
 49
0.25
 74
     0
 49
-0.25
 74
     0
 49
0.25
 74
     0
 49
-0.25
 74
     0
  0
LTYPE
  5
183
330
5
100
AcDbSymbolTableRecord
100
AcDbLinetypeTableRecord
  2
$INVISIBLE
 70
     0
  3
$INVISIBLE
 72
    65
 73
     2
 40
200.0
 49
-100.0
 74
     0
 49
-100.0
 74
     0
  0
LTYPE
  5
184
330
5
100
AcDbSymbolTableRecord
100
AcDbLinetypeTableRecord
  2
$AUXILIARY
 70
     0
  3
$AUXILIARY
 72
    65
 73
     2
 40
0.1000000014901161
 49
0.0500000007450581
 74
     0
 49
-0.0500000007450581
 74
     0
  0
LTYPE
  5
185
330
5
100
AcDbSymbolTableRecord
100
AcDbLinetypeTableRecord
  2
$CONSTRUCTION
 70
     0
  3
$CONSTRUCTION
 72
    65
 73
     4
 40
0.3
 49
0.2
 74
     0
 49
-0.05
 74
     0
 49
0.0
 74
     0
 49
-0.05
 74
     0
  0
LTYPE
  5
186
330
5
100
AcDbSymbolTableRecord
100
AcDbLinetypeTableRecord
  2
$SNAPEXT
 70
     0
  3
$SNAPEXT
 72
    65
 73
     2
 40
0.04
 49
0.02
 74
     0
 49
-0.02
 74
     0
  0
ENDTAB
  0
TABLE
  2
LAYER
  5
2
330
0
100
AcDbSymbolTable
 70
    10
  0
LAYER
  5
10
330
2
100
AcDbSymbolTableRecord
100
AcDbLayerTableRecord
  2
0
 70
     0
 62
     1
  6
CONTINUOUS
  0
LAYER
  5
187
330
2
100
AcDbSymbolTableRecord
100
AcDbLayerTableRecord
  2
CHURCH_OUTLINE
 70
     0
 62
    18
  6
CONTINUOUS
  0
LAYER
  5
188
330
2
100
AcDbSymbolTableRecord
100
AcDbLayerTableRecord
  2
BOUNDARY
 70
     0
 62
    18
  6
CONTINUOUS
  0
LAYER
  5
189
330
2
100
AcDbSymbolTableRecord
100
AcDbLayerTableRecord
  2
PATH
 70
     0
 62
    18
  6
CONTINUOUS
  0
LAYER
  5
18A
330
2
100
AcDbSymbolTableRecord
100
AcDbLayerTableRecord
  2
GRAVE
 70
     0
 62
    18
  6
CONTINUOUS
  0
LAYER
  5
18B
330
2
100
AcDbSymbolTableRecord
100
AcDbLayerTableRecord
  2
TREE
 70
     0
 62
    18
  6
CONTINUOUS
  0
LAYER
  5
18C
330
2
100
AcDbSymbolTableRecord
100
AcDbLayerTableRecord
  2
NUMBERS
 70
     0
 62
    18
  6
CONTINUOUS
  0
LAYER
  5
18D
330
2
100
AcDbSymbolTableRecord
100
AcDbLayerTableRecord
  2
AREA_LABELS
 70
     0
 62
    18
  6
CONTINUOUS
  0
LAYER
  5
18E
330
2
100
AcDbSymbolTableRecord
100
AcDbLayerTableRecord
  2
HIDDEN_GRAVES
 70
     0
 62
    30
  6
CONTINUOUS
  0
LAYER
  5
18F
330
2
100
AcDbSymbolTableRecord
100
AcDbLayerTableRecord
  2
AREA_BOUNDARIES
 70
     0
 62
    18
  6
CONTINUOUS
  0
ENDTAB
  0
TABLE
  2
STYLE
  5
3
330
0
100
AcDbSymbolTable
 70
    14
  0
STYLE
  5
11
330
3
100
AcDbSymbolTableRecord
100
AcDbTextStyleTableRecord
  2
STANDARD
 70
     0
 40
0.0
 41
1.0
 50
0.0
 71
     0
 42
0.1477272659540176
  3

  4

1001
ACAD
1000
Times New Roman
1071
      290
  0
STYLE
  5
30D
330
3
100
AcDbSymbolTableRecord
100
AcDbTextStyleTableRecord
  2
_TCW_TXTSTY_3A
 70
     0
 40
0.3782609701156616
 41
1.0
 50
0.0
 71
     0
 42
0.07931034266949
  3

  4

1001
ACAD
1000
Arial Rounded MT Bold
1071
       34
  0
STYLE
  5
30F
330
3
100
AcDbSymbolTableRecord
100
AcDbTextStyleTableRecord
  2
_TCW_TXTSTY_3B
 70
     0
 40
0.3782611191272736
 41
1.0
 50
0.0
 71
     0
 42
0.07931034266949
  3

  4

1001
ACAD
1000
Arial Rounded MT Bold
1071
       34
  0
STYLE
  5
311
330
3
100
AcDbSymbolTableRecord
100
AcDbTextStyleTableRecord
  2
_TCW_TXTSTY_3C
 70
     0
 40
0.3782605230808258
 41
1.0
 50
0.0
 71
     0
 42
0.07931034266949
  3

  4

1001
ACAD
1000
Arial Rounded MT Bold
1071
       34
  0
STYLE
  5
313
330
3
100
AcDbSymbolTableRecord
100
AcDbTextStyleTableRecord
  2
_TCW_TXTSTY_3D
 70
     0
 40
0.3782608211040497
 41
1.0
 50
0.0
 71
     0
 42
0.07931034266949
  3

  4

1001
ACAD
1000
Arial Rounded MT Bold
1071
       34
  0
STYLE
  5
315
330
3
100
AcDbSymbolTableRecord
100
AcDbTextStyleTableRecord
  2
_TCW_TXTSTY_3E
 70
     0
 40
0.3782609105110168
 41
1.0
 50
0.0
 71
     0
 42
0.07931034266949
  3

  4

1001
ACAD
1000
Arial Rounded MT Bold
1071
       34
  0
STYLE
  5
35B
330
3
100
AcDbSymbolTableRecord
100
AcDbTextStyleTableRecord
  2
_TCW_TXTSTY_3F
 70
     0
 40
0.2521739900112152
 41
1.0
 50
0.0
 71
     0
 42
0.07931034266949
  3

  4

1001
ACAD
1000
Arial Rounded MT Bold
1071
       34
  0
STYLE
  5
35D
330
3
100
AcDbSymbolTableRecord
100
AcDbTextStyleTableRecord
  2
_TCW_TXTSTY_40
 70
     0
 40
0.2521736919879913
 41
1.0
 50
0.0
 71
     0
 42
0.07931034266949
  3

  4

1001
ACAD
1000
Arial Rounded MT Bold
1071
       34
  0
STYLE
  5
363
330
3
100
AcDbSymbolTableRecord
100
AcDbTextStyleTableRecord
  2
_TCW_TXTSTY_41
 70
     0
 40
0.2521739900112152
 41
0.96
 50
0.0
 71
     0
 42
0.07931034266949
  3

  4

1001
ACAD
1000
Arial Rounded MT Bold
1071
       34
  0
STYLE
  5
36E
330
3
100
AcDbSymbolTableRecord
100
AcDbTextStyleTableRecord
  2
_TCW_TXTSTY_42
 70
     0
 40
0.2212101817131042
 41
1.13
 50
0.0
 71
     0
 42
0.07931034266949
  3

  4

1001
ACAD
1000
Arial Rounded MT Bold
1071
       34
  0
STYLE
  5
380
330
3
100
AcDbSymbolTableRecord
100
AcDbTextStyleTableRecord
  2
_TCW_TXTSTY_43
 70
     0
 40
0.3152174055576324
 41
1.0
 50
0.0
 71
     0
 42
0.07931034266949
  3

  4

1001
ACAD
1000
Arial Rounded MT Bold
1071
       34
  0
STYLE
  5
3AC
330
3
100
AcDbSymbolTableRecord
100
AcDbTextStyleTableRecord
  2
_TCW_TXTSTY_44
 70
     0
 40
0.3782608509063721
 41
1.0
 50
0.0
 71
     0
 42
0.07931034266949
  3

  4

1001
ACAD
1000
Arial Rounded MT Bold
1071
       34
  0
STYLE
  5
3B4
330
3
100
AcDbSymbolTableRecord
100
AcDbTextStyleTableRecord
  2
_TCW_TXTSTY_45
 70
     0
 40
0.3152174055576324
 41
0.96
 50
0.0
 71
     0
 42
0.07931034266949
  3

  4

1001
ACAD
1000
Arial Rounded MT Bold
1071
       34
  0
STYLE
  5
3EA
330
3
100
AcDbSymbolTableRecord
100
AcDbTextStyleTableRecord
  2
_TCW_TXTSTY_46
 70
     0
 40
0.0500000007450581
 41
1.0
 50
0.0
 71
     0
 42
0.07931034266949
  3

  4

1001
ACAD
1000
Arial Rounded MT Bold
1071
       34
  0
ENDTAB
  0
TABLE
  2
VIEW
  5
6
330
0
100
AcDbSymbolTable
 70
     3
  0
VIEW
  5
190
330
6
100
AcDbSymbolTableRecord
100
AcDbViewTableRecord
  2
VIEW_0
 70
     0
 40
8.267716535433072
 10
5.846456692913386
 20
4.133858267716536
 41
11.69291338582677
 11
0.0
 21
0.0
 31
1.0
 12
0.0
 22
0.0
 32
0.0
 42
50.0
 43
0.0
 44
0.0
 50
0.0
 71
     0
  0
VIEW
  5
191
330
6
100
AcDbSymbolTableRecord
100
AcDbViewTableRecord
  2
MARGIN_WIDTH_BOTTOM
 70
     0
 40
151.0047770738602
 10
141.4500002264977
 20
74.49352210760117
 41
284.9100581407547
 11
0.0
 21
0.0
 31
1.0
 12
0.0
 22
0.0
 32
0.0
 42
50.0
 43
0.0
 44
0.0
 50
0.0
 71
     0
  0
VIEW
  5
192
330
6
100
AcDbSymbolTableRecord
100
AcDbViewTableRecord
  2
MARGIN_WIDTH_TOP
 70
     0
 40
153.0036659240723
 10
141.4500190019608
 20
120.5107555389404
 41
284.9100816249847
 11
0.0
 21
0.0
 31
1.0
 12
0.0
 22
0.0
 32
0.0
 42
50.0
 43
0.0
 44
0.0
 50
0.0
 71
     0
  0
ENDTAB
  0
TABLE
  2
UCS
  5
7
330
0
100
AcDbSymbolTable
 70
     0
  0
ENDTAB
  0
TABLE
  2
APPID
  5
9
330
0
100
AcDbSymbolTable
 70
     6
  0
APPID
  5
12
330
9
100
AcDbSymbolTableRecord
100
AcDbRegAppTableRecord
  2
ACAD
 70
     0
  0
APPID
  5
6A
330
9
100
AcDbSymbolTableRecord
100
AcDbRegAppTableRecord
  2
TCAD
 70
     0
  0
APPID
  5
195
330
9
100
AcDbSymbolTableRecord
100
AcDbRegAppTableRecord
  2
ACAD_MLEADERVER
 70
     0
  0
ENDTAB
  0
TABLE
  2
DIMSTYLE
  5
A
330
0
100
AcDbSymbolTable
 70
     1
  0
DIMSTYLE
105
27
330
A
100
AcDbSymbolTableRecord
100
AcDbDimStyleTableRecord
  2
STANDARD
 70
     0
  3

  4

  5

  6

  7

 40
1.0
 41
0.25
 42
0.0625
 43
0.375
 44
0.125
 45
0.01
 46
0.0
 47
0.0
 48
0.0
140
0.1477272727272727
141
0.0
142
0.0
143
1.0
144
1.0
145
0.0
146
1.0
147
0.0625
 71
     0
 72
     0
 73
     1
 74
     0
 75
     0
 76
     0
 77
     1
 78
     1
170
     0
171
     2
172
     1
173
     0
174
     0
175
     0
176
     0
177
     0
178
     0
179
     2
270
     2
271
     2
272
     3
273
     2
274
     2
340
11
275
     0
280
     0
281
     0
282
     0
283
     1
284
     0
285
     0
286
     0
287
     3
288
     0
  0
ENDTAB
  0
TABLE
  2
BLOCK_RECORD
  5
1
330
0
100
AcDbSymbolTable
 70
     2
  0
BLOCK_RECORD
  5
1F
102
{ACAD_XDICTIONARY
360
196
102
}
330
1
100
AcDbSymbolTableRecord
100
AcDbBlockTableRecord
  2
*MODEL_SPACE
  0
BLOCK_RECORD
  5
1B
330
1
100
AcDbSymbolTableRecord
100
AcDbBlockTableRecord
  2
*PAPER_SPACE
  0
ENDTAB
  0
ENDSEC
  0
SECTION
  2
BLOCKS
  0
BLOCK
  5
20
330
1F
100
AcDbEntity
  8
0
100
AcDbBlockBegin
  2
*MODEL_SPACE
 70
     0
 10
0.0
 20
0.0
 30
0.0
  3
*MODEL_SPACE
  1

  0
ENDBLK
  5
21
330
1F
100
AcDbEntity
  8
0
100
AcDbBlockEnd
  0
BLOCK
  5
1C
330
1B
100
AcDbEntity
 67
     1
  8
0
100
AcDbBlockBegin
  2
*PAPER_SPACE
 70
     0
 10
0.0
 20
0.0
 30
0.0
  3
*PAPER_SPACE
  1

  0
ENDBLK
  5
1D
330
1B
100
AcDbEntity
 67
     1
  8
0
100
AcDbBlockEnd
  0
ENDSEC
  0
SECTION
  2
ENTITIES
  0
LWPOLYLINE
  5
1A4
102
{ACAD_REACTORS
330
2E5
102
}
102
{ACAD_XDICTIONARY
360
1A5
102
}
330
1F
100
AcDbEntity
  8
CHURCH_OUTLINE
  6
CONTINUOUS
100
AcDbPolyline
 90
        2
 70
     0
 43
0.1000000014901161
 10
4.803472518920898
 20
-5.628399273840386
 10
-1.055000305175781
 20
-7.883755108801323
  0
LWPOLYLINE
  5
1A7
102
{ACAD_REACTORS
330
2E5
102
}
102
{ACAD_XDICTIONARY
360
1A8
102
}
330
1F
100
AcDbEntity
  8
CHURCH_OUTLINE
  6
CONTINUOUS
100
AcDbPolyline
 90
        2
 70
     0
 43
0.1000000014901161
 10
-1.646389007568359
 20
-8.111423871008355
 10
-2.003503799438477
 20
-8.24890556046148
  0
LWPOLYLINE
  5
1AA
102
{ACAD_REACTORS
330
2E5
102
}
102
{ACAD_XDICTIONARY
360
1AB
102
}
330
1F
100
AcDbEntity
  8
CHURCH_OUTLINE
  6
CONTINUOUS
100
AcDbPolyline
 90
        2
 70
     0
 43
0.1000000014901161
 10
-3.496864318847656
 20
-8.823803326574762
 10
-3.787002563476562
 20
-8.935505291906793
  0
LWPOLYLINE
  5
1AD
102
{ACAD_REACTORS
330
2E5
102
}
102
{ACAD_XDICTIONARY
360
1AE
102
}
330
1F
100
AcDbEntity
  8
CHURCH_OUTLINE
  6
CONTINUOUS
100
AcDbPolyline
 90
       12
 70
     0
 43
0.1000000014901161
 10
-4.364364624023438
 20
-9.1577724427857
 10
-8.747037887573242
 20
-10.84498252579351
 10
-12.48300933837891
 20
-1.140491864172417
 10
-12.34884643554688
 20
-1.088840863195855
 10
-13.57121562957764
 20
2.08636055281977
 10
-8.562444686889648
 20
4.014598467858833
 10
-8.594795227050781
 20
4.09862861922602
 10
-8.425737380981445
 20
4.163714983972114
 10
-8.720500946044922
 20
4.929385760339302
 10
-8.844837188720703
 20
4.881518939050239
 10
-9.441545486450195
 20
6.431521990808052
 10
-9.26266098022461
 20
6.500384905847114
  0
LWPOLYLINE
  5
1B0
102
{ACAD_REACTORS
330
2E5
102
}
102
{ACAD_XDICTIONARY
360
1B1
102
}
330
1F
100
AcDbEntity
  8
CHURCH_OUTLINE
  6
CONTINUOUS
100
AcDbPolyline
 90
       11
 70
     0
 43
0.1000000014901161
 10
-9.26266098022461
 20
6.500384905847114
 10
-9.612857818603516
 20
7.410045245202583
 10
-9.791742324829102
 20
7.34118233016352
 10
-10.01555633544922
 20
7.922557452233833
 10
-9.702508926391602
 20
8.043071368249457
 10
-9.771373748779297
 20
8.221957781823676
 10
-9.637210845947266
 20
8.273608782800238
 10
-9.774942398071289
 20
8.631373980554145
 10
-9.238288879394531
 20
8.837970355065863
 10
-9.117773056030273
 20
8.524928668054145
 10
-8.625194549560547
 20
8.714557269128363
  0
LWPOLYLINE
  5
1B3
102
{ACAD_REACTORS
330
2E5
102
}
102
{ACAD_XDICTIONARY
360
1B4
102
}
330
1F
100
AcDbEntity
  8
CHURCH_OUTLINE
  6
CONTINUOUS
100
AcDbPolyline
 90
        2
 70
     0
 43
0.1000000014901161
 10
-8.342887878417969
 20
8.82323799422602
 10
-6.919906616210938
 20
9.371043780358832
  0
LWPOLYLINE
  5
1B6
102
{ACAD_REACTORS
330
2E5
102
}
102
{ACAD_XDICTIONARY
360
1B7
102
}
330
1F
100
AcDbEntity
  8
CHURCH_OUTLINE
  6
CONTINUOUS
100
AcDbPolyline
 90
        6
 70
     0
 43
0.1000000014901161
 10
-6.637599945068359
 20
9.479724505456488
 10
-6.210897445678711
 20
9.643992999108832
 10
-6.314197540283203
 20
9.912318804772895
 10
-5.688100814819336
 20
10.15335426619868
 10
-5.594554901123047
 20
9.887599566491645
 10
-5.231998443603516
 20
10.02717933944086
  0
LWPOLYLINE
  5
1B9
102
{ACAD_REACTORS
330
2E5
102
}
102
{ACAD_XDICTIONARY
360
1BA
102
}
330
1F
100
AcDbEntity
  8
CHURCH_OUTLINE
  6
CONTINUOUS
100
AcDbPolyline
 90
        2
 70
     0
 43
0.1000000014901161
 10
-4.949689865112305
 20
10.13586006453852
 10
-3.515262603759766
 20
10.68807564071039
  0
LWPOLYLINE
  5
1BC
102
{ACAD_REACTORS
330
2E5
102
}
102
{ACAD_XDICTIONARY
360
1BD
102
}
330
1F
100
AcDbEntity
  8
CHURCH_OUTLINE
  6
CONTINUOUS
100
AcDbPolyline
 90
       37
 70
     0
 43
0.1000000014901161
 10
-3.232955932617188
 20
10.79675636580805
 10
-2.840278625488281
 20
10.94792518905024
 10
-2.951040267944336
 20
11.25839577010493
 10
-2.306509017944336
 20
11.50652656844477
 10
-2.203210830688477
 20
11.23820076278071
 10
-1.979604721069336
 20
11.3242832212768
 10
-1.910739898681641
 20
11.14539680770258
 10
-1.642412185668945
 20
11.24869118026118
 10
-1.418598175048828
 20
10.66731605819086
 10
-1.686925888061523
 20
10.56402168563227
 10
-1.428678512573242
 20
9.893207171472113
 10
-1.249794006347656
 20
9.962070086511176
 10
-0.4922695159912109
 20
7.994334795983833
 10
-0.5817108154296875
 20
7.959903338464302
 10
-0.2815265655517578
 20
7.180148699792427
 10
-0.1026420593261719
 20
7.24901924422602
 10
-0.0929298400878906
 20
7.223788836511177
 10
-0.0929298400878906
 20
7.223788836511177
 10
0.0964508056640625
 20
6.731860735925239
 10
2.019460678100586
 20
7.47216377547602
 10
1.761213302612305
 20
8.142985919030707
 10
2.253145217895508
 20
8.332362750085395
 10
2.494176864624023
 20
7.706264117272895
 10
4.685514450073242
 20
8.549876788171332
 10
4.427267074584961
 20
9.220691302331488
 10
5.008642196655273
 20
9.444507220300238
 10
5.232454299926758
 20
8.863132098229926
 10
5.321897506713867
 20
8.897563555749457
 10
5.390764236450195
 20
8.718677142175238
 10
6.195745468139648
 20
9.028575518640082
 10
6.436773300170898
 20
8.402476885827582
 10
5.676515579223633
 20
8.10979805281977
 10
6.606203079223633
 20
5.694858172448677
 10
11.43608665466309
 20
7.554233172448677
 10
13.58814430236816
 20
1.964091876061958
 10
3.347002029418945
 20
-1.978481671301323
 10
4.72431755065918
 20
-5.556171795813042
  0
LWPOLYLINE
  5
1BF
102
{ACAD_REACTORS
330
2E5
102
}
102
{ACAD_XDICTIONARY
360
1C0
102
}
330
1F
100
AcDbEntity
  8
CHURCH_OUTLINE
  6
CONTINUOUS
100
AcDbPolyline
 90
        4
 70
     0
 43
0.1000000014901161
 10
-4.364364624023438
 20
-9.1577724427857
 10
-3.400243759155273
 20
-11.66215934464117
 10
-0.0908775329589844
 20
-10.38813438126226
 10
-1.055000305175781
 20
-7.883755108801323
  0
LWPOLYLINE
  5
1C2
102
{ACAD_REACTORS
330
2E5
102
}
102
{ACAD_XDICTIONARY
360
1C3
102
}
330
1F
100
AcDbEntity
  8
CHURCH_OUTLINE
  6
CONTINUOUS
100
AcDbPolyline
 90
        2
 70
     0
 43
0.1000000014901161
 10
-9.014364242553711
 20
7.873378375085395
 10
-7.53216552734375
 20
4.02325020125727
  0
LWPOLYLINE
  5
1C5
102
{ACAD_REACTORS
330
2E5
102
}
102
{ACAD_XDICTIONARY
360
1C6
102
}
330
1F
100
AcDbEntity
  8
CHURCH_OUTLINE
  6
CONTINUOUS
100
AcDbPolyline
 90
       12
 70
     0
 43
0.1000000014901161
 10
-7.360906600952148
 20
3.58953438094477
 10
-12.49756240844727
 20
1.612063982995552
 10
-11.59112358093262
 20
-0.7424892396606984
 10
-10.53157615661621
 20
-0.3345912904419484
 10
-10.19619369506836
 20
-1.205776593176323
 10
-11.25574111938477
 20
-1.613674542395073
 10
-9.39300537109375
 20
-6.452282330481011
 10
-8.380548477172852
 20
-6.062511822668511
 10
-8.036102294921875
 20
-6.957241436926323
 10
-9.001468658447266
 20
-7.328876873938042
 10
-8.122220993041992
 20
-9.61278953262945
 10
-3.796468734741211
 20
-7.947491070715386
  0
LWPOLYLINE
  5
1C8
102
{ACAD_REACTORS
330
2E5
102
}
102
{ACAD_XDICTIONARY
360
1C9
102
}
330
1F
100
AcDbEntity
  8
CHURCH_OUTLINE
  6
CONTINUOUS
100
AcDbPolyline
 90
        3
 70
     0
 43
0.1000000014901161
 10
-2.368869781494141
 20
-7.397907635656792
 10
3.674074172973633
 20
-5.071529767004448
 10
2.317407608032227
 20
-1.547481915441948
  0
LWPOLYLINE
  5
1CB
102
{ACAD_REACTORS
330
2E5
102
}
102
{ACAD_XDICTIONARY
360
1CC
102
}
330
1F
100
AcDbEntity
  8
CHURCH_OUTLINE
  6
CONTINUOUS
100
AcDbPolyline
 90
        7
 70
     0
 43
0.1000000014901161
 10
0.7144870758056641
 20
2.616237261804145
 10
-0.6428451538085938
 20
6.142016985925239
 10
-0.8312091827392578
 20
6.069499590905708
 10
-1.03062629699707
 20
6.587497332604927
 10
-0.8187160491943359
 20
6.669078448327583
 10
-2.280351638793945
 20
10.46579323104243
 10
-8.99081802368164
 20
7.88244209578852
  0
LWPOLYLINE
  5
1CE
102
{ACAD_REACTORS
330
2E5
102
}
102
{ACAD_XDICTIONARY
360
1CF
102
}
330
1F
100
AcDbEntity
  8
CHURCH_OUTLINE
  6
CONTINUOUS
100
AcDbPolyline
 90
        2
 70
     0
 43
0.1000000014901161
 10
10.89073371887207
 20
6.520129778893989
 10
4.778173446655273
 20
4.166957476647895
  0
LWPOLYLINE
  5
1D1
102
{ACAD_REACTORS
330
2E5
102
}
102
{ACAD_XDICTIONARY
360
1D2
102
}
330
1F
100
AcDbEntity
  8
CHURCH_OUTLINE
  6
CONTINUOUS
100
AcDbPolyline
 90
        2
 70
     0
 43
0.1000000014901161
 10
4.260385513305664
 20
3.967624285729927
 10
1.379100799560547
 20
2.858401873620552
  0
LWPOLYLINE
  5
1D4
102
{ACAD_REACTORS
330
2E5
102
}
102
{ACAD_XDICTIONARY
360
1D5
102
}
330
1F
100
AcDbEntity
  8
CHURCH_OUTLINE
  6
CONTINUOUS
100
AcDbPolyline
 90
        3
 70
     0
 43
0.1000000014901161
 10
10.89073371887207
 20
6.520129778893989
 10
12.4860668182373
 20
2.376124957116645
 10
6.437227249145508
 20
0.0474811582885204
  0
LWPOLYLINE
  5
1D7
102
{ACAD_REACTORS
330
2E5
102
}
102
{ACAD_XDICTIONARY
360
1D8
102
}
330
1F
100
AcDbEntity
  8
CHURCH_OUTLINE
  6
CONTINUOUS
100
AcDbPolyline
 90
        2
 70
     0
 43
0.1000000014901161
 10
5.919805526733398
 20
-0.1517147035278859
 10
2.974433898925781
 20
-1.285602948156792
  0
LWPOLYLINE
  5
1DA
102
{ACAD_REACTORS
330
2E5
102
}
102
{ACAD_XDICTIONARY
360
1DB
102
}
330
1F
100
AcDbEntity
  8
CHURCH_OUTLINE
  6
CONTINUOUS
100
AcDbPolyline
 90
        8
 70
     0
 43
0.1000000014901161
 10
-3.787002563476562
 20
-8.935505291906793
 10
-3.117876052856445
 20
-10.67361106583257
 10
-2.905965805053711
 20
-10.59202995010992
 10
-2.833450317382812
 20
-10.78039970108648
 10
-2.668632507324219
 20
-10.71694602677007
 10
-2.559860229492188
 20
-10.99949302384039
 10
-2.677587509155273
 20
-11.04481162735601
 10
-2.568815231323242
 20
-11.32735862442632
  0
LWPOLYLINE
  5
1DD
102
{ACAD_REACTORS
330
2E5
102
}
102
{ACAD_XDICTIONARY
360
1DE
102
}
330
1F
100
AcDbEntity
  8
CHURCH_OUTLINE
  6
CONTINUOUS
100
AcDbPolyline
 90
        8
 70
     0
 43
0.1000000014901161
 10
-1.646389007568359
 20
-8.111423871008355
 10
-0.9903717041015625
 20
-9.8154872865357
 10
-1.22614860534668
 20
-9.90625419327398
 10
-1.147899627685547
 20
-10.10950889298101
 10
-1.367416381835938
 20
-10.19401206680914
 10
-1.24534797668457
 20
-10.51109733292242
 10
-1.033962249755859
 20
-10.42971458145757
 10
-0.9306755065917969
 20
-10.69801749893804
  0
LWPOLYLINE
  5
1E0
102
{ACAD_REACTORS
330
2E5
102
}
102
{ACAD_XDICTIONARY
360
1E1
102
}
330
1F
100
AcDbEntity
  8
CHURCH_OUTLINE
  6
CONTINUOUS
100
AcDbPolyline
 90
       10
 70
     0
 43
0.1000000014901161
 10
-6.931175231933594
 20
-1.055897137609917
 10
-7.051252365112305
 20
-1.102123639074761
 10
-7.323282241821289
 20
-0.3954967469849171
 10
-8.364620208740234
 20
-0.7963909120239796
 10
-8.798913955688477
 20
0.3317295103393016
 10
-6.6170654296875
 20
1.171680071862739
 10
-6.0205078125
 20
-0.3779262513794484
 10
-6.243650436401367
 20
-0.4638332338013234
 10
-6.133884429931641
 20
-0.7489589662231984
 10
-6.269754409790039
 20
-0.8012660951294484
  0
LWPOLYLINE
  5
1E3
102
{ACAD_REACTORS
330
2E5
102
}
102
{ACAD_XDICTIONARY
360
1E4
102
}
330
1F
100
AcDbEntity
  8
CHURCH_OUTLINE
  6
CONTINUOUS
100
AcDbPolyline
 90
       10
 70
     0
 43
0.1000000014901161
 10
-5.729412078857422
 20
-4.151783368078667
 10
-5.820945739746094
 20
-4.187023541418511
 10
-5.572776794433594
 20
-4.831661602941948
 10
-6.390970230102539
 20
-5.146641156164605
 10
-5.994855880737305
 20
-6.175579449621636
 10
-4.246896743774414
 20
-5.502666851965386
 10
-4.843456268310547
 20
-3.953052899328667
 10
-4.992218017578125
 20
-4.010326764074761
 10
-5.039941787719727
 20
-3.88635673233648
 10
-5.07231330871582
 20
-3.898815533606011
  0
LWPOLYLINE
  5
1E6
102
{ACAD_REACTORS
330
2E5
102
}
102
{ACAD_XDICTIONARY
360
1E7
102
}
330
1F
100
AcDbEntity
  8
CHURCH_OUTLINE
  6
CONTINUOUS
 62
     7
100
AcDbPolyline
 90
        3
 70
     1
 43
0.1000000014901161
 10
-2.523092269897461
 20
1.751361468347114
 42
0.4142135623731
 10
-2.991724014282227
 20
1.95946846297602
 42
2.414213562373
 10
-2.523092269897461
 20
1.751361468347114
  0
LWPOLYLINE
  5
1E9
102
{ACAD_REACTORS
330
2E5
102
}
102
{ACAD_XDICTIONARY
360
1EA
102
}
330
1F
100
AcDbEntity
  8
CHURCH_OUTLINE
  6
CONTINUOUS
 62
     7
100
AcDbPolyline
 90
        3
 70
     1
 43
0.1000000014901161
 10
-0.5950145721435547
 20
-3.256977459875542
 42
0.4142135623731
 10
-1.06364631652832
 20
-3.048870465246636
 42
2.414213562373
 10
-0.5950145721435547
 20
-3.256977459875542
  0
LWPOLYLINE
  5
1EC
102
{ACAD_REACTORS
330
2E5
102
}
102
{ACAD_XDICTIONARY
360
1ED
102
}
330
1F
100
AcDbEntity
  8
CHURCH_OUTLINE
  6
CONTINUOUS
 62
     7
100
AcDbPolyline
 90
        3
 70
     1
 43
0.1000000014901161
 10
-3.898551940917969
 20
5.212726214440864
 42
0.4142135623731
 10
-4.178049087524414
 20
5.336841204675239
 42
2.414213562373
 10
-3.898551940917969
 20
5.212726214440864
  0
LWPOLYLINE
  5
1EF
102
{ACAD_REACTORS
330
2E5
102
}
102
{ACAD_XDICTIONARY
360
1F0
102
}
330
1F
100
AcDbEntity
  8
CHURCH_OUTLINE
  6
CONTINUOUS
 62
     7
100
AcDbPolyline
 90
        2
 70
     0
 43
0.1000000014901161
 10
-6.616256713867188
 20
-1.08636893936773
 42
3.016797988760195
 10
-6.456748962402344
 20
-1.022259137121636
  0
LWPOLYLINE
  5
1F2
102
{ACAD_REACTORS
330
2E5
102
}
102
{ACAD_XDICTIONARY
360
1F3
102
}
330
1F
100
AcDbEntity
  8
CHURCH_OUTLINE
  6
CONTINUOUS
 62
     7
100
AcDbPolyline
 90
        2
 70
     0
 43
0.1000000014901161
 10
-6.456974029541016
 20
-1.036457440344292
 42
0.5856905625782317
 10
-6.25958251953125
 20
-0.7983516664185109
  0
LWPOLYLINE
  5
1F5
102
{ACAD_REACTORS
330
2E5
102
}
102
{ACAD_XDICTIONARY
360
1F6
102
}
330
1F
100
AcDbEntity
  8
CHURCH_OUTLINE
  6
CONTINUOUS
 62
     7
100
AcDbPolyline
 90
        2
 70
     0
 43
0.1000000014901161
 10
-6.937543869018555
 20
-1.048420330969292
 42
0.6571106271922822
 10
-6.626440048217773
 20
-1.079792401281792
  0
LWPOLYLINE
  5
1F8
102
{ACAD_REACTORS
330
2E5
102
}
102
{ACAD_XDICTIONARY
360
1F9
102
}
330
1F
100
AcDbEntity
  8
CHURCH_OUTLINE
  6
CONTINUOUS
 62
     7
100
AcDbPolyline
 90
        2
 70
     0
 43
0.1000000014901161
 10
-5.386211395263672
 20
-3.864475628820855
 42
3.016797988760195
 10
-5.545719146728516
 20
-3.928585431066948
  0
LWPOLYLINE
  5
1FB
102
{ACAD_REACTORS
330
2E5
102
}
102
{ACAD_XDICTIONARY
360
1FC
102
}
330
1F
100
AcDbEntity
  8
CHURCH_OUTLINE
  6
CONTINUOUS
 62
     7
100
AcDbPolyline
 90
        2
 70
     0
 43
0.1000000014901161
 10
-5.545494079589844
 20
-3.914379498449761
 42
0.5856987467416572
 10
-5.742885589599609
 20
-4.152485272375542
  0
LWPOLYLINE
  5
1FE
102
{ACAD_REACTORS
330
2E5
102
}
102
{ACAD_XDICTIONARY
360
1FF
102
}
330
1F
100
AcDbEntity
  8
CHURCH_OUTLINE
  6
CONTINUOUS
 62
     7
100
AcDbPolyline
 90
        2
 70
     0
 43
0.1000000014901161
 10
-5.064924240112305
 20
-3.902424237219292
 42
0.6571270176154658
 10
-5.376029968261719
 20
-3.871044537512261
  0
LWPOLYLINE
  5
201
102
{ACAD_REACTORS
330
2E5
102
}
102
{ACAD_XDICTIONARY
360
202
102
}
330
1F
100
AcDbEntity
  8
CHURCH_OUTLINE
  6
CONTINUOUS
100
AcDbPolyline
 90
        4
 70
     0
 43
0.1000000014901161
 10
-6.919906616210938
 20
9.371043780358832
 10
-6.961263656616211
 20
9.478473284753363
 10
-6.678956985473633
 20
9.58715400985102
 10
-6.637599945068359
 20
9.479724505456488
  0
LWPOLYLINE
  5
204
102
{ACAD_REACTORS
330
2E5
102
}
102
{ACAD_XDICTIONARY
360
205
102
}
330
1F
100
AcDbEntity
  8
CHURCH_OUTLINE
  6
CONTINUOUS
100
AcDbPolyline
 90
        4
 70
     0
 43
0.1000000014901161
 10
-5.231998443603516
 20
10.02717933944086
 10
-5.271232604980469
 20
10.1290927915893
 10
-4.988924026489258
 20
10.23777351668696
 10
-4.949689865112305
 20
10.13586006453852
  0
LWPOLYLINE
  5
207
102
{ACAD_REACTORS
330
2E5
102
}
102
{ACAD_XDICTIONARY
360
208
102
}
330
1F
100
AcDbEntity
  8
CHURCH_OUTLINE
  6
CONTINUOUS
100
AcDbPolyline
 90
        4
 70
     0
 43
0.1000000014901161
 10
-3.515262603759766
 20
10.68807564071039
 10
-3.554496765136719
 20
10.78998909285883
 10
-3.272190093994141
 20
10.89866981795649
 10
-3.232955932617188
 20
10.79675636580805
  0
LWPOLYLINE
  5
20A
102
{ACAD_REACTORS
330
2E5
102
}
102
{ACAD_XDICTIONARY
360
20B
102
}
330
1F
100
AcDbEntity
  8
CHURCH_OUTLINE
  6
CONTINUOUS
100
AcDbPolyline
 90
        4
 70
     0
 43
0.1000000014901161
 10
-8.625194549560547
 20
8.714557269128363
 10
-8.66655158996582
 20
8.821986773522895
 10
-8.384244918823242
 20
8.93066749862055
 10
-8.342887878417969
 20
8.82323799422602
  0
LWPOLYLINE
  5
20D
102
{ACAD_REACTORS
330
2E5
102
}
102
{ACAD_XDICTIONARY
360
20E
102
}
330
1F
100
AcDbEntity
  8
CHURCH_OUTLINE
  6
CONTINUOUS
100
AcDbPolyline
 90
        4
 70
     0
 43
0.1000000014901161
 10
-8.270639419555664
 20
8.8517490415893
 10
-8.170770645141602
 20
8.592334368737738
 10
-8.231809616088867
 20
8.568835833581488
 10
-8.276300430297852
 20
8.183757403405707
  0
LWPOLYLINE
  5
210
102
{ACAD_REACTORS
330
2E5
102
}
102
{ACAD_XDICTIONARY
360
211
102
}
330
1F
100
AcDbEntity
  8
CHURCH_OUTLINE
  6
CONTINUOUS
100
AcDbPolyline
 90
        4
 70
     0
 43
0.1000000014901161
 10
-4.821908950805664
 20
10.17941627791743
 10
-4.722040176391602
 20
9.920001605065863
 10
-4.7830810546875
 20
9.896503069909613
 10
-4.827571868896484
 20
9.511424639733832
  0
LWPOLYLINE
  5
213
102
{ACAD_REACTORS
330
2E5
102
}
102
{ACAD_XDICTIONARY
360
214
102
}
330
1F
100
AcDbEntity
  8
CHURCH_OUTLINE
  6
CONTINUOUS
100
AcDbPolyline
 90
        4
 70
     0
 43
0.1000000014901161
 10
-3.585861206054688
 20
10.65526161483149
 10
-3.485992431640625
 20
10.39584694197993
 10
-3.424953460693359
 20
10.41934547713618
 10
-3.13372802734375
 20
10.16350899031977
  0
LWPOLYLINE
  5
216
102
{ACAD_REACTORS
330
2E5
102
}
102
{ACAD_XDICTIONARY
360
217
102
}
330
1F
100
AcDbEntity
  8
CHURCH_OUTLINE
  6
CONTINUOUS
100
AcDbPolyline
 90
        4
 70
     0
 43
0.1000000014901161
 10
-6.996440887451172
 20
9.34228096297602
 10
-6.896572113037109
 20
9.082866290124457
 10
-6.835533142089844
 20
9.106364825280707
 10
-6.544307708740234
 20
8.8505283384643
  0
LWPOLYLINE
  5
219
102
{ACAD_REACTORS
330
2E5
102
}
102
{ACAD_XDICTIONARY
360
21A
102
}
330
1F
100
AcDbEntity
  8
CHURCH_OUTLINE
  6
CONTINUOUS
100
AcDbPolyline
 90
        6
 70
     0
 43
0.1000000014901161
 10
-9.347330093383789
 20
6.21697578719477
 10
-9.231016159057617
 20
6.261752703698677
 10
-9.190715789794922
 20
6.157069781335395
 10
-8.830142974853516
 20
6.295878985436958
 10
-8.870443344116211
 20
6.400561907800239
 10
-8.521501541137695
 20
6.534892657311958
  0
LWPOLYLINE
  5
21C
102
{ACAD_REACTORS
330
2E5
102
}
102
{ACAD_XDICTIONARY
360
21D
102
}
330
1F
100
AcDbEntity
  8
CHURCH_OUTLINE
  6
CONTINUOUS
100
AcDbPolyline
 90
        6
 70
     0
 43
0.1000000014901161
 10
-8.953285217285156
 20
5.193408587487739
 10
-8.836971282958984
 20
5.238185503991645
 10
-8.87727165222168
 20
5.342868426354927
 10
-8.516698837280273
 20
5.48168525985102
 10
-8.476398468017578
 20
5.377002337487739
 10
-8.127456665039062
 20
5.511333086999458
  0
LWPOLYLINE
  5
21F
102
{ACAD_REACTORS
330
2E5
102
}
102
{ACAD_XDICTIONARY
360
220
102
}
330
1F
100
AcDbEntity
  8
CHURCH_OUTLINE
  6
CONTINUOUS
100
AcDbPolyline
 90
        6
 70
     0
 43
0.1000000014901161
 10
-10.3628101348877
 20
3.321506121667427
 10
-10.29130935668945
 20
3.135776141198677
 10
-10.39599227905273
 20
3.095477679284614
 10
-10.30195808410645
 20
2.851222613366645
 10
-10.1972770690918
 20
2.891521075280708
 10
-10.06520462036133
 20
2.54845772078852
  0
LWPOLYLINE
  5
222
102
{ACAD_REACTORS
330
2E5
102
}
102
{ACAD_XDICTIONARY
360
223
102
}
330
1F
100
AcDbEntity
  8
CHURCH_OUTLINE
  6
CONTINUOUS
100
AcDbPolyline
 90
        6
 70
     0
 43
0.1000000014901161
 10
-11.63063049316406
 20
2.83343086531977
 10
-11.55912971496582
 20
2.64770088485102
 10
-11.45444869995117
 20
2.687999346765083
 10
-11.36041450500488
 20
2.443744280847114
 10
-11.46509742736816
 20
2.403445818933052
 10
-11.3330249786377
 20
2.060374835046333
  0
LWPOLYLINE
  5
225
102
{ACAD_REACTORS
330
2E5
102
}
102
{ACAD_XDICTIONARY
360
226
102
}
330
1F
100
AcDbEntity
  8
CHURCH_OUTLINE
  6
CONTINUOUS
 62
     7
100
AcDbPolyline
 90
        2
 70
     0
 43
0.1000000014901161
 10
-7.382228851318359
 20
3.628932574304145
 42
0.9443440206633541
 10
-7.547334671020508
 20
4.018451312097114
  0
LWPOLYLINE
  5
228
102
{ACAD_REACTORS
330
2E5
102
}
102
{ACAD_XDICTIONARY
360
229
102
}
330
1F
100
AcDbEntity
  8
CHURCH_OUTLINE
  6
CONTINUOUS
100
AcDbPolyline
 90
        7
 70
     0
 43
0.1000000014901161
 10
-11.44182395935059
 20
-3.837841412512261
 10
-11.33326530456543
 20
-3.796047589270073
 10
-11.24824142456055
 20
-3.84344901749273
 10
-11.14355850219727
 20
-3.803142926184136
 10
-11.0720043182373
 20
-3.699917218176323
 10
-11.11379623413086
 20
-3.591358563391167
 10
-10.65725898742676
 20
-3.193020245520073
  0
LWPOLYLINE
  5
22B
102
{ACAD_REACTORS
330
2E5
102
}
102
{ACAD_XDICTIONARY
360
22C
102
}
330
1F
100
AcDbEntity
  8
CHURCH_OUTLINE
  6
CONTINUOUS
100
AcDbPolyline
 90
        7
 70
     0
 43
0.1000000014901161
 10
-11.05123710632324
 20
-4.297359845129448
 10
-10.93104553222656
 20
-4.251095196691948
 10
-10.85259246826172
 20
-4.269855877844292
 10
-10.88000679016113
 20
-4.360546490637261
 10
-11.01570510864258
 20
-4.41278495499273
 10
-11.10012817382812
 20
-4.378506085363823
 10
-11.0622673034668
 20
-4.314960858313042
  0
LWPOLYLINE
  5
22E
102
{ACAD_REACTORS
330
2E5
102
}
102
{ACAD_XDICTIONARY
360
22F
102
}
330
1F
100
AcDbEntity
  8
CHURCH_OUTLINE
  6
CONTINUOUS
100
AcDbPolyline
 90
        7
 70
     0
 43
0.1000000014901161
 10
-10.99404716491699
 20
-5.00098075577398
 10
-10.8854866027832
 20
-4.959186932531792
 10
-10.85419654846191
 20
-4.86700858780523
 10
-10.74951362609863
 20
-4.826710125891167
 10
-10.62721252441406
 20
-4.855305096594292
 10
-10.58541870117188
 20
-4.963863751379448
 10
-9.979623794555664
 20
-4.953236004797417
  0
LWPOLYLINE
  5
231
102
{ACAD_REACTORS
330
2E5
102
}
102
{ACAD_XDICTIONARY
360
232
102
}
330
1F
100
AcDbEntity
  8
CHURCH_OUTLINE
  6
CONTINUOUS
100
AcDbPolyline
 90
        7
 70
     0
 43
0.1000000014901161
 10
-6.774324417114258
 20
-10.08554496475836
 10
-6.837623596191406
 20
-9.921116253820855
 10
-6.790224075317383
 20
-9.836094281164605
 10
-6.830524444580078
 20
-9.731411358801324
 10
-6.933750152587891
 20
-9.65985526749273
 10
-7.042308807373047
 20
-9.701649090734918
 10
-7.371879577636719
 20
-9.323933026281793
  0
LWPOLYLINE
  5
234
102
{ACAD_REACTORS
330
2E5
102
}
102
{ACAD_XDICTIONARY
360
235
102
}
330
1F
100
AcDbEntity
  8
CHURCH_OUTLINE
  6
CONTINUOUS
100
AcDbPolyline
 90
        7
 70
     0
 43
0.1000000014901161
 10
-6.463342666625977
 20
-9.68799247452398
 10
-6.509613037109375
 20
-9.5678066224732
 10
-6.4908447265625
 20
-9.489353558508355
 10
-6.40015983581543
 20
-9.516765973059137
 10
-6.347919464111328
 20
-9.65246238419195
 10
-6.382194519042969
 20
-9.736889264074762
 10
-6.44573974609375
 20
-9.699024579016168
  0
LWPOLYLINE
  5
237
102
{ACAD_REACTORS
330
2E5
102
}
102
{ACAD_XDICTIONARY
360
238
102
}
330
1F
100
AcDbEntity
  8
CHURCH_OUTLINE
  6
CONTINUOUS
100
AcDbPolyline
 90
        7
 70
     0
 43
0.1000000014901161
 10
-5.865251541137695
 20
-9.735569378820855
 10
-5.928550720214844
 20
-9.571148297277887
 10
-6.020727157592773
 20
-9.53986015030523
 10
-6.061027526855469
 20
-9.43517722794195
 10
-6.032430648803711
 20
-9.312878033606012
 10
-5.923871994018555
 20
-9.271084210363824
 10
-5.93266487121582
 20
-8.769871136633355
  0
LWPOLYLINE
  5
23A
102
{ACAD_REACTORS
330
2E5
102
}
102
{ACAD_XDICTIONARY
360
23B
102
}
330
1F
100
AcDbEntity
  8
CHURCH_OUTLINE
  6
CONTINUOUS
100
AcDbPolyline
 90
        7
 70
     0
 43
0.1000000014901161
 10
0.9353981018066406
 20
-7.117504498449761
 10
0.872100830078125
 20
-6.953075787512261
 10
0.9195003509521484
 20
-6.868053814856011
 10
0.8791999816894531
 20
-6.76337089249273
 10
0.7759742736816406
 20
-6.691822430578667
 10
0.6674137115478516
 20
-6.733608624426323
 10
0.3378429412841797
 20
-6.355892559973198
  0
LWPOLYLINE
  5
23D
102
{ACAD_REACTORS
330
2E5
102
}
102
{ACAD_XDICTIONARY
360
23E
102
}
330
1F
100
AcDbEntity
  8
CHURCH_OUTLINE
  6
CONTINUOUS
100
AcDbPolyline
 90
        7
 70
     0
 43
0.1000000014901161
 10
1.246381759643555
 20
-6.719959637609917
 10
1.200111389160156
 20
-6.599766156164605
 10
1.218877792358398
 20
-6.521313092199761
 10
1.309562683105469
 20
-6.548725506750542
 10
1.36180305480957
 20
-6.684421917883355
 10
1.32752799987793
 20
-6.768848797766167
 10
1.263982772827148
 20
-6.730984112707573
  0
LWPOLYLINE
  5
240
102
{ACAD_REACTORS
330
2E5
102
}
102
{ACAD_XDICTIONARY
360
241
102
}
330
1F
100
AcDbEntity
  8
CHURCH_OUTLINE
  6
CONTINUOUS
100
AcDbPolyline
 90
        7
 70
     0
 43
0.1000000014901161
 10
1.844470977783203
 20
-6.767536541906792
 10
1.781173706054688
 20
-6.603107830969292
 10
1.688995361328125
 20
-6.571819683996636
 10
1.64869499206543
 20
-6.467136761633355
 10
1.677291870117188
 20
-6.344837567297417
 10
1.785852432250977
 20
-6.30304374405523
 10
1.777057647705078
 20
-5.801830670324761
  0
LWPOLYLINE
  5
243
102
{ACAD_REACTORS
330
2E5
102
}
102
{ACAD_XDICTIONARY
360
244
102
}
330
1F
100
AcDbEntity
  8
CHURCH_OUTLINE
  6
CONTINUOUS
100
AcDbPolyline
 90
        7
 70
     0
 43
0.1000000014901161
 10
4.604612350463867
 20
-1.494335553137261
 10
4.531644821166992
 20
-1.304790875402886
 10
4.579042434692383
 20
-1.219768902746636
 10
4.53874397277832
 20
-1.115085980383355
 10
4.435518264770508
 20
-1.043529889074761
 10
4.326959609985352
 20
-1.085323712316948
 10
4.11768913269043
 20
-0.8454784364380421
  0
LWPOLYLINE
  5
246
102
{ACAD_REACTORS
330
2E5
102
}
102
{ACAD_XDICTIONARY
360
247
102
}
330
1F
100
AcDbEntity
  8
CHURCH_OUTLINE
  6
CONTINUOUS
100
AcDbPolyline
 90
        7
 70
     0
 43
0.1000000014901161
 10
4.905927658081055
 20
-1.071667096106011
 10
4.859655380249023
 20
-0.9514812440552296
 10
4.878423690795898
 20
-0.8730281800903859
 10
4.969106674194336
 20
-0.9004405946411671
 10
5.02134895324707
 20
-1.03613700577398
 10
4.98707389831543
 20
-1.120563885656792
 10
4.923528671264648
 20
-1.082699200598198
  0
LWPOLYLINE
  5
249
102
{ACAD_REACTORS
330
2E5
102
}
102
{ACAD_XDICTIONARY
360
24A
102
}
330
1F
100
AcDbEntity
  8
CHURCH_OUTLINE
  6
CONTINUOUS
100
AcDbPolyline
 90
        7
 70
     0
 43
0.1000000014901161
 10
5.51368522644043
 20
-1.144359967199761
 10
5.440717697143555
 20
-0.9548229188599171
 10
5.348539352416992
 20
-0.9235347718872609
 10
5.30824089050293
 20
-0.8188518495239796
 10
5.336835861206055
 20
-0.6965450257935109
 10
5.445394515991211
 20
-0.6547588319458546
 10
5.439813613891602
 20
-0.3364986390747609
  0
LWPOLYLINE
  5
24C
102
{ACAD_REACTORS
330
2E5
102
}
102
{ACAD_XDICTIONARY
360
24D
102
}
330
1F
100
AcDbEntity
  8
CHURCH_OUTLINE
  6
CONTINUOUS
100
AcDbPolyline
 90
        7
 70
     0
 43
0.1000000014901161
 10
10.62722206115723
 20
0.8242145567260204
 10
10.55425071716309
 20
1.013751605065864
 10
10.60165214538574
 20
1.098773577722114
 10
10.56135368347168
 20
1.203456500085395
 10
10.4581241607666
 20
1.275012591393989
 10
10.34956550598145
 20
1.233218768151802
 10
10.14029502868652
 20
1.473064044030708
  0
LWPOLYLINE
  5
24F
102
{ACAD_REACTORS
330
2E5
102
}
102
{ACAD_XDICTIONARY
360
250
102
}
330
1F
100
AcDbEntity
  8
CHURCH_OUTLINE
  6
CONTINUOUS
100
AcDbPolyline
 90
        7
 70
     0
 43
0.1000000014901161
 10
10.92853355407715
 20
1.246875384362739
 10
10.88226509094238
 20
1.367068865808052
 10
10.90102958679199
 20
1.445521929772895
 10
10.9917163848877
 20
1.418101885827583
 10
11.04395484924316
 20
1.28240547469477
 10
11.00967979431152
 20
1.197986224206489
 10
10.94613456726074
 20
1.235843279870552
  0
LWPOLYLINE
  5
252
102
{ACAD_REACTORS
330
2E5
102
}
102
{ACAD_XDICTIONARY
360
253
102
}
330
1F
100
AcDbEntity
  8
CHURCH_OUTLINE
  6
CONTINUOUS
100
AcDbPolyline
 90
        7
 70
     0
 43
0.1000000014901161
 10
11.53629112243652
 20
1.174182513268989
 10
11.46332359313965
 20
1.363719561608833
 10
11.37114906311035
 20
1.395007708581489
 10
11.33084678649902
 20
1.49969063094477
 10
11.35944557189941
 20
1.621997454675239
 10
11.46800422668457
 20
1.663791277917427
 10
11.4624195098877
 20
1.982043841393989
  0
LWPOLYLINE
  5
255
102
{ACAD_REACTORS
330
2E5
102
}
102
{ACAD_XDICTIONARY
360
256
102
}
330
1F
100
AcDbEntity
  8
CHURCH_OUTLINE
  6
CONTINUOUS
100
AcDbPolyline
 90
        7
 70
     0
 43
0.1000000014901161
 10
8.475164413452148
 20
6.414355853112739
 10
8.563383102416992
 20
6.185199358972114
 10
8.655557632446289
 20
6.153911211999458
 10
8.695859909057617
 20
6.049228289636177
 10
8.667261123657227
 20
5.926921465905708
 10
8.55870246887207
 20
5.88512764266352
 10
8.563283920288086
 20
5.624126055749458
  0
LWPOLYLINE
  5
258
102
{ACAD_REACTORS
330
2E5
102
}
102
{ACAD_XDICTIONARY
360
259
102
}
330
1F
100
AcDbEntity
  8
CHURCH_OUTLINE
  6
CONTINUOUS
100
AcDbPolyline
 90
        7
 70
     0
 43
0.1000000014901161
 10
8.997365951538086
 20
6.26324043563227
 10
9.043638229370117
 20
6.143046954186958
 10
9.110166549682617
 20
6.097430804284614
 10
9.159059524536133
 20
6.178577044518989
 10
9.106821060180664
 20
6.314273455651802
 10
9.024782180786133
 20
6.353923419030708
 10
9.003026962280273
 20
6.283221819909614
  0
LWPOLYLINE
  5
25B
102
{ACAD_REACTORS
330
2E5
102
}
102
{ACAD_XDICTIONARY
360
25C
102
}
330
1F
100
AcDbEntity
  8
CHURCH_OUTLINE
  6
CONTINUOUS
100
AcDbPolyline
 90
        7
 70
     0
 43
0.1000000014901161
 10
9.384237289428711
 20
6.764323809655708
 10
9.472455978393555
 20
6.535167315515083
 10
9.425054550170898
 20
6.450145342858833
 10
9.465356826782227
 20
6.345462420495552
 10
9.568582534790039
 20
6.273906329186958
 10
9.677141189575195
 20
6.315700152429145
 10
9.84876823425293
 20
6.118999102624458
  0
LWPOLYLINE
  5
25E
102
{ACAD_REACTORS
330
2E5
102
}
102
{ACAD_XDICTIONARY
360
25F
102
}
330
1F
100
AcDbEntity
  8
CHURCH_OUTLINE
  6
CONTINUOUS
100
AcDbPolyline
 90
        6
 70
     0
 43
0.1000000014901161
 10
11.20659446716309
 20
5.685824969323677
 10
11.7507266998291
 20
5.577640154870552
 10
11.80494499206543
 20
5.436793902429145
 10
12.0413646697998
 20
5.527812579186958
 10
12.01812553405762
 20
5.588176348718208
 10
12.12101936340332
 20
5.725970843347114
  0
LWPOLYLINE
  5
261
102
{ACAD_REACTORS
330
2E5
102
}
102
{ACAD_XDICTIONARY
360
262
102
}
330
1F
100
AcDbEntity
  8
CHURCH_OUTLINE
  6
CONTINUOUS
100
AcDbPolyline
 90
        6
 70
     0
 43
0.1000000014901161
 10
12.14094352722168
 20
3.258777239831489
 10
12.4720630645752
 20
3.703906634362739
 10
12.4178409576416
 20
3.844752886804145
 10
12.65425682067871
 20
3.935763934167427
 10
12.6774959564209
 20
3.875407794030708
 10
12.84623146057129
 20
3.842174151452583
  0
LWPOLYLINE
  5
264
102
{ACAD_REACTORS
330
2E5
102
}
102
{ACAD_XDICTIONARY
360
265
102
}
330
1F
100
AcDbEntity
  8
CHURCH_OUTLINE
  6
CONTINUOUS
100
AcDbPolyline
 90
        6
 70
     1
 43
0.1000000014901161
 10
11.95367622375488
 20
5.020450213464302
 10
12.01904487609863
 20
5.120700457604927
 10
12.12970924377441
 20
5.163302996667427
 10
12.2283992767334
 20
5.131984332116645
 10
12.19824028015137
 20
5.045291522058052
 10
12.06745719909668
 20
4.994945147546333
  0
LWPOLYLINE
  5
267
102
{ACAD_REACTORS
330
2E5
102
}
102
{ACAD_XDICTIONARY
360
268
102
}
330
1F
100
AcDbEntity
  8
CHURCH_OUTLINE
  6
CONTINUOUS
100
AcDbPolyline
 90
        6
 70
     1
 43
0.1000000014901161
 10
12.22187995910645
 20
4.323772051843208
 10
12.2872486114502
 20
4.424022295983833
 10
12.39791297912598
 20
4.466624835046333
 10
12.49660301208496
 20
4.435313799890083
 10
12.46644401550293
 20
4.348620989831489
 10
12.33566093444824
 20
4.298266985925239
  0
LWPOLYLINE
  5
26A
102
{ACAD_REACTORS
330
2E5
102
}
102
{ACAD_XDICTIONARY
360
26B
102
}
330
1F
100
AcDbEntity
  8
CHURCH_OUTLINE
  6
CONTINUOUS
100
AcDbPolyline
 90
        4
 70
     0
 43
0.1000000014901161
 10
7.320821762084961
 20
0.3866382627807079
 10
7.487360000610352
 20
-0.0459484071411671
 10
7.66844367980957
 20
0.0237613706908641
 10
7.638357162475586
 20
-0.2881587953247609
  0
LWPOLYLINE
  5
26D
102
{ACAD_REACTORS
330
2E5
102
}
102
{ACAD_XDICTIONARY
360
26E
102
}
330
1F
100
AcDbEntity
  8
CHURCH_OUTLINE
  6
CONTINUOUS
100
AcDbPolyline
 90
        4
 70
     0
 43
0.1000000014901161
 10
8.246370315551758
 20
0.7429538755736766
 10
8.412908554077148
 20
0.3103595762572704
 10
8.231821060180664
 20
0.2406497984252391
 10
8.46330451965332
 20
0.0294300108275829
  0
LWPOLYLINE
  5
270
102
{ACAD_REACTORS
330
2E5
102
}
102
{ACAD_XDICTIONARY
360
271
102
}
330
1F
100
AcDbEntity
  8
CHURCH_OUTLINE
  6
CONTINUOUS
100
AcDbPolyline
 90
        4
 70
     0
 43
0.1000000014901161
 10
0.7144870758056641
 20
2.616237261804145
 10
1.225229263305664
 20
2.417941668542427
 10
1.460443496704102
 20
2.647105792077583
 10
1.379100799560547
 20
2.858401873620552
  0
LWPOLYLINE
  5
273
102
{ACAD_REACTORS
330
2E5
102
}
102
{ACAD_XDICTIONARY
360
274
102
}
330
1F
100
AcDbEntity
  8
CHURCH_OUTLINE
  6
CONTINUOUS
100
AcDbPolyline
 90
        4
 70
     0
 43
0.1000000014901161
 10
2.317407608032227
 20
-1.547481915441948
 10
2.563335418701172
 20
-1.057896038977105
 10
2.891498565673828
 20
-1.070179364172417
 10
2.974433898925781
 20
-1.285602948156792
  0
LWPOLYLINE
  5
276
102
{ACAD_REACTORS
330
2E5
102
}
102
{ACAD_XDICTIONARY
360
277
102
}
330
1F
100
AcDbEntity
  8
CHURCH_OUTLINE
  6
CONTINUOUS
100
AcDbPolyline
 90
        4
 70
     1
 43
0.1000000014901161
 10
2.082393646240234
 20
-0.1768459291138234
 10
2.157524108886719
 20
0.0444828062377391
 10
2.361675262451172
 20
-0.0693248719849171
 10
2.274169921875
 20
-0.2272762269653859
  0
LWPOLYLINE
  5
279
102
{ACAD_REACTORS
330
2E5
102
}
102
{ACAD_XDICTIONARY
360
27A
102
}
330
1F
100
AcDbEntity
  8
CHURCH_OUTLINE
  6
CONTINUOUS
100
AcDbPolyline
 90
        4
 70
     1
 43
0.1000000014901161
 10
1.480302810668945
 20
1.387134173425239
 10
1.684453964233398
 20
1.273318865808052
 10
1.759584426879883
 20
1.494647601159614
 10
1.588754653930664
 20
1.553142169030708
  0
LWPOLYLINE
  5
27C
102
{ACAD_REACTORS
330
2E5
102
}
102
{ACAD_XDICTIONARY
360
27D
102
}
330
1F
100
AcDbEntity
  8
CHURCH_OUTLINE
  6
CONTINUOUS
100
AcDbPolyline
 90
       18
 70
     0
 43
0.1000000014901161
 10
-0.3700847625732422
 20
5.476161578210395
 10
-0.3056602478027344
 20
5.500964739831489
 10
-0.2731380462646484
 20
5.654384234460395
 10
-0.1596298217773438
 20
5.698077776940864
 10
-0.0720462799072266
 20
5.626124957116645
 10
-0.0404605865478516
 20
5.754520037683052
 10
0.1006584167480469
 20
5.808848956140083
 10
0.1993312835693359
 20
5.74468574813227
 10
0.2392120361328125
 20
5.760036089929145
 10
0.2448577880859375
 20
5.818568804772895
 10
0.1869888305664062
 20
5.968890765222114
 10
0.2318248748779297
 20
5.989673235925239
 10
0.2070236206054688
 20
6.054103472741645
 10
0.2690696716308594
 20
6.130824664147895
 10
0.2008590698242188
 20
6.143313982995552
 10
0.1545677185058594
 20
6.245250323327583
 10
0.1915988922119141
 20
6.322909930261177
 10
0.2909488677978516
 20
6.357638934167427
  0
LWPOLYLINE
  5
27F
102
{ACAD_REACTORS
330
2E5
102
}
102
{ACAD_XDICTIONARY
360
280
102
}
330
1F
100
AcDbEntity
  8
CHURCH_OUTLINE
  6
CONTINUOUS
100
AcDbPolyline
 90
       12
 70
     0
 43
0.1000000014901161
 10
0.3597888946533203
 20
3.58025703719477
 10
0.4242115020751953
 20
3.605060198815864
 10
0.5512161254882812
 20
3.51305733016352
 10
0.6647243499755859
 20
3.556750872643989
 10
0.6814460754394531
 20
3.668864825280708
 10
0.7909793853759766
 20
3.594791033776802
 10
0.932098388671875
 20
3.649119952233833
 10
0.9622726440429688
 20
3.762881854089302
 10
1.002153396606445
 20
3.778239825280708
 10
1.045591354370117
 20
3.738597491296333
 10
1.103462219238281
 20
3.588275530847114
 10
1.150659561157227
 20
3.602923968347114
  0
LWPOLYLINE
  5
282
102
{ACAD_REACTORS
330
2E5
102
}
102
{ACAD_XDICTIONARY
360
283
102
}
330
1F
100
AcDbEntity
  8
CHURCH_OUTLINE
  6
CONTINUOUS
100
AcDbPolyline
 90
        2
 70
     0
 43
0.1000000014901161
 10
0.227691650390625
 20
6.000407794030708
 10
4.891965866088867
 20
7.796031573327583
  0
LWPOLYLINE
  5
285
102
{ACAD_REACTORS
330
2E5
102
}
102
{ACAD_XDICTIONARY
360
286
102
}
330
1F
100
AcDbEntity
  8
CHURCH_OUTLINE
  6
CONTINUOUS
100
AcDbPolyline
 90
        6
 70
     0
 43
0.1000000014901161
 10
4.891965866088867
 20
7.796031573327583
 10
4.99506950378418
 20
7.835727313073677
 10
5.883195877075195
 20
5.528735735925239
 10
1.269227981567383
 20
3.752482989343208
 10
1.265483856201172
 20
3.652415850671333
 10
1.09650993347168
 20
3.615542986901802
  0
LWPOLYLINE
  5
288
102
{ACAD_REACTORS
330
2E5
102
}
102
{ACAD_XDICTIONARY
360
289
102
}
330
1F
100
AcDbEntity
  8
CHURCH_OUTLINE
  6
CONTINUOUS
100
AcDbPolyline
 90
        4
 70
     0
 43
0.1000000014901161
 10
1.520992279052734
 20
3.836085894616645
 10
1.58159065246582
 20
3.678676226647895
 10
1.697282791137695
 20
3.671580889733833
 10
1.741647720336914
 20
3.55633125594477
  0
LWPOLYLINE
  5
28B
102
{ACAD_REACTORS
330
2E5
102
}
102
{ACAD_XDICTIONARY
360
28C
102
}
330
1F
100
AcDbEntity
  8
CHURCH_OUTLINE
  6
CONTINUOUS
100
AcDbPolyline
 90
        4
 70
     0
 43
0.1000000014901161
 10
1.816312789916992
 20
3.362384417565864
 10
1.855268478393555
 20
3.261195757897895
 10
1.812261581420898
 20
3.180087664636177
 10
1.854463577270508
 20
3.070468524011177
  0
LWPOLYLINE
  5
28E
102
{ACAD_REACTORS
330
2E5
102
}
102
{ACAD_XDICTIONARY
360
28F
102
}
330
1F
100
AcDbEntity
  8
CHURCH_OUTLINE
  6
CONTINUOUS
100
AcDbPolyline
 90
        4
 70
     0
 43
0.1000000014901161
 10
1.741647720336914
 20
3.55633125594477
 10
1.654512405395508
 20
3.522784808190864
 10
1.729177474975586
 20
3.328837969811958
 10
1.816312789916992
 20
3.362384417565864
  0
LWPOLYLINE
  5
291
102
{ACAD_REACTORS
330
2E5
102
}
102
{ACAD_XDICTIONARY
360
292
102
}
330
1F
100
AcDbEntity
  8
CHURCH_OUTLINE
  6
CONTINUOUS
100
AcDbPolyline
 90
        4
 70
     0
 43
0.1000000014901161
 10
3.489980697631836
 20
4.594089129479927
 10
3.550577163696289
 20
4.436687090905708
 10
3.469511032104492
 20
4.353839495690864
 10
3.513875961303711
 20
4.238597491296333
  0
LWPOLYLINE
  5
294
102
{ACAD_REACTORS
330
2E5
102
}
102
{ACAD_XDICTIONARY
360
295
102
}
330
1F
100
AcDbEntity
  8
CHURCH_OUTLINE
  6
CONTINUOUS
100
AcDbPolyline
 90
        4
 70
     0
 43
0.1000000014901161
 10
3.588541030883789
 20
4.044650652917427
 10
3.627496719360352
 20
3.943454363854927
 10
3.713788986206055
 20
3.912128069909614
 10
3.755990982055664
 20
3.802508929284614
  0
LWPOLYLINE
  5
297
102
{ACAD_REACTORS
330
2E5
102
}
102
{ACAD_XDICTIONARY
360
298
102
}
330
1F
100
AcDbEntity
  8
CHURCH_OUTLINE
  6
CONTINUOUS
100
AcDbPolyline
 90
        4
 70
     0
 43
0.1000000014901161
 10
3.513875961303711
 20
4.238597491296333
 10
3.601011276245117
 20
4.272136309655708
 10
3.675676345825195
 20
4.078189471276802
 10
3.588541030883789
 20
4.044650652917427
  0
LWPOLYLINE
  5
29A
102
{ACAD_REACTORS
330
2E5
102
}
102
{ACAD_XDICTIONARY
360
29B
102
}
330
1F
100
AcDbEntity
  8
CHURCH_OUTLINE
  6
CONTINUOUS
 62
     7
100
AcDbPolyline
 90
        2
 70
     0
 43
0.1000000014901161
 10
4.26063346862793
 20
3.965289691003364
 42
0.9520202312754527
 10
4.784265518188477
 20
4.150760272058052
  0
LWPOLYLINE
  5
29D
102
{ACAD_REACTORS
330
2E5
102
}
102
{ACAD_XDICTIONARY
360
29E
102
}
330
1F
100
AcDbEntity
  8
CHURCH_OUTLINE
  6
CONTINUOUS
 62
     7
100
AcDbPolyline
 90
        2
 70
     0
 43
0.1000000014901161
 10
6.441183090209961
 20
0.0388446836791454
 42
0.9421185211636505
 10
5.920190811157227
 20
-0.1530040712036671
  0
LWPOLYLINE
  5
2A0
102
{ACAD_REACTORS
330
2E5
102
}
102
{ACAD_XDICTIONARY
360
2A1
102
}
330
1F
100
AcDbEntity
  8
CHURCH_OUTLINE
  6
CONTINUOUS
100
AcDbPolyline
 90
        2
 70
     0
 43
0.1000000014901161
 10
0.1721134185791016
 20
6.773425677331489
 10
0.3345355987548828
 20
6.351520159753364
  0
LWPOLYLINE
  5
2A3
102
{ACAD_REACTORS
330
2E5
102
}
102
{ACAD_XDICTIONARY
360
2A4
102
}
330
1F
100
AcDbEntity
  8
CHURCH_OUTLINE
  6
CONTINUOUS
100
AcDbPolyline
 90
        4
 70
     0
 43
0.1000000014901161
 10
1.929389953613281
 20
7.43871650985102
 10
2.079572677612305
 20
7.048602679284614
 10
2.312271118164062
 20
7.138187029870552
 10
2.424680709838867
 20
6.846194842370552
  0
LWPOLYLINE
  5
2A6
102
{ACAD_REACTORS
330
2E5
102
}
102
{ACAD_XDICTIONARY
360
2A7
102
}
330
1F
100
AcDbEntity
  8
CHURCH_OUTLINE
  6
CONTINUOUS
100
AcDbPolyline
 90
        4
 70
     0
 43
0.1000000014901161
 10
2.624061584472656
 20
7.706142046960395
 10
2.77424430847168
 20
7.31603584578852
 10
2.541545867919922
 20
7.226451495202583
 10
2.653955459594727
 20
6.934459307702583
  0
LWPOLYLINE
  5
2A9
102
{ACAD_REACTORS
330
2E5
102
}
102
{ACAD_XDICTIONARY
360
2AA
102
}
330
1F
100
AcDbEntity
  8
CHURCH_OUTLINE
  6
CONTINUOUS
100
AcDbPolyline
 90
        4
 70
     0
 43
0.1000000014901161
 10
4.396673202514648
 20
8.38855324080805
 10
4.546857833862305
 20
7.998439410241645
 10
4.77955436706543
 20
8.088023760827582
 10
4.891965866088867
 20
7.796031573327583
  0
LWPOLYLINE
  5
2AC
102
{ACAD_REACTORS
330
2E5
102
}
102
{ACAD_XDICTIONARY
360
2AD
102
}
330
1F
100
AcDbEntity
  8
CHURCH_OUTLINE
  6
CONTINUOUS
100
AcDbPolyline
 90
        4
 70
     1
 43
0.1000000014901161
 10
4.104001998901367
 20
8.13836250594477
 10
4.086938858032227
 20
7.978557208093208
 10
4.193857192993164
 20
7.874332049401802
 10
4.217763900756836
 20
8.036777117761176
  0
LWPOLYLINE
  5
2AF
102
{ACAD_REACTORS
330
2E5
102
}
102
{ACAD_XDICTIONARY
360
2B0
102
}
330
1F
100
AcDbEntity
  8
CHURCH_OUTLINE
  6
CONTINUOUS
100
AcDbPolyline
 90
        4
 70
     1
 43
0.1000000014901161
 10
3.630048751831055
 20
7.955905535729927
 10
3.612985610961914
 20
7.796092608483833
 10
3.719903945922852
 20
7.691875079186958
 10
3.743810653686523
 20
7.854320147546333
  0
LWPOLYLINE
  5
2B2
102
{ACAD_REACTORS
330
2E5
102
}
102
{ACAD_XDICTIONARY
360
2B3
102
}
330
1F
100
AcDbEntity
  8
CHURCH_OUTLINE
  6
CONTINUOUS
100
AcDbPolyline
 90
        4
 70
     1
 43
0.1000000014901161
 10
3.137277603149414
 20
7.766200640710395
 10
3.120214462280273
 20
7.606387713464302
 10
3.227132797241211
 20
7.502170184167427
 10
3.251039505004883
 20
7.664615252526802
  0
LWPOLYLINE
  5
2B5
102
{ACAD_REACTORS
330
2E5
102
}
102
{ACAD_XDICTIONARY
360
2B6
102
}
330
1F
100
AcDbEntity
  8
CHURCH_OUTLINE
  6
CONTINUOUS
100
AcDbPolyline
 90
        4
 70
     1
 43
0.1000000014901161
 10
1.566566467285156
 20
7.161517718347114
 10
1.549505233764648
 20
7.001712420495552
 10
1.656423568725586
 20
6.897487261804145
 10
1.680328369140625
 20
7.05993233016352
  0
LWPOLYLINE
  5
2B8
102
{ACAD_REACTORS
330
2E5
102
}
102
{ACAD_XDICTIONARY
360
2B9
102
}
330
1F
100
AcDbEntity
  8
CHURCH_OUTLINE
  6
CONTINUOUS
100
AcDbPolyline
 90
        4
 70
     1
 43
0.1000000014901161
 10
1.094326019287109
 20
6.979716876061958
 10
1.077264785766602
 20
6.819911578210395
 10
1.184183120727539
 20
6.715686419518989
 10
1.208089828491211
 20
6.878131487878364
  0
LWPOLYLINE
  5
2BB
102
{ACAD_REACTORS
330
2E5
102
}
102
{ACAD_XDICTIONARY
360
2BC
102
}
330
1F
100
AcDbEntity
  8
CHURCH_OUTLINE
  6
CONTINUOUS
100
AcDbPolyline
 90
        4
 70
     1
 43
0.1000000014901161
 10
0.6376228332519531
 20
6.788180926354927
 10
0.6205596923828125
 20
6.628375628503364
 10
0.72747802734375
 20
6.524158099206489
 10
0.7513847351074219
 20
6.686595538171333
  0
LWPOLYLINE
  5
2BE
102
{ACAD_REACTORS
330
2E5
102
}
102
{ACAD_XDICTIONARY
360
2BF
102
}
330
1F
100
AcDbEntity
  8
CHURCH_OUTLINE
  6
CONTINUOUS
100
AcDbPolyline
 90
        4
 70
     0
 43
0.1000000014901161
 10
5.827131271362305
 20
7.679240801843208
 10
5.437017440795898
 20
7.529056170495552
 10
5.347436904907227
 20
7.761752703698677
 10
5.055440902709961
 20
7.649341204675239
  0
LWPOLYLINE
  5
2C1
102
{ACAD_REACTORS
330
2E5
102
}
102
{ACAD_XDICTIONARY
360
2C2
102
}
330
1F
100
AcDbEntity
  8
CHURCH_OUTLINE
  6
CONTINUOUS
100
AcDbPolyline
 90
        4
 70
     0
 43
0.1000000014901161
 10
6.468732833862305
 20
6.012622454675239
 10
6.078622817993164
 20
5.862437823327583
 10
6.168203353881836
 20
5.629741290124458
 10
5.876211166381836
 20
5.51732979110102
  0
LWPOLYLINE
  5
2C4
102
{ACAD_REACTORS
330
2E5
102
}
102
{ACAD_XDICTIONARY
360
2C5
102
}
330
1F
100
AcDbEntity
  8
CHURCH_OUTLINE
  6
CONTINUOUS
100
AcDbPolyline
 90
        4
 70
     1
 43
0.1000000014901161
 10
6.023427963256836
 20
6.788074114831489
 10
5.863618850708008
 20
6.805133441003364
 10
5.759401321411133
 20
6.698215106042427
 10
5.921842575073242
 20
6.67431221297602
  0
LWPOLYLINE
  5
2C7
102
{ACAD_REACTORS
330
2E5
102
}
102
{ACAD_XDICTIONARY
360
2C8
102
}
330
1F
100
AcDbEntity
  8
CHURCH_OUTLINE
  6
CONTINUOUS
100
AcDbPolyline
 90
        4
 70
     1
 43
0.1000000014901161
 10
5.83909797668457
 20
7.266879656823677
 10
5.679292678833008
 20
7.283938982995552
 10
5.575071334838867
 20
7.177020648034614
 10
5.737516403198242
 20
7.153117754968208
  0
LWPOLYLINE
  5
2CA
102
{ACAD_REACTORS
330
2E5
102
}
102
{ACAD_XDICTIONARY
360
2CB
102
}
330
1F
100
AcDbEntity
  8
CHURCH_OUTLINE
  6
CONTINUOUS
100
AcDbPolyline
 90
        4
 70
     1
 43
0.1000000014901161
 10
6.207735061645508
 20
6.309314349206489
 10
6.047929763793945
 20
6.326381304772895
 10
5.943708419799805
 20
6.219462969811958
 10
6.106149673461914
 20
6.19555244735102
  0
LWPOLYLINE
  5
2CD
102
{ACAD_REACTORS
330
2E5
102
}
102
{ACAD_XDICTIONARY
360
2CE
102
}
330
1F
100
AcDbEntity
  8
CHURCH_OUTLINE
  6
CONTINUOUS
100
AcDbPolyline
 90
        6
 70
     0
 43
0.1000000014901161
 10
-3.796468734741211
 20
-7.947491070715386
 10
-3.635414123535156
 20
-8.36584129044195
 10
-3.520330429077148
 20
-8.32153739639898
 10
-3.452817916870117
 20
-8.496906659094293
 10
-3.600784301757812
 20
-8.553867718664605
 10
-3.496864318847656
 20
-8.823803326574762
  0
LWPOLYLINE
  5
2D0
102
{ACAD_REACTORS
330
2E5
102
}
102
{ACAD_XDICTIONARY
360
2D1
102
}
330
1F
100
AcDbEntity
  8
CHURCH_OUTLINE
  6
CONTINUOUS
100
AcDbPolyline
 90
        6
 70
     0
 43
0.1000000014901161
 10
-2.368869781494141
 20
-7.397907635656792
 10
-2.2120361328125
 20
-7.805294415441948
 10
-2.327119827270508
 20
-7.849598309484917
 10
-2.259609222412109
 20
-8.02496757218023
 10
-2.111642837524414
 20
-7.967998883215386
 10
-2.003503799438477
 20
-8.24890556046148
  0
LWPOLYLINE
  5
2D3
102
{ACAD_REACTORS
330
2E5
102
}
102
{ACAD_XDICTIONARY
360
2D4
102
}
330
1F
100
AcDbEntity
  8
CHURCH_OUTLINE
  6
CONTINUOUS
100
AcDbPolyline
 90
        2
 70
     0
 43
0.1000000014901161
 10
-3.507234573364258
 20
-8.404590985266168
 10
-2.296104431152344
 20
-7.938335797277886
  0
LWPOLYLINE
  5
2D6
102
{ACAD_REACTORS
330
2E5
102
}
102
{ACAD_XDICTIONARY
360
2D7
102
}
330
1F
100
AcDbEntity
  8
CHURCH_OUTLINE
  6
CONTINUOUS
100
AcDbPolyline
 90
        6
 70
     1
 43
0.1000000014901161
 10
3.480485916137695
 20
-3.562206646887261
 10
3.545854568481445
 20
-3.461956402746636
 10
3.656515121459961
 20
-3.419353863684136
 10
3.755205154418945
 20
-3.450672528234917
 10
3.72504997253418
 20
-3.537365338293511
 10
3.594263076782227
 20
-3.58771171280523
  0
LWPOLYLINE
  5
2D9
102
{ACAD_REACTORS
330
2E5
102
}
102
{ACAD_XDICTIONARY
360
2DA
102
}
330
1F
100
AcDbEntity
  8
CHURCH_OUTLINE
  6
CONTINUOUS
100
AcDbPolyline
 90
        4
 70
     0
 43
0.1000000014901161
 10
2.792285919189453
 20
-2.781017682043511
 10
3.36949348449707
 20
-3.037342450109917
 10
3.535867691040039
 20
-2.973286053625542
 10
3.642351150512695
 20
-2.767078778234917
  0
LWPOLYLINE
  5
2DC
102
{ACAD_REACTORS
330
2E5
102
}
102
{ACAD_XDICTIONARY
360
2DD
102
}
330
1F
100
AcDbEntity
  8
CHURCH_OUTLINE
  6
CONTINUOUS
100
AcDbPolyline
 90
        4
 70
     0
 43
0.1000000014901161
 10
3.483621597290039
 20
-4.576816937414605
 10
3.73994255065918
 20
-3.999607464758355
 10
3.906316757202148
 20
-3.935558697668511
 10
4.123586654663086
 20
-4.017132183996636
  0
LWPOLYLINE
  5
2DF
102
{ACAD_REACTORS
330
2E5
102
}
102
{ACAD_XDICTIONARY
360
2E0
102
}
330
1F
100
AcDbEntity
  8
CHURCH_OUTLINE
  6
CONTINUOUS
100
AcDbPolyline
 90
        5
 70
     0
 43
0.1000000014901161
 10
-1.932100296020508
 20
9.537013628991645
 10
-1.570808410644531
 20
9.481792071374457
 10
-1.301103591918945
 20
9.585620501550238
 10
-1.335714340209961
 20
9.675525286706488
 10
-1.177064895629883
 20
9.736598589929145
  0
LWPOLYLINE
  5
2E2
102
{ACAD_REACTORS
330
2E5
102
}
102
{ACAD_XDICTIONARY
360
2E3
102
}
330
1F
100
AcDbEntity
  8
CHURCH_OUTLINE
  6
CONTINUOUS
100
AcDbPolyline
 90
        5
 70
     0
 43
0.1000000014901161
 10
-1.278591156005859
 20
7.839465716393989
 10
-1.04759407043457
 20
8.122699358972113
 10
-0.7778892517089844
 20
8.226527789147895
 10
-0.7432804107666016
 20
8.136630633386176
 10
-0.5846309661865234
 20
8.197703936608832
  0
LWPOLYLINE
  5
2E6
102
{ACAD_XDICTIONARY
360
2E7
102
}
330
1F
100
AcDbEntity
  8
GRAVE
  6
CONTINUOUS
100
AcDbPolyline
 90
        4
 70
     1
 43
0.0500000007450581
 38
0.025000000372529
 10
8.679349899291992
 20
1.068949201615852
 10
8.556779861450195
 20
1.342772462876838
 10
9.378244400024414
 20
1.71046636393885
 10
9.50080680847168
 20
1.436647871049446
  0
LWPOLYLINE
  5
2E9
102
{ACAD_XDICTIONARY
360
2EA
102
}
330
1F
100
AcDbEntity
  8
GRAVE
  6
CONTINUOUS
100
AcDbPolyline
 90
        4
 70
     1
 43
0.0500000007450581
 38
0.025000000372529
 10
-2.186879314700423
 20
-7.191920776008652
 10
-2.290963426706615
 20
-6.910550752352925
 10
-1.446859667767893
 20
-6.598314243983585
 10
-1.342782851070967
 20
-6.879679002329142
  0
LWPOLYLINE
  5
2EC
102
{ACAD_XDICTIONARY
360
2ED
102
}
330
1F
100
AcDbEntity
  8
GRAVE
  6
CONTINUOUS
100
AcDbPolyline
 90
        4
 70
     1
 43
0.0500000007450581
 38
0.025000000372529
 10
-5.96174430847168
 20
8.634828188928168
 10
-6.084314346313477
 20
8.908650973351996
 10
-5.262849807739258
 20
9.276345828088324
 10
-5.140287399291992
 20
9.002526858361762
  0
LWPOLYLINE
  5
2EF
102
{ACAD_XDICTIONARY
360
2F0
102
}
330
1F
100
AcDbEntity
  8
GRAVE
  6
CONTINUOUS
100
AcDbPolyline
 90
        4
 70
     1
 43
0.0500000007450581
 10
-5.792583465576172
 20
0.1429663091025768
 10
-6.069316864013672
 20
0.0271243243537365
 10
-6.416847229003906
 20
0.8573195128760753
 10
-6.140117645263672
 20
0.9731620340667186
  0
LWPOLYLINE
  5
2F2
102
{ACAD_XDICTIONARY
360
2F3
102
}
330
1F
100
AcDbEntity
  8
GRAVE
  6
CONTINUOUS
100
AcDbPolyline
 90
        4
 70
     1
 43
0.0500000007450581
 10
-7.26982307434082
 20
4.50903187087397
 10
-7.54655647277832
 20
4.393190005334419
 10
-7.894086837768555
 20
5.223385432275337
 10
-7.61735725402832
 20
5.339227774652046
  0
LWPOLYLINE
  5
2F5
102
{ACAD_XDICTIONARY
360
2F6
102
}
330
1F
100
AcDbEntity
  8
GRAVE
  6
CONTINUOUS
100
AcDbPolyline
 90
        4
 70
     1
 43
0.0500000007450581
 10
-8.254650115966797
 20
6.971099474938911
 10
-8.531383514404297
 20
6.855257132562202
 10
-8.878913879394531
 20
7.68545255950312
 10
-8.602184295654297
 20
7.801294901879829
  0
LWPOLYLINE
  5
2F8
102
{ACAD_XDICTIONARY
360
2F9
102
}
330
1F
100
AcDbEntity
  8
GRAVE
  6
CONTINUOUS
100
AcDbPolyline
 90
        4
 70
     1
 43
0.0500000007450581
 10
-1.984584808349609
 20
9.564476588281195
 10
-2.261318206787109
 20
9.448634722741645
 10
-2.608848571777344
 20
10.27883014968256
 10
-2.332118988037109
 20
10.39467201522211
  0
LWPOLYLINE
  5
2FB
102
{ACAD_XDICTIONARY
360
2FC
102
}
330
1F
100
AcDbEntity
  8
GRAVE
  6
CONTINUOUS
100
AcDbPolyline
 90
        4
 70
     1
 43
0.0500000007450581
 10
-4.019893646240234
 20
-4.946694275824028
 10
-4.296627044677734
 20
-5.062536141363579
 10
-4.644157409667969
 20
-4.232341191259819
 10
-4.367427825927734
 20
-4.11649884888311
  0
LWPOLYLINE
  5
2FE
102
{ACAD_XDICTIONARY
360
2FF
102
}
330
1F
100
AcDbEntity
  8
GRAVE
  6
CONTINUOUS
100
AcDbPolyline
 90
        4
 70
     1
 43
0.0500000007450581
 10
-8.057683944702148
 20
-8.739439389196832
 10
-8.334417343139648
 20
-8.855281254736383
 10
-8.681947708129883
 20
-8.025085827795465
 10
-8.405218124389648
 20
-7.909243962255913
  0
LWPOLYLINE
  5
301
102
{ACAD_XDICTIONARY
360
302
102
}
330
1F
100
AcDbEntity
  8
GRAVE
  6
CONTINUOUS
100
AcDbPolyline
 90
        4
 70
     1
 43
0.0199999995529652
 10
-7.377912521362305
 20
5.71114311507563
 10
-7.214992523193359
 20
5.316706755670112
 10
-7.457723617553711
 20
5.216448405297798
 10
-7.620643615722656
 20
5.610884764703315
  0
LWPOLYLINE
  5
304
102
{ACAD_XDICTIONARY
360
305
102
}
330
1F
100
AcDbEntity
  8
GRAVE
  6
CONTINUOUS
100
AcDbPolyline
 90
        4
 70
     1
 43
0.0199999995529652
 10
-7.115293502807617
 20
5.251556971581977
 10
-6.952373504638672
 20
4.857121089013618
 10
-7.195102691650391
 20
4.756862261804145
 10
-7.358022689819336
 20
5.151298621209663
  0
LWPOLYLINE
  5
307
102
{ACAD_XDICTIONARY
360
308
102
}
330
1F
100
AcDbEntity
  8
GRAVE
  6
CONTINUOUS
100
AcDbPolyline
 90
        4
 70
     1
 43
0.0199999995529652
 10
-8.034463882446289
 20
6.367693999322456
 10
-7.871543884277344
 20
5.973258116754097
 10
-8.114274978637695
 20
5.872999766381782
 10
-8.27719497680664
 20
6.267435648950141
  0
LWPOLYLINE
  5
30A
102
{ACAD_XDICTIONARY
360
30B
102
}
330
1F
100
AcDbEntity
  8
GRAVE
  6
CONTINUOUS
100
AcDbPolyline
 90
        4
 70
     1
 43
0.0199999995529652
 10
-6.852670669555664
 20
4.759143450768989
 10
-6.689752578735352
 20
4.36470756820063
 10
-6.93248176574707
 20
4.264449217828315
 10
-7.095401763916016
 20
4.658885100396675
  0
TEXT
  5
30E
330
1F
100
AcDbEntity
  8
NUMBERS
  6
CONTINUOUS
100
AcDbText
 10
8.716479083475859
 20
1.577460690468146
 30
0.0
 40
0.3782609597496365
  1
1
  7
_TCW_TXTSTY_3A
 72
     1
 11
8.870809555053711
 21
1.766591170342964
 31
0.0
100
AcDbText
 73
     2
  0
TEXT
  5
310
330
1F
100
AcDbEntity
  8
NUMBERS
  6
CONTINUOUS
100
AcDbText
 10
-2.264340679997983
 20
-6.610964925609609
 30
0.0
 40
0.3782611100570015
  1
7
  7
_TCW_TXTSTY_3B
 72
     1
 11
-2.110010147094727
 21
-6.421834370581109
 31
0.0
100
AcDbText
 73
     2
  0
TEXT
  5
312
330
1F
100
AcDbEntity
  8
NUMBERS
  6
CONTINUOUS
100
AcDbText
 10
-8.202455588631008
 20
-8.328257410639411
 30
0.0
 40
0.3782605088275412
  1
11
  7
_TCW_TXTSTY_3C
 72
     1
 11
-7.893795013427734
 21
-8.13912715622564
 31
0.0
100
AcDbText
 73
     2
  0
TEXT
  5
314
330
1F
100
AcDbEntity
  8
NUMBERS
  6
CONTINUOUS
100
AcDbText
 10
-4.180649914036627
 20
-4.487432480075193
 30
0.0
 40
0.3782608094422714
  1
8
  7
_TCW_TXTSTY_3D
 72
     1
 11
-4.02631950378418
 21
-4.298302075354058
 31
0.0
100
AcDbText
 73
     2
  0
TEXT
  5
316
330
1F
100
AcDbEntity
  8
NUMBERS
  6
CONTINUOUS
100
AcDbText
 10
-5.920510479367298
 20
0.5351849416451455
 30
0.0
 40
0.3782608845959539
  1
9
  7
_TCW_TXTSTY_3E
 72
     1
 11
-5.766180038452148
 21
0.7243153839431224
 31
0.0
100
AcDbText
 73
     2
  0
TEXT
  5
317
330
1F
100
AcDbEntity
  8
NUMBERS
  6
CONTINUOUS
100
AcDbText
 10
-7.283715718062028
 20
5.504457950375246
 30
0.0
 40
0.3782608094422714
  1
31c
  7
_TCW_TXTSTY_3D
 72
     1
 11
-6.820724487304688
 21
5.693588355096382
 31
0.0
100
AcDbText
 73
     2
  0
TEXT
  5
318
330
1F
100
AcDbEntity
  8
NUMBERS
  6
CONTINUOUS
100
AcDbText
 10
-6.988110382194105
 20
5.061285495541262
 30
0.0
 40
0.3782608094422714
  1
31b
  7
_TCW_TXTSTY_3D
 72
     1
 11
-6.517175674438477
 21
5.250415900262397
 31
0.0
100
AcDbText
 73
     2
  0
TEXT
  5
319
330
1F
100
AcDbEntity
  8
NUMBERS
  6
CONTINUOUS
100
AcDbText
 10
-6.758474234207816
 20
4.61811336723707
 30
0.0
 40
0.3782611100570015
  1
31a
  7
_TCW_TXTSTY_3B
 72
     1
 11
-6.295482635498047
 21
4.807243922265571
 31
0.0
100
AcDbText
 73
     2
  0
TEXT
  5
31A
330
1F
100
AcDbEntity
  8
NUMBERS
  6
CONTINUOUS
100
AcDbText
 10
-7.972937423820081
 20
6.243077754757571
 30
0.0
 40
0.3782608094422714
  1
31d
  7
_TCW_TXTSTY_3D
 72
     1
 11
-7.502002716064453
 21
6.432208159478706
 31
0.0
100
AcDbText
 73
     2
  0
TEXT
  5
31B
330
1F
100
AcDbEntity
  8
NUMBERS
  6
CONTINUOUS
100
AcDbText
 10
-8.399422250498896
 20
7.37562879768751
 30
0.0
 40
0.3782611100570015
  1
13
  7
_TCW_TXTSTY_3B
 72
     1
 11
-8.090761184692383
 21
7.564759352716011
 31
0.0
100
AcDbText
 73
     2
  0
TEXT
  5
31C
330
1F
100
AcDbEntity
  8
NUMBERS
  6
CONTINUOUS
100
AcDbText
 10
-5.953768335093622
 20
9.2960413381233
 30
0.0
 40
0.3782611100570015
  1
14
  7
_TCW_TXTSTY_3B
 72
     1
 11
-5.645107269287109
 21
9.4851718931518
 31
0.0
100
AcDbText
 73
     2
  0
TEXT
  5
31D
330
1F
100
AcDbEntity
  8
NUMBERS
  6
CONTINUOUS
100
AcDbText
 10
-2.283257089366083
 20
10.11086448875807
 30
0.0
 40
0.3782611100570015
  1
15
  7
_TCW_TXTSTY_3B
 72
     1
 11
-1.97459602355957
 21
10.29999504378657
 31
0.0
100
AcDbText
 73
     2
  0
LWPOLYLINE
  5
31E
102
{ACAD_XDICTIONARY
360
31F
102
}
330
1F
100
AcDbEntity
  8
GRAVE
  6
CONTINUOUS
100
AcDbPolyline
 90
        4
 70
     1
 43
0.0500000007450581
 38
0.025000000372529
 10
2.567851898034776
 20
-5.361811635167459
 10
2.459337266938187
 20
-5.082120435051842
 10
3.298404805999798
 20
-4.756592467119368
 10
3.406912059545181
 20
-5.036278517791647
  0
TEXT
  5
321
330
1F
100
AcDbEntity
  8
NUMBERS
  6
CONTINUOUS
100
AcDbText
 10
2.598242603053218
 20
-4.739504814364744
 30
0.0
 40
0.3782608094422714
  1
4
  7
_TCW_TXTSTY_3D
 72
     1
 11
2.752573013305664
 21
-4.550374409643609
 31
0.0
100
AcDbText
 73
     2
  0
LWPOLYLINE
  5
322
102
{ACAD_XDICTIONARY
360
323
102
}
330
1F
100
AcDbEntity
  8
GRAVE
  6
CONTINUOUS
100
AcDbPolyline
 90
        4
 70
     1
 43
0.0500000007450581
 38
0.025000000372529
 10
1.579614046382269
 20
-5.735163394091289
 10
1.474280634275103
 20
-5.454258668467095
 10
2.316988569515082
 20
-5.138274287687405
 10
2.422314662987484
 20
-5.419173780471678
  0
TEXT
  5
325
330
1F
100
AcDbEntity
  8
NUMBERS
  6
CONTINUOUS
100
AcDbText
 10
1.695484835749087
 20
-5.133435876689932
 30
0.0
 40
0.3782611100570015
  1
5
  7
_TCW_TXTSTY_3B
 72
     1
 11
1.849815368652344
 21
-4.944305321661431
 31
0.0
100
AcDbText
 73
     2
  0
LWPOLYLINE
  5
326
102
{ACAD_XDICTIONARY
360
327
102
}
330
1F
100
AcDbEntity
  8
GRAVE
  6
CONTINUOUS
100
AcDbPolyline
 90
        4
 70
     1
 43
0.0500000007450581
 38
0.025000000372529
 10
-0.9238608727255556
 20
-6.713830073713067
 10
-1.032710130143902
 20
-6.434268932379697
 10
-0.194032748366951
 20
-6.107737092724032
 10
-0.0851908746568215
 20
-6.387293093446405
  0
TEXT
  5
329
330
1F
100
AcDbEntity
  8
NUMBERS
  6
CONTINUOUS
100
AcDbText
 10
-0.9799625055893608
 20
-6.138780117251707
 30
0.0
 40
0.3782608094422714
  1
6
  7
_TCW_TXTSTY_3D
 72
     1
 11
-0.8256320953369141
 21
-5.949649712530571
 31
0.0
100
AcDbText
 73
     2
  0
LWPOLYLINE
  5
32A
102
{ACAD_XDICTIONARY
360
32B
102
}
330
1F
100
AcDbEntity
  8
GRAVE
  6
CONTINUOUS
100
AcDbPolyline
 90
        4
 70
     1
 43
0.0500000007450581
 38
0.025000000372529
 10
-5.813151692010515
 20
-8.612166695782555
 10
-5.923045693377835
 20
-8.333015052567553
 10
-5.085595317321252
 20
-8.003349069099674
 10
-4.975708718835015
 20
-8.282495599352703
  0
TEXT
  5
32D
330
1F
100
AcDbEntity
  8
NUMBERS
  6
CONTINUOUS
100
AcDbText
 10
-5.806043692879054
 20
-8.065346567743903
 30
0.0
 40
0.3782605088275412
  1
10
  7
_TCW_TXTSTY_3C
 72
     1
 11
-5.497383117675781
 21
-7.876216313330132
 31
0.0
100
AcDbText
 73
     2
  0
TEXT
  5
32E
330
1F
100
AcDbEntity
  8
NUMBERS
  6
CONTINUOUS
100
AcDbText
 10
-8.405598000070324
 20
4.361937522671389
 30
0.0
 40
0.3782608094422714
  1
12
  7
_TCW_TXTSTY_3D
 72
     1
 11
-8.09693717956543
 21
4.551067927392524
 31
0.0
100
AcDbText
 73
     2
  0
LWPOLYLINE
  5
32F
102
{ACAD_XDICTIONARY
360
330
102
}
330
1F
100
AcDbEntity
  8
GRAVE
  6
CONTINUOUS
100
AcDbPolyline
 90
        4
 70
     1
 43
0.0199999995529652
 10
-5.520856857299805
 20
8.466157534631293
 10
-5.922163009643555
 20
8.320980647119086
 10
-6.011503219604492
 20
8.567937472375434
 10
-5.610197067260742
 20
8.713115313561957
  0
LWPOLYLINE
  5
332
102
{ACAD_XDICTIONARY
360
333
102
}
330
1F
100
AcDbEntity
  8
GRAVE
  6
CONTINUOUS
100
AcDbPolyline
 90
        4
 70
     1
 43
0.0199999995529652
 10
-4.897134780883789
 20
8.76160583785395
 10
-5.298439025878906
 20
8.616427996667426
 10
-5.387779235839844
 20
8.86338577559809
 10
-4.986473083496094
 20
9.008562663110297
  0
TEXT
  5
335
330
1F
100
AcDbEntity
  8
NUMBERS
  6
CONTINUOUS
100
AcDbText
 10
-5.04537815062896
 20
8.403831632024163
 30
0.0
 40
0.3782605088275412
  1
32b
  7
_TCW_TXTSTY_3C
 72
     1
 11
-4.574443817138672
 21
8.592961886437934
 31
0.0
100
AcDbText
 73
     2
  0
TEXT
  5
336
330
1F
100
AcDbEntity
  8
NUMBERS
  6
CONTINUOUS
100
AcDbText
 10
-6.229170901257059
 20
7.960659177190179
 30
0.0
 40
0.3782605088275412
  1
32a
  7
_TCW_TXTSTY_3C
 72
     1
 11
-5.766180038452148
 21
8.14978943160395
 31
0.0
100
AcDbText
 73
     2
  0
TEXT
  5
337
330
1F
100
AcDbEntity
  8
NUMBERS
  6
CONTINUOUS
100
AcDbText
 10
2.92483838039119
 20
3.809457700491247
 30
0.0
 40
0.3782611100570015
  1
28
  7
_TCW_TXTSTY_3B
 72
     1
 11
3.233499446197703
 21
3.998588255519748
 31
0.0
100
AcDbText
 73
     2
  0
LWPOLYLINE
  5
338
102
{ACAD_XDICTIONARY
360
339
102
}
330
1F
100
AcDbEntity
  8
GRAVE
  6
CONTINUOUS
100
AcDbPolyline
 90
        4
 70
     1
 43
0.0500000007450581
 38
0.025000000372529
 10
2.113531764187764
 20
3.407928979187121
 10
1.990961726345967
 20
3.681752240448108
 10
2.812426264920186
 20
4.049445903091541
 10
2.934990580716085
 20
3.775627648620715
  0
LWPOLYLINE
  5
33B
102
{ACAD_XDICTIONARY
360
33C
102
}
330
1F
100
AcDbEntity
  8
GRAVE
  6
CONTINUOUS
100
AcDbPolyline
 90
        4
 70
     1
 43
0.0500000007450581
 38
0.025000000372529
 10
4.668919289587342
 20
5.159532231578116
 10
4.560308747066687
 20
5.439186201043079
 10
5.399264599638171
 20
5.765001901170023
 10
5.507867762842094
 20
5.48535307861802
  0
LWPOLYLINE
  5
33E
102
{ACAD_XDICTIONARY
360
33F
102
}
330
1F
100
AcDbEntity
  8
GRAVE
  6
CONTINUOUS
100
AcDbPolyline
 90
        4
 70
     1
 43
0.0500000007450581
 38
0.025000000372529
 10
6.804033279418945
 20
4.514616110833686
 10
6.681463241577148
 20
4.788439372094673
 10
7.502927780151367
 20
5.156133273156684
 10
7.625490188598633
 20
4.88231478026728
  0
TEXT
  5
341
330
1F
100
AcDbEntity
  8
NUMBERS
  6
CONTINUOUS
100
AcDbText
 10
6.720110675272735
 20
4.088175698250128
 30
0.0
 40
0.3782609597496365
  1
2
  7
_TCW_TXTSTY_3A
 72
     1
 11
6.874441146850586
 21
4.277306178124946
 31
0.0
100
AcDbText
 73
     2
  0
LWPOLYLINE
  5
342
102
{ACAD_XDICTIONARY
360
343
102
}
330
1F
100
AcDbEntity
  8
GRAVE
  6
CONTINUOUS
100
AcDbPolyline
 90
        4
 70
     1
 43
0.0199999995529652
 10
7.401247024536133
 20
4.55349979689936
 10
7.788858413696289
 20
4.73205433181147
 10
7.898736953735352
 20
4.493525126489204
 10
7.511125564575195
 20
4.314970591577095
  0
TEXT
  5
345
330
1F
100
AcDbEntity
  8
NUMBERS
  6
CONTINUOUS
100
AcDbText
 10
7.692625842799311
 20
3.95686531045215
 30
0.0
 40
0.3782608094422714
  1
3
  7
_TCW_TXTSTY_3D
 72
     1
 11
7.846956253051758
 21
4.145995715173286
 31
0.0
100
AcDbText
 73
     2
  0
LWPOLYLINE
  5
346
102
{ACAD_REACTORS
330
358
102
}
102
{ACAD_XDICTIONARY
360
347
102
}
330
1F
100
AcDbEntity
  8
GRAVE
  6
CONTINUOUS
100
AcDbPolyline
 90
        4
 70
     1
 43
0.0199999995529652
 10
4.840569105927846
 20
7.415093559907766
 10
5.003491011445424
 20
7.020657200502249
 10
4.760758009736439
 20
6.920398850129934
 10
4.597839918916127
 20
7.314835209535452
  0
LWPOLYLINE
  5
349
102
{ACAD_REACTORS
330
358
102
}
102
{ACAD_XDICTIONARY
360
34A
102
}
330
1F
100
AcDbEntity
  8
GRAVE
  6
CONTINUOUS
100
AcDbPolyline
 90
        4
 70
     1
 43
0.0199999995529652
 10
0.5544373340927354
 20
5.90843185335146
 10
0.7173573322616807
 20
5.513995493945942
 10
0.4746262379013292
 20
5.413737143573628
 10
0.3117062397323839
 20
5.808173502979145
  0
LWPOLYLINE
  5
34C
102
{ACAD_REACTORS
330
358
102
}
102
{ACAD_XDICTIONARY
360
34D
102
}
330
1F
100
AcDbEntity
  8
GRAVE
  6
CONTINUOUS
100
AcDbPolyline
 90
        4
 70
     1
 43
0.0199999995529652
 10
1.40694873238609
 20
6.206898835782434
 10
1.569868730555035
 20
5.812462476376917
 10
1.327139543543316
 20
5.71220460284176
 10
1.164219545374371
 20
6.10664048541012
  0
LWPOLYLINE
  5
34F
102
{ACAD_REACTORS
330
358
102
}
102
{ACAD_XDICTIONARY
360
350
102
}
330
1F
100
AcDbEntity
  8
GRAVE
  6
CONTINUOUS
100
AcDbPolyline
 90
        4
 70
     1
 43
0.0199999995529652
 10
2.259460130679444
 20
6.502741437038299
 10
2.422380128848389
 20
6.10830555446994
 10
2.179649034488038
 20
6.008047204097625
 10
2.016730943667726
 20
6.402483086665985
  0
LWPOLYLINE
  5
352
102
{ACAD_REACTORS
330
358
102
}
102
{ACAD_XDICTIONARY
360
353
102
}
330
1F
100
AcDbEntity
  8
GRAVE
  6
CONTINUOUS
100
AcDbPolyline
 90
        4
 70
     1
 43
0.0199999995529652
 10
3.111971528972798
 20
6.798059259579015
 10
3.274891527141744
 20
6.403623377010655
 10
3.032160432781392
 20
6.303365026638341
 10
2.86924234196108
 20
6.6978009092067
  0
LWPOLYLINE
  5
355
102
{ACAD_REACTORS
330
358
102
}
102
{ACAD_XDICTIONARY
360
356
102
}
330
1F
100
AcDbEntity
  8
GRAVE
  6
CONTINUOUS
100
AcDbPolyline
 90
        4
 70
     1
 43
0.0199999995529652
 10
3.956861600779058
 20
7.119073073459051
 10
4.119783506296635
 20
6.724637190890691
 10
3.877054319284917
 20
6.624378840518377
 10
3.714132413767339
 20
7.018815199923894
  0
TEXT
  5
35C
330
1F
100
AcDbEntity
  8
NUMBERS
  6
CONTINUOUS
100
AcDbText
 10
4.190040281506345
 20
7.060525546365808
 30
0.0
 40
0.2521739731664243
  1
17
  7
_TCW_TXTSTY_3F
 72
     1
 11
4.395814243610148
 21
7.18661253294902
 31
0.0
100
AcDbText
 73
     2
  0
TEXT
  5
35E
330
1F
100
AcDbEntity
  8
NUMBERS
  6
CONTINUOUS
100
AcDbText
 10
4.287402659721378
 20
6.481544917437761
 30
0.0
 40
0.2521736725516942
  1
17a
  7
_TCW_TXTSTY_40
 72
     1
 11
4.596063234924652
 21
6.607631753713608
 31
0.0
100
AcDbText
 73
     2
  0
TEXT
  5
35F
330
1F
100
AcDbEntity
  8
NUMBERS
  6
CONTINUOUS
100
AcDbText
 10
4.552007452712871
 20
5.745847385996675
 30
0.0
 40
0.2521739731664243
  1
17b
  7
_TCW_TXTSTY_3F
 72
     1
 11
4.865964049305069
 21
5.871934372579887
 31
0.0
100
AcDbText
 73
     2
  0
TEXT
  5
360
330
1F
100
AcDbEntity
  8
NUMBERS
  6
CONTINUOUS
100
AcDbText
 10
3.177326729608369
 20
6.681793908752264
 30
0.0
 40
0.2521736725516942
  1
17c
  7
_TCW_TXTSTY_40
 72
     1
 11
3.485987304811642
 21
6.807880745028111
 31
0.0
100
AcDbText
 73
     2
  0
TEXT
  5
361
330
1F
100
AcDbEntity
  8
NUMBERS
  6
CONTINUOUS
100
AcDbText
 10
3.380986177417187
 20
6.094106501326247
 30
0.0
 40
0.2521739731664243
  1
17d
  7
_TCW_TXTSTY_3F
 72
     1
 11
3.694942774009386
 21
6.22019348790946
 31
0.0
100
AcDbText
 73
     2
  0
TEXT
  5
362
330
1F
100
AcDbEntity
  8
NUMBERS
  6
CONTINUOUS
100
AcDbText
 10
3.630063211584382
 20
5.545598394682172
 30
0.0
 40
0.2521739731664243
  1
17e
  7
_TCW_TXTSTY_3F
 72
     1
 11
3.938724154740085
 21
5.671685381265385
 31
0.0
100
AcDbText
 73
     2
  0
TEXT
  5
364
330
1F
100
AcDbEntity
  8
NUMBERS
  6
CONTINUOUS
100
AcDbText
 10
2.399288219154102
 20
6.329181404173708
 30
0.0
 40
0.2521739731664243
  1
17f
 41
0.969
  7
_TCW_TXTSTY_41
 72
     1
 11
2.65451866696229
 21
6.45526839075692
 31
0.0
100
AcDbText
 73
     2
  0
TEXT
  5
365
330
1F
100
AcDbEntity
  8
NUMBERS
  6
CONTINUOUS
100
AcDbText
 10
2.749118191830244
 20
5.806792731179351
 30
0.0
 40
0.2521739731664243
  1
18
  7
_TCW_TXTSTY_3F
 72
     1
 11
2.954892153934046
 21
5.932879717762563
 31
0.0
100
AcDbText
 73
     2
  0
TEXT
  5
366
330
1F
100
AcDbEntity
  8
NUMBERS
  6
CONTINUOUS
100
AcDbText
 10
2.979840101037705
 20
5.175573234951868
 30
0.0
 40
0.2521736725516942
  1
19
  7
_TCW_TXTSTY_40
 72
     1
 11
3.185613817839887
 21
5.301660071227714
 31
0.0
100
AcDbText
 73
     2
  0
TEXT
  5
367
330
1F
100
AcDbEntity
  8
NUMBERS
  6
CONTINUOUS
100
AcDbText
 10
1.665161695366952
 20
6.081046784501388
 30
0.0
 40
0.2521739731664243
  1
20
  7
_TCW_TXTSTY_3F
 72
     1
 11
1.870935657470755
 21
6.2071337710846
 31
0.0
100
AcDbText
 73
     2
  0
TEXT
  5
368
330
1F
100
AcDbEntity
  8
NUMBERS
  6
CONTINUOUS
100
AcDbText
 10
1.93941574868899
 20
5.462886854791399
 30
0.0
 40
0.2521739731664243
  1
21
  7
_TCW_TXTSTY_3F
 72
     1
 11
2.145189710792792
 21
5.588973841374611
 31
0.0
100
AcDbText
 73
     2
  0
TEXT
  5
369
330
1F
100
AcDbEntity
  8
NUMBERS
  6
CONTINUOUS
100
AcDbText
 10
2.109192067412156
 20
4.901319031322465
 30
0.0
 40
0.2521739731664243
  1
22
  7
_TCW_TXTSTY_3F
 72
     1
 11
2.314966029515958
 21
5.027406017905677
 31
0.0
100
AcDbText
 73
     2
  0
TEXT
  5
36A
330
1F
100
AcDbEntity
  8
NUMBERS
  6
CONTINUOUS
100
AcDbText
 10
0.8075736238678823
 20
5.763260341763154
 30
0.0
 40
0.2521739731664243
  1
23
  7
_TCW_TXTSTY_3F
 72
     1
 11
1.013347585971685
 21
5.889347328346367
 31
0.0
100
AcDbText
 73
     2
  0
TEXT
  5
36B
330
1F
100
AcDbEntity
  8
NUMBERS
  6
CONTINUOUS
100
AcDbText
 10
1.038295287773724
 20
5.192986040410981
 30
0.0
 40
0.2521739731664243
  1
24
  7
_TCW_TXTSTY_3F
 72
     1
 11
1.244069249877526
 21
5.319073026994193
 31
0.0
100
AcDbText
 73
     2
  0
TEXT
  5
36C
330
1F
100
AcDbEntity
  8
NUMBERS
  6
CONTINUOUS
100
AcDbText
 10
1.251603995913086
 20
4.596592305409089
 30
0.0
 40
0.2521739731664243
  1
25
  7
_TCW_TXTSTY_3F
 72
     1
 11
1.457377958016888
 21
4.722679291992302
 31
0.0
100
AcDbText
 73
     2
  0
TEXT
  5
36D
330
1F
100
AcDbEntity
  8
NUMBERS
  6
CONTINUOUS
100
AcDbText
 10
0.0022244196682481
 20
5.352602509087215
 30
0.0
 40
0.2521739731664243
  1
26
  7
_TCW_TXTSTY_3F
 72
     1
 11
0.2079983817720503
 21
5.478689495670428
 31
0.0
100
AcDbText
 73
     2
  0
TEXT
  5
36F
330
1F
100
AcDbEntity
  8
NUMBERS
  6
CONTINUOUS
100
AcDbText
 10
0.1375312577777311
 20
4.84569573894616
 30
0.0
 40
0.2212101674598196
  1
27
 41
1.138
  7
_TCW_TXTSTY_42
 72
     1
 11
0.3429487889622593
 21
4.95630082267607
 31
0.0
100
AcDbText
 73
     2
  0
TEXT
  5
370
330
1F
100
AcDbEntity
  8
NUMBERS
  6
CONTINUOUS
100
AcDbText
 10
4.936568965502634
 20
4.73412871453587
 30
0.0
 40
0.3782608094422714
  1
16
  7
_TCW_TXTSTY_3D
 72
     1
 11
5.245229786007527
 21
4.923259119257005
 31
0.0
100
AcDbText
 73
     2
  0
LWPOLYLINE
  5
371
102
{ACAD_XDICTIONARY
360
372
102
}
330
1F
100
AcDbEntity
  8
GRAVE
  6
CONTINUOUS
100
AcDbPolyline
 90
        4
 70
     1
 43
0.0500000007450581
 10
-7.508808717501931
 20
-0.5531824164662413
 10
-7.398889632189454
 20
-0.8323211302919904
 10
-8.236302747952172
 20
-1.162079323200614
 10
-8.346221671487697
 20
-0.8829441819925976
  0
TEXT
  5
374
330
1F
100
AcDbEntity
  8
NUMBERS
  6
CONTINUOUS
100
AcDbText
 10
-7.984102264043002
 20
-1.442006303121689
 30
0.0
 40
0.3782609597496365
  1
29
  7
_TCW_TXTSTY_3A
 72
     1
 11
-7.675441320887298
 21
-1.252875823246871
 31
0.0
100
AcDbText
 73
     2
  0
LWPOLYLINE
  5
375
102
{ACAD_XDICTIONARY
360
376
102
}
330
1F
100
AcDbEntity
  8
GRAVE
  6
CONTINUOUS
100
AcDbPolyline
 90
        4
 70
     1
 43
0.0500000007450581
 10
-5.793878555297852
 20
-4.555528065649468
 10
-5.691354751586914
 20
-4.837466618505913
 10
-6.537166595458984
 20
-5.145040890661675
 10
-6.639692306518555
 20
-4.863106152502495
  0
TEXT
  5
378
330
1F
100
AcDbEntity
  8
NUMBERS
  6
CONTINUOUS
100
AcDbText
 10
-7.22921808790124
 20
-4.908104570232412
 30
0.0
 40
0.3782611100570015
  1
30
  7
_TCW_TXTSTY_3B
 72
     1
 11
-6.920557022094727
 21
-4.718974015203911
 31
0.0
100
AcDbText
 73
     2
  0
LWPOLYLINE
  5
379
102
{ACAD_XDICTIONARY
360
37A
102
}
330
1F
100
AcDbEntity
  8
GRAVE
  6
CONTINUOUS
100
AcDbPolyline
 90
        4
 70
     1
 43
0.0500000007450581
 38
0.025000000372529
 10
-5.689254760742188
 20
-4.497564694372612
 10
-5.965988159179688
 20
-4.613406559912163
 10
-6.313518524169922
 20
-3.783211609808403
 10
-6.036788940429688
 20
-3.667369267431694
  0
TEXT
  5
37C
330
1F
100
AcDbEntity
  8
NUMBERS
  6
CONTINUOUS
100
AcDbText
 10
-7.240197298881625
 20
-4.012342154476485
 30
0.0
 40
0.3782611100570015
  1
30a
  7
_TCW_TXTSTY_3B
 72
     1
 11
-6.777205700171855
 21
-3.823211599447985
 31
0.0
100
AcDbText
 73
     2
  0
LWPOLYLINE
  5
37D
102
{ACAD_XDICTIONARY
360
37E
102
}
330
1F
100
AcDbEntity
  8
GRAVE
  6
CONTINUOUS
100
AcDbPolyline
 90
        4
 70
     1
 43
0.0199999995529652
 10
-2.686931610107422
 20
10.23512134841303
 10
-2.524011611938477
 20
9.840685465844672
 10
-2.766740798950195
 20
9.7404266386352
 10
-2.929660797119141
 20
10.13486347487787
  0
TEXT
  5
381
330
1F
100
AcDbEntity
  8
NUMBERS
  6
CONTINUOUS
100
AcDbText
 10
-3.677480673748514
 20
9.682441623097771
 30
0.0
 40
0.3152173913043478
  1
33a
  7
_TCW_TXTSTY_43
 72
     1
 11
-3.291654586791992
 21
9.840050318749945
 31
0.0
100
AcDbText
 73
     2
  0
LWPOLYLINE
  5
382
102
{ACAD_XDICTIONARY
360
383
102
}
330
1F
100
AcDbEntity
  8
GRAVE
  6
CONTINUOUS
100
AcDbPolyline
 90
        4
 70
     1
 43
0.0199999995529652
 10
-2.457138061523438
 20
9.742707827600043
 10
-2.294218063354492
 20
9.348270991357367
 10
-2.536949157714844
 20
9.248013117822211
 10
-2.699867248535156
 20
9.64244900039057
  0
LWPOLYLINE
  5
385
102
{ACAD_XDICTIONARY
360
386
102
}
330
1F
100
AcDbEntity
  8
GRAVE
  6
CONTINUOUS
100
AcDbPolyline
 90
        4
 70
     1
 43
0.0199999995529652
 10
-1.734931945800781
 20
8.46243248275141
 10
-1.572011947631836
 20
8.06799660018305
 10
-1.814741134643555
 20
7.967738249810737
 10
-1.9776611328125
 20
8.362174609216254
  0
LWPOLYLINE
  5
388
102
{ACAD_XDICTIONARY
360
389
102
}
330
1F
100
AcDbEntity
  8
GRAVE
  6
CONTINUOUS
100
AcDbPolyline
 90
        4
 70
     1
 43
0.0199999995529652
 10
-1.964723587036133
 20
8.922018626245062
 10
-1.801803588867188
 20
8.527581790002387
 10
-2.044534683227539
 20
8.42732391646723
 10
-2.207454681396484
 20
8.82175979903559
  0
LWPOLYLINE
  5
38B
102
{ACAD_XDICTIONARY
360
38C
102
}
330
1F
100
AcDbEntity
  8
GRAVE
  6
CONTINUOUS
100
AcDbPolyline
 90
        4
 70
     1
 43
0.0199999995529652
 10
-2.14527702331543
 20
9.381604769738715
 10
-1.982357025146484
 20
8.987168887170355
 10
-2.225088119506836
 20
8.886910059960883
 10
-2.388006210327148
 20
9.281345942529242
  0
TEXT
  5
38E
330
1F
100
AcDbEntity
  8
NUMBERS
  6
CONTINUOUS
100
AcDbText
 10
-2.86223134248153
 20
8.221614749318475
 30
0.0
 40
0.3152173913043478
  1
33d
  7
_TCW_TXTSTY_43
 72
     1
 11
-2.469785690307617
 21
8.379223444970648
 31
0.0
100
AcDbText
 73
     2
  0
TEXT
  5
38F
330
1F
100
AcDbEntity
  8
NUMBERS
  6
CONTINUOUS
100
AcDbText
 10
-2.779886221844217
 20
7.805114657765741
 30
0.0
 40
0.3152173913043478
  1
33e
  7
_TCW_TXTSTY_43
 72
     1
 11
-2.394060134887695
 21
7.962723353417915
 31
0.0
100
AcDbText
 73
     2
  0
LWPOLYLINE
  5
390
102
{ACAD_XDICTIONARY
360
391
102
}
330
1F
100
AcDbEntity
  8
GRAVE
  6
CONTINUOUS
100
AcDbPolyline
 90
        4
 70
     1
 43
0.0199999995529652
 10
-1.537965774536133
 20
7.970019438775581
 10
-1.37504768371582
 20
7.575583079370063
 10
-1.617776870727539
 20
7.475324728997749
 10
-1.780696868896484
 20
7.869761088403266
  0
LWPOLYLINE
  5
393
102
{ACAD_XDICTIONARY
360
394
102
}
330
1F
100
AcDbEntity
  8
GRAVE
  6
CONTINUOUS
100
AcDbPolyline
 90
        4
 70
     1
 43
0.0199999995529652
 10
-1.341001510620117
 20
7.510433295281929
 10
-1.178081512451172
 20
7.115997412713569
 10
-1.420810699462891
 20
7.015739062341255
 10
-1.583730697631836
 20
7.410174944909614
  0
LWPOLYLINE
  5
396
102
{ACAD_XDICTIONARY
360
397
102
}
330
1F
100
AcDbEntity
  8
GRAVE
  6
CONTINUOUS
100
AcDbPolyline
 90
        4
 70
     1
 43
0.0199999995529652
 10
-1.160449981689453
 20
6.985192397149604
 10
-0.9975299835205078
 20
6.590756037744087
 10
-1.240259170532227
 20
6.490498164208931
 10
-1.403179168701172
 20
6.88493404677729
  0
TEXT
  5
399
330
1F
100
AcDbEntity
  8
NUMBERS
  6
CONTINUOUS
100
AcDbText
 10
-4.341612291418988
 20
7.259356887227411
 30
0.0
 40
0.3152173913043478
  1
33i
  7
_TCW_TXTSTY_43
 72
     1
 11
-4.025764465332031
 21
7.416965582879585
 31
0.0
100
AcDbText
 73
     2
  0
LWPOLYLINE
  5
39A
102
{ACAD_XDICTIONARY
360
39B
102
}
330
1F
100
AcDbEntity
  8
GRAVE
  6
CONTINUOUS
100
AcDbPolyline
 90
        4
 70
     1
 43
0.0199999995529652
 10
-3.536342620849609
 20
7.877691844018501
 10
-3.373422622680664
 20
7.483255961450141
 10
-3.616151809692383
 20
7.382997611077827
 10
-3.779071807861328
 20
7.777433493646186
  0
LWPOLYLINE
  5
39D
102
{ACAD_XDICTIONARY
360
39E
102
}
330
1F
100
AcDbEntity
  8
GRAVE
  6
CONTINUOUS
100
AcDbPolyline
 90
        4
 70
     1
 43
0.0199999995529652
 10
-11.73563957214355
 20
1.164339521440071
 10
-11.3480281829834
 20
1.342893817933601
 10
-11.23814964294434
 20
1.104365089448494
 10
-11.62576103210449
 20
0.9258105545363842
  0
LWPOLYLINE
  5
3A0
102
{ACAD_XDICTIONARY
360
3A1
102
}
330
1F
100
AcDbEntity
  8
GRAVE
  6
CONTINUOUS
100
AcDbPolyline
 90
        4
 70
     1
 43
0.0199999995529652
 10
-10.85142517089844
 20
1.655570128472847
 10
-10.46381378173828
 20
1.834124424966377
 10
-10.35393524169922
 20
1.595595696481269
 10
-10.74154663085938
 20
1.41704116156916
  0
LWPOLYLINE
  5
3A3
102
{ACAD_XDICTIONARY
360
3A4
102
}
330
1F
100
AcDbEntity
  8
GRAVE
  6
CONTINUOUS
100
AcDbPolyline
 90
        4
 70
     1
 43
0.0199999995529652
 10
-9.967208862304688
 20
1.98305735877375
 10
-9.579597473144531
 20
2.16161165526728
 10
-9.469718933105469
 20
1.923082926782173
 10
-9.857330322265625
 20
1.744528391870063
  0
LWPOLYLINE
  5
3A6
102
{ACAD_XDICTIONARY
360
3A7
102
}
330
1F
100
AcDbEntity
  8
GRAVE
  6
CONTINUOUS
100
AcDbPolyline
 90
        4
 70
     1
 43
0.0199999995529652
 10
-9.34498405456543
 20
2.310544350656074
 10
-8.957372665405273
 20
2.489098647149604
 10
-8.847494125366211
 20
2.250569918664497
 10
-9.235105514526367
 20
2.072015383752388
  0
LWPOLYLINE
  5
3A9
102
{ACAD_XDICTIONARY
360
3AA
102
}
330
1F
100
AcDbEntity
  8
GRAVE
  6
CONTINUOUS
100
AcDbPolyline
 90
        4
 70
     1
 43
0.0199999995529652
 10
-10.39294242858887
 20
0.8368524103484569
 10
-10.00533103942871
 20
1.015406706841987
 10
-9.895452499389648
 20
0.7768779783568798
 10
-10.2830638885498
 20
0.5983234434447704
  0
TEXT
  5
3AD
330
1F
100
AcDbEntity
  8
NUMBERS
  6
CONTINUOUS
100
AcDbText
 10
-11.54340969149963
 20
0.5522371936527128
 30
0.0
 40
0.3782608470191127
  1
34
  7
_TCW_TXTSTY_44
 72
     1
 11
-11.23474884033203
 21
0.7413676171622692
 31
0.0
100
AcDbText
 73
     2
  0
TEXT
  5
3AE
330
1F
100
AcDbEntity
  8
NUMBERS
  6
CONTINUOUS
100
AcDbText
 10
-10.56094779284104
 20
1.1417140582757
 30
0.0
 40
0.3782608845959539
  1
35
  7
_TCW_TXTSTY_3E
 72
     1
 11
-10.25228691101074
 21
1.330844500573677
 31
0.0
100
AcDbText
 73
     2
  0
TEXT
  5
3AF
330
1F
100
AcDbEntity
  8
NUMBERS
  6
CONTINUOUS
100
AcDbText
 10
-10.1024668965547
 20
0.2247501013495197
 30
0.0
 40
0.3782608094422714
  1
36
  7
_TCW_TXTSTY_3D
 72
     1
 11
-9.793806076049805
 21
0.4138805060706554
 31
0.0
100
AcDbText
 73
     2
  0
TEXT
  5
3B0
330
1F
100
AcDbEntity
  8
NUMBERS
  6
CONTINUOUS
100
AcDbText
 10
-9.643984154245128
 20
1.436452388546633
 30
0.0
 40
0.3782608094422714
  1
37
  7
_TCW_TXTSTY_3D
 72
     1
 11
-9.335323333740234
 21
1.625582793267768
 31
0.0
100
AcDbText
 73
     2
  0
TEXT
  5
3B1
330
1F
100
AcDbEntity
  8
NUMBERS
  6
CONTINUOUS
100
AcDbText
 10
-9.021759407831276
 20
1.69844206368494
 30
0.0
 40
0.3782608845959539
  1
38
  7
_TCW_TXTSTY_3E
 72
     1
 11
-8.713098526000977
 21
1.887572505982917
 31
0.0
100
AcDbText
 73
     2
  0
TEXT
  5
3B2
330
1F
100
AcDbEntity
  8
NUMBERS
  6
CONTINUOUS
100
AcDbText
 10
-3.434683887647546
 20
9.238677890187615
 30
0.0
 40
0.3152173913043478
  1
33b
  7
_TCW_TXTSTY_43
 72
     1
 11
-3.042238235473633
 21
9.396286585839789
 31
0.0
100
AcDbText
 73
     2
  0
TEXT
  5
3B3
330
1F
100
AcDbEntity
  8
NUMBERS
  6
CONTINUOUS
100
AcDbText
 10
-3.133785223919412
 20
8.780913264638299
 30
0.0
 40
0.3152173913043478
  1
33c
  7
_TCW_TXTSTY_43
 72
     1
 11
-2.747959136962891
 21
8.938521960290473
 31
0.0
100
AcDbText
 73
     2
  0
TEXT
  5
3B5
330
1F
100
AcDbEntity
  8
NUMBERS
  6
CONTINUOUS
100
AcDbText
 10
-2.380351612846043
 20
7.456665427571649
 30
0.0
 40
0.3152173913043478
  1
33f
 41
0.969
  7
_TCW_TXTSTY_45
 72
     1
 11
-2.061313629150391
 21
7.614274123223823
 31
0.0
100
AcDbText
 73
     2
  0
TEXT
  5
3B6
330
1F
100
AcDbEntity
  8
NUMBERS
  6
CONTINUOUS
100
AcDbText
 10
-2.35566624848739
 20
7.031598479634638
 30
0.0
 40
0.3152173913043478
  1
33g
  7
_TCW_TXTSTY_43
 72
     1
 11
-1.963220596313477
 21
7.189207175286811
 31
0.0
100
AcDbText
 73
     2
  0
TEXT
  5
3B7
330
1F
100
AcDbEntity
  8
NUMBERS
  6
CONTINUOUS
100
AcDbText
 10
-2.220306793212891
 20
6.475741298085565
 30
0.0
 40
0.3152173913043478
  1
33h
  7
_TCW_TXTSTY_43
 72
     1
 11
-1.832431793212891
 21
6.633349993737739
 31
0.0
100
AcDbText
 73
     2
  0
LWPOLYLINE
  5
3B8
102
{ACAD_XDICTIONARY
360
3B9
102
}
330
1F
100
AcDbEntity
  8
GRAVE
  6
CONTINUOUS
100
AcDbPolyline
 90
        4
 70
     1
 43
0.0500000007450581
 38
0.0125000001862643
 10
2.349358064146151
 20
-3.018758678385058
 10
2.629668281485208
 20
-2.911853231192347
 10
2.950368732803378
 20
-3.752777730500983
 10
2.670063707221577
 20
-3.859675829858289
  0
TEXT
  5
3BB
330
1F
100
AcDbEntity
  8
NUMBERS
  6
CONTINUOUS
100
AcDbText
 10
1.719164606432412
 20
-3.606493550015406
 30
-0.0125000001862645
 40
0.3782608094422714
  1
4a
  7
_TCW_TXTSTY_3D
 72
     1
 11
2.027825426937305
 21
-3.41736314529427
 31
-0.0125000001862645
100
AcDbText
 73
     2
  0
LWPOLYLINE
  5
3BC
102
{ACAD_XDICTIONARY
360
3BD
102
}
330
1F
100
AcDbEntity
  8
GRAVE
  6
CONTINUOUS
100
AcDbPolyline
 90
        4
 70
     1
 43
0.0500000007450581
 10
-10.19675244304235
 20
-1.374777794259979
 10
-10.08683335772987
 20
-1.653916508085728
 10
-10.92424647349259
 20
-1.983674700994352
 10
-11.03416539702811
 20
-1.704539559786336
  0
TEXT
  5
3BF
330
1F
100
AcDbEntity
  8
NUMBERS
  6
CONTINUOUS
100
AcDbText
 10
-10.76404455001984
 20
-2.325559226190822
 30
0.0
 40
0.3782609597496365
  1
29a
  7
_TCW_TXTSTY_3A
 72
     1
 11
-10.30105313528628
 21
-2.136428746316004
 31
0.0
100
AcDbText
 73
     2
  0
LWPOLYLINE
  5
3C0
102
{ACAD_REACTORS
330
3D2
102
}
102
{ACAD_XDICTIONARY
360
3C1
102
}
330
1F
100
AcDbEntity
  8
GRAVE
  6
CONTINUOUS
100
AcDbPolyline
 90
        4
 70
     1
 43
0.0199999995529652
 10
5.068210811207073
 20
6.862452730700025
 10
5.231132716724651
 20
6.468016371294508
 10
4.988399715015666
 20
6.367758020922193
 10
4.825481624195354
 20
6.762194380327711
  0
LWPOLYLINE
  5
3C3
102
{ACAD_REACTORS
330
3D2
102
}
102
{ACAD_XDICTIONARY
360
3C4
102
}
330
1F
100
AcDbEntity
  8
GRAVE
  6
CONTINUOUS
100
AcDbPolyline
 90
        4
 70
     1
 43
0.0199999995529652
 10
0.7820790393719631
 20
5.355791024143719
 10
0.9449990375409083
 20
4.961354664738201
 10
0.7022679431805569
 20
4.861096314365887
 10
0.5393479450116115
 20
5.255532673771405
  0
LWPOLYLINE
  5
3C6
102
{ACAD_REACTORS
330
3D2
102
}
102
{ACAD_XDICTIONARY
360
3C7
102
}
330
1F
100
AcDbEntity
  8
GRAVE
  6
CONTINUOUS
100
AcDbPolyline
 90
        4
 70
     1
 43
0.0199999995529652
 10
1.634590437665318
 20
5.654258006574693
 10
1.797510435834263
 20
5.259821647169176
 10
1.554781248822544
 20
5.159563773634019
 10
1.391861250653599
 20
5.553999656202379
  0
LWPOLYLINE
  5
3C9
102
{ACAD_REACTORS
330
3D2
102
}
102
{ACAD_XDICTIONARY
360
3CA
102
}
330
1F
100
AcDbEntity
  8
GRAVE
  6
CONTINUOUS
100
AcDbPolyline
 90
        4
 70
     1
 43
0.0199999995529652
 10
2.487101835958672
 20
5.950100607830558
 10
2.650021834127617
 20
5.555664725262199
 10
2.407290739767265
 20
5.455406374889884
 10
2.244372648946953
 20
5.849842257458244
  0
LWPOLYLINE
  5
3CC
102
{ACAD_REACTORS
330
3D2
102
}
102
{ACAD_XDICTIONARY
360
3CD
102
}
330
1F
100
AcDbEntity
  8
GRAVE
  6
CONTINUOUS
100
AcDbPolyline
 90
        4
 70
     1
 43
0.0199999995529652
 10
3.339613234252026
 20
6.245418430371274
 10
3.502533232420971
 20
5.850982547802914
 10
3.25980213806062
 20
5.7507241974306
 10
3.096884047240307
 20
6.145160079998959
  0
LWPOLYLINE
  5
3CF
102
{ACAD_REACTORS
330
3D2
102
}
102
{ACAD_XDICTIONARY
360
3D0
102
}
330
1F
100
AcDbEntity
  8
GRAVE
  6
CONTINUOUS
100
AcDbPolyline
 90
        4
 70
     1
 43
0.0199999995529652
 10
4.184503306058286
 20
6.56643224425131
 10
4.347425211575863
 20
6.17199636168295
 10
4.104696024564145
 20
6.071738011310636
 10
3.941774119046567
 20
6.466174370716153
  0
LWPOLYLINE
  5
3D5
102
{ACAD_XDICTIONARY
360
3D6
102
}
330
1F
100
AcDbEntity
  8
GRAVE
  6
CONTINUOUS
100
AcDbPolyline
 90
        4
 70
     1
 43
0.0199999995529652
 10
5.285872758288055
 20
6.257352517814895
 10
5.448794663805633
 20
5.862916158409377
 10
5.206061662096649
 20
5.762657808037063
 10
5.043143571276336
 20
6.157094167442581
  0
LWPOLYLINE
  5
3D8
102
{ACAD_XDICTIONARY
360
3D9
102
}
330
1F
100
AcDbEntity
  8
GRAVE
  6
CONTINUOUS
100
AcDbPolyline
 90
        4
 70
     1
 43
0.0199999995529652
 10
1.8522523847463
 20
5.049157793689563
 10
2.015172382915245
 20
4.654721434284046
 10
1.772443195903526
 20
4.554463560748889
 10
1.609523197734581
 20
4.948899443317249
  0
LWPOLYLINE
  5
3DB
102
{ACAD_XDICTIONARY
360
3DC
102
}
330
1F
100
AcDbEntity
  8
GRAVE
  6
CONTINUOUS
100
AcDbPolyline
 90
        4
 70
     1
 43
0.0199999995529652
 10
2.704763783039654
 20
5.345000394945428
 10
2.867683781208599
 20
4.950564512377069
 10
2.624952686848248
 20
4.850306162004754
 10
2.462034596027936
 20
5.244742044573114
  0
LWPOLYLINE
  5
3DE
102
{ACAD_XDICTIONARY
360
3DF
102
}
330
1F
100
AcDbEntity
  8
GRAVE
  6
CONTINUOUS
100
AcDbPolyline
 90
        4
 70
     1
 43
0.0199999995529652
 10
3.557275181333008
 20
5.640318217486143
 10
3.720195179501954
 20
5.245882334917784
 10
3.477464085141602
 20
5.14562398454547
 10
3.31454599432129
 20
5.540059867113829
  0
LWPOLYLINE
  5
3E1
102
{ACAD_XDICTIONARY
360
3E2
102
}
330
1F
100
AcDbEntity
  8
GRAVE
  6
CONTINUOUS
100
AcDbPolyline
 90
        4
 70
     1
 43
0.0199999995529652
 10
4.402165253139268
 20
5.96133203136618
 10
4.565087158656845
 20
5.56689614879782
 10
4.322357971645127
 20
5.466637798425506
 10
4.159436066127549
 20
5.861074157831023
  0
POINT
  5
3E4
102
{ACAD_XDICTIONARY
360
3E5
102
}
330
1F
100
AcDbEntity
  8
0
  6
CONTINUOUS
 62
     7
100
AcDbPoint
 10
-14.51080955621736
 20
12.23930339782479
 30
0.0
  0
POINT
  5
3E7
102
{ACAD_XDICTIONARY
360
3E8
102
}
330
1F
100
AcDbEntity
  8
0
  6
CONTINUOUS
 62
     7
100
AcDbPoint
 10
14.51080955621736
 20
-12.25315913544696
 30
0.0
  0
TEXT
  5
3EB
102
{ACAD_XDICTIONARY
360
3EC
102
}
330
1F
100
AcDbEntity
  8
0
  6
CONTINUOUS
100
AcDbText
 10
14.49071683264374
 20
-12.28113283356108
 30
0.0
 40
0.0499999986394592
  1
X
  7
_TCW_TXTSTY_46
 11
14.49071683264374
 21
-12.23113283492162
 31
0.0
100
AcDbText
 73
     3
  0
TEXT
  5
3EE
102
{ACAD_XDICTIONARY
360
3EF
102
}
330
1F
100
AcDbEntity
  8
0
  6
CONTINUOUS
100
AcDbText
 10
-14.52993557255062
 20
12.2294086970375
 30
0.0
 40
0.0499999986394592
  1
X
  7
_TCW_TXTSTY_46
 11
-14.52993557255062
 21
12.27940869567696
 31
0.0
100
AcDbText
 73
     3
  0
VIEWPORT
  5
3F1
330
1B
100
AcDbEntity
 67
     1
  8
0
100
AcDbViewport
 10
-0.0019073500006925
 20
0.0
 30
0.0
 40
41567.0776367
 41
24465.593338
 68
     1
 69
     1
1001
ACAD
1000
MVIEW
1002
{
1070
    16
1010
0.0
1020
0.0
1030
0.0
1010
0.0
1020
0.0
1030
1.0
1040
0.0
1040
24465.593338
1040
-0.0019073500006925
1040
0.0
1040
50.0
1040
0.0
1040
0.0
1070
     0
1070
  1000
1070
     0
1070
     1
1070
     0
1070
     1
1070
     0
1070
     0
1040
0.0
1040
0.0
1040
0.0
1040
1.0
1040
1.0
1040
1.0
1040
1.0
1070
     0
1002
{
1002
}
1002
}
  0
ENDSEC
  0
SECTION
  2
OBJECTS
  0
DICTIONARY
  5
C
330
0
100
AcDbDictionary
  3
ACAD_GROUP
350
D
  3
ACAD_LAYOUT
350
1A
  3
ACAD_MATERIAL
350
43
  3
ACAD_MLEADERSTYLE
350
193
  3
ACAD_MLINESTYLE
350
17
  3
ACAD_PLOTSETTINGS
350
19
  3
ACAD_SCALELIST
350
47
  3
ACAD_VISUALSTYLE
350
2A
  3
ACDBHEADERROUNDTRIPXREC
350
3F2
  3
ACDBVARIABLEDICTIONARY
350
412
  0
DICTIONARY
  5
196
330
1F
100
AcDbDictionary
280
     1
  3
ACAD_GEOGRAPHICDATA
360
197
  0
DICTIONARY
  5
1A5
330
1A4
100
AcDbDictionary
280
     1
  3
TC_EXTENDED_DATA
360
1A6
  0
DICTIONARY
  5
1A8
330
1A7
100
AcDbDictionary
280
     1
  3
TC_EXTENDED_DATA
360
1A9
  0
DICTIONARY
  5
1AB
330
1AA
100
AcDbDictionary
280
     1
  3
TC_EXTENDED_DATA
360
1AC
  0
DICTIONARY
  5
1AE
330
1AD
100
AcDbDictionary
280
     1
  3
TC_EXTENDED_DATA
360
1AF
  0
DICTIONARY
  5
1B1
330
1B0
100
AcDbDictionary
280
     1
  3
TC_EXTENDED_DATA
360
1B2
  0
DICTIONARY
  5
1B4
330
1B3
100
AcDbDictionary
280
     1
  3
TC_EXTENDED_DATA
360
1B5
  0
DICTIONARY
  5
1B7
330
1B6
100
AcDbDictionary
280
     1
  3
TC_EXTENDED_DATA
360
1B8
  0
DICTIONARY
  5
1BA
330
1B9
100
AcDbDictionary
280
     1
  3
TC_EXTENDED_DATA
360
1BB
  0
DICTIONARY
  5
1BD
330
1BC
100
AcDbDictionary
280
     1
  3
TC_EXTENDED_DATA
360
1BE
  0
DICTIONARY
  5
1C0
330
1BF
100
AcDbDictionary
280
     1
  3
TC_EXTENDED_DATA
360
1C1
  0
DICTIONARY
  5
1C3
330
1C2
100
AcDbDictionary
280
     1
  3
TC_EXTENDED_DATA
360
1C4
  0
DICTIONARY
  5
1C6
330
1C5
100
AcDbDictionary
280
     1
  3
TC_EXTENDED_DATA
360
1C7
  0
DICTIONARY
  5
1C9
330
1C8
100
AcDbDictionary
280
     1
  3
TC_EXTENDED_DATA
360
1CA
  0
DICTIONARY
  5
1CC
330
1CB
100
AcDbDictionary
280
     1
  3
TC_EXTENDED_DATA
360
1CD
  0
DICTIONARY
  5
1CF
330
1CE
100
AcDbDictionary
280
     1
  3
TC_EXTENDED_DATA
360
1D0
  0
DICTIONARY
  5
1D2
330
1D1
100
AcDbDictionary
280
     1
  3
TC_EXTENDED_DATA
360
1D3
  0
DICTIONARY
  5
1D5
330
1D4
100
AcDbDictionary
280
     1
  3
TC_EXTENDED_DATA
360
1D6
  0
DICTIONARY
  5
1D8
330
1D7
100
AcDbDictionary
280
     1
  3
TC_EXTENDED_DATA
360
1D9
  0
DICTIONARY
  5
1DB
330
1DA
100
AcDbDictionary
280
     1
  3
TC_EXTENDED_DATA
360
1DC
  0
DICTIONARY
  5
1DE
330
1DD
100
AcDbDictionary
280
     1
  3
TC_EXTENDED_DATA
360
1DF
  0
DICTIONARY
  5
1E1
330
1E0
100
AcDbDictionary
280
     1
  3
TC_EXTENDED_DATA
360
1E2
  0
DICTIONARY
  5
1E4
330
1E3
100
AcDbDictionary
280
     1
  3
TC_EXTENDED_DATA
360
1E5
  0
DICTIONARY
  5
1E7
330
1E6
100
AcDbDictionary
280
     1
  3
TC_EXTENDED_DATA
360
1E8
  0
DICTIONARY
  5
1EA
330
1E9
100
AcDbDictionary
280
     1
  3
TC_EXTENDED_DATA
360
1EB
  0
DICTIONARY
  5
1ED
330
1EC
100
AcDbDictionary
280
     1
  3
TC_EXTENDED_DATA
360
1EE
  0
DICTIONARY
  5
1F0
330
1EF
100
AcDbDictionary
280
     1
  3
TC_EXTENDED_DATA
360
1F1
  0
DICTIONARY
  5
1F3
330
1F2
100
AcDbDictionary
280
     1
  3
TC_EXTENDED_DATA
360
1F4
  0
DICTIONARY
  5
1F6
330
1F5
100
AcDbDictionary
280
     1
  3
TC_EXTENDED_DATA
360
1F7
  0
DICTIONARY
  5
1F9
330
1F8
100
AcDbDictionary
280
     1
  3
TC_EXTENDED_DATA
360
1FA
  0
DICTIONARY
  5
1FC
330
1FB
100
AcDbDictionary
280
     1
  3
TC_EXTENDED_DATA
360
1FD
  0
DICTIONARY
  5
1FF
330
1FE
100
AcDbDictionary
280
     1
  3
TC_EXTENDED_DATA
360
200
  0
DICTIONARY
  5
202
330
201
100
AcDbDictionary
280
     1
  3
TC_EXTENDED_DATA
360
203
  0
DICTIONARY
  5
205
330
204
100
AcDbDictionary
280
     1
  3
TC_EXTENDED_DATA
360
206
  0
DICTIONARY
  5
208
330
207
100
AcDbDictionary
280
     1
  3
TC_EXTENDED_DATA
360
209
  0
DICTIONARY
  5
20B
330
20A
100
AcDbDictionary
280
     1
  3
TC_EXTENDED_DATA
360
20C
  0
DICTIONARY
  5
20E
330
20D
100
AcDbDictionary
280
     1
  3
TC_EXTENDED_DATA
360
20F
  0
DICTIONARY
  5
211
330
210
100
AcDbDictionary
280
     1
  3
TC_EXTENDED_DATA
360
212
  0
DICTIONARY
  5
214
330
213
100
AcDbDictionary
280
     1
  3
TC_EXTENDED_DATA
360
215
  0
DICTIONARY
  5
217
330
216
100
AcDbDictionary
280
     1
  3
TC_EXTENDED_DATA
360
218
  0
DICTIONARY
  5
21A
330
219
100
AcDbDictionary
280
     1
  3
TC_EXTENDED_DATA
360
21B
  0
DICTIONARY
  5
21D
330
21C
100
AcDbDictionary
280
     1
  3
TC_EXTENDED_DATA
360
21E
  0
DICTIONARY
  5
220
330
21F
100
AcDbDictionary
280
     1
  3
TC_EXTENDED_DATA
360
221
  0
DICTIONARY
  5
223
330
222
100
AcDbDictionary
280
     1
  3
TC_EXTENDED_DATA
360
224
  0
DICTIONARY
  5
226
330
225
100
AcDbDictionary
280
     1
  3
TC_EXTENDED_DATA
360
227
  0
DICTIONARY
  5
229
330
228
100
AcDbDictionary
280
     1
  3
TC_EXTENDED_DATA
360
22A
  0
DICTIONARY
  5
22C
330
22B
100
AcDbDictionary
280
     1
  3
TC_EXTENDED_DATA
360
22D
  0
DICTIONARY
  5
22F
330
22E
100
AcDbDictionary
280
     1
  3
TC_EXTENDED_DATA
360
230
  0
DICTIONARY
  5
232
330
231
100
AcDbDictionary
280
     1
  3
TC_EXTENDED_DATA
360
233
  0
DICTIONARY
  5
235
330
234
100
AcDbDictionary
280
     1
  3
TC_EXTENDED_DATA
360
236
  0
DICTIONARY
  5
238
330
237
100
AcDbDictionary
280
     1
  3
TC_EXTENDED_DATA
360
239
  0
DICTIONARY
  5
23B
330
23A
100
AcDbDictionary
280
     1
  3
TC_EXTENDED_DATA
360
23C
  0
DICTIONARY
  5
23E
330
23D
100
AcDbDictionary
280
     1
  3
TC_EXTENDED_DATA
360
23F
  0
DICTIONARY
  5
241
330
240
100
AcDbDictionary
280
     1
  3
TC_EXTENDED_DATA
360
242
  0
DICTIONARY
  5
244
330
243
100
AcDbDictionary
280
     1
  3
TC_EXTENDED_DATA
360
245
  0
DICTIONARY
  5
247
330
246
100
AcDbDictionary
280
     1
  3
TC_EXTENDED_DATA
360
248
  0
DICTIONARY
  5
24A
330
249
100
AcDbDictionary
280
     1
  3
TC_EXTENDED_DATA
360
24B
  0
DICTIONARY
  5
24D
330
24C
100
AcDbDictionary
280
     1
  3
TC_EXTENDED_DATA
360
24E
  0
DICTIONARY
  5
250
330
24F
100
AcDbDictionary
280
     1
  3
TC_EXTENDED_DATA
360
251
  0
DICTIONARY
  5
253
330
252
100
AcDbDictionary
280
     1
  3
TC_EXTENDED_DATA
360
254
  0
DICTIONARY
  5
256
330
255
100
AcDbDictionary
280
     1
  3
TC_EXTENDED_DATA
360
257
  0
DICTIONARY
  5
259
330
258
100
AcDbDictionary
280
     1
  3
TC_EXTENDED_DATA
360
25A
  0
DICTIONARY
  5
25C
330
25B
100
AcDbDictionary
280
     1
  3
TC_EXTENDED_DATA
360
25D
  0
DICTIONARY
  5
25F
330
25E
100
AcDbDictionary
280
     1
  3
TC_EXTENDED_DATA
360
260
  0
DICTIONARY
  5
262
330
261
100
AcDbDictionary
280
     1
  3
TC_EXTENDED_DATA
360
263
  0
DICTIONARY
  5
265
330
264
100
AcDbDictionary
280
     1
  3
TC_EXTENDED_DATA
360
266
  0
DICTIONARY
  5
268
330
267
100
AcDbDictionary
280
     1
  3
TC_EXTENDED_DATA
360
269
  0
DICTIONARY
  5
26B
330
26A
100
AcDbDictionary
280
     1
  3
TC_EXTENDED_DATA
360
26C
  0
DICTIONARY
  5
26E
330
26D
100
AcDbDictionary
280
     1
  3
TC_EXTENDED_DATA
360
26F
  0
DICTIONARY
  5
271
330
270
100
AcDbDictionary
280
     1
  3
TC_EXTENDED_DATA
360
272
  0
DICTIONARY
  5
274
330
273
100
AcDbDictionary
280
     1
  3
TC_EXTENDED_DATA
360
275
  0
DICTIONARY
  5
277
330
276
100
AcDbDictionary
280
     1
  3
TC_EXTENDED_DATA
360
278
  0
DICTIONARY
  5
27A
330
279
100
AcDbDictionary
280
     1
  3
TC_EXTENDED_DATA
360
27B
  0
DICTIONARY
  5
27D
330
27C
100
AcDbDictionary
280
     1
  3
TC_EXTENDED_DATA
360
27E
  0
DICTIONARY
  5
280
330
27F
100
AcDbDictionary
280
     1
  3
TC_EXTENDED_DATA
360
281
  0
DICTIONARY
  5
283
330
282
100
AcDbDictionary
280
     1
  3
TC_EXTENDED_DATA
360
284
  0
DICTIONARY
  5
286
330
285
100
AcDbDictionary
280
     1
  3
TC_EXTENDED_DATA
360
287
  0
DICTIONARY
  5
289
330
288
100
AcDbDictionary
280
     1
  3
TC_EXTENDED_DATA
360
28A
  0
DICTIONARY
  5
28C
330
28B
100
AcDbDictionary
280
     1
  3
TC_EXTENDED_DATA
360
28D
  0
DICTIONARY
  5
28F
330
28E
100
AcDbDictionary
280
     1
  3
TC_EXTENDED_DATA
360
290
  0
DICTIONARY
  5
292
330
291
100
AcDbDictionary
280
     1
  3
TC_EXTENDED_DATA
360
293
  0
DICTIONARY
  5
295
330
294
100
AcDbDictionary
280
     1
  3
TC_EXTENDED_DATA
360
296
  0
DICTIONARY
  5
298
330
297
100
AcDbDictionary
280
     1
  3
TC_EXTENDED_DATA
360
299
  0
DICTIONARY
  5
29B
330
29A
100
AcDbDictionary
280
     1
  3
TC_EXTENDED_DATA
360
29C
  0
DICTIONARY
  5
29E
330
29D
100
AcDbDictionary
280
     1
  3
TC_EXTENDED_DATA
360
29F
  0
DICTIONARY
  5
2A1
330
2A0
100
AcDbDictionary
280
     1
  3
TC_EXTENDED_DATA
360
2A2
  0
DICTIONARY
  5
2A4
330
2A3
100
AcDbDictionary
280
     1
  3
TC_EXTENDED_DATA
360
2A5
  0
DICTIONARY
  5
2A7
330
2A6
100
AcDbDictionary
280
     1
  3
TC_EXTENDED_DATA
360
2A8
  0
DICTIONARY
  5
2AA
330
2A9
100
AcDbDictionary
280
     1
  3
TC_EXTENDED_DATA
360
2AB
  0
DICTIONARY
  5
2AD
330
2AC
100
AcDbDictionary
280
     1
  3
TC_EXTENDED_DATA
360
2AE
  0
DICTIONARY
  5
2B0
330
2AF
100
AcDbDictionary
280
     1
  3
TC_EXTENDED_DATA
360
2B1
  0
DICTIONARY
  5
2B3
330
2B2
100
AcDbDictionary
280
     1
  3
TC_EXTENDED_DATA
360
2B4
  0
DICTIONARY
  5
2B6
330
2B5
100
AcDbDictionary
280
     1
  3
TC_EXTENDED_DATA
360
2B7
  0
DICTIONARY
  5
2B9
330
2B8
100
AcDbDictionary
280
     1
  3
TC_EXTENDED_DATA
360
2BA
  0
DICTIONARY
  5
2BC
330
2BB
100
AcDbDictionary
280
     1
  3
TC_EXTENDED_DATA
360
2BD
  0
DICTIONARY
  5
2BF
330
2BE
100
AcDbDictionary
280
     1
  3
TC_EXTENDED_DATA
360
2C0
  0
DICTIONARY
  5
2C2
330
2C1
100
AcDbDictionary
280
     1
  3
TC_EXTENDED_DATA
360
2C3
  0
DICTIONARY
  5
2C5
330
2C4
100
AcDbDictionary
280
     1
  3
TC_EXTENDED_DATA
360
2C6
  0
DICTIONARY
  5
2C8
330
2C7
100
AcDbDictionary
280
     1
  3
TC_EXTENDED_DATA
360
2C9
  0
DICTIONARY
  5
2CB
330
2CA
100
AcDbDictionary
280
     1
  3
TC_EXTENDED_DATA
360
2CC
  0
DICTIONARY
  5
2CE
330
2CD
100
AcDbDictionary
280
     1
  3
TC_EXTENDED_DATA
360
2CF
  0
DICTIONARY
  5
2D1
330
2D0
100
AcDbDictionary
280
     1
  3
TC_EXTENDED_DATA
360
2D2
  0
DICTIONARY
  5
2D4
330
2D3
100
AcDbDictionary
280
     1
  3
TC_EXTENDED_DATA
360
2D5
  0
DICTIONARY
  5
2D7
330
2D6
100
AcDbDictionary
280
     1
  3
TC_EXTENDED_DATA
360
2D8
  0
DICTIONARY
  5
2DA
330
2D9
100
AcDbDictionary
280
     1
  3
TC_EXTENDED_DATA
360
2DB
  0
DICTIONARY
  5
2DD
330
2DC
100
AcDbDictionary
280
     1
  3
TC_EXTENDED_DATA
360
2DE
  0
DICTIONARY
  5
2E0
330
2DF
100
AcDbDictionary
280
     1
  3
TC_EXTENDED_DATA
360
2E1
  0
DICTIONARY
  5
2E3
330
2E2
100
AcDbDictionary
280
     1
  3
TC_EXTENDED_DATA
360
2E4
  0
DICTIONARY
  5
2E7
330
2E6
100
AcDbDictionary
280
     1
  3
TC_EXTENDED_DATA
360
2E8
  0
DICTIONARY
  5
2EA
330
2E9
100
AcDbDictionary
280
     1
  3
TC_EXTENDED_DATA
360
2EB
  0
DICTIONARY
  5
2ED
330
2EC
100
AcDbDictionary
280
     1
  3
TC_EXTENDED_DATA
360
2EE
  0
DICTIONARY
  5
2F0
330
2EF
100
AcDbDictionary
280
     1
  3
TC_EXTENDED_DATA
360
2F1
  0
DICTIONARY
  5
2F3
330
2F2
100
AcDbDictionary
280
     1
  3
TC_EXTENDED_DATA
360
2F4
  0
DICTIONARY
  5
2F6
330
2F5
100
AcDbDictionary
280
     1
  3
TC_EXTENDED_DATA
360
2F7
  0
DICTIONARY
  5
2F9
330
2F8
100
AcDbDictionary
280
     1
  3
TC_EXTENDED_DATA
360
2FA
  0
DICTIONARY
  5
2FC
330
2FB
100
AcDbDictionary
280
     1
  3
TC_EXTENDED_DATA
360
2FD
  0
DICTIONARY
  5
2FF
330
2FE
100
AcDbDictionary
280
     1
  3
TC_EXTENDED_DATA
360
300
  0
DICTIONARY
  5
302
330
301
100
AcDbDictionary
280
     1
  3
TC_EXTENDED_DATA
360
303
  0
DICTIONARY
  5
305
330
304
100
AcDbDictionary
280
     1
  3
TC_EXTENDED_DATA
360
306
  0
DICTIONARY
  5
308
330
307
100
AcDbDictionary
280
     1
  3
TC_EXTENDED_DATA
360
309
  0
DICTIONARY
  5
30B
330
30A
100
AcDbDictionary
280
     1
  3
TC_EXTENDED_DATA
360
30C
  0
DICTIONARY
  5
31F
330
31E
100
AcDbDictionary
280
     1
  3
TC_EXTENDED_DATA
360
320
  0
DICTIONARY
  5
323
330
322
100
AcDbDictionary
280
     1
  3
TC_EXTENDED_DATA
360
324
  0
DICTIONARY
  5
327
330
326
100
AcDbDictionary
280
     1
  3
TC_EXTENDED_DATA
360
328
  0
DICTIONARY
  5
32B
330
32A
100
AcDbDictionary
280
     1
  3
TC_EXTENDED_DATA
360
32C
  0
DICTIONARY
  5
330
330
32F
100
AcDbDictionary
280
     1
  3
TC_EXTENDED_DATA
360
331
  0
DICTIONARY
  5
333
330
332
100
AcDbDictionary
280
     1
  3
TC_EXTENDED_DATA
360
334
  0
DICTIONARY
  5
339
330
338
100
AcDbDictionary
280
     1
  3
TC_EXTENDED_DATA
360
33A
  0
DICTIONARY
  5
33C
330
33B
100
AcDbDictionary
280
     1
  3
TC_EXTENDED_DATA
360
33D
  0
DICTIONARY
  5
33F
330
33E
100
AcDbDictionary
280
     1
  3
TC_EXTENDED_DATA
360
340
  0
DICTIONARY
  5
343
330
342
100
AcDbDictionary
280
     1
  3
TC_EXTENDED_DATA
360
344
  0
DICTIONARY
  5
347
330
346
100
AcDbDictionary
280
     1
  3
TC_EXTENDED_DATA
360
348
  0
DICTIONARY
  5
34A
330
349
100
AcDbDictionary
280
     1
  3
TC_EXTENDED_DATA
360
34B
  0
DICTIONARY
  5
34D
330
34C
100
AcDbDictionary
280
     1
  3
TC_EXTENDED_DATA
360
34E
  0
DICTIONARY
  5
350
330
34F
100
AcDbDictionary
280
     1
  3
TC_EXTENDED_DATA
360
351
  0
DICTIONARY
  5
353
330
352
100
AcDbDictionary
280
     1
  3
TC_EXTENDED_DATA
360
354
  0
DICTIONARY
  5
356
330
355
100
AcDbDictionary
280
     1
  3
TC_EXTENDED_DATA
360
357
  0
DICTIONARY
  5
372
330
371
100
AcDbDictionary
280
     1
  3
TC_EXTENDED_DATA
360
373
  0
DICTIONARY
  5
376
330
375
100
AcDbDictionary
280
     1
  3
TC_EXTENDED_DATA
360
377
  0
DICTIONARY
  5
37A
330
379
100
AcDbDictionary
280
     1
  3
TC_EXTENDED_DATA
360
37B
  0
DICTIONARY
  5
37E
330
37D
100
AcDbDictionary
280
     1
  3
TC_EXTENDED_DATA
360
37F
  0
DICTIONARY
  5
383
330
382
100
AcDbDictionary
280
     1
  3
TC_EXTENDED_DATA
360
384
  0
DICTIONARY
  5
386
330
385
100
AcDbDictionary
280
     1
  3
TC_EXTENDED_DATA
360
387
  0
DICTIONARY
  5
389
330
388
100
AcDbDictionary
280
     1
  3
TC_EXTENDED_DATA
360
38A
  0
DICTIONARY
  5
38C
330
38B
100
AcDbDictionary
280
     1
  3
TC_EXTENDED_DATA
360
38D
  0
DICTIONARY
  5
391
330
390
100
AcDbDictionary
280
     1
  3
TC_EXTENDED_DATA
360
392
  0
DICTIONARY
  5
394
330
393
100
AcDbDictionary
280
     1
  3
TC_EXTENDED_DATA
360
395
  0
DICTIONARY
  5
397
330
396
100
AcDbDictionary
280
     1
  3
TC_EXTENDED_DATA
360
398
  0
DICTIONARY
  5
39B
330
39A
100
AcDbDictionary
280
     1
  3
TC_EXTENDED_DATA
360
39C
  0
DICTIONARY
  5
39E
330
39D
100
AcDbDictionary
280
     1
  3
TC_EXTENDED_DATA
360
39F
  0
DICTIONARY
  5
3A1
330
3A0
100
AcDbDictionary
280
     1
  3
TC_EXTENDED_DATA
360
3A2
  0
DICTIONARY
  5
3A4
330
3A3
100
AcDbDictionary
280
     1
  3
TC_EXTENDED_DATA
360
3A5
  0
DICTIONARY
  5
3A7
330
3A6
100
AcDbDictionary
280
     1
  3
TC_EXTENDED_DATA
360
3A8
  0
DICTIONARY
  5
3AA
330
3A9
100
AcDbDictionary
280
     1
  3
TC_EXTENDED_DATA
360
3AB
  0
DICTIONARY
  5
3B9
330
3B8
100
AcDbDictionary
280
     1
  3
TC_EXTENDED_DATA
360
3BA
  0
DICTIONARY
  5
3BD
330
3BC
100
AcDbDictionary
280
     1
  3
TC_EXTENDED_DATA
360
3BE
  0
DICTIONARY
  5
3C1
330
3C0
100
AcDbDictionary
280
     1
  3
TC_EXTENDED_DATA
360
3C2
  0
DICTIONARY
  5
3C4
330
3C3
100
AcDbDictionary
280
     1
  3
TC_EXTENDED_DATA
360
3C5
  0
DICTIONARY
  5
3C7
330
3C6
100
AcDbDictionary
280
     1
  3
TC_EXTENDED_DATA
360
3C8
  0
DICTIONARY
  5
3CA
330
3C9
100
AcDbDictionary
280
     1
  3
TC_EXTENDED_DATA
360
3CB
  0
DICTIONARY
  5
3CD
330
3CC
100
AcDbDictionary
280
     1
  3
TC_EXTENDED_DATA
360
3CE
  0
DICTIONARY
  5
3D0
330
3CF
100
AcDbDictionary
280
     1
  3
TC_EXTENDED_DATA
360
3D1
  0
DICTIONARY
  5
3D6
330
3D5
100
AcDbDictionary
280
     1
  3
TC_EXTENDED_DATA
360
3D7
  0
DICTIONARY
  5
3D9
330
3D8
100
AcDbDictionary
280
     1
  3
TC_EXTENDED_DATA
360
3DA
  0
DICTIONARY
  5
3DC
330
3DB
100
AcDbDictionary
280
     1
  3
TC_EXTENDED_DATA
360
3DD
  0
DICTIONARY
  5
3DF
330
3DE
100
AcDbDictionary
280
     1
  3
TC_EXTENDED_DATA
360
3E0
  0
DICTIONARY
  5
3E2
330
3E1
100
AcDbDictionary
280
     1
  3
TC_EXTENDED_DATA
360
3E3
  0
DICTIONARY
  5
3E5
330
3E4
100
AcDbDictionary
280
     1
  3
TC_EXTENDED_DATA
360
3E6
  0
DICTIONARY
  5
3E8
330
3E7
100
AcDbDictionary
280
     1
  3
TC_EXTENDED_DATA
360
3E9
  0
DICTIONARY
  5
3EC
330
3EB
100
AcDbDictionary
280
     1
  3
TC_EXTENDED_DATA
360
3ED
  0
DICTIONARY
  5
3EF
330
3EE
100
AcDbDictionary
280
     1
  3
TC_EXTENDED_DATA
360
3F0
  0
DICTIONARY
  5
D
102
{ACAD_REACTORS
330
C
102
}
330
C
100
AcDbDictionary
  3
GROUP_1
350
2E5
  3
GROUP_TILES
350
358
  3
GROUP_TILES_1
350
3D2
  0
DICTIONARY
  5
1A
102
{ACAD_REACTORS
330
C
102
}
330
C
100
AcDbDictionary
  0
DICTIONARY
  5
43
102
{ACAD_REACTORS
330
C
102
}
330
C
100
AcDbDictionary
  3
BYBLOCK
350
45
  3
BYLAYER
350
44
  3
GLOBAL
350
46
  0
DICTIONARY
  5
193
102
{ACAD_REACTORS
330
C
102
}
330
C
100
AcDbDictionary
  3
STANDARD
350
194
  0
DICTIONARY
  5
17
102
{ACAD_REACTORS
330
C
102
}
330
C
100
AcDbDictionary
  3
STANDARD
350
18
  0
DICTIONARY
  5
19
102
{ACAD_REACTORS
330
C
102
}
330
C
100
AcDbDictionary
  0
DICTIONARY
  5
47
102
{ACAD_REACTORS
330
C
102
}
330
C
100
AcDbDictionary
  3
A0
350
48
  3
A1
350
49
  3
A2
350
4A
  3
A3
350
4B
  3
A4
350
4C
  3
A5
350
4D
  3
A6
350
4E
  3
A7
350
4F
  3
A8
350
50
  3
A9
350
51
  3
B0
350
52
  3
B1
350
53
  3
B2
350
54
  3
B3
350
55
  3
B4
350
56
  3
B5
350
57
  3
B6
350
58
  3
B7
350
59
  3
B8
350
5A
  3
B9
350
5B
  3
C0
350
5C
  3
C1
350
5D
  3
C2
350
5E
  3
C3
350
5F
  3
C4
350
60
  3
C5
350
61
  3
C6
350
62
  3
C7
350
63
  3
C8
350
64
  3
C9
350
65
  3
D0
350
66
  3
D1
350
67
  3
D2
350
68
  0
DICTIONARY
  5
2A
102
{ACAD_REACTORS
330
C
102
}
330
C
100
AcDbDictionary
  3
2DWIREFRAME
350
2F
  3
BASIC
350
32
  3
BRIGHTEN
350
36
  3
COLORCHANGE
350
3A
  3
CONCEPTUAL
350
34
  3
DIM
350
35
  3
EDGECOLOROFF
350
3D
  3
FACEPATTERN
350
39
  3
FLAT
350
2B
  3
FLATWITHEDGES
350
2C
  3
GOURAUD
350
2D
  3
GOURAUDWITHEDGES
350
2E
  3
HIDDEN
350
31
  3
JITTEROFF
350
3B
  3
LINEPATTERN
350
38
  3
OVERHANGOFF
350
3C
  3
REALISTIC
350
33
  3
SHADED
350
42
  3
SHADED_WITH_EDGES
350
41
  3
SHADES_OF_GRAY
350
3E
  3
SKETCHY
350
3F
  3
THICKEN
350
37
  3
WIREFRAME
350
30
  3
X-RAY
350
40
  0
DICTIONARY
  5
3F2
102
{ACAD_REACTORS
330
C
102
}
330
C
100
AcDbDictionary
  3
CEPSNTYPE
350
3FB
  3
DIMSTYLEDATA
350
411
  3
FINGERPRINTGUID
350
3FC
  3
HYPERLINKBASE
350
3F5
  3
INSUNITS
350
3FA
  3
LAYOUTDICT
350
3F7
  3
LWETCUNION
350
3F9
  3
PLOTSETDICT
350
3F8
  3
PSVPSCALE
350
3FE
  3
PUCSBASE
350
401
  3
PUCSORGBACK
350
407
  3
PUCSORGBOTTOM
350
403
  3
PUCSORGFRONT
350
406
  3
PUCSORGLEFT
350
404
  3
PUCSORGRIGHT
350
405
  3
PUCSORGTOP
350
402
  3
PUCSORTHOREF
350
3FF
  3
PUCSORTHOVIEW
350
400
  3
STYLESHEET
350
3F6
  3
TSTACKALIGN
350
3F3
  3
TSTACKSIZE
350
3F4
  3
UCSBASE
350
40A
  3
UCSORGBACK
350
410
  3
UCSORGBOTTOM
350
40C
  3
UCSORGFRONT
350
40F
  3
UCSORGLEFT
350
40D
  3
UCSORGRIGHT
350
40E
  3
UCSORGTOP
350
40B
  3
UCSORTHOREF
350
408
  3
UCSORTHOVIEW
350
409
  3
VERSIONGUID
350
3FD
  0
DICTIONARY
  5
412
102
{ACAD_REACTORS
330
C
102
}
330
C
100
AcDbDictionary
  3
CANNOSCALE
350
418
  3
DIMASSOC
350
416
  3
GEOMARKERVISIBILITY
350
413
  3
HIDETEXT
350
417
  3
MSLTSCALE
350
419
  0
GEODATA
  5
197
102
{ACAD_REACTORS
330
196
102
}
330
196
100
AcDbGeoData
 90
        1
 70
     1
330
1F
 40
-122.394
 41
37.795
 42
0.0
 91
        6
 10
0.0
 20
0.0
 30
0.0
 11
0.0
 21
0.0
 31
0.0
210
0.0
220
0.0
230
1.0
 52
0.0
 43
1.0
 44
1.0
 45
1.0
301

302
<georss:point>37.7950 -122.3940</georss:point>
 46
1.0
303

304

305

306

307

 93
        0
 96
        0
  3
CIVIL3D_DATA_BEGIN
292
     0
 14
37.795
 24
-122.394
 15
37.795
 25
-122.394
 93
        0
 94
        0
293
     0
 16
0.0
 26
0.0
 17
0.0
 27
0.0
 54
0.0
140
0.0
 95
        3
141
1.0
294
     0
142
0.0
143
0.0
  4
CIVIL3D_DATA_END
  0
TCOPTIONALDATA
  5
1A6
102
{ACAD_REACTORS
330
1A5
102
}
330
1A5
100
TcOptionalData
 70
     2
 70
     1
  1
Line/Polyline
  0
TCOPTIONALDATA
  5
1A9
102
{ACAD_REACTORS
330
1A8
102
}
330
1A8
100
TcOptionalData
 70
     2
 70
     1
  1
Line/Polyline
  0
TCOPTIONALDATA
  5
1AC
102
{ACAD_REACTORS
330
1AB
102
}
330
1AB
100
TcOptionalData
 70
     2
 70
     1
  1
Line/Polyline
  0
TCOPTIONALDATA
  5
1AF
102
{ACAD_REACTORS
330
1AE
102
}
330
1AE
100
TcOptionalData
 70
     2
 70
     1
  1
Line/Polyline
  0
TCOPTIONALDATA
  5
1B2
102
{ACAD_REACTORS
330
1B1
102
}
330
1B1
100
TcOptionalData
 70
     2
 70
     1
  1
Line/Polyline
  0
TCOPTIONALDATA
  5
1B5
102
{ACAD_REACTORS
330
1B4
102
}
330
1B4
100
TcOptionalData
 70
     2
 70
     1
  1
Line/Polyline
  0
TCOPTIONALDATA
  5
1B8
102
{ACAD_REACTORS
330
1B7
102
}
330
1B7
100
TcOptionalData
 70
     2
 70
     1
  1
Line/Polyline
  0
TCOPTIONALDATA
  5
1BB
102
{ACAD_REACTORS
330
1BA
102
}
330
1BA
100
TcOptionalData
 70
     2
 70
     1
  1
Line/Polyline
  0
TCOPTIONALDATA
  5
1BE
102
{ACAD_REACTORS
330
1BD
102
}
330
1BD
100
TcOptionalData
 70
     2
 70
     1
  1
Line/Polyline
  0
TCOPTIONALDATA
  5
1C1
102
{ACAD_REACTORS
330
1C0
102
}
330
1C0
100
TcOptionalData
 70
     2
 70
     1
  1
Line/Polyline
  0
TCOPTIONALDATA
  5
1C4
102
{ACAD_REACTORS
330
1C3
102
}
330
1C3
100
TcOptionalData
 70
     2
 70
     1
  1
Line/Polyline
  0
TCOPTIONALDATA
  5
1C7
102
{ACAD_REACTORS
330
1C6
102
}
330
1C6
100
TcOptionalData
 70
     2
 70
     1
  1
Line/Polyline
  0
TCOPTIONALDATA
  5
1CA
102
{ACAD_REACTORS
330
1C9
102
}
330
1C9
100
TcOptionalData
 70
     2
 70
     1
  1
Line/Polyline
  0
TCOPTIONALDATA
  5
1CD
102
{ACAD_REACTORS
330
1CC
102
}
330
1CC
100
TcOptionalData
 70
     2
 70
     1
  1
Line/Polyline
  0
TCOPTIONALDATA
  5
1D0
102
{ACAD_REACTORS
330
1CF
102
}
330
1CF
100
TcOptionalData
 70
     2
 70
     1
  1
Line/Polyline
  0
TCOPTIONALDATA
  5
1D3
102
{ACAD_REACTORS
330
1D2
102
}
330
1D2
100
TcOptionalData
 70
     2
 70
     1
  1
Line/Polyline
  0
TCOPTIONALDATA
  5
1D6
102
{ACAD_REACTORS
330
1D5
102
}
330
1D5
100
TcOptionalData
 70
     2
 70
     1
  1
Line/Polyline
  0
TCOPTIONALDATA
  5
1D9
102
{ACAD_REACTORS
330
1D8
102
}
330
1D8
100
TcOptionalData
 70
     2
 70
     1
  1
Line/Polyline
  0
TCOPTIONALDATA
  5
1DC
102
{ACAD_REACTORS
330
1DB
102
}
330
1DB
100
TcOptionalData
 70
     2
 70
     1
  1
Line/Polyline
  0
TCOPTIONALDATA
  5
1DF
102
{ACAD_REACTORS
330
1DE
102
}
330
1DE
100
TcOptionalData
 70
     2
 70
     1
  1
Line/Polyline
  0
TCOPTIONALDATA
  5
1E2
102
{ACAD_REACTORS
330
1E1
102
}
330
1E1
100
TcOptionalData
 70
     2
 70
     1
  1
Line/Polyline
  0
TCOPTIONALDATA
  5
1E5
102
{ACAD_REACTORS
330
1E4
102
}
330
1E4
100
TcOptionalData
 70
     2
 70
     1
  1
Line/Polyline
  0
TCOPTIONALDATA
  5
1E8
102
{ACAD_REACTORS
330
1E7
102
}
330
1E7
100
TcOptionalData
 70
     2
 70
     1
  1
Circle/Arc
  0
TCOPTIONALDATA
  5
1EB
102
{ACAD_REACTORS
330
1EA
102
}
330
1EA
100
TcOptionalData
 70
     2
 70
     1
  1
Circle/Arc
  0
TCOPTIONALDATA
  5
1EE
102
{ACAD_REACTORS
330
1ED
102
}
330
1ED
100
TcOptionalData
 70
     2
 70
     1
  1
Circle/Arc
  0
TCOPTIONALDATA
  5
1F1
102
{ACAD_REACTORS
330
1F0
102
}
330
1F0
100
TcOptionalData
 70
     2
 70
     1
  1
Circle/Arc
  0
TCOPTIONALDATA
  5
1F4
102
{ACAD_REACTORS
330
1F3
102
}
330
1F3
100
TcOptionalData
 70
     2
 70
     1
  1
Circle/Arc
  0
TCOPTIONALDATA
  5
1F7
102
{ACAD_REACTORS
330
1F6
102
}
330
1F6
100
TcOptionalData
 70
     2
 70
     1
  1
Circle/Arc
  0
TCOPTIONALDATA
  5
1FA
102
{ACAD_REACTORS
330
1F9
102
}
330
1F9
100
TcOptionalData
 70
     2
 70
     1
  1
Circle/Arc
  0
TCOPTIONALDATA
  5
1FD
102
{ACAD_REACTORS
330
1FC
102
}
330
1FC
100
TcOptionalData
 70
     2
 70
     1
  1
Circle/Arc
  0
TCOPTIONALDATA
  5
200
102
{ACAD_REACTORS
330
1FF
102
}
330
1FF
100
TcOptionalData
 70
     2
 70
     1
  1
Circle/Arc
  0
TCOPTIONALDATA
  5
203
102
{ACAD_REACTORS
330
202
102
}
330
202
100
TcOptionalData
 70
     2
 70
     1
  1
Line/Polyline
  0
TCOPTIONALDATA
  5
206
102
{ACAD_REACTORS
330
205
102
}
330
205
100
TcOptionalData
 70
     2
 70
     1
  1
Line/Polyline
  0
TCOPTIONALDATA
  5
209
102
{ACAD_REACTORS
330
208
102
}
330
208
100
TcOptionalData
 70
     2
 70
     1
  1
Line/Polyline
  0
TCOPTIONALDATA
  5
20C
102
{ACAD_REACTORS
330
20B
102
}
330
20B
100
TcOptionalData
 70
     2
 70
     1
  1
Line/Polyline
  0
TCOPTIONALDATA
  5
20F
102
{ACAD_REACTORS
330
20E
102
}
330
20E
100
TcOptionalData
 70
     2
 70
     1
  1
Line/Polyline
  0
TCOPTIONALDATA
  5
212
102
{ACAD_REACTORS
330
211
102
}
330
211
100
TcOptionalData
 70
     2
 70
     1
  1
Line/Polyline
  0
TCOPTIONALDATA
  5
215
102
{ACAD_REACTORS
330
214
102
}
330
214
100
TcOptionalData
 70
     2
 70
     1
  1
Line/Polyline
  0
TCOPTIONALDATA
  5
218
102
{ACAD_REACTORS
330
217
102
}
330
217
100
TcOptionalData
 70
     2
 70
     1
  1
Line/Polyline
  0
TCOPTIONALDATA
  5
21B
102
{ACAD_REACTORS
330
21A
102
}
330
21A
100
TcOptionalData
 70
     2
 70
     1
  1
Line/Polyline
  0
TCOPTIONALDATA
  5
21E
102
{ACAD_REACTORS
330
21D
102
}
330
21D
100
TcOptionalData
 70
     2
 70
     1
  1
Line/Polyline
  0
TCOPTIONALDATA
  5
221
102
{ACAD_REACTORS
330
220
102
}
330
220
100
TcOptionalData
 70
     2
 70
     1
  1
Line/Polyline
  0
TCOPTIONALDATA
  5
224
102
{ACAD_REACTORS
330
223
102
}
330
223
100
TcOptionalData
 70
     2
 70
     1
  1
Line/Polyline
  0
TCOPTIONALDATA
  5
227
102
{ACAD_REACTORS
330
226
102
}
330
226
100
TcOptionalData
 70
     2
 70
     1
  1
Circle/Arc
  0
TCOPTIONALDATA
  5
22A
102
{ACAD_REACTORS
330
229
102
}
330
229
100
TcOptionalData
 70
     2
 70
     1
  1
Line/Polyline
  0
TCOPTIONALDATA
  5
22D
102
{ACAD_REACTORS
330
22C
102
}
330
22C
100
TcOptionalData
 70
     2
 70
     1
  1
Line/Polyline
  0
TCOPTIONALDATA
  5
230
102
{ACAD_REACTORS
330
22F
102
}
330
22F
100
TcOptionalData
 70
     2
 70
     1
  1
Line/Polyline
  0
TCOPTIONALDATA
  5
233
102
{ACAD_REACTORS
330
232
102
}
330
232
100
TcOptionalData
 70
     2
 70
     1
  1
Line/Polyline
  0
TCOPTIONALDATA
  5
236
102
{ACAD_REACTORS
330
235
102
}
330
235
100
TcOptionalData
 70
     2
 70
     1
  1
Line/Polyline
  0
TCOPTIONALDATA
  5
239
102
{ACAD_REACTORS
330
238
102
}
330
238
100
TcOptionalData
 70
     2
 70
     1
  1
Line/Polyline
  0
TCOPTIONALDATA
  5
23C
102
{ACAD_REACTORS
330
23B
102
}
330
23B
100
TcOptionalData
 70
     2
 70
     1
  1
Line/Polyline
  0
TCOPTIONALDATA
  5
23F
102
{ACAD_REACTORS
330
23E
102
}
330
23E
100
TcOptionalData
 70
     2
 70
     1
  1
Line/Polyline
  0
TCOPTIONALDATA
  5
242
102
{ACAD_REACTORS
330
241
102
}
330
241
100
TcOptionalData
 70
     2
 70
     1
  1
Line/Polyline
  0
TCOPTIONALDATA
  5
245
102
{ACAD_REACTORS
330
244
102
}
330
244
100
TcOptionalData
 70
     2
 70
     1
  1
Line/Polyline
  0
TCOPTIONALDATA
  5
248
102
{ACAD_REACTORS
330
247
102
}
330
247
100
TcOptionalData
 70
     2
 70
     1
  1
Line/Polyline
  0
TCOPTIONALDATA
  5
24B
102
{ACAD_REACTORS
330
24A
102
}
330
24A
100
TcOptionalData
 70
     2
 70
     1
  1
Line/Polyline
  0
TCOPTIONALDATA
  5
24E
102
{ACAD_REACTORS
330
24D
102
}
330
24D
100
TcOptionalData
 70
     2
 70
     1
  1
Line/Polyline
  0
TCOPTIONALDATA
  5
251
102
{ACAD_REACTORS
330
250
102
}
330
250
100
TcOptionalData
 70
     2
 70
     1
  1
Line/Polyline
  0
TCOPTIONALDATA
  5
254
102
{ACAD_REACTORS
330
253
102
}
330
253
100
TcOptionalData
 70
     2
 70
     1
  1
Line/Polyline
  0
TCOPTIONALDATA
  5
257
102
{ACAD_REACTORS
330
256
102
}
330
256
100
TcOptionalData
 70
     2
 70
     1
  1
Line/Polyline
  0
TCOPTIONALDATA
  5
25A
102
{ACAD_REACTORS
330
259
102
}
330
259
100
TcOptionalData
 70
     2
 70
     1
  1
Line/Polyline
  0
TCOPTIONALDATA
  5
25D
102
{ACAD_REACTORS
330
25C
102
}
330
25C
100
TcOptionalData
 70
     2
 70
     1
  1
Line/Polyline
  0
TCOPTIONALDATA
  5
260
102
{ACAD_REACTORS
330
25F
102
}
330
25F
100
TcOptionalData
 70
     2
 70
     1
  1
Line/Polyline
  0
TCOPTIONALDATA
  5
263
102
{ACAD_REACTORS
330
262
102
}
330
262
100
TcOptionalData
 70
     2
 70
     1
  1
Line/Polyline
  0
TCOPTIONALDATA
  5
266
102
{ACAD_REACTORS
330
265
102
}
330
265
100
TcOptionalData
 70
     2
 70
     1
  1
Line/Polyline
  0
TCOPTIONALDATA
  5
269
102
{ACAD_REACTORS
330
268
102
}
330
268
100
TcOptionalData
 70
     2
 70
     1
  1
Line/Polyline
  0
TCOPTIONALDATA
  5
26C
102
{ACAD_REACTORS
330
26B
102
}
330
26B
100
TcOptionalData
 70
     2
 70
     1
  1
Line/Polyline
  0
TCOPTIONALDATA
  5
26F
102
{ACAD_REACTORS
330
26E
102
}
330
26E
100
TcOptionalData
 70
     2
 70
     1
  1
Line/Polyline
  0
TCOPTIONALDATA
  5
272
102
{ACAD_REACTORS
330
271
102
}
330
271
100
TcOptionalData
 70
     2
 70
     1
  1
Line/Polyline
  0
TCOPTIONALDATA
  5
275
102
{ACAD_REACTORS
330
274
102
}
330
274
100
TcOptionalData
 70
     2
 70
     1
  1
Line/Polyline
  0
TCOPTIONALDATA
  5
278
102
{ACAD_REACTORS
330
277
102
}
330
277
100
TcOptionalData
 70
     2
 70
     1
  1
Line/Polyline
  0
TCOPTIONALDATA
  5
27B
102
{ACAD_REACTORS
330
27A
102
}
330
27A
100
TcOptionalData
 70
     2
 70
     1
  1
Line/Polyline
  0
TCOPTIONALDATA
  5
27E
102
{ACAD_REACTORS
330
27D
102
}
330
27D
100
TcOptionalData
 70
     2
 70
     1
  1
Line/Polyline
  0
TCOPTIONALDATA
  5
281
102
{ACAD_REACTORS
330
280
102
}
330
280
100
TcOptionalData
 70
     2
 70
     1
  1
Line/Polyline
  0
TCOPTIONALDATA
  5
284
102
{ACAD_REACTORS
330
283
102
}
330
283
100
TcOptionalData
 70
     2
 70
     1
  1
Line/Polyline
  0
TCOPTIONALDATA
  5
287
102
{ACAD_REACTORS
330
286
102
}
330
286
100
TcOptionalData
 70
     2
 70
     1
  1
Line/Polyline
  0
TCOPTIONALDATA
  5
28A
102
{ACAD_REACTORS
330
289
102
}
330
289
100
TcOptionalData
 70
     2
 70
     1
  1
Line/Polyline
  0
TCOPTIONALDATA
  5
28D
102
{ACAD_REACTORS
330
28C
102
}
330
28C
100
TcOptionalData
 70
     2
 70
     1
  1
Line/Polyline
  0
TCOPTIONALDATA
  5
290
102
{ACAD_REACTORS
330
28F
102
}
330
28F
100
TcOptionalData
 70
     2
 70
     1
  1
Line/Polyline
  0
TCOPTIONALDATA
  5
293
102
{ACAD_REACTORS
330
292
102
}
330
292
100
TcOptionalData
 70
     2
 70
     1
  1
Line/Polyline
  0
TCOPTIONALDATA
  5
296
102
{ACAD_REACTORS
330
295
102
}
330
295
100
TcOptionalData
 70
     2
 70
     1
  1
Line/Polyline
  0
TCOPTIONALDATA
  5
299
102
{ACAD_REACTORS
330
298
102
}
330
298
100
TcOptionalData
 70
     2
 70
     1
  1
Line/Polyline
  0
TCOPTIONALDATA
  5
29C
102
{ACAD_REACTORS
330
29B
102
}
330
29B
100
TcOptionalData
 70
     2
 70
     1
  1
Circle/Arc
  0
TCOPTIONALDATA
  5
29F
102
{ACAD_REACTORS
330
29E
102
}
330
29E
100
TcOptionalData
 70
     2
 70
     1
  1
Circle/Arc
  0
TCOPTIONALDATA
  5
2A2
102
{ACAD_REACTORS
330
2A1
102
}
330
2A1
100
TcOptionalData
 70
     2
 70
     1
  1
Line/Polyline
  0
TCOPTIONALDATA
  5
2A5
102
{ACAD_REACTORS
330
2A4
102
}
330
2A4
100
TcOptionalData
 70
     2
 70
     1
  1
Line/Polyline
  0
TCOPTIONALDATA
  5
2A8
102
{ACAD_REACTORS
330
2A7
102
}
330
2A7
100
TcOptionalData
 70
     2
 70
     1
  1
Line/Polyline
  0
TCOPTIONALDATA
  5
2AB
102
{ACAD_REACTORS
330
2AA
102
}
330
2AA
100
TcOptionalData
 70
     2
 70
     1
  1
Line/Polyline
  0
TCOPTIONALDATA
  5
2AE
102
{ACAD_REACTORS
330
2AD
102
}
330
2AD
100
TcOptionalData
 70
     2
 70
     1
  1
Line/Polyline
  0
TCOPTIONALDATA
  5
2B1
102
{ACAD_REACTORS
330
2B0
102
}
330
2B0
100
TcOptionalData
 70
     2
 70
     1
  1
Line/Polyline
  0
TCOPTIONALDATA
  5
2B4
102
{ACAD_REACTORS
330
2B3
102
}
330
2B3
100
TcOptionalData
 70
     2
 70
     1
  1
Line/Polyline
  0
TCOPTIONALDATA
  5
2B7
102
{ACAD_REACTORS
330
2B6
102
}
330
2B6
100
TcOptionalData
 70
     2
 70
     1
  1
Line/Polyline
  0
TCOPTIONALDATA
  5
2BA
102
{ACAD_REACTORS
330
2B9
102
}
330
2B9
100
TcOptionalData
 70
     2
 70
     1
  1
Line/Polyline
  0
TCOPTIONALDATA
  5
2BD
102
{ACAD_REACTORS
330
2BC
102
}
330
2BC
100
TcOptionalData
 70
     2
 70
     1
  1
Line/Polyline
  0
TCOPTIONALDATA
  5
2C0
102
{ACAD_REACTORS
330
2BF
102
}
330
2BF
100
TcOptionalData
 70
     2
 70
     1
  1
Line/Polyline
  0
TCOPTIONALDATA
  5
2C3
102
{ACAD_REACTORS
330
2C2
102
}
330
2C2
100
TcOptionalData
 70
     2
 70
     1
  1
Line/Polyline
  0
TCOPTIONALDATA
  5
2C6
102
{ACAD_REACTORS
330
2C5
102
}
330
2C5
100
TcOptionalData
 70
     2
 70
     1
  1
Line/Polyline
  0
TCOPTIONALDATA
  5
2C9
102
{ACAD_REACTORS
330
2C8
102
}
330
2C8
100
TcOptionalData
 70
     2
 70
     1
  1
Line/Polyline
  0
TCOPTIONALDATA
  5
2CC
102
{ACAD_REACTORS
330
2CB
102
}
330
2CB
100
TcOptionalData
 70
     2
 70
     1
  1
Line/Polyline
  0
TCOPTIONALDATA
  5
2CF
102
{ACAD_REACTORS
330
2CE
102
}
330
2CE
100
TcOptionalData
 70
     2
 70
     1
  1
Line/Polyline
  0
TCOPTIONALDATA
  5
2D2
102
{ACAD_REACTORS
330
2D1
102
}
330
2D1
100
TcOptionalData
 70
     2
 70
     1
  1
Line/Polyline
  0
TCOPTIONALDATA
  5
2D5
102
{ACAD_REACTORS
330
2D4
102
}
330
2D4
100
TcOptionalData
 70
     2
 70
     1
  1
Line/Polyline
  0
TCOPTIONALDATA
  5
2D8
102
{ACAD_REACTORS
330
2D7
102
}
330
2D7
100
TcOptionalData
 70
     2
 70
     1
  1
Line/Polyline
  0
TCOPTIONALDATA
  5
2DB
102
{ACAD_REACTORS
330
2DA
102
}
330
2DA
100
TcOptionalData
 70
     2
 70
     1
  1
Line/Polyline
  0
TCOPTIONALDATA
  5
2DE
102
{ACAD_REACTORS
330
2DD
102
}
330
2DD
100
TcOptionalData
 70
     2
 70
     1
  1
Line/Polyline
  0
TCOPTIONALDATA
  5
2E1
102
{ACAD_REACTORS
330
2E0
102
}
330
2E0
100
TcOptionalData
 70
     2
 70
     1
  1
Line/Polyline
  0
TCOPTIONALDATA
  5
2E4
102
{ACAD_REACTORS
330
2E3
102
}
330
2E3
100
TcOptionalData
 70
     2
 70
     1
  1
Line/Polyline
  0
TCOPTIONALDATA
  5
2E8
102
{ACAD_REACTORS
330
2E7
102
}
330
2E7
100
TcOptionalData
 70
     2
 70
     1
  1
Line/Polyline
  0
TCOPTIONALDATA
  5
2EB
102
{ACAD_REACTORS
330
2EA
102
}
330
2EA
100
TcOptionalData
 70
     2
 70
     1
  1
Line/Polyline
  0
TCOPTIONALDATA
  5
2EE
102
{ACAD_REACTORS
330
2ED
102
}
330
2ED
100
TcOptionalData
 70
     2
 70
     1
  1
Line/Polyline
  0
TCOPTIONALDATA
  5
2F1
102
{ACAD_REACTORS
330
2F0
102
}
330
2F0
100
TcOptionalData
 70
     2
 70
     1
  1
Line/Polyline
  0
TCOPTIONALDATA
  5
2F4
102
{ACAD_REACTORS
330
2F3
102
}
330
2F3
100
TcOptionalData
 70
     2
 70
     1
  1
Line/Polyline
  0
TCOPTIONALDATA
  5
2F7
102
{ACAD_REACTORS
330
2F6
102
}
330
2F6
100
TcOptionalData
 70
     2
 70
     1
  1
Line/Polyline
  0
TCOPTIONALDATA
  5
2FA
102
{ACAD_REACTORS
330
2F9
102
}
330
2F9
100
TcOptionalData
 70
     2
 70
     1
  1
Line/Polyline
  0
TCOPTIONALDATA
  5
2FD
102
{ACAD_REACTORS
330
2FC
102
}
330
2FC
100
TcOptionalData
 70
     2
 70
     1
  1
Line/Polyline
  0
TCOPTIONALDATA
  5
300
102
{ACAD_REACTORS
330
2FF
102
}
330
2FF
100
TcOptionalData
 70
     2
 70
     1
  1
Line/Polyline
  0
TCOPTIONALDATA
  5
303
102
{ACAD_REACTORS
330
302
102
}
330
302
100
TcOptionalData
 70
     2
 70
     1
  1
Line/Polyline
  0
TCOPTIONALDATA
  5
306
102
{ACAD_REACTORS
330
305
102
}
330
305
100
TcOptionalData
 70
     2
 70
     1
  1
Line/Polyline
  0
TCOPTIONALDATA
  5
309
102
{ACAD_REACTORS
330
308
102
}
330
308
100
TcOptionalData
 70
     2
 70
     1
  1
Line/Polyline
  0
TCOPTIONALDATA
  5
30C
102
{ACAD_REACTORS
330
30B
102
}
330
30B
100
TcOptionalData
 70
     2
 70
     1
  1
Line/Polyline
  0
TCOPTIONALDATA
  5
320
102
{ACAD_REACTORS
330
31F
102
}
330
31F
100
TcOptionalData
 70
     2
 70
     1
  1
Line/Polyline
  0
TCOPTIONALDATA
  5
324
102
{ACAD_REACTORS
330
323
102
}
330
323
100
TcOptionalData
 70
     2
 70
     1
  1
Line/Polyline
  0
TCOPTIONALDATA
  5
328
102
{ACAD_REACTORS
330
327
102
}
330
327
100
TcOptionalData
 70
     2
 70
     1
  1
Line/Polyline
  0
TCOPTIONALDATA
  5
32C
102
{ACAD_REACTORS
330
32B
102
}
330
32B
100
TcOptionalData
 70
     2
 70
     1
  1
Line/Polyline
  0
TCOPTIONALDATA
  5
331
102
{ACAD_REACTORS
330
330
102
}
330
330
100
TcOptionalData
 70
     2
 70
     1
  1
Line/Polyline
  0
TCOPTIONALDATA
  5
334
102
{ACAD_REACTORS
330
333
102
}
330
333
100
TcOptionalData
 70
     2
 70
     1
  1
Line/Polyline
  0
TCOPTIONALDATA
  5
33A
102
{ACAD_REACTORS
330
339
102
}
330
339
100
TcOptionalData
 70
     2
 70
     1
  1
Line/Polyline
  0
TCOPTIONALDATA
  5
33D
102
{ACAD_REACTORS
330
33C
102
}
330
33C
100
TcOptionalData
 70
     2
 70
     1
  1
Line/Polyline
  0
TCOPTIONALDATA
  5
340
102
{ACAD_REACTORS
330
33F
102
}
330
33F
100
TcOptionalData
 70
     2
 70
     1
  1
Line/Polyline
  0
TCOPTIONALDATA
  5
344
102
{ACAD_REACTORS
330
343
102
}
330
343
100
TcOptionalData
 70
     2
 70
     1
  1
Line/Polyline
  0
TCOPTIONALDATA
  5
348
102
{ACAD_REACTORS
330
347
102
}
330
347
100
TcOptionalData
 70
     2
 70
     1
  1
Line/Polyline
  0
TCOPTIONALDATA
  5
34B
102
{ACAD_REACTORS
330
34A
102
}
330
34A
100
TcOptionalData
 70
     2
 70
     1
  1
Line/Polyline
  0
TCOPTIONALDATA
  5
34E
102
{ACAD_REACTORS
330
34D
102
}
330
34D
100
TcOptionalData
 70
     2
 70
     1
  1
Line/Polyline
  0
TCOPTIONALDATA
  5
351
102
{ACAD_REACTORS
330
350
102
}
330
350
100
TcOptionalData
 70
     2
 70
     1
  1
Line/Polyline
  0
TCOPTIONALDATA
  5
354
102
{ACAD_REACTORS
330
353
102
}
330
353
100
TcOptionalData
 70
     2
 70
     1
  1
Line/Polyline
  0
TCOPTIONALDATA
  5
357
102
{ACAD_REACTORS
330
356
102
}
330
356
100
TcOptionalData
 70
     2
 70
     1
  1
Line/Polyline
  0
TCOPTIONALDATA
  5
373
102
{ACAD_REACTORS
330
372
102
}
330
372
100
TcOptionalData
 70
     2
 70
     1
  1
Line/Polyline
  0
TCOPTIONALDATA
  5
377
102
{ACAD_REACTORS
330
376
102
}
330
376
100
TcOptionalData
 70
     2
 70
     1
  1
Line/Polyline
  0
TCOPTIONALDATA
  5
37B
102
{ACAD_REACTORS
330
37A
102
}
330
37A
100
TcOptionalData
 70
     2
 70
     1
  1
Line/Polyline
  0
TCOPTIONALDATA
  5
37F
102
{ACAD_REACTORS
330
37E
102
}
330
37E
100
TcOptionalData
 70
     2
 70
     1
  1
Line/Polyline
  0
TCOPTIONALDATA
  5
384
102
{ACAD_REACTORS
330
383
102
}
330
383
100
TcOptionalData
 70
     2
 70
     1
  1
Line/Polyline
  0
TCOPTIONALDATA
  5
387
102
{ACAD_REACTORS
330
386
102
}
330
386
100
TcOptionalData
 70
     2
 70
     1
  1
Line/Polyline
  0
TCOPTIONALDATA
  5
38A
102
{ACAD_REACTORS
330
389
102
}
330
389
100
TcOptionalData
 70
     2
 70
     1
  1
Line/Polyline
  0
TCOPTIONALDATA
  5
38D
102
{ACAD_REACTORS
330
38C
102
}
330
38C
100
TcOptionalData
 70
     2
 70
     1
  1
Line/Polyline
  0
TCOPTIONALDATA
  5
392
102
{ACAD_REACTORS
330
391
102
}
330
391
100
TcOptionalData
 70
     2
 70
     1
  1
Line/Polyline
  0
TCOPTIONALDATA
  5
395
102
{ACAD_REACTORS
330
394
102
}
330
394
100
TcOptionalData
 70
     2
 70
     1
  1
Line/Polyline
  0
TCOPTIONALDATA
  5
398
102
{ACAD_REACTORS
330
397
102
}
330
397
100
TcOptionalData
 70
     2
 70
     1
  1
Line/Polyline
  0
TCOPTIONALDATA
  5
39C
102
{ACAD_REACTORS
330
39B
102
}
330
39B
100
TcOptionalData
 70
     2
 70
     1
  1
Line/Polyline
  0
TCOPTIONALDATA
  5
39F
102
{ACAD_REACTORS
330
39E
102
}
330
39E
100
TcOptionalData
 70
     2
 70
     1
  1
Line/Polyline
  0
TCOPTIONALDATA
  5
3A2
102
{ACAD_REACTORS
330
3A1
102
}
330
3A1
100
TcOptionalData
 70
     2
 70
     1
  1
Line/Polyline
  0
TCOPTIONALDATA
  5
3A5
102
{ACAD_REACTORS
330
3A4
102
}
330
3A4
100
TcOptionalData
 70
     2
 70
     1
  1
Line/Polyline
  0
TCOPTIONALDATA
  5
3A8
102
{ACAD_REACTORS
330
3A7
102
}
330
3A7
100
TcOptionalData
 70
     2
 70
     1
  1
Line/Polyline
  0
TCOPTIONALDATA
  5
3AB
102
{ACAD_REACTORS
330
3AA
102
}
330
3AA
100
TcOptionalData
 70
     2
 70
     1
  1
Line/Polyline
  0
TCOPTIONALDATA
  5
3BA
102
{ACAD_REACTORS
330
3B9
102
}
330
3B9
100
TcOptionalData
 70
     2
 70
     1
  1
Line/Polyline
  0
TCOPTIONALDATA
  5
3BE
102
{ACAD_REACTORS
330
3BD
102
}
330
3BD
100
TcOptionalData
 70
     2
 70
     1
  1
Line/Polyline
  0
TCOPTIONALDATA
  5
3C2
102
{ACAD_REACTORS
330
3C1
102
}
330
3C1
100
TcOptionalData
 70
     2
 70
     1
  1
Line/Polyline
  0
TCOPTIONALDATA
  5
3C5
102
{ACAD_REACTORS
330
3C4
102
}
330
3C4
100
TcOptionalData
 70
     2
 70
     1
  1
Line/Polyline
  0
TCOPTIONALDATA
  5
3C8
102
{ACAD_REACTORS
330
3C7
102
}
330
3C7
100
TcOptionalData
 70
     2
 70
     1
  1
Line/Polyline
  0
TCOPTIONALDATA
  5
3CB
102
{ACAD_REACTORS
330
3CA
102
}
330
3CA
100
TcOptionalData
 70
     2
 70
     1
  1
Line/Polyline
  0
TCOPTIONALDATA
  5
3CE
102
{ACAD_REACTORS
330
3CD
102
}
330
3CD
100
TcOptionalData
 70
     2
 70
     1
  1
Line/Polyline
  0
TCOPTIONALDATA
  5
3D1
102
{ACAD_REACTORS
330
3D0
102
}
330
3D0
100
TcOptionalData
 70
     2
 70
     1
  1
Line/Polyline
  0
TCOPTIONALDATA
  5
3D7
102
{ACAD_REACTORS
330
3D6
102
}
330
3D6
100
TcOptionalData
 70
     2
 70
     1
  1
Line/Polyline
  0
TCOPTIONALDATA
  5
3DA
102
{ACAD_REACTORS
330
3D9
102
}
330
3D9
100
TcOptionalData
 70
     2
 70
     1
  1
Line/Polyline
  0
TCOPTIONALDATA
  5
3DD
102
{ACAD_REACTORS
330
3DC
102
}
330
3DC
100
TcOptionalData
 70
     2
 70
     1
  1
Line/Polyline
  0
TCOPTIONALDATA
  5
3E0
102
{ACAD_REACTORS
330
3DF
102
}
330
3DF
100
TcOptionalData
 70
     2
 70
     1
  1
Line/Polyline
  0
TCOPTIONALDATA
  5
3E3
102
{ACAD_REACTORS
330
3E2
102
}
330
3E2
100
TcOptionalData
 70
     2
 70
     1
  1
Line/Polyline
  0
TCOPTIONALDATA
  5
3E6
102
{ACAD_REACTORS
330
3E5
102
}
330
3E5
100
TcOptionalData
 70
     2
 70
   129
  1
Point
 90
        1
  1
#$AUX@_ToolInfo Properties
 70
     8
 90
       14
310
434D445F53544152504F494E5440
  0
TCOPTIONALDATA
  5
3E9
102
{ACAD_REACTORS
330
3E8
102
}
330
3E8
100
TcOptionalData
 70
     2
 70
   129
  1
Point
 90
        1
  1
#$AUX@_ToolInfo Properties
 70
     8
 90
       14
310
434D445F53544152504F494E5440
  0
TCOPTIONALDATA
  5
3ED
102
{ACAD_REACTORS
330
3EC
102
}
330
3EC
100
TcOptionalData
 70
     2
 70
   144
 90
        1
  1
#$AUX@_ToolInfo Properties
 70
     8
 90
        9
310
434D445F5445585440
  1
Arial Rounded MT Bold
 70
     0
  0
TCOPTIONALDATA
  5
3F0
102
{ACAD_REACTORS
330
3EF
102
}
330
3EF
100
TcOptionalData
 70
     2
 70
   144
 90
        1
  1
#$AUX@_ToolInfo Properties
 70
     8
 90
        9
310
434D445F5445585440
  1
Arial Rounded MT Bold
 70
     0
  0
GROUP
  5
2E5
102
{ACAD_REACTORS
330
D
102
}
330
D
100
AcDbGroup
300

 70
     0
 71
     1
340
1A4
340
1A7
340
1AA
340
1AD
340
1B0
340
1B3
340
1B6
340
1B9
340
1BC
340
1BF
340
1C2
340
1C5
340
1C8
340
1CB
340
1CE
340
1D1
340
1D4
340
1D7
340
1DA
340
1DD
340
1E0
340
1E3
340
1E6
340
1E9
340
1EC
340
1EF
340
1F2
340
1F5
340
1F8
340
1FB
340
1FE
340
201
340
204
340
207
340
20A
340
20D
340
210
340
213
340
216
340
219
340
21C
340
21F
340
222
340
225
340
228
340
22B
340
22E
340
231
340
234
340
237
340
23A
340
23D
340
240
340
243
340
246
340
249
340
24C
340
24F
340
252
340
255
340
258
340
25B
340
25E
340
261
340
264
340
267
340
26A
340
26D
340
270
340
273
340
276
340
279
340
27C
340
27F
340
282
340
285
340
288
340
28B
340
28E
340
291
340
294
340
297
340
29A
340
29D
340
2A0
340
2A3
340
2A6
340
2A9
340
2AC
340
2AF
340
2B2
340
2B5
340
2B8
340
2BB
340
2BE
340
2C1
340
2C4
340
2C7
340
2CA
340
2CD
340
2D0
340
2D3
340
2D6
340
2D9
340
2DC
340
2DF
340
2E2
  0
GROUP
  5
358
102
{ACAD_REACTORS
330
D
102
}
102
{ACAD_XDICTIONARY
360
359
102
}
330
D
100
AcDbGroup
300

 70
     0
 71
     1
340
346
340
349
340
34C
340
34F
340
352
340
355
  0
GROUP
  5
3D2
102
{ACAD_REACTORS
330
D
102
}
102
{ACAD_XDICTIONARY
360
3D3
102
}
330
D
100
AcDbGroup
300

 70
     0
 71
     1
340
3C0
340
3C3
340
3C6
340
3C9
340
3CC
340
3CF
  0
MATERIAL
  5
45
102
{ACAD_REACTORS
330
43
102
}
102
{ACAD_XDICTIONARY
360
41C
102
}
330
43
100
AcDbMaterial
  1
BYBLOCK
  0
MATERIAL
  5
44
102
{ACAD_REACTORS
330
43
102
}
102
{ACAD_XDICTIONARY
360
41A
102
}
330
43
100
AcDbMaterial
  1
BYLAYER
  0
MATERIAL
  5
46
102
{ACAD_REACTORS
330
43
102
}
102
{ACAD_XDICTIONARY
360
41E
102
}
330
43
100
AcDbMaterial
  1
GLOBAL
  0
ACAD_PROXY_OBJECT
  5
194
102
{ACAD_REACTORS
330
193
102
}
330
193
100
AcDbProxyObject
 90
      499
 91
      702
 93
      538
310
40901902A4063FBFFFFFE000000000000681FC000000000000D03F8000000000000D03F90140501A3A68A2CBAEBA308FC02B5E8DC0F42B1CFE5764000000000000300FC0
340
14
340
0
340
11
340
0
 94
        0
1001
ACAD_MLEADERVER
1070
     2
  0
MLINESTYLE
  5
18
102
{ACAD_REACTORS
330
17
102
}
330
17
100
AcDbMlineStyle
  2
Standard
 70
     0
  3

 62
     0
 51
90.0
 52
90.0
 71
     3
 49
0.25
 62
     0
  6
BYLAYER
 49
0.0
 62
     0
  6
BYLAYER
 49
-0.25
 62
     0
  6
BYLAYER
  0
ACAD_PROXY_OBJECT
  5
48
102
{ACAD_REACTORS
330
47
102
}
330
47
100
AcDbProxyObject
 90
      499
 91
      503
 93
       41
310
903313A31580
  0
ACAD_PROXY_OBJECT
  5
49
102
{ACAD_REACTORS
330
47
102
}
330
47
100
AcDbProxyObject
 90
      499
 91
      503
 93
      105
310
903313A324000000000000004000
  0
ACAD_PROXY_OBJECT
  5
4A
102
{ACAD_REACTORS
330
47
102
}
330
47
100
AcDbProxyObject
 90
      499
 91
      503
 93
      105
310
903313A344000000000000104000
  0
ACAD_PROXY_OBJECT
  5
4B
102
{ACAD_REACTORS
330
47
102
}
330
47
100
AcDbProxyObject
 90
      499
 91
      503
 93
      105
310
903313A354000000000000144000
  0
ACAD_PROXY_OBJECT
  5
4C
102
{ACAD_REACTORS
330
47
102
}
330
47
100
AcDbProxyObject
 90
      499
 91
      503
 93
      105
310
903313A384000000000000204000
  0
ACAD_PROXY_OBJECT
  5
4D
102
{ACAD_REACTORS
330
47
102
}
330
47
100
AcDbProxyObject
 90
      499
 91
      503
 93
      113
310
904313A31304000000000000244000
  0
ACAD_PROXY_OBJECT
  5
4E
102
{ACAD_REACTORS
330
47
102
}
330
47
100
AcDbProxyObject
 90
      499
 91
      503
 93
      113
310
904313A31364000000000000304000
  0
ACAD_PROXY_OBJECT
  5
4F
102
{ACAD_REACTORS
330
47
102
}
330
47
100
AcDbProxyObject
 90
      499
 91
      503
 93
      113
310
904313A32304000000000000344000
  0
ACAD_PROXY_OBJECT
  5
50
102
{ACAD_REACTORS
330
47
102
}
330
47
100
AcDbProxyObject
 90
      499
 91
      503
 93
      113
310
904313A333040000000000003E4000
  0
ACAD_PROXY_OBJECT
  5
51
102
{ACAD_REACTORS
330
47
102
}
330
47
100
AcDbProxyObject
 90
      499
 91
      503
 93
      113
310
904313A34304000000000000444000
  0
ACAD_PROXY_OBJECT
  5
52
102
{ACAD_REACTORS
330
47
102
}
330
47
100
AcDbProxyObject
 90
      499
 91
      503
 93
      113
310
904313A35304000000000000494000
  0
ACAD_PROXY_OBJECT
  5
53
102
{ACAD_REACTORS
330
47
102
}
330
47
100
AcDbProxyObject
 90
      499
 91
      503
 93
      121
310
905313A3130304000000000000594000
  0
ACAD_PROXY_OBJECT
  5
54
102
{ACAD_REACTORS
330
47
102
}
330
47
100
AcDbProxyObject
 90
      499
 91
      503
 93
      105
310
903323A310000000000000010100
  0
ACAD_PROXY_OBJECT
  5
55
102
{ACAD_REACTORS
330
47
102
}
330
47
100
AcDbProxyObject
 90
      499
 91
      503
 93
      105
310
903343A310000000000000410100
  0
ACAD_PROXY_OBJECT
  5
56
102
{ACAD_REACTORS
330
47
102
}
330
47
100
AcDbProxyObject
 90
      499
 91
      503
 93
      105
310
903383A310000000000000810100
  0
ACAD_PROXY_OBJECT
  5
57
102
{ACAD_REACTORS
330
47
102
}
330
47
100
AcDbProxyObject
 90
      499
 91
      503
 93
      113
310
90431303A310000000000000910100
  0
ACAD_PROXY_OBJECT
  5
58
102
{ACAD_REACTORS
330
47
102
}
330
47
100
AcDbProxyObject
 90
      499
 91
      503
 93
      121
310
9053130303A310000000000001650100
  0
ACAD_PROXY_OBJECT
  5
59
102
{ACAD_REACTORS
330
47
102
}
330
47
100
AcDbProxyObject
 90
      499
 91
      503
 93
      257
310
90E312F31323822203D2031272D3022000000000000200FC000000000000284000
  0
ACAD_PROXY_OBJECT
  5
5A
102
{ACAD_REACTORS
330
47
102
}
330
47
100
AcDbProxyObject
 90
      499
 91
      503
 93
      249
310
90D312F363422203D2031272D3022000000000000240FC000000000000284000
  0
ACAD_PROXY_OBJECT
  5
5B
102
{ACAD_REACTORS
330
47
102
}
330
47
100
AcDbProxyObject
 90
      499
 91
      503
 93
      249
310
90D312F333222203D2031272D3022000000000000280FC000000000000284000
  0
ACAD_PROXY_OBJECT
  5
5C
102
{ACAD_REACTORS
330
47
102
}
330
47
100
AcDbProxyObject
 90
      499
 91
      503
 93
      249
310
90D312F313622203D2031272D30220000000000002C0FC000000000000284000
  0
ACAD_PROXY_OBJECT
  5
5D
102
{ACAD_REACTORS
330
47
102
}
330
47
100
AcDbProxyObject
 90
      499
 91
      503
 93
      249
310
90D332F333222203D2031272D30220000000000002E0FC000000000000284000
  0
ACAD_PROXY_OBJECT
  5
5E
102
{ACAD_REACTORS
330
47
102
}
330
47
100
AcDbProxyObject
 90
      499
 91
      503
 93
      241
310
90C312F3822203D2031272D3022000000000000300FC000000000000284000
  0
ACAD_PROXY_OBJECT
  5
5F
102
{ACAD_REACTORS
330
47
102
}
330
47
100
AcDbProxyObject
 90
      499
 91
      503
 93
      249
310
90D332F313622203D2031272D3022000000000000320FC000000000000284000
  0
ACAD_PROXY_OBJECT
  5
60
102
{ACAD_REACTORS
330
47
102
}
330
47
100
AcDbProxyObject
 90
      499
 91
      503
 93
      241
310
90C312F3422203D2031272D3022000000000000340FC000000000000284000
  0
ACAD_PROXY_OBJECT
  5
61
102
{ACAD_REACTORS
330
47
102
}
330
47
100
AcDbProxyObject
 90
      499
 91
      503
 93
      241
310
90C332F3822203D2031272D3022000000000000360FC000000000000284000
  0
ACAD_PROXY_OBJECT
  5
62
102
{ACAD_REACTORS
330
47
102
}
330
47
100
AcDbProxyObject
 90
      499
 91
      503
 93
      241
310
90C312F3222203D2031272D3022000000000000380FC000000000000284000
  0
ACAD_PROXY_OBJECT
  5
63
102
{ACAD_REACTORS
330
47
102
}
330
47
100
AcDbProxyObject
 90
      499
 91
      503
 93
      241
310
90C332F3422203D2031272D30220000000000003A0FC000000000000284000
  0
ACAD_PROXY_OBJECT
  5
64
102
{ACAD_REACTORS
330
47
102
}
330
47
100
AcDbProxyObject
 90
      499
 91
      503
 93
      161
310
90A3122203D2031272D30224000000000000284000
  0
ACAD_PROXY_OBJECT
  5
65
102
{ACAD_REACTORS
330
47
102
}
330
47
100
AcDbProxyObject
 90
      499
 91
      503
 93
      257
310
90E312D312F3222203D2031272D30220000000000003E0FC000000000000284000
  0
ACAD_PROXY_OBJECT
  5
66
102
{ACAD_REACTORS
330
47
102
}
330
47
100
AcDbProxyObject
 90
      499
 91
      503
 93
      225
310
90A3322203D2031272D302200000000000002100000000000000284000
  0
ACAD_PROXY_OBJECT
  5
67
102
{ACAD_REACTORS
330
47
102
}
330
47
100
AcDbProxyObject
 90
      499
 91
      503
 93
      225
310
90A3622203D2031272D302200000000000006100000000000000284000
  0
ACAD_PROXY_OBJECT
  5
68
102
{ACAD_REACTORS
330
47
102
}
330
47
100
AcDbProxyObject
 90
      499
 91
      503
 93
      249
310
90D31272D3022203D2031272D30220000000000000A100000000000000284000
  0
ACAD_PROXY_OBJECT
  5
2F
102
{ACAD_REACTORS
330
2A
102
}
330
2A
100
AcDbProxyObject
 90
      499
 91
      501
 93
      436
310
42CC9915DA5C99599C985B595049028333333333333E33F0000000000000F90107901411070040501600405405064090741402480A0340
1001
ACAD
1000
AcDbSavedByObjectVersion
1070
     0
  0
ACAD_PROXY_OBJECT
  5
32
102
{ACAD_REACTORS
330
2A
102
}
330
2A
100
AcDbProxyObject
 90
      499
 91
      501
 93
      388
310
4150985CDA58D07406404333333333333E33F0000000000000F90107A41107004050150841D405064090741402480A0350
1001
ACAD
1000
AcDbSavedByObjectVersion
1070
     0
  0
ACAD_PROXY_OBJECT
  5
36
102
{ACAD_REACTORS
330
2A
102
}
330
2A
100
AcDbProxyObject
 90
      499
 91
      501
 93
      428
310
42109C9A59DA1D195B90C409028333333333333E33F0000000000000F9010790141107004050150841D405064090741402480A029950
1001
ACAD
1000
AcDbSavedByObjectVersion
1070
     0
  0
ACAD_PROXY_OBJECT
  5
3A
102
{ACAD_REACTORS
330
2A
102
}
330
2A
100
AcDbProxyObject
 90
      499
 91
      501
 93
      452
310
42D0DBDB1BDC90DA185B99D95104090240C333333333333E33F0000000000000F90108901411070040501508421405064090741402480A0350
1001
ACAD
1000
AcDbSavedByObjectVersion
1070
     0
  0
ACAD_PROXY_OBJECT
  5
34
102
{ACAD_REACTORS
330
2A
102
}
330
2A
100
AcDbProxyObject
 90
      499
 91
      501
 93
      500
310
4290DBDB98D95C1D1D585B10940D028333333333333E33F0000000000000F90107902409070040501000000000018199010841D405064090740C02480A0340
1001
ACAD
1000
AcDbSavedByObjectVersion
1070
     0
  0
ACAD_PROXY_OBJECT
  5
35
102
{ACAD_REACTORS
330
2A
102
}
330
2A
100
AcDbProxyObject
 90
      499
 91
      501
 93
      412
310
40D11A5B50B409028333333333333E33F0000000000000F9010790141107004050150841D405064090741402480A02677FFFFFD0
1001
ACAD
1000
AcDbSavedByObjectVersion
1070
     0
  0
ACAD_PROXY_OBJECT
  5
3D
102
{ACAD_REACTORS
330
2A
102
}
330
2A
100
AcDbProxyObject
 90
      499
 91
      501
 93
      452
310
43115919D950DBDB1BDC93D999916409028333333333333E33F0000000000000F9010790141107004050150841D405064090741402480A0350
1001
ACAD
1000
AcDbSavedByObjectVersion
1070
     0
  0
ACAD_PROXY_OBJECT
  5
39
102
{ACAD_REACTORS
330
2A
102
}
330
2A
100
AcDbProxyObject
 90
      499
 91
      501
 93
      444
310
42D19858D95C185D1D195C9B90F409028333333333333E33F0000000000000F9010790141107004050150841D405064090741402480A0350
1001
ACAD
1000
AcDbSavedByObjectVersion
1070
     0
  0
ACAD_PROXY_OBJECT
  5
2B
102
{ACAD_REACTORS
330
2A
102
}
330
2A
100
AcDbProxyObject
 90
      499
 91
      501
 93
      380
310
41119B185D240901404333333333333E33F0000000000000F9010740A907004050150841D405064090741402480A1B50
1001
ACAD
1000
AcDbSavedByObjectVersion
1070
     0
  0
ACAD_PROXY_OBJECT
  5
2C
102
{ACAD_REACTORS
330
2A
102
}
330
2A
100
AcDbProxyObject
 90
      499
 91
      501
 93
      468
310
43519B185D15DA5D1A115919D95CD0140901404333333333333E33F0000000000000F90107409019070040501600405405064090741402480A1B50
1001
ACAD
1000
AcDbSavedByObjectVersion
1070
     0
  0
ACAD_PROXY_OBJECT
  5
2D
102
{ACAD_REACTORS
330
2A
102
}
330
2A
100
AcDbProxyObject
 90
      499
 91
      501
 93
      404
310
41D1DBDD5C985D5910240902404333333333333E33F0000000000000F9010740A9070040501641D405064090741402480A1B50
1001
ACAD
1000
AcDbSavedByObjectVersion
1070
     0
  0
ACAD_PROXY_OBJECT
  5
2E
102
{ACAD_REACTORS
330
2A
102
}
330
2A
100
AcDbProxyObject
 90
      499
 91
      501
 93
      492
310
4411DBDD5C985D5915DA5D1A115919D95CD0340902404333333333333E33F0000000000000F90107409019070040501600405405064090741402480A1B50
1001
ACAD
1000
AcDbSavedByObjectVersion
1070
     0
  0
ACAD_PROXY_OBJECT
  5
31
102
{ACAD_REACTORS
330
2A
102
}
330
2A
100
AcDbProxyObject
 90
      499
 91
      501
 93
      476
310
41921A5919195B90640502408333333333333E33F0000000000000F901079024090700405020000000000001110200405405064090740C02480A0340
1001
ACAD
1000
AcDbSavedByObjectVersion
1070
     0
  0
ACAD_PROXY_OBJECT
  5
3B
102
{ACAD_REACTORS
330
2A
102
}
330
2A
100
AcDbProxyObject
 90
      499
 91
      501
 93
      428
310
42529A5D1D195C93D999914409028333333333333E33F0000000000000F9010790141107004050150A41D405064090741402480A0350
1001
ACAD
1000
AcDbSavedByObjectVersion
1070
     0
  0
ACAD_PROXY_OBJECT
  5
38
102
{ACAD_REACTORS
330
2A
102
}
330
2A
100
AcDbProxyObject
 90
      499
 91
      501
 93
      444
310
42D31A5B995C185D1D195C9B90E409028333333333333E33F0000000000000F9010790141107004050750841D405064090741402483A0350
1001
ACAD
1000
AcDbSavedByObjectVersion
1070
     0
  0
ACAD_PROXY_OBJECT
  5
3C
102
{ACAD_REACTORS
330
2A
102
}
330
2A
100
AcDbProxyObject
 90
      499
 91
      501
 93
      444
310
42D3DD995C9A185B99D3D999915409028333333333333E33F0000000000000F9010790141107004050150941D405064090741402480A0350
1001
ACAD
1000
AcDbSavedByObjectVersion
1070
     0
  0
ACAD_PROXY_OBJECT
  5
33
102
{ACAD_REACTORS
330
2A
102
}
330
2A
100
AcDbProxyObject
 90
      499
 91
      501
 93
      428
310
425499585B1A5CDD1A58D08409038333333333333E33F0000000000000F9010740A907004050150800405405064090740C02480A1B40
1001
ACAD
1000
AcDbSavedByObjectVersion
1070
     0
  0
ACAD_PROXY_OBJECT
  5
42
102
{ACAD_REACTORS
330
2A
102
}
330
2A
100
AcDbProxyObject
 90
      499
 91
      501
 93
      420
310
4194DA1859195911B40902404333333333333E33F0000000000000F9010740A41107004050150800405405064090840C02480A0B40
1001
ACAD
1000
AcDbSavedByObjectVersion
1070
     0
  0
ACAD_PROXY_OBJECT
  5
41
102
{ACAD_REACTORS
330
2A
102
}
330
2A
100
AcDbProxyObject
 90
      499
 91
      501
 93
      516
310
4454DA18591959081DDA5D1A08195919D95CD1A40902404333333333333E33F0000000000000F901074090142907004050250800405405064090740C02480A0B40
1001
ACAD
1000
AcDbSavedByObjectVersion
1070
     0
  0
ACAD_PROXY_OBJECT
  5
3E
102
{ACAD_REACTORS
330
2A
102
}
330
2A
100
AcDbProxyObject
 90
      499
 91
      501
 93
      532
310
4394DA1859195CC81BD98811DC985E5174090240C333333333333E33F0000000000000F901079024090741D01000000000000111010841D405064090740C02480A0340
1001
ACAD
1000
AcDbSavedByObjectVersion
1070
     0
  0
ACAD_PROXY_OBJECT
  5
3F
102
{ACAD_REACTORS
330
2A
102
}
330
2A
100
AcDbProxyObject
 90
      499
 91
      501
 93
      476
310
41D4DAD95D18DA1E51840502408333333333333E33F0000000000000F901079024090741D01000000000000111010B41D405064090741802480A0340
1001
ACAD
1000
AcDbSavedByObjectVersion
1070
     0
  0
ACAD_PROXY_OBJECT
  5
37
102
{ACAD_REACTORS
330
2A
102
}
330
2A
100
AcDbProxyObject
 90
      499
 91
      501
 93
      412
310
41D51A1A58DAD95B90D409028333333333333E33F0000000000000F9010790141107004050150C41D405064090741402480A0350
1001
ACAD
1000
AcDbSavedByObjectVersion
1070
     0
  0
ACAD_PROXY_OBJECT
  5
30
102
{ACAD_REACTORS
330
2A
102
}
330
2A
100
AcDbProxyObject
 90
      499
 91
      501
 93
      420
310
4255DA5C99599C985B595059028333333333333E33F0000000000000F90107901411070040501600405405064090740C02480A0340
1001
ACAD
1000
AcDbSavedByObjectVersion
1070
     0
  0
ACAD_PROXY_OBJECT
  5
40
102
{ACAD_REACTORS
330
2A
102
}
330
2A
100
AcDbProxyObject
 90
      499
 91
      501
 93
      404
310
41560B54985E51940902404000000000000E03F0000000000000F9010740501907004050150841D405064090740C02480A1B40
1001
ACAD
1000
AcDbSavedByObjectVersion
1070
     0
  0
XRECORD
  5
3FB
102
{ACAD_REACTORS
330
3F2
102
}
330
3F2
100
AcDbXrecord
 90
        0
  0
XRECORD
  5
411
102
{ACAD_REACTORS
330
3F2
102
}
330
3F2
100
AcDbXrecord
1000
DSTYLE
1002
{
1070
   179
 70
     2
1070
   171
 70
     2
1070
   143
 40
1.0
1070
   148
 40
0.01
1070
   274
 70
     2
1070
    41
 40
0.25
1070
   141
 40
0.0
1070
    43
 40
0.375
1070
   278
 70
    46
1070
    44
 40
0.125
1070
    42
 40
0.0625
1070
   276
 70
     2
1070
   147
 40
0.0625
1070
    45
 40
0.01
1070
   272
 70
     3
1070
    73
 70
     1
1070
   283
 70
     1
1070
   340
340
11
1070
   140
 40
0.1477272727272727
1070
   284
 70
     0
1070
    78
 70
     1
1070
    70
 70
     7
1070
   345
340
14
1070
   346
340
14
1070
   347
340
14
1002
}
  0
XRECORD
  5
3FC
102
{ACAD_REACTORS
330
3F2
102
}
330
3F2
100
AcDbXrecord
  1
{64530438-70A5-45B1-A5FF-B0172A1C0783}
  0
XRECORD
  5
3F5
102
{ACAD_REACTORS
330
3F2
102
}
330
3F2
100
AcDbXrecord
  1

  0
XRECORD
  5
3FA
102
{ACAD_REACTORS
330
3F2
102
}
330
3F2
100
AcDbXrecord
 90
        1
  0
XRECORD
  5
3F7
102
{ACAD_REACTORS
330
3F2
102
}
330
3F2
100
AcDbXrecord
340
1A
  0
XRECORD
  5
3F9
102
{ACAD_REACTORS
330
3F2
102
}
330
3F2
100
AcDbXrecord
 90
    10781
  0
XRECORD
  5
3F8
102
{ACAD_REACTORS
330
3F2
102
}
330
3F2
100
AcDbXrecord
340
19
  0
XRECORD
  5
3FE
102
{ACAD_REACTORS
330
3F2
102
}
330
3F2
100
AcDbXrecord
 40
0.0
  0
XRECORD
  5
401
102
{ACAD_REACTORS
330
3F2
102
}
330
3F2
100
AcDbXrecord
340
0
  0
XRECORD
  5
407
102
{ACAD_REACTORS
330
3F2
102
}
330
3F2
100
AcDbXrecord
 10
0.0
 20
0.0
 30
0.0
  0
XRECORD
  5
403
102
{ACAD_REACTORS
330
3F2
102
}
330
3F2
100
AcDbXrecord
 10
0.0
 20
0.0
 30
0.0
  0
XRECORD
  5
406
102
{ACAD_REACTORS
330
3F2
102
}
330
3F2
100
AcDbXrecord
 10
0.0
 20
0.0
 30
0.0
  0
XRECORD
  5
404
102
{ACAD_REACTORS
330
3F2
102
}
330
3F2
100
AcDbXrecord
 10
0.0
 20
0.0
 30
0.0
  0
XRECORD
  5
405
102
{ACAD_REACTORS
330
3F2
102
}
330
3F2
100
AcDbXrecord
 10
0.0
 20
0.0
 30
0.0
  0
XRECORD
  5
402
102
{ACAD_REACTORS
330
3F2
102
}
330
3F2
100
AcDbXrecord
 10
0.0
 20
0.0
 30
0.0
  0
XRECORD
  5
3FF
102
{ACAD_REACTORS
330
3F2
102
}
330
3F2
100
AcDbXrecord
340
0
  0
XRECORD
  5
400
102
{ACAD_REACTORS
330
3F2
102
}
330
3F2
100
AcDbXrecord
 70
     0
  0
XRECORD
  5
3F6
102
{ACAD_REACTORS
330
3F2
102
}
330
3F2
100
AcDbXrecord
  1

  0
XRECORD
  5
3F3
102
{ACAD_REACTORS
330
3F2
102
}
330
3F2
100
AcDbXrecord
 90
        1
  0
XRECORD
  5
3F4
102
{ACAD_REACTORS
330
3F2
102
}
330
3F2
100
AcDbXrecord
 90
       70
  0
XRECORD
  5
40A
102
{ACAD_REACTORS
330
3F2
102
}
330
3F2
100
AcDbXrecord
340
0
  0
XRECORD
  5
410
102
{ACAD_REACTORS
330
3F2
102
}
330
3F2
100
AcDbXrecord
 10
0.0
 20
0.0
 30
0.0
  0
XRECORD
  5
40C
102
{ACAD_REACTORS
330
3F2
102
}
330
3F2
100
AcDbXrecord
 10
0.0
 20
0.0
 30
0.0
  0
XRECORD
  5
40F
102
{ACAD_REACTORS
330
3F2
102
}
330
3F2
100
AcDbXrecord
 10
0.0
 20
0.0
 30
0.0
  0
XRECORD
  5
40D
102
{ACAD_REACTORS
330
3F2
102
}
330
3F2
100
AcDbXrecord
 10
0.0
 20
0.0
 30
0.0
  0
XRECORD
  5
40E
102
{ACAD_REACTORS
330
3F2
102
}
330
3F2
100
AcDbXrecord
 10
0.0
 20
0.0
 30
0.0
  0
XRECORD
  5
40B
102
{ACAD_REACTORS
330
3F2
102
}
330
3F2
100
AcDbXrecord
 10
0.0
 20
0.0
 30
0.0
  0
XRECORD
  5
408
102
{ACAD_REACTORS
330
3F2
102
}
330
3F2
100
AcDbXrecord
340
0
  0
XRECORD
  5
409
102
{ACAD_REACTORS
330
3F2
102
}
330
3F2
100
AcDbXrecord
 70
     0
  0
XRECORD
  5
3FD
102
{ACAD_REACTORS
330
3F2
102
}
330
3F2
100
AcDbXrecord
  1
{FAEB1C32-E019-11D5-929B-00C0DF256EC4}
  0
DICTIONARYVAR
  5
418
102
{ACAD_REACTORS
330
412
102
}
330
412
100
DictionaryVariables
280
     0
  1
1:1
  0
DICTIONARYVAR
  5
416
102
{ACAD_REACTORS
330
412
102
}
330
412
100
DictionaryVariables
280
     0
  1
2
  0
DICTIONARYVAR
  5
413
102
{ACAD_REACTORS
330
412
102
}
330
412
100
DictionaryVariables
280
     0
  1
0
  0
DICTIONARYVAR
  5
417
102
{ACAD_REACTORS
330
412
102
}
330
412
100
DictionaryVariables
280
     0
  1
1
  0
DICTIONARYVAR
  5
419
102
{ACAD_REACTORS
330
412
102
}
330
412
100
DictionaryVariables
280
     0
  1
1
  0
DICTIONARY
  5
359
330
358
100
AcDbDictionary
280
     1
  3
TC_EXTENDED_DATA
360
35A
  0
DICTIONARY
  5
3D3
330
3D2
100
AcDbDictionary
280
     1
  3
TC_EXTENDED_DATA
360
3D4
  0
DICTIONARY
  5
41C
330
45
100
AcDbDictionary
280
     1
  3
ACAD_XREC_ROUNDTRIP
360
41D
  0
DICTIONARY
  5
41A
330
44
100
AcDbDictionary
280
     1
  3
ACAD_XREC_ROUNDTRIP
360
41B
  0
DICTIONARY
  5
41E
330
46
100
AcDbDictionary
280
     1
  3
ACAD_XREC_ROUNDTRIP
360
41F
  0
TCOPTIONALDATA
  5
35A
102
{ACAD_REACTORS
330
359
102
}
330
359
100
TcOptionalData
 70
     2
 70
     2
 10
2.657598625588904
 20
6.414415351740697
 30
0.0
  0
TCOPTIONALDATA
  5
3D4
102
{ACAD_REACTORS
330
3D3
102
}
330
3D3
100
TcOptionalData
 70
     2
 70
     2
 10
2.885240330868132
 20
5.861774522532956
 30
0.0
  0
XRECORD
  5
41D
102
{ACAD_REACTORS
330
41C
102
}
330
41C
100
AcDbXrecord
102
MATERIAL
148
0.0
149
0.0
149
0.0
 93
        0
 94
      127
282
     0
 72
     1
 77
     1
171
     1
175
     1
179
     1
273
     0
  0
XRECORD
  5
41B
102
{ACAD_REACTORS
330
41A
102
}
330
41A
100
AcDbXrecord
102
MATERIAL
148
0.0
149
0.0
149
0.0
 93
        0
 94
      127
282
     0
 72
     1
 77
     1
171
     1
175
     1
179
     1
273
     0
  0
XRECORD
  5
41F
102
{ACAD_REACTORS
330
41E
102
}
330
41E
100
AcDbXrecord
102
MATERIAL
148
0.0
149
0.0
149
0.0
 93
        0
 94
      127
282
     0
 72
     1
 77
     1
171
     1
175
     1
179
     1
273
     0
  0
ENDSEC
  0
EOF
