  0
SECTION
  2
HEADER
  9
$ACADVER
  1
AC1014
  9
$ACADMAINTVER
 70
     9
  9
$DWGCODEPAGE
  3
ANSI_1252
  9
$INSBASE
 10
0.0
 20
0.0
 30
0.0
  9
$EXTMIN
 10
-17.62728207596907
 20
-26.12466721873737
 30
0.0
  9
$EXTMAX
 10
17.62728207596907
 20
26.12466721873737
 30
0.0000000000000016
  9
$LIMMIN
 10
-38.71427890105706
 20
-27.3736524993305
  9
$LIMMAX
 10
38.71329357784335
 20
27.37311592009402
  9
$ORTHOMODE
 70
     0
  9
$REGENMODE
 70
     1
  9
$FILLMODE
 70
     1
  9
$QTEXTMODE
 70
     0
  9
$MIRRTEXT
 70
     1
  9
$DRAGMODE
 70
     2
  9
$LTSCALE
 40
1.0
  9
$OSMODE
 70
    37
  9
$ATTMODE
 70
     1
  9
$TEXTSIZE
 40
0.25
  9
$TRACEWID
 40
0.05
  9
$TEXTSTYLE
  7
STANDARD
  9
$CLAYER
  8
0
  9
$CELTYPE
  6
BYLAYER
  9
$CECOLOR
 62
     1
  9
$CELTSCALE
 40
1.0
  9
$DELOBJ
 70
     1
  9
$DISPSILH
 70
     0
  9
$DIMSCALE
 40
1.0
  9
$DIMASZ
 40
0.18
  9
$DIMEXO
 40
0.0625
  9
$DIMDLI
 40
0.38
  9
$DIMRND
 40
0.0
  9
$DIMDLE
 40
0.0
  9
$DIMEXE
 40
0.18
  9
$DIMTP
 40
0.0
  9
$DIMTM
 40
0.0
  9
$DIMTXT
 40
0.18
  9
$DIMCEN
 40
0.09
  9
$DIMTSZ
 40
0.0
  9
$DIMTOL
 70
     0
  9
$DIMLIM
 70
     0
  9
$DIMTIH
 70
     1
  9
$DIMTOH
 70
     1
  9
$DIMSE1
 70
     0
  9
$DIMSE2
 70
     0
  9
$DIMTAD
 70
     0
  9
$DIMZIN
 70
     0
  9
$DIMBLK
  1

  9
$DIMASO
 70
     1
  9
$DIMSHO
 70
     1
  9
$DIMPOST
  1

  9
$DIMAPOST
  1
^B2147483648l^B
  9
$DIMALT
 70
     0
  9
$DIMALTD
 70
     2
  9
$DIMALTF
 40
25.4
  9
$DIMLFAC
 40
1.0
  9
$DIMTOFL
 70
     0
  9
$DIMTVP
 40
0.0
  9
$DIMTIX
 70
     0
  9
$DIMSOXD
 70
     0
  9
$DIMSAH
 70
     0
  9
$DIMBLK1
  1

  9
$DIMBLK2
  1

  9
$DIMSTYLE
  2
STANDARD
  9
$DIMCLRD
 70
     0
  9
$DIMCLRE
 70
     0
  9
$DIMCLRT
 70
     0
  9
$DIMTFAC
 40
1.0
  9
$DIMGAP
 40
0.09
  9
$DIMJUST
 70
     0
  9
$DIMSD1
 70
     0
  9
$DIMSD2
 70
     0
  9
$DIMTOLJ
 70
     1
  9
$DIMTZIN
 70
     0
  9
$DIMALTZ
 70
     0
  9
$DIMALTTZ
 70
     0
  9
$DIMFIT
 70
     3
  9
$DIMUPT
 70
     0
  9
$DIMUNIT
 70
     2
  9
$DIMDEC
 70
     4
  9
$DIMTDEC
 70
     4
  9
$DIMALTU
 70
     2
  9
$DIMALTTD
 70
     2
  9
$DIMTXSTY
  7
STANDARD
  9
$DIMAUNIT
 70
     0
  9
$LUNITS
 70
     2
  9
$LUPREC
 70
     3
  9
$SKETCHINC
 40
0.1
  9
$FILLETRAD
 40
0.5
  9
$AUNITS
 70
     0
  9
$AUPREC
 70
     0
  9
$MENU
  1
.
  9
$ELEVATION
 40
0.0
  9
$PELEVATION
 40
0.0
  9
$THICKNESS
 40
0.0
  9
$LIMCHECK
 70
     0
  9
$CHAMFERA
 40
0.0
  9
$CHAMFERB
 40
0.0
  9
$CHAMFERC
 40
0.0
  9
$CHAMFERD
 40
0.0
  9
$SKPOLY
 70
     0
  9
$TDCREATE
 40
2458790.421167893
  9
$TDUPDATE
 40
2458790.421204063
  9
$TDINDWG
 40
0.0
  9
$TDUSRTIMER
 40
0.0
  9
$USRTIMER
 70
     1
  9
$ANGBASE
 50
0.0
  9
$ANGDIR
 70
     0
  9
$PDMODE
 70
     0
  9
$PDSIZE
 40
0.0
  9
$PLINEWID
 40
0.0
  9
$COORDS
 70
     1
  9
$SPLFRAME
 70
     0
  9
$SPLINETYPE
 70
     5
  9
$SPLINESEGS
 70
    20
  9
$ATTDIA
 70
     0
  9
$ATTREQ
 70
     1
  9
$HANDLING
 70
     1
  9
$HANDSEED
  5
421
  9
$SURFTAB1
 70
     6
  9
$SURFTAB2
 70
     6
  9
$SURFTYPE
 70
     6
  9
$SURFU
 70
     6
  9
$SURFV
 70
     6
  9
$UCSNAME
  2

  9
$UCSORG
 10
0.0
 20
0.0
 30
0.0
  9
$UCSXDIR
 10
1.0
 20
0.0
 30
0.0
  9
$UCSYDIR
 10
0.0
 20
1.0
 30
0.0
  9
$PUCSNAME
  2

  9
$PUCSORG
 10
0.0
 20
0.0
 30
0.0
  9
$PUCSXDIR
 10
1.0
 20
0.0
 30
0.0
  9
$PUCSYDIR
 10
0.0
 20
1.0
 30
0.0
  9
$USERI1
 70
     0
  9
$USERI2
 70
     0
  9
$USERI3
 70
     0
  9
$USERI4
 70
     0
  9
$USERI5
 70
     0
  9
$USERR1
 40
0.0
  9
$USERR2
 40
0.0
  9
$USERR3
 40
0.0
  9
$USERR4
 40
0.0
  9
$USERR5
 40
0.0
  9
$WORLDVIEW
 70
     1
  9
$SHADEDGE
 70
     3
  9
$SHADEDIF
 70
    70
  9
$TILEMODE
 70
     1
  9
$MAXACTVP
 70
    64
  9
$PINSBASE
 10
0.0
 20
0.0
 30
0.0
  9
$PLIMCHECK
 70
     0
  9
$PEXTMIN
 10
0.0
 20
0.0
 30
0.0
  9
$PEXTMAX
 10
12.0
 20
9.0
 30
0.0
  9
$PLIMMIN
 10
0.0
 20
0.0
  9
$PLIMMAX
 10
12.0
 20
9.0
  9
$UNITMODE
 70
     0
  9
$VISRETAIN
 70
     1
  9
$PLINEGEN
 70
     0
  9
$PSLTSCALE
 70
     1
  9
$TREEDEPTH
 70
  3020
  9
$PICKSTYLE
 70
     1
  9
$CMLSTYLE
  2
STANDARD
  9
$CMLJUST
 70
     0
  9
$CMLSCALE
 40
1.0
  9
$PROXYGRAPHICS
 70
     1
  9
$MEASUREMENT
 70
     1
  0
ENDSEC
  0
SECTION
  2
CLASSES
  0
CLASS
  1
ACDBDICTIONARYWDFLT
  2
AcDbDictionaryWithDefault
  3
ObjectDBX Classes
 90
        0
280
     0
281
     0
  0
CLASS
  1
VISUALSTYLE
  2
AcDbVisualStyle
  3
ObjectDBX Classes
 90
     4095
280
     0
281
     0
  0
CLASS
  1
MATERIAL
  2
AcDbMaterial
  3
ObjectDBX Classes
 90
     1153
280
     0
281
     0
  0
CLASS
  1
SCALE
  2
AcDbScale
  3
ObjectDBX Classes
 90
     1153
280
     0
281
     0
  0
CLASS
  1
SUN
  2
AcDbSun
  3
SCENEOE
 90
     1153
280
     0
281
     0
  0
CLASS
  1
AEC_VARS_DWG_SETUP
  2
AecDbVarsDwgSetup
  3
AecBase60
 90
      129
280
     0
281
     0
  0
CLASS
  1
AEC_DISP_REP_2D_SECTION
  2
AecDbDispRep2dSection
  3
AecBase60
 90
      129
280
     0
281
     0
  0
CLASS
  1
AEC_DISP_PROPS_2D_SECTION
  2
AecDbDispProps2dSection
  3
AecBase60
 90
      129
280
     0
281
     0
  0
CLASS
  1
AEC_DISP_REP_CLIP_VOLUME_MODEL
  2
AecDbDispRepClipVolModel
  3
AecBase60
 90
      129
280
     0
281
     0
  0
CLASS
  1
AEC_DISP_PROPS_CLIP_VOLUME
  2
AecDbDispPropsClipVol
  3
AecBase60
 90
      129
280
     0
281
     0
  0
CLASS
  1
AEC_DISP_REP_CLIP_VOLUME_PLAN
  2
AecDbDispRepClipVolPlan
  3
AecBase60
 90
      129
280
     0
281
     0
  0
CLASS
  1
AEC_DISP_REP_CLIP_VOLUME_RESULT
  2
AecDbDispRepClipVolResult
  3
AecBase60
 90
      129
280
     0
281
     0
  0
CLASS
  1
AEC_DISP_REP_CLIP_VOLUME_RESULT_SUBDIV
  2
AecDbDispRepClipVolResSubDiv
  3
AecBase60
 90
      129
280
     0
281
     0
  0
CLASS
  1
AEC_DISP_PROPS_CLIP_VOLUME_RESULT
  2
AecDbDispPropsClipVolResSubDiv
  3
AecBase60
 90
      129
280
     0
281
     0
  0
CLASS
  1
AEC_DISP_REP_DISPLAYTHEME
  2
AecDbDispRepDisplayTheme
  3
AecBase60
 90
      129
280
     0
281
     0
  0
CLASS
  1
AEC_DISP_PROPS_DISPLAYTHEME
  2
AecDbDispPropsDisplayTheme
  3
AecBase60
 90
      129
280
     0
281
     0
  0
CLASS
  1
AEC_DISP_REP_ENT_REF
  2
AecDbDispRepEntRef
  3
AecBase60
 90
      129
280
     0
281
     0
  0
CLASS
  1
AEC_DISP_PROPS_ENT_REF
  2
AecDbDispPropsEntRef
  3
AecBase60
 90
      129
280
     0
281
     0
  0
CLASS
  1
AEC_DISP_REP_LAYOUT_CURVE
  2
AecDbDispRepLayoutCurve
  3
AecBase60
 90
      129
280
     0
281
     0
  0
CLASS
  1
AEC_DISP_PROPS_LAYOUT_CURVE
  2
AecDbDispPropsLayoutCurve
  3
AecBase60
 90
      129
280
     0
281
     0
  0
CLASS
  1
AEC_DISP_REP_LAYOUT_GRID2D
  2
AecDbDispRepLayoutGrid2d
  3
AecBase60
 90
      129
280
     0
281
     0
  0
CLASS
  1
AEC_DISP_PROPS_LAYOUT_GRID2D
  2
AecDbDispPropsLayoutGrid2d
  3
AecBase60
 90
      129
280
     0
281
     0
  0
CLASS
  1
AEC_DISP_REP_LAYOUT_GRID3D
  2
AecDbDispRepLayoutGrid3d
  3
AecBase60
 90
      129
280
     0
281
     0
  0
CLASS
  1
AEC_DISP_PROPS_LAYOUT_GRID3D
  2
AecDbDispPropsLayoutGrid3d
  3
AecBase60
 90
      129
280
     0
281
     0
  0
CLASS
  1
AEC_DISP_REP_MASKBLOCK_REF
  2
AecDbDispRepMaskBlockRef
  3
AecBase60
 90
      129
280
     0
281
     0
  0
CLASS
  1
AEC_DISP_PROPS_MASKBLOCK
  2
AecDbDispPropsMaskBlock
  3
AecBase60
 90
      129
280
     0
281
     0
  0
CLASS
  1
AEC_DISP_REP_MASKBLOCK_REF_RCP
  2
AecDbDispRepMaskBlockRefRcp
  3
AecArchBase60
 90
      129
280
     0
281
     0
  0
CLASS
  1
AEC_DISP_REP_MASS_ELEM_MODEL
  2
AecDbDispRepMassElemModel
  3
AecBase60
 90
      129
280
     0
281
     0
  0
CLASS
  1
AEC_DISP_PROPS_MASS_ELEM_MODEL
  2
AecDbDispPropsMassElem
  3
AecBase60
 90
      129
280
     0
281
     0
  0
CLASS
  1
AEC_DISP_REP_MASS_ELEM_SCHEM
  2
AecDbDispRepMassElemSchem
  3
AecBase60
 90
      129
280
     0
281
     0
  0
CLASS
  1
AEC_DISPREPAECDBDISPREPMASSELEMPLAN50
  2
AecDbDispRepMassElemPlan50
  3
AecArchDACHBase60
 90
      129
280
     0
281
     0
  0
CLASS
  1
AEC_DISPROPSMASSELEMPLANCOMMON
  2
AecDbDispPropsMassElemPlanCommon
  3
AecArchDACHBase60
 90
      129
280
     0
281
     0
  0
CLASS
  1
AEC_DISPREPAECDBDISPREPMASSELEMPLAN100
  2
AecDbDispRepMassElemPlan100
  3
AecArchDACHBase60
 90
      129
280
     0
281
     0
  0
CLASS
  1
AEC_DISP_REP_MASS_ELEM_RCP
  2
AecDbDispRepMassElemRcp
  3
AecArchBase60
 90
      129
280
     0
281
     0
  0
CLASS
  1
AEC_DISP_REP_MASS_GROUP_MODEL
  2
AecDbDispRepMassGroupModel
  3
AecBase60
 90
      129
280
     0
281
     0
  0
CLASS
  1
AEC_DISP_PROPS_MASS_GROUP
  2
AecDbDispPropsMassGroup
  3
AecBase60
 90
      129
280
     0
281
     0
  0
CLASS
  1
AEC_DISP_REP_MASS_GROUP_PLAN
  2
AecDbDispRepMassGroupPlan
  3
AecBase60
 90
      129
280
     0
281
     0
  0
CLASS
  1
AEC_DISPREPAECDBDISPREPMASSGROUPPLAN50
  2
AecDbDispRepMassGroupPlan50
  3
AecArchDACHBase60
 90
      129
280
     0
281
     0
  0
CLASS
  1
AEC_DISPROPSMASSGROUPPLANCOMMON
  2
AecDbDispPropsMassGroupPlanCommon
  3
AecArchDACHBase60
 90
      129
280
     0
281
     0
  0
CLASS
  1
AEC_DISPREPAECDBDISPREPMASSGROUPPLAN100
  2
AecDbDispRepMassGroupPlan100
  3
AecArchDACHBase60
 90
      129
280
     0
281
     0
  0
CLASS
  1
AEC_DISP_REP_MASS_GROUP_RCP
  2
AecDbDispRepMassGroupRcp
  3
AecArchBase60
 90
      129
280
     0
281
     0
  0
CLASS
  1
AEC_DISP_REP_MVBLOCK_REF
  2
AecDbDispRepMvBlockRef
  3
AecBase60
 90
      129
280
     0
281
     0
  0
CLASS
  1
AEC_DISP_REP_MVBLOCK_REF_MODEL
  2
AecDbDispRepMvBlockRefModel
  3
AecBase60
 90
      129
280
     0
281
     0
  0
CLASS
  1
AEC_AECDBDISPREPMVBLOCKREFPLAN100
  2
AecDbDispRepMvBlockRefPlan100
  3
AecBase60
 90
      129
280
     0
281
     0
  0
CLASS
  1
AEC_AECDBDISPREPMVBLOCKREFPLAN50
  2
AecDbDispRepMvBlockRefPlan50
  3
AecBase60
 90
      129
280
     0
281
     0
  0
CLASS
  1
AEC_DISP_REP_POLYGON_MODEL
  2
AecDbDispRepPolygonModel
  3
AecBase60
 90
      129
280
     0
281
     0
  0
CLASS
  1
AEC_DISP_PROPS_POLYGON_MODEL
  2
AecDbDispPropsPolygonModel
  3
AecBase60
 90
      129
280
     0
281
     0
  0
CLASS
  1
AEC_DISP_REP_POLYGON_TRUECOLOUR
  2
AecDbDispRepPolygonTrueColour
  3
AecBase60
 90
      129
280
     0
281
     0
  0
CLASS
  1
AEC_DISP_PROPS_POLYGON_TRUECOLOUR
  2
AecDbDispPropsPolygonTrueColour
  3
AecBase60
 90
      129
280
     0
281
     0
  0
CLASS
  1
AEC_DISP_REP_SLICE
  2
AecDbDispRepSlice
  3
AecBase60
 90
      129
280
     0
281
     0
  0
CLASS
  1
AEC_DISP_PROPS_SLICE
  2
AecDbDispPropsSlice
  3
AecBase60
 90
      129
280
     0
281
     0
  0
CLASS
  1
AEC_DISP_REP_ANCHOR
  2
AecDbDispRepAnchor
  3
AecBase60
 90
      129
280
     0
281
     0
  0
CLASS
  1
AEC_DISP_REP_ANCHOR_ENT_TO_NODE
  2
AecDbDispRepAnchorEntToNode
  3
AecBase60
 90
      129
280
     0
281
     0
  0
CLASS
  1
AEC_DISP_PROPS_ENT
  2
AecDbDispPropsEnt
  3
AecBase60
 90
      129
280
     0
281
     0
  0
CLASS
  1
AEC_DISP_REP_MATERIAL
  2
AecDbDispRepMaterial
  3
AecBase60
 90
      129
280
     0
281
     0
  0
CLASS
  1
AEC_DISP_PROPS_MATERIAL
  2
AecDbDispPropsMaterial
  3
AecBase60
 90
      129
280
     0
281
     0
  0
CLASS
  1
AEC_DISP_REP_EDITINPLACEPROFILE
  2
AecDbDispRepEditInPlaceProfile
  3
AecBase60
 90
      129
280
     0
281
     0
  0
CLASS
  1
AEC_DISP_PROPS_EDITINPLACEPROFILE_MODEL
  2
AecDbDispPropsEditInPlaceProfile
  3
AecBase60
 90
      129
280
     0
281
     0
  0
CLASS
  1
AEC_VARS_ARCHBASE
  2
AecDbVarsArchBase
  3
AecArchBase60
 90
      129
280
     0
281
     0
  0
CLASS
  1
AEC_DISP_REP_BDG_ELEVLINE_PLAN
  2
AecDbDispRepBdgElevLinePlan
  3
AecArchBase60
 90
      129
280
     0
281
     0
  0
CLASS
  1
AEC_DISP_REP_BDG_ELEVLINE_MODEL
  2
AecDbDispRepBdgElevLineModel
  3
AecArchBase60
 90
      129
280
     0
281
     0
  0
CLASS
  1
AEC_DISP_REP_BDG_ELEVLINE_RCP
  2
AecDbDispRepBdgElevLineRcp
  3
AecArchBase60
 90
      129
280
     0
281
     0
  0
CLASS
  1
AEC_AECDBDISPREPBDGELEVLINEPLAN100
  2
AecDbDispRepBdgElevLinePlan100
  3
AecBase60
 90
      129
280
     0
281
     0
  0
CLASS
  1
AEC_AECDBDISPREPBDGELEVLINEPLAN50
  2
AecDbDispRepBdgElevLinePlan50
  3
AecBase60
 90
      129
280
     0
281
     0
  0
CLASS
  1
AEC_DISP_REP_BDG_SECTIONLINE_MODEL
  2
AecDbDispRepBdgSectionLineModel
  3
AecArchBase60
 90
      129
280
     0
281
     0
  0
CLASS
  1
AEC_DISP_REP_BDG_SECTIONLINE_PLAN
  2
AecDbDispRepBdgSectionLinePlan
  3
AecArchBase60
 90
      129
280
     0
281
     0
  0
CLASS
  1
AEC_DISP_REP_BDG_SECTIONLINE_RCP
  2
AecDbDispRepBdgSectionLineRcp
  3
AecArchBase60
 90
      129
280
     0
281
     0
  0
CLASS
  1
AEC_AECDBDISPREPBDGSECTIONLINEPLAN100
  2
AecDbDispRepBdgSectionLinePlan100
  3
AecBase60
 90
      129
280
     0
281
     0
  0
CLASS
  1
AEC_AECDBDISPREPBDGSECTIONLINEPLAN50
  2
AecDbDispRepBdgSectionLinePlan50
  3
AecBase60
 90
      129
280
     0
281
     0
  0
CLASS
  1
AEC_DISP_REP_BDG_SECTION_SUBDIV
  2
AecDbDispRepBdgSectionSubDiv
  3
AecArchBase60
 90
      129
280
     0
281
     0
  0
CLASS
  1
AEC_DISP_REP_BDG_SECTION_MODEL
  2
AecDbDispRepBdgSectionModel
  3
AecArchBase60
 90
      129
280
     0
281
     0
  0
CLASS
  1
AEC_DISP_REP_CEILING_GRID
  2
AecDbDispRepCeilingGrid
  3
AecArchBase60
 90
      893
280
     0
281
     0
  0
CLASS
  1
AEC_DISP_REP_CEILING_GRID_MODEL
  2
AecDbDispRepCeilingGridModel
  3
AecArchBase60
 90
      129
280
     0
281
     0
  0
CLASS
  1
AEC_DISP_REP_CEILING_GRID_RCP
  2
AecDbDispRepCeilingGridRcp
  3
AecArchBase60
 90
      129
280
     0
281
     0
  0
CLASS
  1
AEC_AECDBDISPREPCEILINGGRIDPLAN100
  2
AecDbDispRepCeilingGridPlan100
  3
AecBase60
 90
      129
280
     0
281
     0
  0
CLASS
  1
AEC_AECDBDISPREPCEILINGGRIDPLAN50
  2
AecDbDispRepCeilingGridPlan50
  3
AecBase60
 90
      129
280
     0
281
     0
  0
CLASS
  1
AEC_DISP_REP_CURTAIN_WALL_LAYOUT_MODEL
  2
AecDbDispRepCurtainWallLayoutModel
  3
AecArchBase60
 90
      129
280
     0
281
     0
  0
CLASS
  1
AEC_DISP_PROPS_GRID_ASSEMBLY_MODEL
  2
AecDbDispPropsGridAssemblyModel
  3
AecArchBase60
 90
      129
280
     0
281
     0
  0
CLASS
  1
AEC_DISP_REP_CURTAIN_WALL_LAYOUT_PLAN
  2
AecDbDispRepCurtainWallLayoutPlan
  3
AecArchBase60
 90
      129
280
     0
281
     0
  0
CLASS
  1
AEC_DISP_PROPS_GRID_ASSEMBLY_PLAN
  2
AecDbDispPropsGridAssemblyPlan
  3
AecArchBase60
 90
      129
280
     0
281
     0
  0
CLASS
  1
AEC_AECDBDISPREPCURTAINWALLLAYOUTPLAN100
  2
AecDbDispRepCurtainWallLayoutPlan100
  3
AecBase60
 90
      129
280
     0
281
     0
  0
CLASS
  1
AEC_AECDBDISPREPCURTAINWALLLAYOUTPLAN50
  2
AecDbDispRepCurtainWallLayoutPlan50
  3
AecBase60
 90
      129
280
     0
281
     0
  0
CLASS
  1
AEC_DISP_REP_CURTAIN_WALL_UNIT_MODEL
  2
AecDbDispRepCurtainWallUnitModel
  3
AecArchBase60
 90
      129
280
     0
281
     0
  0
CLASS
  1
AEC_DISP_REP_CURTAIN_WALL_UNIT_PLAN
  2
AecDbDispRepCurtainWallUnitPlan
  3
AecArchBase60
 90
      129
280
     0
281
     0
  0
CLASS
  1
AEC_AECDBDISPREPCURTAINWALLUNITPLAN100
  2
AecDbDispRepCurtainWallUnitPlan100
  3
AecBase60
 90
      129
280
     0
281
     0
  0
CLASS
  1
AEC_AECDBDISPREPCURTAINWALLUNITPLAN50
  2
AecDbDispRepCurtainWallUnitPlan50
  3
AecBase60
 90
      129
280
     0
281
     0
  0
CLASS
  1
AEC_DISP_REP_DOOR_MODEL
  2
AecDbDispRepDoorModel
  3
AecArchBase60
 90
      129
280
     0
281
     0
  0
CLASS
  1
AEC_DISP_PROPS_DOOR
  2
AecDbDispPropsDoor
  3
AecArchBase60
 90
      129
280
     0
281
     0
  0
CLASS
  1
AEC_DISP_REP_DOOR_ELEV
  2
AecDbDispRepDoorElev
  3
AecArchBase60
 90
      129
280
     0
281
     0
  0
CLASS
  1
AEC_DISP_REP_DOOR_PLAN
  2
AecDbDispRepDoorPlan
  3
AecArchBase60
 90
      129
280
     0
281
     0
  0
CLASS
  1
AEC_DISP_REP_DOOR_NOMINAL
  2
AecDbDispRepDoorNominal
  3
AecArchBase60
 90
      129
280
     0
281
     0
  0
CLASS
  1
AEC_DISP_PROPS_DOOR_NOMINAL
  2
AecDbDispPropsDoorNominal
  3
AecArchBase60
 90
      129
280
     0
281
     0
  0
CLASS
  1
AEC_DISP_REP_DOOR_THRESHOLD_PLAN
  2
AecDbDispRepDoorThresholdPlan
  3
AecArchBase60
 90
      129
280
     0
281
     0
  0
CLASS
  1
AEC_DISP_PROPS_DOOR_THRESHOLD_PLAN
  2
AecDbDispPropsDoorThresholdPlan
  3
AecArchBase60
 90
      129
280
     0
281
     0
  0
CLASS
  1
AEC_DISP_REP_DOOR_PLAN_50
  2
AecDbDispRepDoorPlan50
  3
AecArchDACHBase60
 90
      129
280
     0
281
     0
  0
CLASS
  1
AEC_DISP_PROPS_DOOR_PLAN_50
  2
AecDbDispPropsDoorPlan50
  3
AecArchDACHBase60
 90
      129
280
     0
281
     0
  0
CLASS
  1
AEC_DISP_REP_DOOR_PLAN_HEKTO
  2
AecDbDispRepDoorPlanHekto
  3
AecArchDACHBase60
 90
      129
280
     0
281
     0
  0
CLASS
  1
AEC_DISP_PROPS_DOOR_PLAN_100
  2
AecDbDispPropsDoorPlan100
  3
AecArchDACHBase60
 90
      129
280
     0
281
     0
  0
CLASS
  1
AEC_DISP_REP_DOOR_RCP
  2
AecDbDispRepDoorRcp
  3
AecArchBase60
 90
      129
280
     0
281
     0
  0
CLASS
  1
AEC_DISP_REP_DOOR_THRESHOLD_SYMBOL_PLAN
  2
AecDbDispRepDoorThresholdSymbolPlan
  3
AecArchDACHBase60
 90
      129
280
     0
281
     0
  0
CLASS
  1
AEC_DISP_PROPS_DOOR_THRESHOLD_SYMBOL_PLAN
  2
AecDbDispPropsDoorThresholdSymbolPlan
  3
AecArchDACHBase60
 90
      129
280
     0
281
     0
  0
CLASS
  1
AEC_DISP_REP_OPENING
  2
AecDbDispRepOpening
  3
AecArchBase60
 90
      129
280
     0
281
     0
  0
CLASS
  1
AEC_DISP_PROPS_OPENING
  2
AecDbDispPropsOpening
  3
AecArchBase60
 90
      129
280
     0
281
     0
  0
CLASS
  1
AEC_DISP_REP_OPENING_MODEL
  2
AecDbDispRepOpeningModel
  3
AecArchBase60
 90
      129
280
     0
281
     0
  0
CLASS
  1
AEC_DISPREPAECDBDISPREPOPENINGPLAN100
  2
AecDbDispRepOpeningPlan100
  3
AecArchDACHBase60
 90
      129
280
     0
281
     0
  0
CLASS
  1
AEC_DISPROPSOPENINGPLANCOMMONHATCHED
  2
AecDbDispPropsOpeningPlanCommonHatched
  3
AecArchDACHBase60
 90
      129
280
     0
281
     0
  0
CLASS
  1
AEC_DISPREPAECDBDISPREPOPENINGPLAN50
  2
AecDbDispRepOpeningPlan50
  3
AecArchDACHBase60
 90
      129
280
     0
281
     0
  0
CLASS
  1
AEC_DISPREPAECDBDISPREPOPENINGPLANREFLECTED
  2
AecDbDispRepOpeningPlanReflected
  3
AecArchDACHBase60
 90
      129
280
     0
281
     0
  0
CLASS
  1
AEC_DISPROPSOPENINGPLANCOMMON
  2
AecDbDispPropsOpeningPlanCommon
  3
AecArchDACHBase60
 90
      129
280
     0
281
     0
  0
CLASS
  1
AEC_DISPREPAECDBDISPREPOPENINGSILLPLAN
  2
AecDbDispRepOpeningSillPlan
  3
AecArchDACHBase60
 90
      129
280
     0
281
     0
  0
CLASS
  1
AEC_DISPROPSOPENINGSILLPLAN
  2
AecDbDispPropsOpeningSillPlan
  3
AecArchDACHBase60
 90
      129
280
     0
281
     0
  0
CLASS
  1
AEC_DISP_REP_RAILING_MODEL
  2
AecDbDispRepRailingModel
  3
AecArchBase60
 90
      129
280
     0
281
     0
  0
CLASS
  1
AEC_DISP_PROPS_RAILING_MODEL
  2
AecDbDispPropsRailingModel
  3
AecArchBase60
 90
      129
280
     0
281
     0
  0
CLASS
  1
AEC_DISP_REP_RAILING_PLAN
  2
AecDbDispRepRailingPlan
  3
AecArchBase60
 90
      129
280
     0
281
     0
  0
CLASS
  1
AEC_DISP_PROPS_RAILING_PLAN
  2
AecDbDispPropsRailingPlan
  3
AecArchBase60
 90
      129
280
     0
281
     0
  0
CLASS
  1
AEC_DISP_REP_RAILING_PLAN_100
  2
AecDbDispRepRailingPlan100
  3
AecArchDACHBase60
 90
      129
280
     0
281
     0
  0
CLASS
  1
AEC_DISP_ROPS_RAILING_PLAN_100
  2
AecDbDispPropsRailingPlan100
  3
AecArchDACHBase60
 90
      129
280
     0
281
     0
  0
CLASS
  1
AEC_DISP_REP_RAILING_PLAN_50
  2
AecDbDispRepRailingPlan50
  3
AecArchDACHBase60
 90
      129
280
     0
281
     0
  0
CLASS
  1
AEC_DISP_ROPS_RAILING_PLAN_50
  2
AecDbDispPropsRailingPlan50
  3
AecArchDACHBase60
 90
      129
280
     0
281
     0
  0
CLASS
  1
AEC_DISP_REP_ROOF_MODEL
  2
AecDbDispRepRoofModel
  3
AecArchBase60
 90
      129
280
     0
281
     0
  0
CLASS
  1
AEC_DISP_PROPS_ROOF
  2
AecDbDispPropsRoof
  3
AecArchBase60
 90
      129
280
     0
281
     0
  0
CLASS
  1
AEC_DISP_REP_ROOF_PLAN
  2
AecDbDispRepRoofPlan
  3
AecArchBase60
 90
      129
280
     0
281
     0
  0
CLASS
  1
AEC_DISP_REP_ROOF_RCP
  2
AecDbDispRepRoofRcp
  3
AecArchBase60
 90
      129
280
     0
281
     0
  0
CLASS
  1
AEC_AECDBDISPREPROOFPLAN100
  2
AecDbDispRepRoofPlan100
  3
AecBase60
 90
      129
280
     0
281
     0
  0
CLASS
  1
AEC_AECDBDISPREPROOFPLAN50
  2
AecDbDispRepRoofPlan50
  3
AecBase60
 90
      129
280
     0
281
     0
  0
CLASS
  1
AEC_DISP_REP_ROOFSLAB_MODEL
  2
AecDbDispRepRoofSlabModel
  3
AecArchBase60
 90
      129
280
     0
281
     0
  0
CLASS
  1
AEC_DISP_PROPS_ROOFSLAB
  2
AecDbDispPropsRoofSlab
  3
AecArchBase60
 90
      129
280
     0
281
     0
  0
CLASS
  1
AEC_DISP_REP_ROOFSLAB_PLAN
  2
AecDbDispRepRoofSlabPlan
  3
AecArchBase60
 90
      129
280
     0
281
     0
  0
CLASS
  1
AEC_DISP_PROPS_ROOFSLAB_PLAN
  2
AecDbDispPropsRoofSlabPlan
  3
AecArchBase60
 90
      129
280
     0
281
     0
  0
CLASS
  1
AEC_AECDBDISPREPROOFSLABPLAN100
  2
AecDbDispRepRoofSlabPlan100
  3
AecBase60
 90
      129
280
     0
281
     0
  0
CLASS
  1
AEC_AECDBDISPREPROOFSLABPLAN50
  2
AecDbDispRepRoofSlabPlan50
  3
AecBase60
 90
      129
280
     0
281
     0
  0
CLASS
  1
AEC_DISP_REP_SLAB_MODEL
  2
AecDbDispRepSlabModel
  3
AecArchBase60
 90
      129
280
     0
281
     0
  0
CLASS
  1
AEC_DISP_PROPS_SLAB
  2
AecDbDispPropsSlab
  3
AecArchBase60
 90
      129
280
     0
281
     0
  0
CLASS
  1
AEC_DISP_REP_SLAB_PLAN
  2
AecDbDispRepSlabPlan
  3
AecArchBase60
 90
      129
280
     0
281
     0
  0
CLASS
  1
AEC_DISP_PROPS_SLAB_PLAN
  2
AecDbDispPropsSlabPlan
  3
AecArchBase60
 90
      129
280
     0
281
     0
  0
CLASS
  1
AEC_AECDBDISPREPSLABPLAN100
  2
AecDbDispRepSlabPlan100
  3
AecBase60
 90
      129
280
     0
281
     0
  0
CLASS
  1
AEC_AECDBDISPREPSLABPLAN50
  2
AecDbDispRepSlabPlan50
  3
AecBase60
 90
      129
280
     0
281
     0
  0
CLASS
  1
AEC_DISP_REP_SPACE_MODEL
  2
AecDbDispRepSpaceModel
  3
AecArchBase60
 90
      129
280
     0
281
     0
  0
CLASS
  1
AEC_DISP_PROPS_SPACE_MODEL
  2
AecDbDispPropsSpaceModel
  3
AecArchBase60
 90
      129
280
     0
281
     0
  0
CLASS
  1
AEC_DISP_REP_SPACE_PLAN
  2
AecDbDispRepSpacePlan
  3
AecArchBase60
 90
      129
280
     0
281
     0
  0
CLASS
  1
AEC_DISP_PROPS_SPACE_PLAN
  2
AecDbDispPropsSpacePlan
  3
AecArchBase60
 90
      129
280
     0
281
     0
  0
CLASS
  1
AEC_DISP_REP_SPACE_RCP
  2
AecDbDispRepSpaceRcp
  3
AecArchBase60
 90
      129
280
     0
281
     0
  0
CLASS
  1
AEC_DISP_REP_SPACE_VOLUME
  2
AecDbDispRepSpaceVolume
  3
AecArchBase60
 90
      129
280
     0
281
     0
  0
CLASS
  1
AEC_DISP_REP_SPACE_DECOMPOSED
  2
AecDbDispRepSpaceDecomposed
  3
AecArchBase60
 90
      129
280
     0
281
     0
  0
CLASS
  1
AEC_DISP_PROPS_SPACE_DECOMPOSED
  2
AecDbDispPropsSpaceDecomposed
  3
AecArchBase60
 90
      129
280
     0
281
     0
  0
CLASS
  1
AEC_AECDBDISPREPSPACEPLAN100
  2
AecDbDispRepSpacePlan100
  3
AecBase60
 90
      129
280
     0
281
     0
  0
CLASS
  1
AEC_AECDBDISPREPSPACEPLAN50
  2
AecDbDispRepSpacePlan50
  3
AecBase60
 90
      129
280
     0
281
     0
  0
CLASS
  1
AEC_DISP_REP_STAIR_MODEL
  2
AecDbDispRepStairModel
  3
AecArchBase60
 90
      129
280
     0
281
     0
  0
CLASS
  1
AEC_DISP_PROPS_STAIR_MODEL
  2
AecDbDispPropsStairModel
  3
AecArchBase60
 90
      129
280
     0
281
     0
  0
CLASS
  1
AEC_DISP_REP_STAIR_PLAN
  2
AecDbDispRepStairPlan
  3
AecArchBase60
 90
      129
280
     0
281
     0
  0
CLASS
  1
AEC_DISP_PROPS_STAIR_PLAN
  2
AecDbDispPropsStairPlan
  3
AecArchBase60
 90
      129
280
     0
281
     0
  0
CLASS
  1
AEC_DISP_REP_STAIR_RCP
  2
AecDbDispRepStairRcp
  3
AecArchBase60
 90
      129
280
     0
281
     0
  0
CLASS
  1
AEC_DISP_REP_STAIR_PLAN_100
  2
AecDbDispRepStairPlan100
  3
AecArchDACHBase60
 90
      129
280
     0
281
     0
  0
CLASS
  1
AEC_DISP_ROPS_STAIR_PLAN_100
  2
AecDbDispPropsStairPlan100
  3
AecArchDACHBase60
 90
      129
280
     0
281
     0
  0
CLASS
  1
AEC_DISP_REP_STAIR_PLAN_50
  2
AecDbDispRepStairPlan50
  3
AecArchDACHBase60
 90
      129
280
     0
281
     0
  0
CLASS
  1
AEC_DISP_ROPS_STAIR_PLAN_50
  2
AecDbDispPropsStairPlan50
  3
AecArchDACHBase60
 90
      129
280
     0
281
     0
  0
CLASS
  1
AEC_DISP_REP_STAIR_PLAN_OVERLAPPING
  2
AecDbDispRepStairPlanOverlapping
  3
AecArchBase60
 90
      129
280
     0
281
     0
  0
CLASS
  1
AEC_DISP_PROPS_STAIR_PLAN_OVERLAPPING
  2
AecDbDispPropsStairPlanOverlapping
  3
AecArchBase60
 90
      129
280
     0
281
     0
  0
CLASS
  1
AEC_DISP_REP_WALL_GRAPH
  2
AecDbDispRepWallGraph
  3
AecArchBase60
 90
      129
280
     0
281
     0
  0
CLASS
  1
AEC_DISP_PROPS_WALL_GRAPH
  2
AecDbDispPropsWallGraph
  3
AecArchBase60
 90
      129
280
     0
281
     0
  0
CLASS
  1
AEC_DISP_REP_WALL_MODEL
  2
AecDbDispRepWallModel
  3
AecArchBase60
 90
      129
280
     0
281
     0
  0
CLASS
  1
AEC_DISP_PROPS_WALL_MODEL
  2
AecDbDispPropsWallModel
  3
AecArchBase60
 90
      129
280
     0
281
     0
  0
CLASS
  1
AEC_DISP_REP_WALL_PLAN
  2
AecDbDispRepWallPlan
  3
AecArchBase60
 90
      129
280
     0
281
     0
  0
CLASS
  1
AEC_DISP_PROPS_WALL_PLAN
  2
AecDbDispPropsWallPlan
  3
AecArchBase60
 90
      129
280
     0
281
     0
  0
CLASS
  1
AEC_DISP_REP_WALL_RCP
  2
AecDbDispRepWallRcp
  3
AecArchBase60
 90
      129
280
     0
281
     0
  0
CLASS
  1
AEC_DISP_REP_WALL_SCHEM
  2
AecDbDispRepWallSchem
  3
AecArchBase60
 90
      129
280
     0
281
     0
  0
CLASS
  1
AEC_DISP_PROPS_WALL_SCHEM
  2
AecDbDispPropsWallSchem
  3
AecArchBase60
 90
      129
280
     0
281
     0
  0
CLASS
  1
AEC_AECDBDISPREPWALLPLAN100
  2
AecDbDispRepWallPlan100
  3
AecBase60
 90
      129
280
     0
281
     0
  0
CLASS
  1
AEC_AECDBDISPREPWALLPLAN50
  2
AecDbDispRepWallPlan50
  3
AecBase60
 90
      129
280
     0
281
     0
  0
CLASS
  1
AEC_DISP_REP_WINDOW_MODEL
  2
AecDbDispRepWindowModel
  3
AecArchBase60
 90
      129
280
     0
281
     0
  0
CLASS
  1
AEC_DISP_PROPS_WINDOW
  2
AecDbDispPropsWindow
  3
AecArchBase60
 90
      129
280
     0
281
     0
  0
CLASS
  1
AEC_DISP_REP_WINDOW_ELEV
  2
AecDbDispRepWindowElev
  3
AecArchBase60
 90
      129
280
     0
281
     0
  0
CLASS
  1
AEC_DISP_REP_WINDOW_PLAN
  2
AecDbDispRepWindowPlan
  3
AecArchBase60
 90
      129
280
     0
281
     0
  0
CLASS
  1
AEC_DISP_REP_WINDOW_NOMINAL
  2
AecDbDispRepWindowNominal
  3
AecArchBase60
 90
      129
280
     0
281
     0
  0
CLASS
  1
AEC_DISP_PROPS_WINDOW_NOMINAL
  2
AecDbDispPropsWindowNominal
  3
AecArchBase60
 90
      129
280
     0
281
     0
  0
CLASS
  1
AEC_DISP_REP_WINDOW_RCP
  2
AecDbDispRepWindowRcp
  3
AecArchBase60
 90
      129
280
     0
281
     0
  0
CLASS
  1
AEC_DISP_REP_WINDOW_SILL_PLAN
  2
AecDbDispRepWindowSillPlan
  3
AecArchBase60
 90
      129
280
     0
281
     0
  0
CLASS
  1
AEC_DISP_PROPS_WINDOW_SILL_PLAN
  2
AecDbDispPropsWindowSillPlan
  3
AecArchBase60
 90
      129
280
     0
281
     0
  0
CLASS
  1
AEC_DISP_REP_WINDOW_PLAN_100
  2
AecDbDispRepWindowPlan100
  3
AecArchDACHBase60
 90
      129
280
     0
281
     0
  0
CLASS
  1
AEC_DISP_PROPS_WINDOW_PLAN_100
  2
AecDbDispPropsWindowPlan100
  3
AecArchDACHBase60
 90
      129
280
     0
281
     0
  0
CLASS
  1
AEC_DISP_REP_WINDOW_PLAN_50
  2
AecDbDispRepWindowPlan50
  3
AecArchDACHBase60
 90
      129
280
     0
281
     0
  0
CLASS
  1
AEC_DISP_PROPS_WINDOW_PLAN_50
  2
AecDbDispPropsWindowPlan50
  3
AecArchDACHBase60
 90
      129
280
     0
281
     0
  0
CLASS
  1
AEC_DISP_REP_WINDOW_ASSEMBLY_MODEL
  2
AecDbDispRepWindowAssemblyModel
  3
AecArchBase60
 90
      129
280
     0
281
     0
  0
CLASS
  1
AEC_DISP_REP_WINDOW_ASSEMBLY_PLAN
  2
AecDbDispRepWindowAssemblyPlan
  3
AecArchBase60
 90
      129
280
     0
281
     0
  0
CLASS
  1
AEC_DISP_REP_WINDOWASSEMBLY_SILL_PLAN
  2
AecDbDispRepWindowAssemblySillPlan
  3
AecArchBase60
 90
      129
280
     0
281
     0
  0
CLASS
  1
AEC_DISP_PROPS_WINDOW_ASSEMBLY_SILL_PLAN
  2
AecDbDispPropsWindowAssemblySillPlan
  3
AecArchBase60
 90
      129
280
     0
281
     0
  0
CLASS
  1
AEC_AECDBDISPREPWINDOWASSEMBLYPLAN100
  2
AecDbDispRepWindowAssemblyPlan100
  3
AecBase60
 90
      129
280
     0
281
     0
  0
CLASS
  1
AEC_AECDBDISPREPWINDOWASSEMBLYPLAN50
  2
AecDbDispRepWindowAssemblyPlan50
  3
AecBase60
 90
      129
280
     0
281
     0
  0
CLASS
  1
AEC_DB_DISP_REP_DIM_GROUP_PLAN
  2
AecDbDispRepDimGroupPlan
  3
AecArchDACHBase60
 90
      129
280
     0
281
     0
  0
CLASS
  1
AEC_DISP_PROPS_DIM
  2
AecDbDispPropsDimGroup
  3
AecArchDACHBase60
 90
      129
280
     0
281
     0
  0
CLASS
  1
AEC_DB_DISP_REP_DIM_GROUP_PLAN100
  2
AecDbDispRepDimGroupPlan100
  3
AecArchDACHBase60
 90
      129
280
     0
281
     0
  0
CLASS
  1
AEC_DB_DISP_REP_DIM_GROUP_PLAN50
  2
AecDbDispRepDimGroupPlan50
  3
AecArchDACHBase60
 90
      129
280
     0
281
     0
  0
CLASS
  1
AEC_DISP_REP_SCHEDULE_TABLE
  2
AecDbDispRepScheduleTable
  3
AecSchedule50
 90
      129
280
     0
281
     0
  0
CLASS
  1
AEC_DISP_PROPS_SCHEDULE_TABLE
  2
AecDbDispPropsScheduleTable
  3
AecSchedule50
 90
      129
280
     0
281
     0
  0
CLASS
  1
AEC_DISP_REP_ANCHOR_TAG_TO_ENT
  2
AecDbDispRepAnchorTagToEnt
  3
AecScheduleData60
 90
      129
280
     0
281
     0
  0
CLASS
  1
AEC_DISP_REP_ANCHOR_EXT_TAG_TO_ENT
  2
AecDbDispRepAnchorExtendedTagToEnt
  3
AecScheduleData60
 90
      129
280
     0
281
     0
  0
CLASS
  1
AEC_DISP_REP_SET
  2
AecDbDispRepSet
  3
AecBase60
 90
      129
280
     0
281
     0
  0
CLASS
  1
AECS_DISP_REP_MEMBER_MODEL_DESIGN
  2
AecsDbDispRepMemberModelDesign
  3
AecStructureBase60
 90
      129
280
     0
281
     0
  0
CLASS
  1
AECS_DISP_PROPS_MEMBER
  2
AecsDbDispPropsMember
  3
AecStructureBase60
 90
      129
280
     0
281
     0
  0
CLASS
  1
AECS_DISP_REP_MEMBER_PLAN_DESIGN
  2
AecsDbDispRepMemberPlanDesign
  3
AecStructureBase60
 90
      129
280
     0
281
     0
  0
CLASS
  1
AECS_DISP_PROPS_MEMBER_PLAN
  2
AecsDbDispPropsMemberPlan
  3
AecStructureBase60
 90
      129
280
     0
281
     0
  0
CLASS
  1
AEC_DISP_REP_CONFIG
  2
AecDbDispRepConfig
  3
AecBase60
 90
      129
280
     0
281
     0
  0
CLASS
  1
MLEADERSTYLE
  2
AcDbMLeaderStyle
  3
ACDB_MLEADERSTYLE_CLASS
 90
     4095
280
     0
281
     0
  0
CLASS
  1
GEODATA
  2
AcDbGeoData
  3
ObjectDBX Classes
 90
     4095
280
     0
281
     0
  0
CLASS
  1
AEC_WALL_STYLE
  2
AecDbWallStyle
  3
AecArchBase60
 90
      129
280
     0
281
     0
  0
CLASS
  1
AEC_CLEANUP_GROUP_DEF
  2
AecDbCleanupGroupDef
  3
AecArchBase60
 90
      129
280
     0
281
     0
  0
CLASS
  1
AEC_ENDCAP_STYLE
  2
AecDbEndcapStyle
  3
AecArchBase60
 90
      129
280
     0
281
     0
  0
CLASS
  1
AEC_FRAME_DEF
  2
AecDbOpeningEndcapStyle
  3
AecArchBase60
 90
      129
280
     0
281
     0
  0
CLASS
  1
AEC_MATERIAL_DEF
  2
AecDbMaterialDef
  3
AecBase60
 90
      129
280
     0
281
     0
  0
CLASS
  1
TABLESTYLE
  2
AcDbTableStyle
  3
ObjectDBX Classes
 90
     4095
280
     0
281
     0
  0
CLASS
  1
TCOPTIONALDATA
  2
TcOptionalData
  3
ExTcadCustObjs|Description: TurboCAD extension data object
 90
     4095
280
     0
281
     0
  0
CLASS
  1
DICTIONARYVAR
  2
AcDbDictionaryVar
  3
ObjectDBX Classes
 90
        0
280
     0
281
     0
  0
CLASS
  1
XRECORD
  2
AcDbXrecord
  3
ObjectDBX Classes
 90
        0
280
     0
281
     0
  0
CLASS
  1
LWPOLYLINE
  2
AcDbPolyline
  3
ObjectDBX Classes
 90
        0
280
     0
281
     1
  0
CLASS
  1
HATCH
  2
AcDbHatch
  3
ObjectDBX Classes
 90
        0
280
     0
281
     1
  0
CLASS
  1
ACDBPLACEHOLDER
  2
AcDbPlaceHolder
  3
ObjectDBX Classes
 90
        0
280
     0
281
     0
  0
CLASS
  1
LAYOUT
  2
AcDbLayout
  3
ObjectDBX Classes
 90
        0
280
     0
281
     0
  0
ENDSEC
  0
SECTION
  2
TABLES
  0
TABLE
  2
VPORT
  5
8
330
0
100
AcDbSymbolTable
 70
     1
  0
VPORT
  5
29
330
8
100
AcDbSymbolTableRecord
100
AcDbViewportTableRecord
  2
*ACTIVE
 70
     0
 10
0.0
 20
0.0
 11
1.0
 21
1.0
 12
0.0
 22
0.0
 13
0.0
 23
0.0
 14
0.5
 24
0.5
 15
0.5
 25
0.5
 16
-0.06566583145594151
 26
0.153391283002918
 36
0.9859812943853998
 17
0.1007597595375174
 27
-0.230455436235804
 37
-1.45921607218961
 40
52.46460801659772
 41
1.95048439181916
 42
50.0
 43
0.0
 44
0.0
 50
0.0
 51
-156.7953100647848
 71
     0
 72
   100
 73
     1
 74
     3
 75
     0
 76
     1
 77
     0
 78
     0
  0
ENDTAB
  0
TABLE
  2
LTYPE
  5
5
330
0
100
AcDbSymbolTable
 70
    13
  0
LTYPE
  5
14
330
5
100
AcDbSymbolTableRecord
100
AcDbLinetypeTableRecord
  2
BYBLOCK
 70
     0
  3

 72
    65
 73
     0
 40
0.0
  0
LTYPE
  5
15
330
5
100
AcDbSymbolTableRecord
100
AcDbLinetypeTableRecord
  2
BYLAYER
 70
     0
  3

 72
    65
 73
     0
 40
0.0
  0
LTYPE
  5
16
330
5
100
AcDbSymbolTableRecord
100
AcDbLinetypeTableRecord
  2
CONTINUOUS
 70
     0
  3
Solid line
 72
    65
 73
     0
 40
0.0
  0
LTYPE
  5
17B
330
5
100
AcDbSymbolTableRecord
100
AcDbLinetypeTableRecord
  2
BORDER
 70
     0
  3
BORDER
 72
    65
 73
     6
 40
1.75
 49
0.5
 74
     0
 49
-0.25
 74
     0
 49
0.5
 74
     0
 49
-0.25
 74
     0
 49
0.0
 74
     0
 49
-0.25
 74
     0
  0
LTYPE
  5
17C
330
5
100
AcDbSymbolTableRecord
100
AcDbLinetypeTableRecord
  2
CENTER
 70
     0
  3
CENTER
 72
    65
 73
     4
 40
2.0
 49
1.25
 74
     0
 49
-0.25
 74
     0
 49
0.25
 74
     0
 49
-0.25
 74
     0
  0
LTYPE
  5
17D
330
5
100
AcDbSymbolTableRecord
100
AcDbLinetypeTableRecord
  2
DASHDOT
 70
     0
  3
DASHDOT
 72
    65
 73
     4
 40
1.0
 49
0.5
 74
     0
 49
-0.25
 74
     0
 49
0.0
 74
     0
 49
-0.25
 74
     0
  0
LTYPE
  5
17E
330
5
100
AcDbSymbolTableRecord
100
AcDbLinetypeTableRecord
  2
DASHED
 70
     0
  3
DASHED
 72
    65
 73
     2
 40
0.75
 49
0.5
 74
     0
 49
-0.25
 74
     0
  0
LTYPE
  5
17F
330
5
100
AcDbSymbolTableRecord
100
AcDbLinetypeTableRecord
  2
DIVIDE
 70
     0
  3
DIVIDE
 72
    65
 73
     6
 40
1.25
 49
0.5
 74
     0
 49
-0.25
 74
     0
 49
0.0
 74
     0
 49
-0.25
 74
     0
 49
0.0
 74
     0
 49
-0.25
 74
     0
  0
LTYPE
  5
180
330
5
100
AcDbSymbolTableRecord
100
AcDbLinetypeTableRecord
  2
DOT
 70
     0
  3
DOT
 72
    65
 73
     2
 40
0.25
 49
0.0
 74
     0
 49
-0.25
 74
     0
  0
LTYPE
  5
181
330
5
100
AcDbSymbolTableRecord
100
AcDbLinetypeTableRecord
  2
HIDDEN
 70
     0
  3
HIDDEN
 72
    65
 73
     2
 40
0.375
 49
0.25
 74
     0
 49
-0.125
 74
     0
  0
LTYPE
  5
182
330
5
100
AcDbSymbolTableRecord
100
AcDbLinetypeTableRecord
  2
PHANTOM
 70
     0
  3
PHANTOM
 72
    65
 73
     6
 40
2.5
 49
1.25
 74
     0
 49
-0.25
 74
     0
 49
0.25
 74
     0
 49
-0.25
 74
     0
 49
0.25
 74
     0
 49
-0.25
 74
     0
  0
LTYPE
  5
183
330
5
100
AcDbSymbolTableRecord
100
AcDbLinetypeTableRecord
  2
$INVISIBLE
 70
     0
  3
$INVISIBLE
 72
    65
 73
     2
 40
200.0
 49
-100.0
 74
     0
 49
-100.0
 74
     0
  0
LTYPE
  5
184
330
5
100
AcDbSymbolTableRecord
100
AcDbLinetypeTableRecord
  2
$CONSTRUCTION
 70
     0
  3
$CONSTRUCTION
 72
    65
 73
     4
 40
0.3000000044703484
 49
0.2000000029802322
 74
     0
 49
-0.0500000007450581
 74
     0
 49
0.0
 74
     0
 49
-0.0500000007450581
 74
     0
  0
LTYPE
  5
185
330
5
100
AcDbSymbolTableRecord
100
AcDbLinetypeTableRecord
  2
$AUXILIARY
 70
     0
  3
$AUXILIARY
 72
    65
 73
     2
 40
0.1000000014901161
 49
0.0500000007450581
 74
     0
 49
-0.0500000007450581
 74
     0
  0
LTYPE
  5
186
330
5
100
AcDbSymbolTableRecord
100
AcDbLinetypeTableRecord
  2
$SNAPEXT
 70
     0
  3
$SNAPEXT
 72
    65
 73
     2
 40
0.0399999991059303
 49
0.0199999995529652
 74
     0
 49
-0.0199999995529652
 74
     0
  0
ENDTAB
  0
TABLE
  2
LAYER
  5
2
330
0
100
AcDbSymbolTable
 70
    18
  0
LAYER
  5
10
330
2
100
AcDbSymbolTableRecord
100
AcDbLayerTableRecord
  2
0
 70
     0
 62
     7
  6
CONTINUOUS
  0
LAYER
  5
187
330
2
100
AcDbSymbolTableRecord
100
AcDbLayerTableRecord
  2
PROFILEEDGES
 70
     4
 62
    -7
  6
CONTINUOUS
  0
LAYER
  5
188
330
2
100
AcDbSymbolTableRecord
100
AcDbLayerTableRecord
  2
SECTIONCUTEDGES
 70
     4
 62
    -7
  6
CONTINUOUS
  0
LAYER
  5
189
330
2
100
AcDbSymbolTableRecord
100
AcDbLayerTableRecord
  2
PERIMETER
 70
     4
 62
   -18
  6
CONTINUOUS
  0
LAYER
  5
18A
330
2
100
AcDbSymbolTableRecord
100
AcDbLayerTableRecord
  2
PATHS
 70
     4
 62
   -18
  6
CONTINUOUS
  0
LAYER
  5
18B
330
2
100
AcDbSymbolTableRecord
100
AcDbLayerTableRecord
  2
SURVEY_LENGTH
 70
     4
 62
   -18
  6
CONTINUOUS
  0
LAYER
  5
18C
330
2
100
AcDbSymbolTableRecord
100
AcDbLayerTableRecord
  2
CONTROL_POINTS
 70
     4
 62
   -18
  6
CONTINUOUS
  0
LAYER
  5
18D
330
2
100
AcDbSymbolTableRecord
100
AcDbLayerTableRecord
  2
AREA_D
 70
     0
 62
    18
  6
CONTINUOUS
  0
LAYER
  5
18E
330
2
100
AcDbSymbolTableRecord
100
AcDbLayerTableRecord
  2
AREA_B
 70
     4
 62
   -18
  6
CONTINUOUS
  0
LAYER
  5
18F
330
2
100
AcDbSymbolTableRecord
100
AcDbLayerTableRecord
  2
EXTRA
 70
     4
 62
   -18
  6
CONTINUOUS
  0
LAYER
  5
190
330
2
100
AcDbSymbolTableRecord
100
AcDbLayerTableRecord
  2
AREA_A
 70
     4
 62
   -18
  6
CONTINUOUS
  0
LAYER
  5
191
330
2
100
AcDbSymbolTableRecord
100
AcDbLayerTableRecord
  2
AREA_E
 70
     4
 62
   -18
  6
CONTINUOUS
  0
LAYER
  5
192
330
2
100
AcDbSymbolTableRecord
100
AcDbLayerTableRecord
  2
AREA_F
 70
     4
 62
   -18
  6
CONTINUOUS
  0
LAYER
  5
193
330
2
100
AcDbSymbolTableRecord
100
AcDbLayerTableRecord
  2
$CONSTRUCTION
 70
     4
 62
  -254
  6
$CONSTRUCTION
  0
LAYER
  5
194
330
2
100
AcDbSymbolTableRecord
100
AcDbLayerTableRecord
  2
EXTRA_2
 70
     4
 62
   -18
  6
CONTINUOUS
  0
LAYER
  5
195
330
2
100
AcDbSymbolTableRecord
100
AcDbLayerTableRecord
  2
CHURCH_2
 70
     4
 62
   -18
  6
CONTINUOUS
  0
LAYER
  5
196
330
2
100
AcDbSymbolTableRecord
100
AcDbLayerTableRecord
  2
WALLS
 70
     4
 62
   -18
  6
CONTINUOUS
  0
LAYER
  5
197
330
2
100
AcDbSymbolTableRecord
100
AcDbLayerTableRecord
  2
PATHS_2_
 70
     4
 62
   -18
  6
CONTINUOUS
  0
ENDTAB
  0
TABLE
  2
STYLE
  5
3
330
0
100
AcDbSymbolTable
 70
     5
  0
STYLE
  5
11
330
3
100
AcDbSymbolTableRecord
100
AcDbTextStyleTableRecord
  2
STANDARD
 70
     0
 40
0.0
 41
1.0
 50
0.0
 71
     0
 42
0.2000000178813934
  3
TXT.SHX
  4

  0
STYLE
  5
199
330
3
100
AcDbSymbolTableRecord
100
AcDbTextStyleTableRecord
  2
TEXT_STYLE_1
 70
     0
 40
0.0
 41
1.0
 50
0.0
 71
     0
 42
0.25
  3

  4

1001
ACAD
1000
Times New Roman
1071
      290
  0
STYLE
  5
1BD
330
3
100
AcDbSymbolTableRecord
100
AcDbTextStyleTableRecord
  2
_TCW_TXTSTY_1
 70
     0
 40
0.5043478608131409
 41
1.0
 50
0.0
 71
     0
 42
0.25
  3
ARIAL.TTF
  4

1001
ACAD
1000
Arial
1071
       34
  0
STYLE
  5
2DD
330
3
100
AcDbSymbolTableRecord
100
AcDbTextStyleTableRecord
  2
_TCW_TXTSTY_2
 70
     0
 40
0.5043478608131409
 41
1.0
 50
0.0
 71
     0
 42
0.25
  3

  4

1001
ACAD
1000
Arial
1071
       34
  0
STYLE
  5
3E3
330
3
100
AcDbSymbolTableRecord
100
AcDbTextStyleTableRecord
  2
_TCW_TXTSTY_3
 70
     0
 40
0.1611111164093018
 41
1.0
 50
0.0
 71
     0
 42
0.25
  3

  4

1001
ACAD
1000
Arial
1071
       34
  0
ENDTAB
  0
TABLE
  2
VIEW
  5
6
330
0
100
AcDbSymbolTable
 70
     1
  0
VIEW
  5
198
330
6
100
AcDbSymbolTableRecord
100
AcDbViewTableRecord
  2
VIEW_0
 70
     0
 40
8.267716535433072
 10
5.846456692913386
 20
4.133858267716536
 41
11.69291338582677
 11
0.0
 21
0.0
 31
1.0
 12
0.0
 22
0.0
 32
0.0
 42
50.0
 43
0.0
 44
0.0
 50
0.0
 71
     0
  0
ENDTAB
  0
TABLE
  2
UCS
  5
7
330
0
100
AcDbSymbolTable
 70
     0
  0
ENDTAB
  0
TABLE
  2
APPID
  5
9
330
0
100
AcDbSymbolTable
 70
     6
  0
APPID
  5
12
330
9
100
AcDbSymbolTableRecord
100
AcDbRegAppTableRecord
  2
ACAD
 70
     0
  0
APPID
  5
6A
330
9
100
AcDbSymbolTableRecord
100
AcDbRegAppTableRecord
  2
TCAD
 70
     0
  0
APPID
  5
19C
330
9
100
AcDbSymbolTableRecord
100
AcDbRegAppTableRecord
  2
ACAD_MLEADERVER
 70
     0
  0
ENDTAB
  0
TABLE
  2
DIMSTYLE
  5
A
330
0
100
AcDbSymbolTable
 70
     1
  0
DIMSTYLE
105
27
330
A
100
AcDbSymbolTableRecord
100
AcDbDimStyleTableRecord
  2
STANDARD
 70
     0
  3

  4
^B2147483648l^B
  5

  6

  7

 40
1.0
 41
0.18
 42
0.0625
 43
0.38
 44
0.18
 45
0.0
 46
0.0
 47
0.0
 48
0.0
140
0.18
141
0.09
142
0.0
143
25.4
144
1.0
145
0.0
146
1.0
147
0.09
 71
     0
 72
     0
 73
     1
 74
     1
 75
     0
 76
     0
 77
     0
 78
     0
170
     0
171
     2
172
     0
173
     0
174
     0
175
     0
176
     0
177
     0
178
     0
270
     2
271
     4
272
     4
273
     2
274
     2
340
11
275
     0
280
     0
281
     0
282
     0
283
     1
284
     0
285
     0
286
     0
287
     3
288
     0
  0
ENDTAB
  0
TABLE
  2
BLOCK_RECORD
  5
1
330
0
100
AcDbSymbolTable
 70
     2
  0
BLOCK_RECORD
  5
1F
102
{ACAD_XDICTIONARY
360
19D
102
}
330
1
100
AcDbSymbolTableRecord
100
AcDbBlockTableRecord
  2
*MODEL_SPACE
  0
BLOCK_RECORD
  5
1B
330
1
100
AcDbSymbolTableRecord
100
AcDbBlockTableRecord
  2
*PAPER_SPACE
  0
ENDTAB
  0
ENDSEC
  0
SECTION
  2
BLOCKS
  0
BLOCK
  5
20
330
1F
100
AcDbEntity
  8
0
100
AcDbBlockBegin
  2
*MODEL_SPACE
 70
     0
 10
0.0
 20
0.0
 30
0.0
  3
*MODEL_SPACE
  1

  0
ENDBLK
  5
21
330
1F
100
AcDbEntity
  8
0
100
AcDbBlockEnd
  0
BLOCK
  5
1C
330
1B
100
AcDbEntity
 67
     1
  8
0
100
AcDbBlockBegin
  2
*PAPER_SPACE
 70
     0
 10
0.0
 20
0.0
 30
0.0
  3
*PAPER_SPACE
  1

  0
ENDBLK
  5
1D
330
1B
100
AcDbEntity
 67
     1
  8
0
100
AcDbBlockEnd
  0
ENDSEC
  0
SECTION
  2
ENTITIES
  0
LINE
  5
1AB
102
{ACAD_XDICTIONARY
360
1AC
102
}
330
1F
100
AcDbEntity
  8
AREA_D
100
AcDbLine
 10
-16.97059827762516
 20
-11.15204475480346
 30
0.0
 11
-17.31874280887516
 21
-14.66935680466918
 31
0.0
  0
LINE
  5
1AE
102
{ACAD_XDICTIONARY
360
1AF
102
}
330
1F
100
AcDbEntity
  8
AREA_D
100
AcDbLine
 10
-17.28476911502751
 20
-14.67446086961059
 30
0.0
 11
-14.45951276737126
 21
-15.00319526749877
 31
0.0
  0
LINE
  5
1B1
102
{ACAD_XDICTIONARY
360
1B2
102
}
330
1F
100
AcDbEntity
  8
AREA_D
100
AcDbLine
 10
-14.45951276737126
 20
-15.00319526749877
 30
0.0
 11
-8.057571467932782
 21
-15.74809692460326
 31
0.0
  0
LINE
  5
1B4
102
{ACAD_XDICTIONARY
360
1B5
102
}
330
1F
100
AcDbEntity
  8
AREA_D
100
AcDbLine
 10
-8.057571467932782
 20
-15.74809692460326
 30
0.0
 11
-7.712564525183758
 21
-12.19885871964721
 31
0.0
  0
LINE
  5
1B7
102
{ACAD_XDICTIONARY
360
1B8
102
}
330
1F
100
AcDbEntity
  8
AREA_D
100
AcDbLine
 10
-7.712564525183758
 20
-12.19885871964721
 30
0.0
 11
-13.77055173831852
 21
-11.51387737351684
 31
0.0
  0
LINE
  5
1BA
102
{ACAD_XDICTIONARY
360
1BB
102
}
330
1F
100
AcDbEntity
  8
AREA_D
100
AcDbLine
 10
-13.77055173831852
 20
-11.51387737351684
 30
0.0
 11
-16.93661313968571
 21
-11.15588710862426
 31
0.0
  0
TEXT
  5
1BE
102
{ACAD_XDICTIONARY
360
1BF
102
}
330
1F
100
AcDbEntity
  8
AREA_D
  6
CONTINUOUS
 62
     7
 60
     1
100
AcDbText
 10
-10.33442884403141
 20
22.99042717013548
 30
0.0
 40
0.5043478210767111
  1
14
  7
_TCW_TXTSTY_1
 11
-10.33442884403141
 21
22.84118606489869
 31
0.0
100
AcDbText
 73
     1
  0
LWPOLYLINE
  5
1C1
330
1F
100
AcDbEntity
  8
AREA_D
100
AcDbPolyline
 90
        2
 70
     0
 43
0.0500000007450581
 10
-5.702737865027508
 20
-16.47037361222533
 10
-5.702737865027508
 20
-17.37037513810424
  0
LWPOLYLINE
  5
1C2
330
1F
100
AcDbEntity
  8
AREA_D
100
AcDbPolyline
 90
        2
 70
     0
 43
0.0500000007450581
 10
-5.702737865027508
 20
-17.37037513810424
 10
-5.402734813269696
 20
-17.37037513810424
  0
LWPOLYLINE
  5
1C3
330
1F
100
AcDbEntity
  8
AREA_D
100
AcDbPolyline
 90
        2
 70
     0
 43
0.0500000007450581
 10
-5.402734813269696
 20
-17.37037513810424
 10
-5.402734813269696
 20
-16.47037361222533
  0
LWPOLYLINE
  5
1C4
330
1F
100
AcDbEntity
  8
AREA_D
100
AcDbPolyline
 90
        2
 70
     0
 43
0.0500000007450581
 10
-5.402734813269696
 20
-16.47037361222533
 10
-5.702737865027508
 20
-16.47037361222533
  0
LWPOLYLINE
  5
1C5
330
1F
100
AcDbEntity
  8
AREA_D
100
AcDbPolyline
 90
        2
 70
     0
 43
0.0500000007450581
 10
-11.1032734485236
 20
-13.04062221604613
 10
-11.15828138309391
 20
-13.9389414604309
  0
LWPOLYLINE
  5
1C6
330
1F
100
AcDbEntity
  8
AREA_D
100
AcDbPolyline
 90
        2
 70
     0
 43
0.0500000007450581
 10
-11.15828138309391
 20
-13.9389414604309
 10
-10.85883909183415
 20
-13.95727680283813
  0
LWPOLYLINE
  5
1C7
330
1F
100
AcDbEntity
  8
AREA_D
100
AcDbPolyline
 90
        2
 70
     0
 43
0.0500000007450581
 10
-10.85883909183415
 20
-13.95727680283813
 10
-10.80383115726384
 20
-13.05895851212768
  0
LWPOLYLINE
  5
1C8
330
1F
100
AcDbEntity
  8
AREA_D
100
AcDbPolyline
 90
        2
 70
     0
 43
0.0500000007450581
 10
-10.80383115726384
 20
-13.05895851212768
 10
-11.1032734485236
 20
-13.04062221604613
  0
LWPOLYLINE
  5
1C9
330
1F
100
AcDbEntity
  8
AREA_D
100
AcDbPolyline
 90
        2
 70
     0
 43
0.0500000007450581
 10
-13.62813383060368
 20
-12.73774383622436
 10
-13.67499738651188
 20
-13.63652465897826
  0
LWPOLYLINE
  5
1CA
330
1F
100
AcDbEntity
  8
AREA_D
100
AcDbPolyline
 90
        2
 70
     0
 43
0.0500000007450581
 10
-13.67499738651188
 20
-13.63652465897826
 10
-13.37540250736149
 20
-13.65214489060668
  0
LWPOLYLINE
  5
1CB
330
1F
100
AcDbEntity
  8
AREA_D
100
AcDbPolyline
 90
        2
 70
     0
 43
0.0500000007450581
 10
-13.37540250736149
 20
-13.65214489060668
 10
-13.32853895145329
 20
-12.75336406785277
  0
LWPOLYLINE
  5
1CC
330
1F
100
AcDbEntity
  8
AREA_D
100
AcDbPolyline
 90
        2
 70
     0
 43
0.0500000007450581
 10
-13.32853895145329
 20
-12.75336406785277
 10
-13.62813383060368
 20
-12.73774383622436
  0
LWPOLYLINE
  5
1CD
330
1F
100
AcDbEntity
  8
AREA_D
100
AcDbPolyline
 90
        2
 70
     0
 43
0.0500000007450581
 10
-4.287820872840008
 20
-10.66959808427123
 10
-4.287820872840008
 20
-11.5695977028015
  0
LWPOLYLINE
  5
1CE
330
1F
100
AcDbEntity
  8
AREA_D
100
AcDbPolyline
 90
        2
 70
     0
 43
0.0500000007450581
 10
-4.287820872840008
 20
-11.5695977028015
 10
-3.987817821082196
 20
-11.5695977028015
  0
LWPOLYLINE
  5
1CF
330
1F
100
AcDbEntity
  8
AREA_D
100
AcDbPolyline
 90
        2
 70
     0
 43
0.0500000007450581
 10
-3.987817821082196
 20
-11.5695977028015
 10
-3.987817821082196
 20
-10.66959808427123
  0
LWPOLYLINE
  5
1D0
330
1F
100
AcDbEntity
  8
AREA_D
100
AcDbPolyline
 90
        2
 70
     0
 43
0.0500000007450581
 10
-3.987817821082196
 20
-10.66959808427123
 10
-4.287820872840008
 20
-10.66959808427123
  0
LWPOLYLINE
  5
1D1
330
1F
100
AcDbEntity
  8
AREA_D
100
AcDbPolyline
 90
        2
 70
     0
 43
0.0500000007450581
 10
0.1414927868279605
 20
-9.145863037884512
 10
0.1414927868279605
 20
-10.04586265641479
  0
LWPOLYLINE
  5
1D2
330
1F
100
AcDbEntity
  8
AREA_D
100
AcDbPolyline
 90
        2
 70
     0
 43
0.0500000007450581
 10
0.1414927868279605
 20
-10.04586265641479
 10
0.441495838585773
 20
-10.04586265641479
  0
LWPOLYLINE
  5
1D3
330
1F
100
AcDbEntity
  8
AREA_D
100
AcDbPolyline
 90
        2
 70
     0
 43
0.0500000007450581
 10
0.441495838585773
 20
-10.04586265641479
 10
0.441495838585773
 20
-9.145863037884512
  0
LWPOLYLINE
  5
1D4
330
1F
100
AcDbEntity
  8
AREA_D
100
AcDbPolyline
 90
        2
 70
     0
 43
0.0500000007450581
 10
0.441495838585773
 20
-9.145863037884512
 10
0.1414927868279605
 20
-9.145863037884512
  0
LWPOLYLINE
  5
1D5
330
1F
100
AcDbEntity
  8
AREA_D
100
AcDbPolyline
 90
        2
 70
     0
 43
0.0500000007450581
 10
2.541486683312336
 20
-9.160734635174551
 10
2.541486683312336
 20
-10.06073425370482
  0
LWPOLYLINE
  5
1D6
330
1F
100
AcDbEntity
  8
AREA_D
100
AcDbPolyline
 90
        2
 70
     0
 43
0.0500000007450581
 10
2.541486683312336
 20
-10.06073425370482
 10
2.841489735070148
 20
-10.06073425370482
  0
LWPOLYLINE
  5
1D7
330
1F
100
AcDbEntity
  8
AREA_D
100
AcDbPolyline
 90
        2
 70
     0
 43
0.0500000007450581
 10
2.841489735070148
 20
-10.06073425370482
 10
2.841489735070148
 20
-9.160734635174551
  0
LWPOLYLINE
  5
1D8
330
1F
100
AcDbEntity
  8
AREA_D
100
AcDbPolyline
 90
        2
 70
     0
 43
0.0500000007450581
 10
2.841489735070148
 20
-9.160734635174551
 10
2.541486683312336
 20
-9.160734635174551
  0
LWPOLYLINE
  5
1D9
330
1F
100
AcDbEntity
  8
AREA_D
100
AcDbPolyline
 90
        2
 70
     0
 43
0.0500000007450581
 10
10.09891313594905
 20
-11.86123130875854
 10
10.09891313594905
 20
-12.76122901994018
  0
LWPOLYLINE
  5
1DA
330
1F
100
AcDbEntity
  8
AREA_D
100
AcDbPolyline
 90
        2
 70
     0
 43
0.0500000007450581
 10
10.09891313594905
 20
-12.76122901994018
 10
10.39891618770687
 20
-12.76122901994018
  0
LWPOLYLINE
  5
1DB
330
1F
100
AcDbEntity
  8
AREA_D
100
AcDbPolyline
 90
        2
 70
     0
 43
0.0500000007450581
 10
10.39891618770687
 20
-12.76122901994018
 10
10.39891618770687
 20
-11.86123130875854
  0
LWPOLYLINE
  5
1DC
330
1F
100
AcDbEntity
  8
AREA_D
100
AcDbPolyline
 90
        2
 70
     0
 43
0.0500000007450581
 10
10.39891618770687
 20
-11.86123130875854
 10
10.09891313594905
 20
-11.86123130875854
  0
LWPOLYLINE
  5
1DD
330
1F
100
AcDbEntity
  8
AREA_D
100
AcDbPolyline
 90
        2
 70
     0
 43
0.0500000007450581
 10
4.506168308678546
 20
-12.7548651512268
 10
4.506168308678546
 20
-13.65486286240844
  0
LWPOLYLINE
  5
1DE
330
1F
100
AcDbEntity
  8
AREA_D
100
AcDbPolyline
 90
        2
 70
     0
 43
0.0500000007450581
 10
4.506168308678546
 20
-13.65486286240844
 10
4.806171360436359
 20
-13.65486286240844
  0
LWPOLYLINE
  5
1DF
330
1F
100
AcDbEntity
  8
AREA_D
100
AcDbPolyline
 90
        2
 70
     0
 43
0.0500000007450581
 10
4.806171360436359
 20
-13.65486286240844
 10
4.806171360436359
 20
-12.7548651512268
  0
LWPOLYLINE
  5
1E0
330
1F
100
AcDbEntity
  8
AREA_D
100
AcDbPolyline
 90
        2
 70
     0
 43
0.0500000007450581
 10
4.806171360436359
 20
-12.7548651512268
 10
4.506168308678546
 20
-12.7548651512268
  0
LWPOLYLINE
  5
1E1
330
1F
100
AcDbEntity
  8
AREA_D
100
AcDbPolyline
 90
        2
 70
     0
 43
0.0500000007450581
 10
2.531639042321125
 20
-10.12848041611938
 10
2.531639042321125
 20
-11.02847812730102
  0
LWPOLYLINE
  5
1E2
330
1F
100
AcDbEntity
  8
AREA_D
100
AcDbPolyline
 90
        2
 70
     0
 43
0.0500000007450581
 10
2.531639042321125
 20
-11.02847812730102
 10
2.831642094078937
 20
-11.02847812730102
  0
LWPOLYLINE
  5
1E3
330
1F
100
AcDbEntity
  8
AREA_D
100
AcDbPolyline
 90
        2
 70
     0
 43
0.0500000007450581
 10
2.831642094078937
 20
-11.02847812730102
 10
2.831642094078937
 20
-10.12848041611938
  0
LWPOLYLINE
  5
1E4
330
1F
100
AcDbEntity
  8
AREA_D
100
AcDbPolyline
 90
        2
 70
     0
 43
0.0500000007450581
 10
2.831642094078937
 20
-10.12848041611938
 10
2.531639042321125
 20
-10.12848041611938
  0
LWPOLYLINE
  5
1E5
330
1F
100
AcDbEntity
  8
AREA_D
100
AcDbPolyline
 90
        2
 70
     0
 43
0.0500000007450581
 10
9.961704197350421
 20
-5.528987866223135
 10
9.961704197350421
 20
-6.428985577404775
  0
LWPOLYLINE
  5
1E6
330
1F
100
AcDbEntity
  8
AREA_D
100
AcDbPolyline
 90
        2
 70
     0
 43
0.0500000007450581
 10
9.961704197350421
 20
-6.428985577404775
 10
10.26170724910823
 20
-6.428985577404775
  0
LWPOLYLINE
  5
1E7
330
1F
100
AcDbEntity
  8
AREA_D
100
AcDbPolyline
 90
        2
 70
     0
 43
0.0500000007450581
 10
10.26170724910823
 20
-6.428985577404775
 10
10.26170724910823
 20
-5.528987866223135
  0
LWPOLYLINE
  5
1E8
330
1F
100
AcDbEntity
  8
AREA_D
100
AcDbPolyline
 90
        2
 70
     0
 43
0.0500000007450581
 10
10.26170724910823
 20
-5.528987866223135
 10
9.961704197350421
 20
-5.528987866223135
  0
LWPOLYLINE
  5
1E9
330
1F
100
AcDbEntity
  8
AREA_D
100
AcDbPolyline
 90
        2
 70
     0
 43
0.0500000007450581
 10
8.457941952172199
 20
-7.228178959667959
 10
8.457941952172199
 20
-8.1281766708496
  0
LWPOLYLINE
  5
1EA
330
1F
100
AcDbEntity
  8
AREA_D
100
AcDbPolyline
 90
        2
 70
     0
 43
0.0500000007450581
 10
8.457941952172199
 20
-8.1281766708496
 10
8.757945003930011
 20
-8.1281766708496
  0
LWPOLYLINE
  5
1EB
330
1F
100
AcDbEntity
  8
AREA_D
100
AcDbPolyline
 90
        2
 70
     0
 43
0.0500000007450581
 10
8.757945003930011
 20
-8.1281766708496
 10
8.757945003930011
 20
-7.228178959667959
  0
LWPOLYLINE
  5
1EC
330
1F
100
AcDbEntity
  8
AREA_D
100
AcDbPolyline
 90
        2
 70
     0
 43
0.0500000007450581
 10
8.757945003930011
 20
-7.228178959667959
 10
8.457941952172199
 20
-7.228178959667959
  0
LWPOLYLINE
  5
1ED
330
1F
100
AcDbEntity
  8
AREA_D
100
AcDbPolyline
 90
        2
 70
     0
 43
0.0500000007450581
 10
7.437056484642902
 20
-4.65407417374877
 10
7.437056484642902
 20
-5.55407188493041
  0
LWPOLYLINE
  5
1EE
330
1F
100
AcDbEntity
  8
AREA_D
100
AcDbPolyline
 90
        2
 70
     0
 43
0.0500000007450581
 10
7.437056484642902
 20
-5.55407188493041
 10
7.737059536400714
 20
-5.55407188493041
  0
LWPOLYLINE
  5
1EF
330
1F
100
AcDbEntity
  8
AREA_D
100
AcDbPolyline
 90
        2
 70
     0
 43
0.0500000007450581
 10
7.737059536400714
 20
-5.55407188493041
 10
7.737059536400714
 20
-4.65407417374877
  0
LWPOLYLINE
  5
1F0
330
1F
100
AcDbEntity
  8
AREA_D
100
AcDbPolyline
 90
        2
 70
     0
 43
0.0500000007450581
 10
7.737059536400714
 20
-4.65407417374877
 10
7.437056484642902
 20
-4.65407417374877
  0
LWPOLYLINE
  5
1F1
330
1F
100
AcDbEntity
  8
AREA_D
100
AcDbPolyline
 90
        2
 70
     0
 43
0.0500000007450581
 10
5.914417210045734
 20
-2.014389973461904
 10
5.914417210045734
 20
-2.914387684643545
  0
LWPOLYLINE
  5
1F2
330
1F
100
AcDbEntity
  8
AREA_D
100
AcDbPolyline
 90
        2
 70
     0
 43
0.0500000007450581
 10
5.914417210045734
 20
-2.914387684643545
 10
6.214420261803546
 20
-2.914387684643545
  0
LWPOLYLINE
  5
1F3
330
1F
100
AcDbEntity
  8
AREA_D
100
AcDbPolyline
 90
        2
 70
     0
 43
0.0500000007450581
 10
6.214420261803546
 20
-2.914387684643545
 10
6.214420261803546
 20
-2.014389973461904
  0
LWPOLYLINE
  5
1F4
330
1F
100
AcDbEntity
  8
AREA_D
100
AcDbPolyline
 90
        2
 70
     0
 43
0.0500000007450581
 10
6.214420261803546
 20
-2.014389973461904
 10
5.914417210045734
 20
-2.014389973461904
  0
LWPOLYLINE
  5
1F5
330
1F
100
AcDbEntity
  8
AREA_D
100
AcDbPolyline
 90
        2
 70
     0
 43
0.0500000007450581
 10
3.566209736290851
 20
0.0365995798704244
 10
3.566209736290851
 20
-0.863398116410055
  0
LWPOLYLINE
  5
1F6
330
1F
100
AcDbEntity
  8
AREA_D
100
AcDbPolyline
 90
        2
 70
     0
 43
0.0500000007450581
 10
3.566209736290851
 20
-0.863398116410055
 10
3.866212788048664
 20
-0.863398116410055
  0
LWPOLYLINE
  5
1F7
330
1F
100
AcDbEntity
  8
AREA_D
100
AcDbPolyline
 90
        2
 70
     0
 43
0.0500000007450581
 10
3.866212788048664
 20
-0.863398116410055
 10
3.866212788048664
 20
0.0365995798704244
  0
LWPOLYLINE
  5
1F8
330
1F
100
AcDbEntity
  8
AREA_D
100
AcDbPolyline
 90
        2
 70
     0
 43
0.0500000007450581
 10
3.866212788048664
 20
0.0365995798704244
 10
3.566209736290851
 20
0.0365995798704244
  0
LWPOLYLINE
  5
1F9
330
1F
100
AcDbEntity
  8
AREA_D
100
AcDbPolyline
 90
        2
 70
     0
 43
0.0500000007450581
 10
1.473632755700031
 20
-0.6564514752033137
 10
1.473632755700031
 20
-1.556449156582632
  0
LWPOLYLINE
  5
1FA
330
1F
100
AcDbEntity
  8
AREA_D
100
AcDbPolyline
 90
        2
 70
     0
 43
0.0500000007450581
 10
1.473632755700031
 20
-1.556449156582632
 10
1.773635807457843
 20
-1.556449156582632
  0
LWPOLYLINE
  5
1FB
330
1F
100
AcDbEntity
  8
AREA_D
100
AcDbPolyline
 90
        2
 70
     0
 43
0.0500000007450581
 10
1.773635807457843
 20
-1.556449156582632
 10
1.773635807457843
 20
-0.6564514752033137
  0
LWPOLYLINE
  5
1FC
330
1F
100
AcDbEntity
  8
AREA_D
100
AcDbPolyline
 90
        2
 70
     0
 43
0.0500000007450581
 10
1.773635807457843
 20
-0.6564514752033137
 10
1.473632755700031
 20
-0.6564514752033137
  0
LWPOLYLINE
  5
1FD
330
1F
100
AcDbEntity
  8
AREA_D
100
AcDbPolyline
 90
        2
 70
     0
 43
0.0500000007450581
 10
5.938314381066242
 20
1.584083575427256
 10
5.938314381066242
 20
0.6840859238502599
  0
LWPOLYLINE
  5
1FE
330
1F
100
AcDbEntity
  8
AREA_D
100
AcDbPolyline
 90
        2
 70
     0
 43
0.0500000007450581
 10
5.938314381066242
 20
0.6840859238502599
 10
6.238317432824054
 20
0.6840859238502599
  0
LWPOLYLINE
  5
1FF
330
1F
100
AcDbEntity
  8
AREA_D
100
AcDbPolyline
 90
        2
 70
     0
 43
0.0500000007450581
 10
6.238317432824054
 20
0.6840859238502599
 10
6.238317432824054
 20
1.584083575427256
  0
LWPOLYLINE
  5
200
330
1F
100
AcDbEntity
  8
AREA_D
100
AcDbPolyline
 90
        2
 70
     0
 43
0.0500000007450581
 10
6.238317432824054
 20
1.584083575427256
 10
5.938314381066242
 20
1.584083575427256
  0
LWPOLYLINE
  5
201
330
1F
100
AcDbEntity
  8
AREA_D
100
AcDbPolyline
 90
        2
 70
     0
 43
0.0500000007450581
 10
5.937576237145343
 20
3.680962580859385
 10
5.937576237145343
 20
2.780964869677744
  0
LWPOLYLINE
  5
202
330
1F
100
AcDbEntity
  8
AREA_D
100
AcDbPolyline
 90
        2
 70
     0
 43
0.0500000007450581
 10
5.937576237145343
 20
2.780964869677744
 10
6.237579288903156
 20
2.780964869677744
  0
LWPOLYLINE
  5
203
330
1F
100
AcDbEntity
  8
AREA_D
100
AcDbPolyline
 90
        2
 70
     0
 43
0.0500000007450581
 10
6.237579288903156
 20
2.780964869677744
 10
6.237579288903156
 20
3.680962580859385
  0
LWPOLYLINE
  5
204
330
1F
100
AcDbEntity
  8
AREA_D
100
AcDbPolyline
 90
        2
 70
     0
 43
0.0500000007450581
 10
6.237579288903156
 20
3.680962580859385
 10
5.937576237145343
 20
3.680962580859385
  0
LWPOLYLINE
  5
205
330
1F
100
AcDbEntity
  8
AREA_D
100
AcDbPolyline
 90
        2
 70
     0
 43
0.0500000007450581
 10
1.284353199425617
 20
0.316154557883463
 10
1.284353199425617
 20
-0.5838431532981776
  0
LWPOLYLINE
  5
206
330
1F
100
AcDbEntity
  8
AREA_D
100
AcDbPolyline
 90
        2
 70
     0
 43
0.0500000007450581
 10
1.284353199425617
 20
-0.5838431532981776
 10
1.584356251183429
 20
-0.5838431532981776
  0
LWPOLYLINE
  5
207
330
1F
100
AcDbEntity
  8
AREA_D
100
AcDbPolyline
 90
        2
 70
     0
 43
0.0500000007450581
 10
1.584356251183429
 20
-0.5838431532981776
 10
1.584356251183429
 20
0.316154557883463
  0
LWPOLYLINE
  5
208
330
1F
100
AcDbEntity
  8
AREA_D
100
AcDbPolyline
 90
        2
 70
     0
 43
0.0500000007450581
 10
1.584356251183429
 20
0.316154557883463
 10
1.284353199425617
 20
0.316154557883463
  0
LWPOLYLINE
  5
209
330
1F
100
AcDbEntity
  8
AREA_D
100
AcDbPolyline
 90
        2
 70
     0
 43
0.0500000007450581
 10
1.153608265343586
 20
3.457082528292856
 10
1.153608265343586
 20
2.557084817111216
  0
LWPOLYLINE
  5
20A
330
1F
100
AcDbEntity
  8
AREA_D
100
AcDbPolyline
 90
        2
 70
     0
 43
0.0500000007450581
 10
1.153608265343586
 20
2.557084817111216
 10
1.453611317101398
 20
2.557084817111216
  0
LWPOLYLINE
  5
20B
330
1F
100
AcDbEntity
  8
AREA_D
100
AcDbPolyline
 90
        2
 70
     0
 43
0.0500000007450581
 10
1.453611317101398
 20
2.557084817111216
 10
1.453611317101398
 20
3.457082528292856
  0
LWPOLYLINE
  5
20C
330
1F
100
AcDbEntity
  8
AREA_D
100
AcDbPolyline
 90
        2
 70
     0
 43
0.0500000007450581
 10
1.453611317101398
 20
3.457082528292856
 10
1.153608265343586
 20
3.457082528292856
  0
LWPOLYLINE
  5
20D
330
1F
100
AcDbEntity
  8
AREA_D
100
AcDbPolyline
 90
        2
 70
     0
 43
0.0500000007450581
 10
3.914737644616046
 20
4.661717909991465
 10
3.914737644616046
 20
3.761720437228403
  0
LWPOLYLINE
  5
20E
330
1F
100
AcDbEntity
  8
AREA_D
100
AcDbPolyline
 90
        2
 70
     0
 43
0.0500000007450581
 10
3.914737644616046
 20
3.761720437228403
 10
4.214740696373859
 20
3.761720437228403
  0
LWPOLYLINE
  5
20F
330
1F
100
AcDbEntity
  8
AREA_D
100
AcDbPolyline
 90
        2
 70
     0
 43
0.0500000007450581
 10
4.214740696373859
 20
3.761720437228403
 10
4.214740696373859
 20
4.661717909991465
  0
LWPOLYLINE
  5
210
330
1F
100
AcDbEntity
  8
AREA_D
100
AcDbPolyline
 90
        2
 70
     0
 43
0.0500000007450581
 10
4.214740696373859
 20
4.661717909991465
 10
3.914737644616046
 20
4.661717909991465
  0
LWPOLYLINE
  5
211
330
1F
100
AcDbEntity
  8
AREA_D
100
AcDbPolyline
 90
        2
 70
     0
 43
0.0500000007450581
 10
3.902189197960773
 20
6.76393176954957
 10
3.902189197960773
 20
5.86393405836793
  0
LWPOLYLINE
  5
212
330
1F
100
AcDbEntity
  8
AREA_D
100
AcDbPolyline
 90
        2
 70
     0
 43
0.0500000007450581
 10
3.902189197960773
 20
5.86393405836793
 10
4.202192249718586
 20
5.86393405836793
  0
LWPOLYLINE
  5
213
330
1F
100
AcDbEntity
  8
AREA_D
100
AcDbPolyline
 90
        2
 70
     0
 43
0.0500000007450581
 10
4.202192249718586
 20
5.86393405836793
 10
4.202192249718586
 20
6.76393176954957
  0
LWPOLYLINE
  5
214
330
1F
100
AcDbEntity
  8
AREA_D
100
AcDbPolyline
 90
        2
 70
     0
 43
0.0500000007450581
 10
4.202192249718586
 20
6.76393176954957
 10
3.902189197960773
 20
6.76393176954957
  0
LWPOLYLINE
  5
215
330
1F
100
AcDbEntity
  8
AREA_D
100
AcDbPolyline
 90
        2
 70
     0
 43
0.0500000007450581
 10
-0.0425892444220395
 20
6.049433726489267
 10
-0.0425892444220395
 20
5.149436015307627
  0
LWPOLYLINE
  5
216
330
1F
100
AcDbEntity
  8
AREA_D
100
AcDbPolyline
 90
        2
 70
     0
 43
0.0500000007450581
 10
-0.0425892444220395
 20
5.149436015307627
 10
0.257413807335773
 20
5.149436015307627
  0
LWPOLYLINE
  5
217
330
1F
100
AcDbEntity
  8
AREA_D
100
AcDbPolyline
 90
        2
 70
     0
 43
0.0500000007450581
 10
0.257413807335773
 20
5.149436015307627
 10
0.257413807335773
 20
6.049433726489267
  0
LWPOLYLINE
  5
218
330
1F
100
AcDbEntity
  8
AREA_D
100
AcDbPolyline
 90
        2
 70
     0
 43
0.0500000007450581
 10
0.257413807335773
 20
6.049433726489267
 10
-0.0425892444220395
 20
6.049433726489267
  0
LWPOLYLINE
  5
219
330
1F
100
AcDbEntity
  8
AREA_D
100
AcDbPolyline
 90
        2
 70
     0
 43
0.0500000007450581
 10
11.57898134273616
 20
8.584165114581308
 10
11.57898134273616
 20
7.684167403399668
  0
LWPOLYLINE
  5
21A
330
1F
100
AcDbEntity
  8
AREA_D
100
AcDbPolyline
 90
        2
 70
     0
 43
0.0500000007450581
 10
11.57898134273616
 20
7.684167403399668
 10
11.87898439449398
 20
7.684167403399668
  0
LWPOLYLINE
  5
21B
330
1F
100
AcDbEntity
  8
AREA_D
100
AcDbPolyline
 90
        2
 70
     0
 43
0.0500000007450581
 10
11.87898439449398
 20
7.684167403399668
 10
11.87898439449398
 20
8.584165114581308
  0
LWPOLYLINE
  5
21C
330
1F
100
AcDbEntity
  8
AREA_D
100
AcDbPolyline
 90
        2
 70
     0
 43
0.0500000007450581
 10
11.87898439449398
 20
8.584165114581308
 10
11.57898134273616
 20
8.584165114581308
  0
LWPOLYLINE
  5
21D
330
1F
100
AcDbEntity
  8
AREA_D
100
AcDbPolyline
 90
        2
 70
     0
 43
0.0500000007450581
 10
11.9438399700555
 20
11.15415241163941
 10
11.9438399700555
 20
10.25415470045777
  0
LWPOLYLINE
  5
21E
330
1F
100
AcDbEntity
  8
AREA_D
100
AcDbPolyline
 90
        2
 70
     0
 43
0.0500000007450581
 10
11.9438399700555
 20
10.25415470045777
 10
12.24384302181331
 20
10.25415470045777
  0
LWPOLYLINE
  5
21F
330
1F
100
AcDbEntity
  8
AREA_D
100
AcDbPolyline
 90
        2
 70
     0
 43
0.0500000007450581
 10
12.24384302181331
 20
10.25415470045777
 10
12.24384302181331
 20
11.15415241163941
  0
LWPOLYLINE
  5
220
330
1F
100
AcDbEntity
  8
AREA_D
100
AcDbPolyline
 90
        2
 70
     0
 43
0.0500000007450581
 10
12.24384302181331
 20
11.15415241163941
 10
11.9438399700555
 20
11.15415241163941
  0
LWPOLYLINE
  5
221
330
1F
100
AcDbEntity
  8
AREA_D
100
AcDbPolyline
 90
        2
 70
     0
 43
0.0500000007450581
 10
2.153064670983234
 20
15.4305014793274
 10
2.153064670983234
 20
14.53050376814576
  0
LWPOLYLINE
  5
222
330
1F
100
AcDbEntity
  8
AREA_D
100
AcDbPolyline
 90
        2
 70
     0
 43
0.0500000007450581
 10
2.153064670983234
 20
14.53050376814576
 10
2.453067722741046
 20
14.53050376814576
  0
LWPOLYLINE
  5
223
330
1F
100
AcDbEntity
  8
AREA_D
100
AcDbPolyline
 90
        2
 70
     0
 43
0.0500000007450581
 10
2.453067722741046
 20
14.53050376814576
 10
2.453067722741046
 20
15.4305014793274
  0
LWPOLYLINE
  5
224
330
1F
100
AcDbEntity
  8
AREA_D
100
AcDbPolyline
 90
        2
 70
     0
 43
0.0500000007450581
 10
2.453067722741046
 20
15.4305014793274
 10
2.153064670983234
 20
15.4305014793274
  0
LWPOLYLINE
  5
225
330
1F
100
AcDbEntity
  8
AREA_D
100
AcDbPolyline
 90
        2
 70
     0
 43
0.0500000007450581
 10
-5.733854350623211
 20
10.14244510573121
 10
-5.733854350623211
 20
9.24244739454957
  0
LWPOLYLINE
  5
226
330
1F
100
AcDbEntity
  8
AREA_D
100
AcDbPolyline
 90
        2
 70
     0
 43
0.0500000007450581
 10
-5.733854350623211
 20
9.24244739454957
 10
-5.433851298865399
 20
9.24244739454957
  0
LWPOLYLINE
  5
227
330
1F
100
AcDbEntity
  8
AREA_D
100
AcDbPolyline
 90
        2
 70
     0
 43
0.0500000007450581
 10
-5.433851298865399
 20
9.24244739454957
 10
-5.433851298865399
 20
10.14244510573121
  0
LWPOLYLINE
  5
228
330
1F
100
AcDbEntity
  8
AREA_D
100
AcDbPolyline
 90
        2
 70
     0
 43
0.0500000007450581
 10
-5.433851298865399
 20
10.14244510573121
 10
-5.733854350623211
 20
10.14244510573121
  0
LWPOLYLINE
  5
229
330
1F
100
AcDbEntity
  8
AREA_D
100
AcDbPolyline
 90
        2
 70
     0
 43
0.0500000007450581
 10
-2.312273082312664
 20
12.93783809584352
 10
-2.312273082312664
 20
12.03784038466187
  0
LWPOLYLINE
  5
22A
330
1F
100
AcDbEntity
  8
AREA_D
100
AcDbPolyline
 90
        2
 70
     0
 43
0.0500000007450581
 10
-2.312273082312664
 20
12.03784038466187
 10
-2.012270030554852
 20
12.03784038466187
  0
LWPOLYLINE
  5
22B
330
1F
100
AcDbEntity
  8
AREA_D
100
AcDbPolyline
 90
        2
 70
     0
 43
0.0500000007450581
 10
-2.012270030554852
 20
12.03784038466187
 10
-2.012270030554852
 20
12.93783809584352
  0
LWPOLYLINE
  5
22C
330
1F
100
AcDbEntity
  8
AREA_D
100
AcDbPolyline
 90
        2
 70
     0
 43
0.0500000007450581
 10
-2.012270030554852
 20
12.93783809584352
 10
-2.312273082312664
 20
12.93783809584352
  0
LWPOLYLINE
  5
22D
330
1F
100
AcDbEntity
  8
AREA_D
100
AcDbPolyline
 90
        2
 70
     0
 43
0.0500000007450581
 10
-2.331785258826336
 20
18.49188758772584
 10
-2.331785258826336
 20
17.5918898765442
  0
LWPOLYLINE
  5
22E
330
1F
100
AcDbEntity
  8
AREA_D
100
AcDbPolyline
 90
        2
 70
     0
 43
0.0500000007450581
 10
-2.331785258826336
 20
17.5918898765442
 10
-2.031782207068524
 20
17.5918898765442
  0
LWPOLYLINE
  5
22F
330
1F
100
AcDbEntity
  8
AREA_D
100
AcDbPolyline
 90
        2
 70
     0
 43
0.0500000007450581
 10
-2.031782207068524
 20
17.5918898765442
 10
-2.031782207068524
 20
18.49188758772584
  0
LWPOLYLINE
  5
230
330
1F
100
AcDbEntity
  8
AREA_D
100
AcDbPolyline
 90
        2
 70
     0
 43
0.0500000007450581
 10
-2.031782207068524
 20
18.49188758772584
 10
-2.331785258826336
 20
18.49188758772584
  0
LWPOLYLINE
  5
231
330
1F
100
AcDbEntity
  8
AREA_D
100
AcDbPolyline
 90
        2
 70
     0
 43
0.0500000007450581
 10
-2.336322841223797
 20
17.48492195051881
 10
-2.336322841223797
 20
16.58492423933717
  0
LWPOLYLINE
  5
232
330
1F
100
AcDbEntity
  8
AREA_D
100
AcDbPolyline
 90
        2
 70
     0
 43
0.0500000007450581
 10
-2.336322841223797
 20
16.58492423933717
 10
-2.036319789465985
 20
16.58492423933717
  0
LWPOLYLINE
  5
233
330
1F
100
AcDbEntity
  8
AREA_D
100
AcDbPolyline
 90
        2
 70
     0
 43
0.0500000007450581
 10
-2.036319789465985
 20
16.58492423933717
 10
-2.036319789465985
 20
17.48492195051881
  0
LWPOLYLINE
  5
234
330
1F
100
AcDbEntity
  8
AREA_D
100
AcDbPolyline
 90
        2
 70
     0
 43
0.0500000007450581
 10
-2.036319789465985
 20
17.48492195051881
 10
-2.336322841223797
 20
17.48492195051881
  0
LWPOLYLINE
  5
235
330
1F
100
AcDbEntity
  8
AREA_D
100
AcDbPolyline
 90
        2
 70
     0
 43
0.0500000007450581
 10
-2.32999044376286
 20
14.53480388563844
 10
-2.32999044376286
 20
13.6348061744568
  0
LWPOLYLINE
  5
236
330
1F
100
AcDbEntity
  8
AREA_D
100
AcDbPolyline
 90
        2
 70
     0
 43
0.0500000007450581
 10
-2.32999044376286
 20
13.6348061744568
 10
-2.029987392005047
 20
13.6348061744568
  0
LWPOLYLINE
  5
237
330
1F
100
AcDbEntity
  8
AREA_D
100
AcDbPolyline
 90
        2
 70
     0
 43
0.0500000007450581
 10
-2.029987392005047
 20
13.6348061744568
 10
-2.029987392005047
 20
14.53480388563844
  0
LWPOLYLINE
  5
238
330
1F
100
AcDbEntity
  8
AREA_D
100
AcDbPolyline
 90
        2
 70
     0
 43
0.0500000007450581
 10
-2.029987392005047
 20
14.53480388563844
 10
-2.32999044376286
 20
14.53480388563844
  0
LWPOLYLINE
  5
239
330
1F
100
AcDbEntity
  8
AREA_D
100
AcDbPolyline
 90
        2
 70
     0
 43
0.0500000007450581
 10
-6.410619792517743
 20
15.22749664229127
 10
-6.410619792517743
 20
14.32749893110963
  0
LWPOLYLINE
  5
23A
330
1F
100
AcDbEntity
  8
AREA_D
100
AcDbPolyline
 90
        2
 70
     0
 43
0.0500000007450581
 10
-6.410619792517743
 20
14.32749893110963
 10
-6.11061674075993
 20
14.32749893110963
  0
LWPOLYLINE
  5
23B
330
1F
100
AcDbEntity
  8
AREA_D
100
AcDbPolyline
 90
        2
 70
     0
 43
0.0500000007450581
 10
-6.11061674075993
 20
14.32749893110963
 10
-6.11061674075993
 20
15.22749664229127
  0
LWPOLYLINE
  5
23C
330
1F
100
AcDbEntity
  8
AREA_D
100
AcDbPolyline
 90
        2
 70
     0
 43
0.0500000007450581
 10
-6.11061674075993
 20
15.22749664229127
 10
-6.410619792517743
 20
15.22749664229127
  0
LWPOLYLINE
  5
23D
330
1F
100
AcDbEntity
  8
AREA_D
100
AcDbPolyline
 90
        2
 70
     0
 43
0.0500000007450581
 10
-2.333778438147625
 20
16.2830519859192
 10
-2.333778438147625
 20
15.38305522841187
  0
LWPOLYLINE
  5
23E
330
1F
100
AcDbEntity
  8
AREA_D
100
AcDbPolyline
 90
        2
 70
     0
 43
0.0500000007450581
 10
-2.333778438147625
 20
15.38305522841187
 10
-2.033775386389813
 20
15.38305522841187
  0
LWPOLYLINE
  5
23F
330
1F
100
AcDbEntity
  8
AREA_D
100
AcDbPolyline
 90
        2
 70
     0
 43
0.0500000007450581
 10
-2.033775386389813
 20
15.38305522841187
 10
-2.033775386389813
 20
16.2830519859192
  0
LWPOLYLINE
  5
240
330
1F
100
AcDbEntity
  8
AREA_D
100
AcDbPolyline
 90
        2
 70
     0
 43
0.0500000007450581
 10
-2.033775386389813
 20
16.2830519859192
 10
-2.333778438147625
 20
16.2830519859192
  0
LWPOLYLINE
  5
241
330
1F
100
AcDbEntity
  8
AREA_D
100
AcDbPolyline
 90
        2
 70
     0
 43
0.0500000007450581
 10
0.0805186657342105
 20
16.28410102766724
 10
0.0805186657342105
 20
15.38410236281129
  0
LWPOLYLINE
  5
242
330
1F
100
AcDbEntity
  8
AREA_D
100
AcDbPolyline
 90
        2
 70
     0
 43
0.0500000007450581
 10
0.0805186657342105
 20
15.38410236281129
 10
0.380521717492023
 20
15.38410236281129
  0
LWPOLYLINE
  5
243
330
1F
100
AcDbEntity
  8
AREA_D
100
AcDbPolyline
 90
        2
 70
     0
 43
0.0500000007450581
 10
0.380521717492023
 20
15.38410236281129
 10
0.380521717492023
 20
16.28410102766724
  0
LWPOLYLINE
  5
244
330
1F
100
AcDbEntity
  8
AREA_D
100
AcDbPolyline
 90
        2
 70
     0
 43
0.0500000007450581
 10
0.380521717492023
 20
16.28410102766724
 10
0.0805186657342105
 20
16.28410102766724
  0
LWPOLYLINE
  5
245
330
1F
100
AcDbEntity
  8
AREA_D
100
AcDbPolyline
 90
        2
 70
     0
 43
0.0500000007450581
 10
-0.0206871600714535
 20
17.27761222761842
 10
-0.0206871600714535
 20
16.37761451643678
  0
LWPOLYLINE
  5
246
330
1F
100
AcDbEntity
  8
AREA_D
100
AcDbPolyline
 90
        2
 70
     0
 43
0.0500000007450581
 10
-0.0206871600714535
 20
16.37761451643678
 10
0.279315891686359
 20
16.37761451643678
  0
LWPOLYLINE
  5
247
330
1F
100
AcDbEntity
  8
AREA_D
100
AcDbPolyline
 90
        2
 70
     0
 43
0.0500000007450581
 10
0.279315891686359
 20
16.37761451643678
 10
0.279315891686359
 20
17.27761222761842
  0
LWPOLYLINE
  5
248
330
1F
100
AcDbEntity
  8
AREA_D
100
AcDbPolyline
 90
        2
 70
     0
 43
0.0500000007450581
 10
0.279315891686359
 20
17.27761222761842
 10
-0.0206871600714535
 20
17.27761222761842
  0
LWPOLYLINE
  5
249
330
1F
100
AcDbEntity
  8
AREA_D
100
AcDbPolyline
 90
        2
 70
     0
 43
0.0500000007450581
 10
-0.0910587878790707
 20
18.25401832503053
 10
-0.0910587878790707
 20
17.35402061384888
  0
LWPOLYLINE
  5
24A
330
1F
100
AcDbEntity
  8
AREA_D
100
AcDbPolyline
 90
        2
 70
     0
 43
0.0500000007450581
 10
-0.0910587878790707
 20
17.35402061384888
 10
0.2089442638787418
 20
17.35402061384888
  0
LWPOLYLINE
  5
24B
330
1F
100
AcDbEntity
  8
AREA_D
100
AcDbPolyline
 90
        2
 70
     0
 43
0.0500000007450581
 10
0.2089442638787418
 20
17.35402061384888
 10
0.2089442638787418
 20
18.25401832503053
  0
LWPOLYLINE
  5
24C
330
1F
100
AcDbEntity
  8
AREA_D
100
AcDbPolyline
 90
        2
 70
     0
 43
0.0500000007450581
 10
0.2089442638787418
 20
18.25401832503053
 10
-0.0910587878790707
 20
18.25401832503053
  0
LWPOLYLINE
  5
24D
330
1F
100
AcDbEntity
  8
AREA_D
100
AcDbPolyline
 90
        2
 70
     0
 43
0.0500000007450581
 10
-0.1387310596075864
 20
19.20566703718873
 10
-0.1387310596075864
 20
18.30566932600709
  0
LWPOLYLINE
  5
24E
330
1F
100
AcDbEntity
  8
AREA_D
100
AcDbPolyline
 90
        2
 70
     0
 43
0.0500000007450581
 10
-0.1387310596075864
 20
18.30566932600709
 10
0.1612719921502261
 20
18.30566932600709
  0
LWPOLYLINE
  5
24F
330
1F
100
AcDbEntity
  8
AREA_D
100
AcDbPolyline
 90
        2
 70
     0
 43
0.0500000007450581
 10
0.1612719921502261
 20
18.30566932600709
 10
0.1612719921502261
 20
19.20566703718873
  0
LWPOLYLINE
  5
250
330
1F
100
AcDbEntity
  8
AREA_D
100
AcDbPolyline
 90
        2
 70
     0
 43
0.0500000007450581
 10
0.1612719921502261
 20
19.20566703718873
 10
-0.1387310596075864
 20
19.20566703718873
  0
LWPOLYLINE
  5
251
330
1F
100
AcDbEntity
  8
AREA_D
100
AcDbPolyline
 90
        2
 70
     0
 43
0.0500000007450581
 10
-4.605051097449383
 20
17.11538841170045
 10
-4.605051097449383
 20
16.21539070051881
  0
LWPOLYLINE
  5
252
330
1F
100
AcDbEntity
  8
AREA_D
100
AcDbPolyline
 90
        2
 70
     0
 43
0.0500000007450581
 10
-4.605051097449383
 20
16.21539070051881
 10
-4.305048045691571
 20
16.21539070051881
  0
LWPOLYLINE
  5
253
330
1F
100
AcDbEntity
  8
AREA_D
100
AcDbPolyline
 90
        2
 70
     0
 43
0.0500000007450581
 10
-4.305048045691571
 20
16.21539070051881
 10
-4.305048045691571
 20
17.11538841170045
  0
LWPOLYLINE
  5
254
330
1F
100
AcDbEntity
  8
AREA_D
100
AcDbPolyline
 90
        2
 70
     0
 43
0.0500000007450581
 10
-4.305048045691571
 20
17.11538841170045
 10
-4.605051097449383
 20
17.11538841170045
  0
LWPOLYLINE
  5
255
330
1F
100
AcDbEntity
  8
AREA_D
100
AcDbPolyline
 90
        2
 70
     0
 43
0.0500000007450581
 10
2.320939960900226
 20
18.52698089522096
 10
2.320939960900226
 20
17.62698318403931
  0
LWPOLYLINE
  5
256
330
1F
100
AcDbEntity
  8
AREA_D
100
AcDbPolyline
 90
        2
 70
     0
 43
0.0500000007450581
 10
2.320939960900226
 20
17.62698318403931
 10
2.620943012658039
 20
17.62698318403931
  0
LWPOLYLINE
  5
257
330
1F
100
AcDbEntity
  8
AREA_D
100
AcDbPolyline
 90
        2
 70
     0
 43
0.0500000007450581
 10
2.620943012658039
 20
17.62698318403931
 10
2.620943012658039
 20
18.52698089522096
  0
LWPOLYLINE
  5
258
330
1F
100
AcDbEntity
  8
AREA_D
100
AcDbPolyline
 90
        2
 70
     0
 43
0.0500000007450581
 10
2.620943012658039
 20
18.52698089522096
 10
2.320939960900226
 20
18.52698089522096
  0
LWPOLYLINE
  5
259
330
1F
100
AcDbEntity
  8
AREA_D
100
AcDbPolyline
 90
        2
 70
     0
 43
0.0500000007450581
 10
4.171869221154132
 20
20.49043609541627
 10
4.171869221154132
 20
19.59043838423463
  0
LWPOLYLINE
  5
25A
330
1F
100
AcDbEntity
  8
AREA_D
100
AcDbPolyline
 90
        2
 70
     0
 43
0.0500000007450581
 10
4.171869221154132
 20
19.59043838423463
 10
4.471872272911945
 20
19.59043838423463
  0
LWPOLYLINE
  5
25B
330
1F
100
AcDbEntity
  8
AREA_D
100
AcDbPolyline
 90
        2
 70
     0
 43
0.0500000007450581
 10
4.471872272911945
 20
19.59043838423463
 10
4.471872272911945
 20
20.49043609541627
  0
LWPOLYLINE
  5
25C
330
1F
100
AcDbEntity
  8
AREA_D
100
AcDbPolyline
 90
        2
 70
     0
 43
0.0500000007450581
 10
4.471872272911945
 20
20.49043609541627
 10
4.171869221154132
 20
20.49043609541627
  0
LWPOLYLINE
  5
25D
330
1F
100
AcDbEntity
  8
AREA_D
100
AcDbPolyline
 90
        2
 70
     0
 43
0.0500000007450581
 10
6.931528988305011
 20
18.79857208174439
 10
6.931528988305011
 20
17.89857437056275
  0
LWPOLYLINE
  5
25E
330
1F
100
AcDbEntity
  8
AREA_D
100
AcDbPolyline
 90
        2
 70
     0
 43
0.0500000007450581
 10
6.931528988305011
 20
17.89857437056275
 10
7.231532040062824
 20
17.89857437056275
  0
LWPOLYLINE
  5
25F
330
1F
100
AcDbEntity
  8
AREA_D
100
AcDbPolyline
 90
        2
 70
     0
 43
0.0500000007450581
 10
7.231532040062824
 20
17.89857437056275
 10
7.231532040062824
 20
18.79857208174439
  0
LWPOLYLINE
  5
260
330
1F
100
AcDbEntity
  8
AREA_D
100
AcDbPolyline
 90
        2
 70
     0
 43
0.0500000007450581
 10
7.231532040062824
 20
18.79857208174439
 10
6.931528988305011
 20
18.79857208174439
  0
LWPOLYLINE
  5
261
330
1F
100
AcDbEntity
  8
AREA_D
100
AcDbPolyline
 90
        2
 70
     0
 43
0.0500000007450581
 10
6.343820515099445
 20
23.84584762495728
 10
6.343820515099445
 20
22.94584991377564
  0
LWPOLYLINE
  5
262
330
1F
100
AcDbEntity
  8
AREA_D
100
AcDbPolyline
 90
        2
 70
     0
 43
0.0500000007450581
 10
6.343820515099445
 20
22.94584991377564
 10
6.643823566857257
 20
22.94584991377564
  0
LWPOLYLINE
  5
263
330
1F
100
AcDbEntity
  8
AREA_D
100
AcDbPolyline
 90
        2
 70
     0
 43
0.0500000007450581
 10
6.643823566857257
 20
22.94584991377564
 10
6.643823566857257
 20
23.84584762495728
  0
LWPOLYLINE
  5
264
330
1F
100
AcDbEntity
  8
AREA_D
100
AcDbPolyline
 90
        2
 70
     0
 43
0.0500000007450581
 10
6.643823566857257
 20
23.84584762495728
 10
6.343820515099445
 20
23.84584762495728
  0
LWPOLYLINE
  5
265
330
1F
100
AcDbEntity
  8
AREA_D
100
AcDbPolyline
 90
        2
 70
     0
 43
0.0500000007450581
 10
6.313711109581867
 20
22.73382522505494
 10
6.313711109581867
 20
21.8338275138733
  0
LWPOLYLINE
  5
266
330
1F
100
AcDbEntity
  8
AREA_D
100
AcDbPolyline
 90
        2
 70
     0
 43
0.0500000007450581
 10
6.313711109581867
 20
21.8338275138733
 10
6.613714161339679
 20
21.8338275138733
  0
LWPOLYLINE
  5
267
330
1F
100
AcDbEntity
  8
AREA_D
100
AcDbPolyline
 90
        2
 70
     0
 43
0.0500000007450581
 10
6.613714161339679
 20
21.8338275138733
 10
6.613714161339679
 20
22.73382522505494
  0
LWPOLYLINE
  5
268
330
1F
100
AcDbEntity
  8
AREA_D
100
AcDbPolyline
 90
        2
 70
     0
 43
0.0500000007450581
 10
6.613714161339679
 20
22.73382522505494
 10
6.313711109581867
 20
22.73382522505494
  0
LWPOLYLINE
  5
269
330
1F
100
AcDbEntity
  8
AREA_D
100
AcDbPolyline
 90
        2
 70
     0
 43
0.0500000007450581
 10
10.07296365779964
 20
21.59197761458131
 10
10.07296365779964
 20
20.69197990339967
  0
LWPOLYLINE
  5
26A
330
1F
100
AcDbEntity
  8
AREA_D
100
AcDbPolyline
 90
        2
 70
     0
 43
0.0500000007450581
 10
10.07296365779964
 20
20.69197990339967
 10
10.37296670955745
 20
20.69197990339967
  0
LWPOLYLINE
  5
26B
330
1F
100
AcDbEntity
  8
AREA_D
100
AcDbPolyline
 90
        2
 70
     0
 43
0.0500000007450581
 10
10.37296670955745
 20
20.69197990339967
 10
10.37296670955745
 20
21.59197761458131
  0
LWPOLYLINE
  5
26C
330
1F
100
AcDbEntity
  8
AREA_D
100
AcDbPolyline
 90
        2
 70
     0
 43
0.0500000007450581
 10
10.37296670955745
 20
21.59197761458131
 10
10.07296365779964
 20
21.59197761458131
  0
LWPOLYLINE
  5
26D
330
1F
100
AcDbEntity
  8
AREA_D
100
AcDbPolyline
 90
        2
 70
     0
 43
0.0500000007450581
 10
12.42543119472591
 20
19.36307861250611
 10
12.42543119472591
 20
18.46308090132447
  0
LWPOLYLINE
  5
26E
330
1F
100
AcDbEntity
  8
AREA_D
100
AcDbPolyline
 90
        2
 70
     0
 43
0.0500000007450581
 10
12.42543119472591
 20
18.46308090132447
 10
12.72543424648372
 20
18.46308090132447
  0
LWPOLYLINE
  5
26F
330
1F
100
AcDbEntity
  8
AREA_D
100
AcDbPolyline
 90
        2
 70
     0
 43
0.0500000007450581
 10
12.72543424648372
 20
18.46308090132447
 10
12.72543424648372
 20
19.36307861250611
  0
LWPOLYLINE
  5
270
330
1F
100
AcDbEntity
  8
AREA_D
100
AcDbPolyline
 90
        2
 70
     0
 43
0.0500000007450581
 10
12.72543424648372
 20
19.36307861250611
 10
12.42543119472591
 20
19.36307861250611
  0
LWPOLYLINE
  5
271
330
1F
100
AcDbEntity
  8
AREA_D
100
AcDbPolyline
 90
        2
 70
     0
 43
0.0500000007450581
 10
14.43070692104427
 20
22.66404869002076
 10
14.43070692104427
 20
21.76405097883912
  0
LWPOLYLINE
  5
272
330
1F
100
AcDbEntity
  8
AREA_D
100
AcDbPolyline
 90
        2
 70
     0
 43
0.0500000007450581
 10
14.43070692104427
 20
21.76405097883912
 10
14.73070997280208
 20
21.76405097883912
  0
LWPOLYLINE
  5
273
330
1F
100
AcDbEntity
  8
AREA_D
100
AcDbPolyline
 90
        2
 70
     0
 43
0.0500000007450581
 10
14.73070997280208
 20
21.76405097883912
 10
14.73070997280208
 20
22.66404869002076
  0
LWPOLYLINE
  5
274
330
1F
100
AcDbEntity
  8
AREA_D
100
AcDbPolyline
 90
        2
 70
     0
 43
0.0500000007450581
 10
14.73070997280208
 20
22.66404869002076
 10
14.43070692104427
 20
22.66404869002076
  0
LWPOLYLINE
  5
275
330
1F
100
AcDbEntity
  8
AREA_D
100
AcDbPolyline
 90
        2
 70
     0
 43
0.0500000007450581
 10
-7.826784190711102
 20
-9.826391678631582
 10
-7.826784190711102
 20
-10.72639129716186
  0
LWPOLYLINE
  5
276
330
1F
100
AcDbEntity
  8
AREA_D
100
AcDbPolyline
 90
        2
 70
     0
 43
0.0500000007450581
 10
-7.826784190711102
 20
-10.72639129716186
 10
-7.526781138953289
 20
-10.72639129716186
  0
LWPOLYLINE
  5
277
330
1F
100
AcDbEntity
  8
AREA_D
100
AcDbPolyline
 90
        2
 70
     0
 43
0.0500000007450581
 10
-7.526781138953289
 20
-10.72639129716186
 10
-7.526781138953289
 20
-9.826391678631582
  0
LWPOLYLINE
  5
278
330
1F
100
AcDbEntity
  8
AREA_D
100
AcDbPolyline
 90
        2
 70
     0
 43
0.0500000007450581
 10
-7.526781138953289
 20
-9.826391678631582
 10
-7.826784190711102
 20
-9.826391678631582
  0
LWPOLYLINE
  5
279
330
1F
100
AcDbEntity
  8
AREA_D
100
AcDbPolyline
 90
        2
 70
     0
 43
0.0500000007450581
 10
-7.546518382605633
 20
-8.879057389080801
 10
-7.546518382605633
 20
-9.779057007611074
  0
LWPOLYLINE
  5
27A
330
1F
100
AcDbEntity
  8
AREA_D
100
AcDbPolyline
 90
        2
 70
     0
 43
0.0500000007450581
 10
-7.546518382605633
 20
-9.779057007611074
 10
-7.246515330847821
 20
-9.779057007611074
  0
LWPOLYLINE
  5
27B
330
1F
100
AcDbEntity
  8
AREA_D
100
AcDbPolyline
 90
        2
 70
     0
 43
0.0500000007450581
 10
-7.246515330847821
 20
-9.779057007611074
 10
-7.246515330847821
 20
-8.879057389080801
  0
LWPOLYLINE
  5
27C
330
1F
100
AcDbEntity
  8
AREA_D
100
AcDbPolyline
 90
        2
 70
     0
 43
0.0500000007450581
 10
-7.246515330847821
 20
-8.879057389080801
 10
-7.546518382605633
 20
-8.879057389080801
  0
LWPOLYLINE
  5
27D
330
1F
100
AcDbEntity
  8
AREA_D
100
AcDbPolyline
 90
        2
 70
     0
 43
0.0500000007450581
 10
-9.552160319861493
 20
-7.989208679974356
 10
-9.552160319861493
 20
-8.889208298504629
  0
LWPOLYLINE
  5
27E
330
1F
100
AcDbEntity
  8
AREA_D
100
AcDbPolyline
 90
        2
 70
     0
 43
0.0500000007450581
 10
-9.552160319861493
 20
-8.889208298504629
 10
-9.25215726810368
 20
-8.889208298504629
  0
LWPOLYLINE
  5
27F
330
1F
100
AcDbEntity
  8
AREA_D
100
AcDbPolyline
 90
        2
 70
     0
 43
0.0500000007450581
 10
-9.25215726810368
 20
-8.889208298504629
 10
-9.25215726810368
 20
-7.989208679974356
  0
LWPOLYLINE
  5
280
330
1F
100
AcDbEntity
  8
AREA_D
100
AcDbPolyline
 90
        2
 70
     0
 43
0.0500000007450581
 10
-9.25215726810368
 20
-7.989208679974356
 10
-9.552160319861493
 20
-7.989208679974356
  0
LWPOLYLINE
  5
281
330
1F
100
AcDbEntity
  8
AREA_D
100
AcDbPolyline
 90
        2
 70
     0
 43
0.0500000007450581
 10
-9.589792308386883
 20
-6.833507519543447
 10
-9.589792308386883
 20
-7.733507138073721
  0
LWPOLYLINE
  5
282
330
1F
100
AcDbEntity
  8
AREA_D
100
AcDbPolyline
 90
        2
 70
     0
 43
0.0500000007450581
 10
-9.589792308386883
 20
-7.733507138073721
 10
-9.289787349280438
 20
-7.733507138073721
  0
LWPOLYLINE
  5
283
330
1F
100
AcDbEntity
  8
AREA_D
100
AcDbPolyline
 90
        2
 70
     0
 43
0.0500000007450581
 10
-9.289787349280438
 20
-7.733507138073721
 10
-9.289787349280438
 20
-6.833507519543447
  0
LWPOLYLINE
  5
284
330
1F
100
AcDbEntity
  8
AREA_D
100
AcDbPolyline
 90
        2
 70
     0
 43
0.0500000007450581
 10
-9.289787349280438
 20
-6.833507519543447
 10
-9.589792308386883
 20
-6.833507519543447
  0
LWPOLYLINE
  5
285
330
1F
100
AcDbEntity
  8
AREA_D
100
AcDbPolyline
 90
        2
 70
     0
 43
0.0500000007450581
 10
-6.814279613074383
 20
-4.520506363690176
 10
-6.814279613074383
 20
-5.420505982220449
  0
LWPOLYLINE
  5
286
330
1F
100
AcDbEntity
  8
AREA_D
100
AcDbPolyline
 90
        2
 70
     0
 43
0.0500000007450581
 10
-6.814279613074383
 20
-5.420505982220449
 10
-6.514276561316571
 20
-5.420505982220449
  0
LWPOLYLINE
  5
287
330
1F
100
AcDbEntity
  8
AREA_D
100
AcDbPolyline
 90
        2
 70
     0
 43
0.0500000007450581
 10
-6.514276561316571
 20
-5.420505982220449
 10
-6.514276561316571
 20
-4.520506363690176
  0
LWPOLYLINE
  5
288
330
1F
100
AcDbEntity
  8
AREA_D
100
AcDbPolyline
 90
        2
 70
     0
 43
0.0500000007450581
 10
-6.514276561316571
 20
-4.520506363690176
 10
-6.814279613074383
 20
-4.520506363690176
  0
LWPOLYLINE
  5
289
330
1F
100
AcDbEntity
  8
AREA_D
100
AcDbPolyline
 90
        2
 70
     0
 43
0.0500000007450581
 10
-9.264352855261883
 20
-2.112808686077871
 10
-9.264352855261883
 20
-3.012808304608145
  0
LWPOLYLINE
  5
28A
330
1F
100
AcDbEntity
  8
AREA_D
100
AcDbPolyline
 90
        2
 70
     0
 43
0.0500000007450581
 10
-9.264352855261883
 20
-3.012808304608145
 10
-8.96434980350407
 20
-3.012808304608145
  0
LWPOLYLINE
  5
28B
330
1F
100
AcDbEntity
  8
AREA_D
100
AcDbPolyline
 90
        2
 70
     0
 43
0.0500000007450581
 10
-8.96434980350407
 20
-3.012808304608145
 10
-8.96434980350407
 20
-2.112808686077871
  0
LWPOLYLINE
  5
28C
330
1F
100
AcDbEntity
  8
AREA_D
100
AcDbPolyline
 90
        2
 70
     0
 43
0.0500000007450581
 10
-8.96434980350407
 20
-2.112808686077871
 10
-9.264352855261883
 20
-2.112808686077871
  0
LWPOLYLINE
  5
28D
330
1F
100
AcDbEntity
  8
AREA_D
100
AcDbPolyline
 90
        2
 70
     0
 43
0.0500000007450581
 10
-9.287052211340985
 20
-1.032777171910086
 10
-9.287052211340985
 20
-1.932776790440359
  0
LWPOLYLINE
  5
28E
330
1F
100
AcDbEntity
  8
AREA_D
100
AcDbPolyline
 90
        2
 70
     0
 43
0.0500000007450581
 10
-9.287052211340985
 20
-1.932776790440359
 10
-8.987049159583172
 20
-1.932776790440359
  0
LWPOLYLINE
  5
28F
330
1F
100
AcDbEntity
  8
AREA_D
100
AcDbPolyline
 90
        2
 70
     0
 43
0.0500000007450581
 10
-8.987049159583172
 20
-1.932776790440359
 10
-8.987049159583172
 20
-1.032777171910086
  0
LWPOLYLINE
  5
290
330
1F
100
AcDbEntity
  8
AREA_D
100
AcDbPolyline
 90
        2
 70
     0
 43
0.0500000007450581
 10
-8.987049159583172
 20
-1.032777171910086
 10
-9.287052211340985
 20
-1.032777171910086
  0
LWPOLYLINE
  5
291
330
1F
100
AcDbEntity
  8
AREA_D
100
AcDbPolyline
 90
        2
 70
     0
 43
0.0500000007450581
 10
0.4988765148553043
 20
-3.404898148358145
 10
0.4988765148553043
 20
-4.304897766888418
  0
LWPOLYLINE
  5
292
330
1F
100
AcDbEntity
  8
AREA_D
100
AcDbPolyline
 90
        2
 70
     0
 43
0.0500000007450581
 10
0.4988765148553043
 20
-4.304897766888418
 10
0.7988795666131168
 20
-4.304897766888418
  0
LWPOLYLINE
  5
293
330
1F
100
AcDbEntity
  8
AREA_D
100
AcDbPolyline
 90
        2
 70
     0
 43
0.0500000007450581
 10
0.7988795666131168
 20
-4.304897766888418
 10
0.7988795666131168
 20
-3.404898148358145
  0
LWPOLYLINE
  5
294
330
1F
100
AcDbEntity
  8
AREA_D
100
AcDbPolyline
 90
        2
 70
     0
 43
0.0500000007450581
 10
0.7988795666131168
 20
-3.404898148358145
 10
0.4988765148553043
 20
-3.404898148358145
  0
LWPOLYLINE
  5
295
330
1F
100
AcDbEntity
  8
AREA_D
100
AcDbPolyline
 90
        2
 70
     0
 43
0.0500000007450581
 10
0.5708865551385074
 20
-7.683693390667715
 10
0.5708865551385074
 20
-8.583693009197988
  0
LWPOLYLINE
  5
296
330
1F
100
AcDbEntity
  8
AREA_D
100
AcDbPolyline
 90
        2
 70
     0
 43
0.0500000007450581
 10
0.5708865551385074
 20
-8.583693009197988
 10
0.8708896068963199
 20
-8.583693009197988
  0
LWPOLYLINE
  5
297
330
1F
100
AcDbEntity
  8
AREA_D
100
AcDbPolyline
 90
        2
 70
     0
 43
0.0500000007450581
 10
0.8708896068963199
 20
-8.583693009197988
 10
0.8708896068963199
 20
-7.683693390667715
  0
LWPOLYLINE
  5
298
330
1F
100
AcDbEntity
  8
AREA_D
100
AcDbPolyline
 90
        2
 70
     0
 43
0.0500000007450581
 10
0.8708896068963199
 20
-7.683693390667715
 10
0.5708865551385074
 20
-7.683693390667715
  0
LWPOLYLINE
  5
299
330
1F
100
AcDbEntity
  8
AREA_D
100
AcDbPolyline
 90
        2
 70
     0
 43
0.0500000007450581
 10
1.152612629357257
 20
-5.788039189160147
 10
1.152612629357257
 20
-6.68803880769042
  0
LWPOLYLINE
  5
29A
330
1F
100
AcDbEntity
  8
AREA_D
100
AcDbPolyline
 90
        2
 70
     0
 43
0.0500000007450581
 10
1.152612629357257
 20
-6.68803880769042
 10
1.45261568111507
 20
-6.68803880769042
  0
LWPOLYLINE
  5
29B
330
1F
100
AcDbEntity
  8
AREA_D
100
AcDbPolyline
 90
        2
 70
     0
 43
0.0500000007450581
 10
1.45261568111507
 20
-6.68803880769042
 10
1.45261568111507
 20
-5.788039189160147
  0
LWPOLYLINE
  5
29C
330
1F
100
AcDbEntity
  8
AREA_D
100
AcDbPolyline
 90
        2
 70
     0
 43
0.0500000007450581
 10
1.45261568111507
 20
-5.788039189160147
 10
1.152612629357257
 20
-5.788039189160147
  0
LWPOLYLINE
  5
29D
330
1F
100
AcDbEntity
  8
AREA_D
100
AcDbPolyline
 90
        2
 70
     0
 43
0.0500000007450581
 10
2.761693897667804
 20
-2.386600952923574
 10
2.761693897667804
 20
-3.286600571453848
  0
LWPOLYLINE
  5
29E
330
1F
100
AcDbEntity
  8
AREA_D
100
AcDbPolyline
 90
        2
 70
     0
 43
0.0500000007450581
 10
2.761693897667804
 20
-3.286600571453848
 10
3.061696949425617
 20
-3.286600571453848
  0
LWPOLYLINE
  5
29F
330
1F
100
AcDbEntity
  8
AREA_D
100
AcDbPolyline
 90
        2
 70
     0
 43
0.0500000007450581
 10
3.061696949425617
 20
-3.286600571453848
 10
3.061696949425617
 20
-2.386600952923574
  0
LWPOLYLINE
  5
2A0
330
1F
100
AcDbEntity
  8
AREA_D
100
AcDbPolyline
 90
        2
 70
     0
 43
0.0500000007450581
 10
3.061696949425617
 20
-2.386600952923574
 10
2.761693897667804
 20
-2.386600952923574
  0
LWPOLYLINE
  5
2A1
330
1F
100
AcDbEntity
  8
AREA_D
100
AcDbPolyline
 90
        2
 70
     0
 43
0.0500000007450581
 10
2.787198963585773
 20
-3.827547531903067
 10
2.787198963585773
 20
-4.72754715043334
  0
LWPOLYLINE
  5
2A2
330
1F
100
AcDbEntity
  8
AREA_D
100
AcDbPolyline
 90
        2
 70
     0
 43
0.0500000007450581
 10
2.787198963585773
 20
-4.72754715043334
 10
3.087202015343586
 20
-4.72754715043334
  0
LWPOLYLINE
  5
2A3
330
1F
100
AcDbEntity
  8
AREA_D
100
AcDbPolyline
 90
        2
 70
     0
 43
0.0500000007450581
 10
3.087202015343586
 20
-4.72754715043334
 10
3.087202015343586
 20
-3.827547531903067
  0
LWPOLYLINE
  5
2A4
330
1F
100
AcDbEntity
  8
AREA_D
100
AcDbPolyline
 90
        2
 70
     0
 43
0.0500000007450581
 10
3.087202015343586
 20
-3.827547531903067
 10
2.787198963585773
 20
-3.827547531903067
  0
LWPOLYLINE
  5
2A5
330
1F
100
AcDbEntity
  8
AREA_D
100
AcDbPolyline
 90
        2
 70
     0
 43
0.0500000007450581
 10
5.066892567101398
 20
-7.871302109539785
 10
5.066892567101398
 20
-8.771301728070059
  0
LWPOLYLINE
  5
2A6
330
1F
100
AcDbEntity
  8
AREA_D
100
AcDbPolyline
 90
        2
 70
     0
 43
0.0500000007450581
 10
5.066892567101398
 20
-8.771301728070059
 10
5.366895618859211
 20
-8.771301728070059
  0
LWPOLYLINE
  5
2A7
330
1F
100
AcDbEntity
  8
AREA_D
100
AcDbPolyline
 90
        2
 70
     0
 43
0.0500000007450581
 10
5.366895618859211
 20
-8.771301728070059
 10
5.366895618859211
 20
-7.871302109539785
  0
LWPOLYLINE
  5
2A8
330
1F
100
AcDbEntity
  8
AREA_D
100
AcDbPolyline
 90
        2
 70
     0
 43
0.0500000007450581
 10
5.366895618859211
 20
-7.871302109539785
 10
5.066892567101398
 20
-7.871302109539785
  0
LWPOLYLINE
  5
2A9
330
1F
100
AcDbEntity
  8
AREA_D
100
AcDbPolyline
 90
        2
 70
     0
 43
0.0500000007450581
 10
-10.27347761112126
 20
-18.00892875748901
 10
-10.27347761112126
 20
-18.90892646867065
  0
LWPOLYLINE
  5
2AA
330
1F
100
AcDbEntity
  8
AREA_D
100
AcDbPolyline
 90
        2
 70
     0
 43
0.0500000007450581
 10
-10.27347761112126
 20
-18.90892646867065
 10
-9.973474559363446
 20
-18.90892646867065
  0
LWPOLYLINE
  5
2AB
330
1F
100
AcDbEntity
  8
AREA_D
100
AcDbPolyline
 90
        2
 70
     0
 43
0.0500000007450581
 10
-9.973474559363446
 20
-18.90892646867065
 10
-9.973474559363446
 20
-18.00892875748901
  0
LWPOLYLINE
  5
2AC
330
1F
100
AcDbEntity
  8
AREA_D
100
AcDbPolyline
 90
        2
 70
     0
 43
0.0500000007450581
 10
-9.973474559363446
 20
-18.00892875748901
 10
-10.27347761112126
 20
-18.00892875748901
  0
LWPOLYLINE
  5
2AD
330
1F
100
AcDbEntity
  8
AREA_D
100
AcDbPolyline
 90
        2
 70
     0
 43
0.0500000007450581
 10
-8.172731456336102
 20
-23.39114616471557
 10
-8.172731456336102
 20
-24.29114769059447
  0
LWPOLYLINE
  5
2AE
330
1F
100
AcDbEntity
  8
AREA_D
100
AcDbPolyline
 90
        2
 70
     0
 43
0.0500000007450581
 10
-8.172731456336102
 20
-24.29114769059447
 10
-7.872728404578289
 20
-24.29114769059447
  0
LWPOLYLINE
  5
2AF
330
1F
100
AcDbEntity
  8
AREA_D
100
AcDbPolyline
 90
        2
 70
     0
 43
0.0500000007450581
 10
-7.872728404578289
 20
-24.29114769059447
 10
-7.872728404578289
 20
-23.39114616471557
  0
LWPOLYLINE
  5
2B0
330
1F
100
AcDbEntity
  8
AREA_D
100
AcDbPolyline
 90
        2
 70
     0
 43
0.0500000007450581
 10
-7.872728404578289
 20
-23.39114616471557
 10
-8.172731456336102
 20
-23.39114616471557
  0
LWPOLYLINE
  5
2B1
330
1F
100
AcDbEntity
  8
AREA_D
100
AcDbPolyline
 90
        2
 70
     0
 43
0.0500000007450581
 10
-8.19011121707829
 20
-20.48496482926635
 10
-8.19011121707829
 20
-21.38496254044799
  0
LWPOLYLINE
  5
2B2
330
1F
100
AcDbEntity
  8
AREA_D
100
AcDbPolyline
 90
        2
 70
     0
 43
0.0500000007450581
 10
-8.19011121707829
 20
-21.38496254044799
 10
-7.890108165320477
 20
-21.38496254044799
  0
LWPOLYLINE
  5
2B3
330
1F
100
AcDbEntity
  8
AREA_D
100
AcDbPolyline
 90
        2
 70
     0
 43
0.0500000007450581
 10
-7.890108165320477
 20
-21.38496254044799
 10
-7.890108165320477
 20
-20.48496482926635
  0
LWPOLYLINE
  5
2B4
330
1F
100
AcDbEntity
  8
AREA_D
100
AcDbPolyline
 90
        2
 70
     0
 43
0.0500000007450581
 10
-7.890108165320477
 20
-20.48496482926635
 10
-8.19011121707829
 20
-20.48496482926635
  0
LWPOLYLINE
  5
2B5
330
1F
100
AcDbEntity
  8
AREA_D
100
AcDbPolyline
 90
        2
 70
     0
 43
0.0500000007450581
 10
-10.52411085086735
 20
-19.94145057755737
 10
-10.52411085086735
 20
-20.84145210343627
  0
LWPOLYLINE
  5
2B6
330
1F
100
AcDbEntity
  8
AREA_D
100
AcDbPolyline
 90
        2
 70
     0
 43
0.0500000007450581
 10
-10.52411085086735
 20
-20.84145210343627
 10
-10.22410779910954
 20
-20.84145210343627
  0
LWPOLYLINE
  5
2B7
330
1F
100
AcDbEntity
  8
AREA_D
100
AcDbPolyline
 90
        2
 70
     0
 43
0.0500000007450581
 10
-10.22410779910954
 20
-20.84145210343627
 10
-10.22410779910954
 20
-19.94145057755737
  0
LWPOLYLINE
  5
2B8
330
1F
100
AcDbEntity
  8
AREA_D
100
AcDbPolyline
 90
        2
 70
     0
 43
0.0500000007450581
 10
-10.22410779910954
 20
-19.94145057755737
 10
-10.52411085086735
 20
-19.94145057755737
  0
LWPOLYLINE
  5
2B9
330
1F
100
AcDbEntity
  8
AREA_D
100
AcDbPolyline
 90
        2
 70
     0
 43
0.0500000007450581
 10
-10.54418378787907
 20
-23.74400184708862
 10
-10.54418378787907
 20
-24.64399955827026
  0
LWPOLYLINE
  5
2BA
330
1F
100
AcDbEntity
  8
AREA_D
100
AcDbPolyline
 90
        2
 70
     0
 43
0.0500000007450581
 10
-10.54418378787907
 20
-24.64399955827026
 10
-10.24418073612126
 20
-24.64399955827026
  0
LWPOLYLINE
  5
2BB
330
1F
100
AcDbEntity
  8
AREA_D
100
AcDbPolyline
 90
        2
 70
     0
 43
0.0500000007450581
 10
-10.24418073612126
 20
-24.64399955827026
 10
-10.24418073612126
 20
-23.74400184708862
  0
LWPOLYLINE
  5
2BC
330
1F
100
AcDbEntity
  8
AREA_D
100
AcDbPolyline
 90
        2
 70
     0
 43
0.0500000007450581
 10
-10.24418073612126
 20
-23.74400184708862
 10
-10.54418378787907
 20
-23.74400184708862
  0
LWPOLYLINE
  5
2BD
330
1F
100
AcDbEntity
  8
AREA_D
100
AcDbPolyline
 90
        2
 70
     0
 43
0.0500000007450581
 10
-5.756227550086102
 20
-17.8110642250183
 10
-5.756227550086102
 20
-18.71106193619994
  0
LWPOLYLINE
  5
2BE
330
1F
100
AcDbEntity
  8
AREA_D
100
AcDbPolyline
 90
        2
 70
     0
 43
0.0500000007450581
 10
-5.756227550086102
 20
-18.71106193619994
 10
-5.456224498328289
 20
-18.71106193619994
  0
LWPOLYLINE
  5
2BF
330
1F
100
AcDbEntity
  8
AREA_D
100
AcDbPolyline
 90
        2
 70
     0
 43
0.0500000007450581
 10
-5.456224498328289
 20
-18.71106193619994
 10
-5.456224498328289
 20
-17.8110642250183
  0
LWPOLYLINE
  5
2C0
330
1F
100
AcDbEntity
  8
AREA_D
100
AcDbPolyline
 90
        2
 70
     0
 43
0.0500000007450581
 10
-5.456224498328289
 20
-17.8110642250183
 10
-5.756227550086102
 20
-17.8110642250183
  0
LWPOLYLINE
  5
2C1
330
1F
100
AcDbEntity
  8
AREA_D
100
AcDbPolyline
 90
        2
 70
     0
 43
0.0500000007450581
 10
-3.615999278601727
 20
-18.14914558488158
 10
-3.615999278601727
 20
-19.04914329606322
  0
LWPOLYLINE
  5
2C2
330
1F
100
AcDbEntity
  8
AREA_D
100
AcDbPolyline
 90
        2
 70
     0
 43
0.0500000007450581
 10
-3.615999278601727
 20
-19.04914329606322
 10
-3.315996226843914
 20
-19.04914329606322
  0
LWPOLYLINE
  5
2C3
330
1F
100
AcDbEntity
  8
AREA_D
100
AcDbPolyline
 90
        2
 70
     0
 43
0.0500000007450581
 10
-3.315996226843914
 20
-19.04914329606322
 10
-3.315996226843914
 20
-18.14914558488158
  0
LWPOLYLINE
  5
2C4
330
1F
100
AcDbEntity
  8
AREA_D
100
AcDbPolyline
 90
        2
 70
     0
 43
0.0500000007450581
 10
-3.315996226843914
 20
-18.14914558488158
 10
-3.615999278601727
 20
-18.14914558488158
  0
LWPOLYLINE
  5
2C5
330
1F
100
AcDbEntity
  8
AREA_D
100
AcDbPolyline
 90
        2
 70
     0
 43
0.0500000007450581
 10
-1.192125377234539
 20
-17.74139259415893
 10
-1.192125377234539
 20
-18.64139030534057
  0
LWPOLYLINE
  5
2C6
330
1F
100
AcDbEntity
  8
AREA_D
100
AcDbPolyline
 90
        2
 70
     0
 43
0.0500000007450581
 10
-1.192125377234539
 20
-18.64139030534057
 10
-0.892122325476727
 20
-18.64139030534057
  0
LWPOLYLINE
  5
2C7
330
1F
100
AcDbEntity
  8
AREA_D
100
AcDbPolyline
 90
        2
 70
     0
 43
0.0500000007450581
 10
-0.892122325476727
 20
-18.64139030534057
 10
-0.892122325476727
 20
-17.74139259415893
  0
LWPOLYLINE
  5
2C8
330
1F
100
AcDbEntity
  8
AREA_D
100
AcDbPolyline
 90
        2
 70
     0
 43
0.0500000007450581
 10
-0.892122325476727
 20
-17.74139259415893
 10
-1.192125377234539
 20
-17.74139259415893
  0
LWPOLYLINE
  5
2C9
330
1F
100
AcDbEntity
  8
AREA_D
100
AcDbPolyline
 90
        2
 70
     0
 43
0.0500000007450581
 10
-1.410043773230633
 20
-19.76402519303588
 10
-1.410043773230633
 20
-20.66402290421752
  0
LWPOLYLINE
  5
2CA
330
1F
100
AcDbEntity
  8
AREA_D
100
AcDbPolyline
 90
        2
 70
     0
 43
0.0500000007450581
 10
-1.410043773230633
 20
-20.66402290421752
 10
-1.110040721472821
 20
-20.66402290421752
  0
LWPOLYLINE
  5
2CB
330
1F
100
AcDbEntity
  8
AREA_D
100
AcDbPolyline
 90
        2
 70
     0
 43
0.0500000007450581
 10
-1.110040721472821
 20
-20.66402290421752
 10
-1.110040721472821
 20
-19.76402519303588
  0
LWPOLYLINE
  5
2CC
330
1F
100
AcDbEntity
  8
AREA_D
100
AcDbPolyline
 90
        2
 70
     0
 43
0.0500000007450581
 10
-1.110040721472821
 20
-19.76402519303588
 10
-1.410043773230633
 20
-19.76402519303588
  0
LWPOLYLINE
  5
2CD
330
1F
100
AcDbEntity
  8
AREA_D
100
AcDbPolyline
 90
        2
 70
     0
 43
0.0500000007450581
 10
0.9900340465935855
 20
-17.96558998185424
 10
0.9900340465935855
 20
-18.86559150773315
  0
LWPOLYLINE
  5
2CE
330
1F
100
AcDbEntity
  8
AREA_D
100
AcDbPolyline
 90
        2
 70
     0
 43
0.0500000007450581
 10
0.9900340465935855
 20
-18.86559150773315
 10
1.290037098351398
 20
-18.86559150773315
  0
LWPOLYLINE
  5
2CF
330
1F
100
AcDbEntity
  8
AREA_D
100
AcDbPolyline
 90
        2
 70
     0
 43
0.0500000007450581
 10
1.290037098351398
 20
-18.86559150773315
 10
1.290037098351398
 20
-17.96558998185424
  0
LWPOLYLINE
  5
2D0
330
1F
100
AcDbEntity
  8
AREA_D
100
AcDbPolyline
 90
        2
 70
     0
 43
0.0500000007450581
 10
1.290037098351398
 20
-17.96558998185424
 10
0.9900340465935855
 20
-17.96558998185424
  0
LWPOLYLINE
  5
2D1
330
1F
100
AcDbEntity
  8
AREA_D
100
AcDbPolyline
 90
        2
 70
     0
 43
0.0500000007450581
 10
3.399122181359211
 20
-17.81599281388549
 10
3.399122181359211
 20
-18.7159943397644
  0
LWPOLYLINE
  5
2D2
330
1F
100
AcDbEntity
  8
AREA_D
100
AcDbPolyline
 90
        2
 70
     0
 43
0.0500000007450581
 10
3.399122181359211
 20
-18.7159943397644
 10
3.699125233117023
 20
-18.7159943397644
  0
LWPOLYLINE
  5
2D3
330
1F
100
AcDbEntity
  8
AREA_D
100
AcDbPolyline
 90
        2
 70
     0
 43
0.0500000007450581
 10
3.699125233117023
 20
-18.7159943397644
 10
3.699125233117023
 20
-17.81599281388549
  0
LWPOLYLINE
  5
2D4
330
1F
100
AcDbEntity
  8
AREA_D
100
AcDbPolyline
 90
        2
 70
     0
 43
0.0500000007450581
 10
3.699125233117023
 20
-17.81599281388549
 10
3.399122181359211
 20
-17.81599281388549
  0
LWPOLYLINE
  5
2D5
330
1F
100
AcDbEntity
  8
AREA_D
100
AcDbPolyline
 90
        2
 70
     0
 43
0.0500000007450581
 10
3.045148792687336
 20
-19.27640388566283
 10
3.045148792687336
 20
-20.17640159684447
  0
LWPOLYLINE
  5
2D6
330
1F
100
AcDbEntity
  8
AREA_D
100
AcDbPolyline
 90
        2
 70
     0
 43
0.0500000007450581
 10
3.045148792687336
 20
-20.17640159684447
 10
3.345151844445148
 20
-20.17640159684447
  0
LWPOLYLINE
  5
2D7
330
1F
100
AcDbEntity
  8
AREA_D
100
AcDbPolyline
 90
        2
 70
     0
 43
0.0500000007450581
 10
3.345151844445148
 20
-20.17640159684447
 10
3.345151844445148
 20
-19.27640388566283
  0
LWPOLYLINE
  5
2D8
330
1F
100
AcDbEntity
  8
AREA_D
100
AcDbPolyline
 90
        2
 70
     0
 43
0.0500000007450581
 10
3.345151844445148
 20
-19.27640388566283
 10
3.045148792687336
 20
-19.27640388566283
  0
LWPOLYLINE
  5
2D9
330
1F
100
AcDbEntity
  8
AREA_D
100
AcDbPolyline
 90
        2
 70
     0
 43
0.0500000007450581
 10
3.013997974816242
 20
-23.03108451920776
 10
3.013997974816242
 20
-23.93108604508666
  0
LWPOLYLINE
  5
2DA
330
1F
100
AcDbEntity
  8
AREA_D
100
AcDbPolyline
 90
        2
 70
     0
 43
0.0500000007450581
 10
3.013997974816242
 20
-23.93108604508666
 10
3.314001026574054
 20
-23.93108604508666
  0
LWPOLYLINE
  5
2DB
330
1F
100
AcDbEntity
  8
AREA_D
100
AcDbPolyline
 90
        2
 70
     0
 43
0.0500000007450581
 10
3.314001026574054
 20
-23.93108604508666
 10
3.314001026574054
 20
-23.03108451920776
  0
LWPOLYLINE
  5
2DC
330
1F
100
AcDbEntity
  8
AREA_D
100
AcDbPolyline
 90
        2
 70
     0
 43
0.0500000007450581
 10
3.314001026574054
 20
-23.03108451920776
 10
3.013997974816242
 20
-23.03108451920776
  0
TEXT
  5
2DE
102
{ACAD_XDICTIONARY
360
2DF
102
}
330
1F
100
AcDbEntity
  8
AREA_D
  6
CONTINUOUS
 62
     7
100
AcDbText
 10
-10.10811811405095
 20
-24.26644500698854
 30
0.0
 40
0.5043478210767111
  1
1
  7
_TCW_TXTSTY_2
 11
-10.10811811405095
 21
-24.41568611222533
 31
0.0
100
AcDbText
 73
     1
  0
TEXT
  5
2E1
102
{ACAD_XDICTIONARY
360
2E2
102
}
330
1F
100
AcDbEntity
  8
AREA_D
  6
CONTINUOUS
 62
     7
100
AcDbText
 10
-7.550516185340008
 20
-23.90678390469362
 30
0.0
 40
0.5043478210767111
  1
4
  7
_TCW_TXTSTY_2
 11
-7.550516185340008
 21
-24.05602500993041
 31
0.0
100
AcDbText
 73
     1
  0
TEXT
  5
2E4
102
{ACAD_XDICTIONARY
360
2E5
102
}
330
1F
100
AcDbEntity
  8
AREA_D
  6
CONTINUOUS
 62
     7
100
AcDbText
 10
-7.708314952429852
 20
-21.04536041226198
 30
0.0
 40
0.5043478210767111
  1
5
  7
_TCW_TXTSTY_2
 11
-7.708314952429852
 21
-21.19460151749877
 31
0.0
100
AcDbText
 73
     1
  0
TEXT
  5
2E7
102
{ACAD_XDICTIONARY
360
2E8
102
}
330
1F
100
AcDbEntity
  8
AREA_D
  6
CONTINUOUS
 62
     7
100
AcDbText
 10
-0.8368092151251645
 20
-20.60987457241823
 30
0.0
 40
0.5043478210767111
  1
10
  7
_TCW_TXTSTY_2
 11
-0.8368092151251645
 21
-20.75911567765502
 31
0.0
100
AcDbText
 73
     1
  0
TEXT
  5
2EA
102
{ACAD_XDICTIONARY
360
2EB
102
}
330
1F
100
AcDbEntity
  8
AREA_D
  6
CONTINUOUS
 62
     7
100
AcDbText
 10
1.480627003136554
 20
-18.57024749722292
 30
0.0
 40
0.5043478210767111
  1
12
  7
_TCW_TXTSTY_2
 11
1.480627003136554
 21
-18.71948860245971
 31
0.0
100
AcDbText
 73
     1
  0
TEXT
  5
2ED
102
{ACAD_XDICTIONARY
360
2EE
102
}
330
1F
100
AcDbEntity
  8
AREA_D
  6
CONTINUOUS
 62
     7
100
AcDbText
 10
3.841459217492023
 20
-18.45461257901003
 30
0.0
 40
0.5043478210767111
  1
15
  7
_TCW_TXTSTY_2
 11
3.841459217492023
 21
-18.60385368424682
 31
0.0
100
AcDbText
 73
     1
  0
TEXT
  5
2F0
102
{ACAD_XDICTIONARY
360
2F1
102
}
330
1F
100
AcDbEntity
  8
AREA_D
  6
CONTINUOUS
 62
     7
100
AcDbText
 10
3.475286426964679
 20
-19.83256515469362
 30
0.0
 40
0.5043478210767111
  1
14
  7
_TCW_TXTSTY_2
 11
3.475286426964679
 21
-19.98180625993041
 31
0.0
100
AcDbText
 73
     1
  0
TEXT
  5
2F3
102
{ACAD_XDICTIONARY
360
2F4
102
}
330
1F
100
AcDbEntity
  8
AREA_D
  6
CONTINUOUS
 62
     7
100
AcDbText
 10
3.427106800499836
 20
-23.60025390591433
 30
0.0
 40
0.5043478210767111
  1
13
  7
_TCW_TXTSTY_2
 11
3.427106800499836
 21
-23.74949501115112
 31
0.0
100
AcDbText
 73
     1
  0
TEXT
  5
2F6
102
{ACAD_XDICTIONARY
360
2F7
102
}
330
1F
100
AcDbEntity
  8
AREA_D
  6
CONTINUOUS
 62
     7
100
AcDbText
 10
-0.7522984119025082
 20
-18.391982879303
 30
0.0
 40
0.5043478210767111
  1
11
  7
_TCW_TXTSTY_2
 11
-0.7522984119025082
 21
-18.54122398453979
 31
0.0
100
AcDbText
 73
     1
  0
TEXT
  5
2F9
102
{ACAD_XDICTIONARY
360
2FA
102
}
330
1F
100
AcDbEntity
  8
AREA_D
  6
CONTINUOUS
 62
     7
100
AcDbText
 10
-3.054735240515789
 20
-18.33200820889284
 30
0.0
 40
0.5043478210767111
  1
9
  7
_TCW_TXTSTY_2
 11
-3.054735240515789
 21
-18.48124931412963
 31
0.0
100
AcDbText
 73
     1
  0
TEXT
  5
2FC
102
{ACAD_XDICTIONARY
360
2FD
102
}
330
1F
100
AcDbEntity
  8
AREA_D
  6
CONTINUOUS
 62
     7
100
AcDbText
 10
-5.252672252234539
 20
-16.99326309170534
 30
0.0
 40
0.5043478210767111
  1
8
  7
_TCW_TXTSTY_2
 11
-5.252672252234539
 21
-17.14250419694213
 31
0.0
100
AcDbText
 73
     1
  0
TEXT
  5
2FF
102
{ACAD_XDICTIONARY
360
300
102
}
330
1F
100
AcDbEntity
  8
AREA_D
  6
CONTINUOUS
 62
     7
100
AcDbText
 10
-8.66411786991032
 20
-2.642536010406511
 30
0.0
 40
0.5043478210767111
  1
19
  7
_TCW_TXTSTY_2
 11
-8.66411786991032
 21
-2.791777115643301
 31
0.0
100
AcDbText
 73
     1
  0
TEXT
  5
302
102
{ACAD_XDICTIONARY
360
303
102
}
330
1F
100
AcDbEntity
  8
AREA_D
  6
CONTINUOUS
 62
     7
100
AcDbText
 10
-8.686817225989422
 20
-1.562504496238725
 30
0.0
 40
0.5043478210767111
  1
20
  7
_TCW_TXTSTY_2
 11
-8.686817225989422
 21
-1.711745601475515
 31
0.0
100
AcDbText
 73
     1
  0
TEXT
  5
305
102
{ACAD_XDICTIONARY
360
306
102
}
330
1F
100
AcDbEntity
  8
AREA_D
  6
CONTINUOUS
 62
     7
100
AcDbText
 10
6.379043522301593
 20
-2.677457894943254
 30
0.0
 40
0.5043478210767111
  1
41
  7
_TCW_TXTSTY_2
 11
6.379043522301593
 21
-2.826699000180044
 31
0.0
100
AcDbText
 73
     1
  0
TEXT
  5
308
102
{ACAD_XDICTIONARY
360
309
102
}
330
1F
100
AcDbEntity
  8
AREA_D
  6
CONTINUOUS
 62
     7
100
AcDbText
 10
6.430810871544757
 20
0.8195303419608906
 30
0.0
 40
0.5043478210767111
  1
44
  7
_TCW_TXTSTY_2
 11
6.430810871544757
 21
0.6702892367241002
 31
0.0
100
AcDbText
 73
     1
  0
TEXT
  5
30B
102
{ACAD_XDICTIONARY
360
30C
102
}
330
1F
100
AcDbEntity
  8
AREA_D
  6
CONTINUOUS
 62
     7
100
AcDbText
 10
4.119911137047687
 20
-0.7420399447899029
 30
0.0
 40
0.5043478210767111
  1
42
  7
_TCW_TXTSTY_2
 11
4.119911137047687
 21
-0.8912810500266932
 31
0.0
100
AcDbText
 73
     1
  0
TEXT
  5
30E
102
{ACAD_XDICTIONARY
360
30F
102
}
330
1F
100
AcDbEntity
  8
AREA_D
  6
CONTINUOUS
 62
     7
100
AcDbText
 10
1.969528141442218
 20
-1.387168492935197
 30
0.0
 40
0.5043478210767111
  1
29
  7
_TCW_TXTSTY_2
 11
1.969528141442218
 21
-1.536409598171987
 31
0.0
100
AcDbText
 73
     1
  0
TEXT
  5
311
102
{ACAD_XDICTIONARY
360
312
102
}
330
1F
100
AcDbEntity
  8
AREA_D
  6
CONTINUOUS
 62
     7
100
AcDbText
 10
1.802749576989093
 20
-0.2161330392580196
 30
0.0
 40
0.5043478210767111
  1
30
  7
_TCW_TXTSTY_2
 11
1.802749576989093
 21
-0.36537414449481
 31
0.0
100
AcDbText
 73
     1
  0
TEXT
  5
314
102
{ACAD_XDICTIONARY
360
315
102
}
330
1F
100
AcDbEntity
  8
AREA_D
  6
CONTINUOUS
 62
     7
100
AcDbText
 10
1.640983524743
 20
2.431032810546859
 30
0.0
 40
0.5043478210767111
  1
31
  7
_TCW_TXTSTY_2
 11
1.640983524743
 21
2.281791705310068
 31
0.0
100
AcDbText
 73
     1
  0
TEXT
  5
317
102
{ACAD_XDICTIONARY
360
318
102
}
330
1F
100
AcDbEntity
  8
AREA_D
  6
CONTINUOUS
 62
     7
100
AcDbText
 10
0.5420131115349918
 20
5.295014534332259
 30
0.0
 40
0.5043478210767111
  1
32
  7
_TCW_TXTSTY_2
 11
0.5420131115349918
 21
5.145773429095469
 31
0.0
100
AcDbText
 73
     1
  0
TEXT
  5
31A
102
{ACAD_XDICTIONARY
360
31B
102
}
330
1F
100
AcDbEntity
  8
AREA_D
  6
CONTINUOUS
 62
     7
100
AcDbText
 10
4.436387958947101
 20
4.096372280456527
 30
0.0
 40
0.5043478210767111
  1
38
  7
_TCW_TXTSTY_2
 11
4.436387958947101
 21
3.947131175219736
 31
0.0
100
AcDbText
 73
     1
  0
TEXT
  5
31D
102
{ACAD_XDICTIONARY
360
31E
102
}
330
1F
100
AcDbEntity
  8
AREA_D
  6
CONTINUOUS
 62
     7
100
AcDbText
 10
4.390031757775226
 20
6.212889347412093
 30
0.0
 40
0.5043478210767111
  1
39
  7
_TCW_TXTSTY_2
 11
4.390031757775226
 21
6.063648242175303
 31
0.0
100
AcDbText
 73
     1
  0
TEXT
  5
320
102
{ACAD_XDICTIONARY
360
321
102
}
330
1F
100
AcDbEntity
  8
AREA_D
  6
CONTINUOUS
 62
     7
100
AcDbText
 10
8.070897999230304
 20
-5.47419580426027
 30
0.0
 40
0.5043478210767111
  1
47
  7
_TCW_TXTSTY_2
 11
8.070897999230304
 21
-5.623436909497061
 31
0.0
100
AcDbText
 73
     1
  0
TEXT
  5
323
102
{ACAD_XDICTIONARY
360
324
102
}
330
1F
100
AcDbEntity
  8
AREA_D
  6
CONTINUOUS
 62
     7
100
AcDbText
 10
10.487832012597
 20
-6.018330897949235
 30
0.0
 40
0.5043478210767111
  1
49
  7
_TCW_TXTSTY_2
 11
10.487832012597
 21
-6.167572003186025
 31
0.0
100
AcDbText
 73
     1
  0
TEXT
  5
326
102
{ACAD_XDICTIONARY
360
327
102
}
330
1F
100
AcDbEntity
  8
AREA_D
  6
CONTINUOUS
 62
     7
100
AcDbText
 10
8.98406976741878
 20
-7.717521991394059
 30
0.0
 40
0.5043478210767111
  1
46
  7
_TCW_TXTSTY_2
 11
8.98406976741878
 21
-7.86676309663085
 31
0.0
100
AcDbText
 73
     1
  0
TEXT
  5
329
102
{ACAD_XDICTIONARY
360
32A
102
}
330
1F
100
AcDbEntity
  8
AREA_D
  6
CONTINUOUS
 62
     7
100
AcDbText
 10
4.963411274376789
 20
-13.33818801846315
 30
0.0
 40
0.5043478210767111
  1
43
  7
_TCW_TXTSTY_2
 11
4.963411274376789
 21
-13.48742912369994
 31
0.0
100
AcDbText
 73
     1
  0
TEXT
  5
32C
102
{ACAD_XDICTIONARY
360
32D
102
}
330
1F
100
AcDbEntity
  8
AREA_D
  6
CONTINUOUS
 62
     7
100
AcDbText
 10
2.988882008019367
 20
-10.71180328335573
 30
0.0
 40
0.5043478210767111
  1
34
  7
_TCW_TXTSTY_2
 11
2.988882008019367
 21
-10.86104438859252
 31
0.0
100
AcDbText
 73
     1
  0
TEXT
  5
32F
102
{ACAD_XDICTIONARY
360
330
102
}
330
1F
100
AcDbEntity
  8
AREA_D
  6
CONTINUOUS
 62
     7
100
AcDbText
 10
-6.347559032019696
 20
-5.087985839508073
 30
0.0
 40
0.5043478210767111
  1
23
  7
_TCW_TXTSTY_2
 11
-6.347559032019696
 21
-5.237226944744863
 31
0.0
100
AcDbText
 73
     1
  0
TEXT
  5
332
102
{ACAD_XDICTIONARY
360
333
102
}
330
1F
100
AcDbEntity
  8
AREA_D
  6
CONTINUOUS
 62
     7
100
AcDbText
 10
-7.082979259070477
 20
-9.389509048126238
 30
0.0
 40
0.5043478210767111
  1
22
  7
_TCW_TXTSTY_2
 11
-7.082979259070477
 21
-9.538750153363027
 31
0.0
100
AcDbText
 73
     1
  0
TEXT
  5
335
102
{ACAD_XDICTIONARY
360
336
102
}
330
1F
100
AcDbEntity
  8
AREA_D
  6
CONTINUOUS
 62
     7
100
AcDbText
 10
-7.304994639929852
 20
-10.37469657864382
 30
0.0
 40
0.5043478210767111
  1
21
  7
_TCW_TXTSTY_2
 11
-7.304994639929852
 21
-10.52393768388061
 31
0.0
100
AcDbText
 73
     1
  0
TEXT
  5
338
102
{ACAD_XDICTIONARY
360
339
102
}
330
1F
100
AcDbEntity
  8
AREA_D
  6
CONTINUOUS
 62
     7
100
AcDbText
 10
-10.5882588000861
 20
-13.63032039608766
 30
0.0
 40
0.5043478210767111
  1
17
  7
_TCW_TXTSTY_2
 11
-10.5882588000861
 21
-13.77956150132445
 31
0.0
100
AcDbText
 73
     1
  0
TEXT
  5
33B
102
{ACAD_XDICTIONARY
360
33C
102
}
330
1F
100
AcDbEntity
  8
AREA_D
  6
CONTINUOUS
 62
     7
100
AcDbText
 10
-13.17230421024235
 20
-13.35164913143923
 30
0.0
 40
0.5043478210767111
  1
16
  7
_TCW_TXTSTY_2
 11
-13.17230421024235
 21
-13.50089023667602
 31
0.0
100
AcDbText
 73
     1
  0
TEXT
  5
33E
102
{ACAD_XDICTIONARY
360
33F
102
}
330
1F
100
AcDbEntity
  8
AREA_D
  6
CONTINUOUS
 62
     7
100
AcDbText
 10
-3.808267650183758
 20
-11.22112449612428
 30
0.0
 40
0.5043478210767111
  1
24
  7
_TCW_TXTSTY_2
 11
-3.808267650183758
 21
-11.37036560136107
 31
0.0
100
AcDbText
 73
     1
  0
TEXT
  5
341
102
{ACAD_XDICTIONARY
360
342
102
}
330
1F
100
AcDbEntity
  8
AREA_D
  6
CONTINUOUS
 62
     7
100
AcDbText
 10
5.500020924034992
 20
-8.354072417877214
 30
0.0
 40
0.5043478210767111
  1
40
  7
_TCW_TXTSTY_2
 11
5.500020924034992
 21
-8.503313523114004
 31
0.0
100
AcDbText
 73
     1
  0
TEXT
  5
344
102
{ACAD_XDICTIONARY
360
345
102
}
330
1F
100
AcDbEntity
  8
AREA_D
  6
CONTINUOUS
 62
     7
100
AcDbText
 10
-9.055133876380047
 20
-8.4655741116028
 30
0.0
 40
0.5043478210767111
  1
18
  7
_TCW_TXTSTY_2
 11
-9.055133876380047
 21
-8.61481521683959
 31
0.0
100
AcDbText
 73
     1
  0
TEXT
  5
347
102
{ACAD_XDICTIONARY
360
348
102
}
330
1F
100
AcDbEntity
  8
AREA_D
  6
CONTINUOUS
 62
     7
100
AcDbText
 10
-9.058164653357586
 20
-7.437045898101823
 30
0.0
 40
0.5043478210767111
  1
18A
  7
_TCW_TXTSTY_2
 11
-9.058164653357586
 21
-7.586287003338613
 31
0.0
100
AcDbText
 73
     1
  0
TEXT
  5
34A
102
{ACAD_XDICTIONARY
360
34B
102
}
330
1F
100
AcDbEntity
  8
AREA_D
  6
CONTINUOUS
 62
     7
100
AcDbText
 10
-4.97505765872868
 20
9.353017006256087
 30
0.0
 40
0.5043478210767111
  1
54
  7
_TCW_TXTSTY_2
 11
-4.97505765872868
 21
9.203775901019297
 31
0.0
100
AcDbText
 73
     1
  0
TEXT
  5
34D
102
{ACAD_XDICTIONARY
360
34E
102
}
330
1F
100
AcDbEntity
  8
AREA_D
  6
CONTINUOUS
 62
     7
100
AcDbText
 10
-1.661497172888836
 20
12.28360286746214
 30
0.0
 40
0.5043478210767111
  1
55
  7
_TCW_TXTSTY_2
 11
-1.661497172888836
 21
12.13436176222535
 31
0.0
100
AcDbText
 73
     1
  0
TEXT
  5
350
102
{ACAD_XDICTIONARY
360
351
102
}
330
1F
100
AcDbEntity
  8
AREA_D
  6
CONTINUOUS
 62
     7
100
AcDbText
 10
-1.681009349402508
 20
17.83765235934446
 30
0.0
 40
0.5043478210767111
  1
59
  7
_TCW_TXTSTY_2
 11
-1.681009349402508
 21
17.68841125410767
 31
0.0
100
AcDbText
 73
     1
  0
TEXT
  5
353
102
{ACAD_XDICTIONARY
360
354
102
}
330
1F
100
AcDbEntity
  8
AREA_D
  6
CONTINUOUS
 62
     7
100
AcDbText
 10
-1.685546931799969
 20
16.83068672213743
 30
0.0
 40
0.5043478210767111
  1
58
  7
_TCW_TXTSTY_2
 11
-1.685546931799969
 21
16.68144561690064
 31
0.0
100
AcDbText
 73
     1
  0
TEXT
  5
356
102
{ACAD_XDICTIONARY
360
357
102
}
330
1F
100
AcDbEntity
  8
AREA_D
  6
CONTINUOUS
 62
     7
100
AcDbText
 10
-1.679214534339032
 20
13.88056770358275
 30
0.0
 40
0.5043478210767111
  1
56
  7
_TCW_TXTSTY_2
 11
-1.679214534339032
 21
13.73132659834596
 31
0.0
100
AcDbText
 73
     1
  0
TEXT
  5
359
102
{ACAD_XDICTIONARY
360
35A
102
}
330
1F
100
AcDbEntity
  8
AREA_D
  6
CONTINUOUS
 62
     7
100
AcDbText
 10
12.41120714229671
 20
7.903016243316634
 30
0.0
 40
0.5043478210767111
  1
50
  7
_TCW_TXTSTY_2
 11
12.41120714229671
 21
7.753775138079844
 31
0.0
100
AcDbText
 73
     1
  0
TEXT
  5
35C
102
{ACAD_XDICTIONARY
360
35D
102
}
330
1F
100
AcDbEntity
  8
AREA_D
  6
CONTINUOUS
 62
     7
100
AcDbText
 10
12.53912347835628
 20
10.55062881503294
 30
0.0
 40
0.5043478210767111
  1
51
  7
_TCW_TXTSTY_2
 11
12.53912347835628
 21
10.40138770979615
 31
0.0
100
AcDbText
 73
     1
  0
TEXT
  5
35F
102
{ACAD_XDICTIONARY
360
360
102
}
330
1F
100
AcDbEntity
  8
AREA_D
  6
CONTINUOUS
 62
     7
100
AcDbText
 10
2.65287202877132
 20
14.81886306796263
 30
0.0
 40
0.5043478210767111
  1
64
  7
_TCW_TXTSTY_2
 11
2.65287202877132
 21
14.66962196272584
 31
0.0
100
AcDbText
 73
     1
  0
TEXT
  5
362
102
{ACAD_XDICTIONARY
360
363
102
}
330
1F
100
AcDbEntity
  8
AREA_D
  6
CONTINUOUS
 62
     7
100
AcDbText
 10
6.505598011437336
 20
3.141747627593978
 30
0.0
 40
0.5043478210767111
  1
45
  7
_TCW_TXTSTY_2
 11
6.505598011437336
 21
2.992506522357187
 31
0.0
100
AcDbText
 73
     1
  0
TEXT
  5
365
102
{ACAD_XDICTIONARY
360
366
102
}
330
1F
100
AcDbEntity
  8
AREA_D
  6
CONTINUOUS
 62
     7
100
AcDbText
 10
2.825445118370929
 20
17.91292778048704
 30
0.0
 40
0.5043478210767111
  1
65
  7
_TCW_TXTSTY_2
 11
2.825445118370929
 21
17.76368667525025
 31
0.0
100
AcDbText
 73
     1
  0
TEXT
  5
368
102
{ACAD_XDICTIONARY
360
369
102
}
330
1F
100
AcDbEntity
  8
AREA_D
  6
CONTINUOUS
 62
     7
100
AcDbText
 10
0.3680686382683902
 20
18.64760604891966
 30
0.0
 40
0.5043478210767111
  1
63
  7
_TCW_TXTSTY_2
 11
0.3680686382683902
 21
18.49836494368287
 31
0.0
100
AcDbText
 73
     1
  0
TEXT
  5
36B
102
{ACAD_XDICTIONARY
360
36C
102
}
330
1F
100
AcDbEntity
  8
AREA_D
  6
CONTINUOUS
 62
     7
100
AcDbText
 10
4.649476948204914
 20
19.86362854037474
 30
0.0
 40
0.5043478210767111
  1
66
  7
_TCW_TXTSTY_2
 11
4.649476948204914
 21
19.71438743513795
 31
0.0
100
AcDbText
 73
     1
  0
TEXT
  5
36E
102
{ACAD_XDICTIONARY
360
36F
102
}
330
1F
100
AcDbEntity
  8
AREA_D
  6
CONTINUOUS
 62
     7
100
AcDbText
 10
7.423524799767414
 20
18.24226585421751
 30
0.0
 40
0.5043478210767111
  1
68
  7
_TCW_TXTSTY_2
 11
7.423524799767414
 21
18.09302474898072
 31
0.0
100
AcDbText
 73
     1
  0
TEXT
  5
371
102
{ACAD_XDICTIONARY
360
372
102
}
330
1F
100
AcDbEntity
  8
AREA_D
  6
CONTINUOUS
 62
     7
100
AcDbText
 10
10.57757944149105
 20
20.96564689669798
 30
0.0
 40
0.5043478210767111
  1
70
  7
_TCW_TXTSTY_2
 11
10.57757944149105
 21
20.81640579146119
 31
0.0
100
AcDbText
 73
     1
  0
TEXT
  5
374
102
{ACAD_XDICTIONARY
360
375
102
}
330
1F
100
AcDbEntity
  8
AREA_D
  6
CONTINUOUS
 62
     7
100
AcDbText
 10
12.91250890773861
 20
18.78989807162474
 30
0.0
 40
0.5043478210767111
  1
71
  7
_TCW_TXTSTY_2
 11
12.91250890773861
 21
18.64065696638795
 31
0.0
100
AcDbText
 73
     1
  0
TEXT
  5
377
102
{ACAD_XDICTIONARY
360
378
102
}
330
1F
100
AcDbEntity
  8
AREA_D
  6
CONTINUOUS
 62
     7
100
AcDbText
 10
14.91778463405696
 20
22.09086814913939
 30
0.0
 40
0.5043478210767111
  1
72
  7
_TCW_TXTSTY_2
 11
14.91778463405696
 21
21.9416270439026
 31
0.0
100
AcDbText
 73
     1
  0
TEXT
  5
37A
102
{ACAD_XDICTIONARY
360
37B
102
}
330
1F
100
AcDbEntity
  8
AREA_D
  6
CONTINUOUS
 62
     7
100
AcDbText
 10
6.790181103173175
 20
23.24441925082396
 30
0.0
 40
0.5043478210767111
  1
69
  7
_TCW_TXTSTY_2
 11
6.790181103173175
 21
23.09517814558717
 31
0.0
100
AcDbText
 73
     1
  0
TEXT
  5
37D
102
{ACAD_XDICTIONARY
360
37E
102
}
330
1F
100
AcDbEntity
  8
AREA_D
  6
CONTINUOUS
 62
     7
100
AcDbText
 10
6.760070743981281
 20
22.13239685092161
 30
0.0
 40
0.5043478210767111
  1
68A
  7
_TCW_TXTSTY_2
 11
6.760070743981281
 21
21.98315574568482
 31
0.0
100
AcDbText
 73
     1
  0
TEXT
  5
380
102
{ACAD_XDICTIONARY
360
381
102
}
330
1F
100
AcDbEntity
  8
AREA_D
  6
CONTINUOUS
 62
     7
100
AcDbText
 10
-1.834714946326336
 20
15.72493854556273
 30
0.0
 40
0.5043478210767111
  1
57
  7
_TCW_TXTSTY_2
 11
-1.834714946326336
 21
15.57569744032594
 31
0.0
100
AcDbText
 73
     1
  0
TEXT
  5
383
102
{ACAD_XDICTIONARY
360
384
102
}
330
1F
100
AcDbEntity
  8
AREA_D
  6
CONTINUOUS
 62
     7
100
AcDbText
 10
0.5246924786004215
 20
15.73655525241087
 30
0.0
 40
0.5043478210767111
  1
60
  7
_TCW_TXTSTY_2
 11
0.5246924786004215
 21
15.58731414717408
 31
0.0
100
AcDbText
 73
     1
  0
TEXT
  5
386
102
{ACAD_XDICTIONARY
360
387
102
}
330
1F
100
AcDbEntity
  8
AREA_D
  6
CONTINUOUS
 62
     7
100
AcDbText
 10
0.4234885601433902
 20
16.73006645236204
 30
0.0
 40
0.5043478210767111
  1
61
  7
_TCW_TXTSTY_2
 11
0.4234885601433902
 21
16.58082534712525
 31
0.0
100
AcDbText
 73
     1
  0
TEXT
  5
389
102
{ACAD_XDICTIONARY
360
38A
102
}
330
1F
100
AcDbEntity
  8
AREA_D
  6
CONTINUOUS
 62
     7
100
AcDbText
 10
0.353116932335773
 20
17.70647254977415
 30
0.0
 40
0.5043478210767111
  1
62
  7
_TCW_TXTSTY_2
 11
0.353116932335773
 21
17.55723144453736
 31
0.0
100
AcDbText
 73
     1
  0
TEXT
  5
38C
102
{ACAD_XDICTIONARY
360
38D
102
}
330
1F
100
AcDbEntity
  8
AREA_D
  6
CONTINUOUS
 62
     7
100
AcDbText
 10
-4.1147537799445
 20
16.59135261569212
 30
0.0
 40
0.5043478210767111
  1
53
  7
_TCW_TXTSTY_2
 11
-4.1147537799445
 21
16.44211151045533
 31
0.0
100
AcDbText
 73
     1
  0
TEXT
  5
38F
102
{ACAD_XDICTIONARY
360
390
102
}
330
1F
100
AcDbEntity
  8
AREA_D
  6
CONTINUOUS
 62
     7
100
AcDbText
 10
10.56144517940609
 20
-12.40481933560182
 30
0.0
 40
0.5043478210767111
  1
48
  7
_TCW_TXTSTY_2
 11
10.56144517940609
 21
-12.55406044083861
 31
0.0
100
AcDbText
 73
     1
  0
TEXT
  5
392
102
{ACAD_XDICTIONARY
360
393
102
}
330
1F
100
AcDbEntity
  8
AREA_D
  6
CONTINUOUS
 62
     7
100
AcDbText
 10
0.6042613415154605
 20
-9.639274444244402
 30
0.0
 40
0.5043478210767111
  1
25
  7
_TCW_TXTSTY_2
 11
0.6042613415154605
 21
-9.788515549481192
 31
0.0
100
AcDbText
 73
     1
  0
TEXT
  5
395
102
{ACAD_XDICTIONARY
360
396
102
}
330
1F
100
AcDbEntity
  8
AREA_D
  6
CONTINUOUS
 62
     7
100
AcDbText
 10
2.989614429894367
 20
-9.734031524322527
 30
0.0
 40
0.5043478210767111
  1
35
  7
_TCW_TXTSTY_2
 11
2.989614429894367
 21
-9.883272629559317
 31
0.0
100
AcDbText
 73
     1
  0
TEXT
  5
398
102
{ACAD_XDICTIONARY
360
399
102
}
330
1F
100
AcDbEntity
  8
AREA_D
  6
CONTINUOUS
 62
     7
100
AcDbText
 10
1.020166340294757
 20
-8.167350616119402
 30
0.0
 40
0.5043478210767111
  1
26
  7
_TCW_TXTSTY_2
 11
1.020166340294757
 21
-8.316591721356192
 31
0.0
100
AcDbText
 73
     1
  0
TEXT
  5
39B
102
{ACAD_XDICTIONARY
360
39C
102
}
330
1F
100
AcDbEntity
  8
AREA_D
  6
CONTINUOUS
 62
     7
100
AcDbText
 10
1.573930683556476
 20
-6.178337421081559
 30
0.0
 40
0.5043478210767111
  1
27
  7
_TCW_TXTSTY_2
 11
1.573930683556476
 21
-6.32757852631835
 31
0.0
100
AcDbText
 73
     1
  0
TEXT
  5
39E
102
{ACAD_XDICTIONARY
360
39F
102
}
330
1F
100
AcDbEntity
  8
AREA_D
  6
CONTINUOUS
 62
     7
100
AcDbText
 10
0.9511546520623355
 20
-4.019542541168229
 30
0.0
 40
0.5043478210767111
  1
28
  7
_TCW_TXTSTY_2
 11
0.9511546520623355
 21
-4.16878364640502
 31
0.0
100
AcDbText
 73
     1
  0
TEXT
  5
3A1
102
{ACAD_XDICTIONARY
360
3A2
102
}
330
1F
100
AcDbEntity
  8
AREA_D
  6
CONTINUOUS
 62
     7
100
AcDbText
 10
3.272169056359211
 20
-2.941322173736589
 30
0.0
 40
0.5043478210767111
  1
37
  7
_TCW_TXTSTY_2
 11
3.272169056359211
 21
-3.090563278973379
 31
0.0
100
AcDbText
 73
     1
  0
TEXT
  5
3A4
102
{ACAD_XDICTIONARY
360
3A5
102
}
330
1F
100
AcDbEntity
  8
AREA_D
  6
CONTINUOUS
 62
     7
100
AcDbText
 10
3.252897205773273
 20
-4.271093215606705
 30
0.0
 40
0.5043478210767111
  1
36
  7
_TCW_TXTSTY_2
 11
3.252897205773273
 21
-4.420334320843496
 31
0.0
100
AcDbText
 73
     1
  0
TEXT
  5
3A7
102
{ACAD_XDICTIONARY
360
3A8
102
}
330
1F
100
AcDbEntity
  8
AREA_D
  6
CONTINUOUS
 62
     7
100
AcDbText
 10
-5.212709483679852
 20
-18.39195236172487
 30
0.0
 40
0.5043478210767111
  1
7
  7
_TCW_TXTSTY_2
 11
-5.212709483679852
 21
-18.54119346696166
 31
0.0
100
AcDbText
 73
     1
  0
TEXT
  5
3AA
102
{ACAD_XDICTIONARY
360
3AB
102
}
330
1F
100
AcDbEntity
  8
AREA_D
  6
CONTINUOUS
 62
     7
100
AcDbText
 10
-9.748453197058758
 20
-18.55180343594362
 30
0.0
 40
0.5043478210767111
  1
3
  7
_TCW_TXTSTY_2
 11
-9.748453197058758
 21
-18.70104454118041
 31
0.0
100
AcDbText
 73
     1
  0
TEXT
  5
3AD
102
{ACAD_XDICTIONARY
360
3AE
102
}
330
1F
100
AcDbEntity
  8
AREA_D
  6
CONTINUOUS
 62
     7
100
AcDbText
 10
-9.86834150272282
 20
-20.56991180386354
 30
0.0
 40
0.5043478210767111
  1
2
  7
_TCW_TXTSTY_2
 11
-9.86834150272282
 21
-20.71915290910033
 31
0.0
100
AcDbText
 73
     1
  0
TEXT
  5
3B0
102
{ACAD_XDICTIONARY
360
3B1
102
}
330
1F
100
AcDbEntity
  8
AREA_D
  6
CONTINUOUS
 62
     7
100
AcDbText
 10
-5.999395427283368
 20
14.69966045413206
 30
0.0
 40
0.5043478210767111
  1
52
  7
_TCW_TXTSTY_2
 11
-5.999395427283368
 21
14.55041934889527
 31
0.0
100
AcDbText
 73
     1
  0
LINE
  5
3B3
102
{ACAD_XDICTIONARY
360
3B4
102
}
330
1F
100
AcDbEntity
  8
AREA_D
  6
CONTINUOUS
 62
     7
100
AcDbLine
 10
-11.09711271243962
 20
-18.5509552772644
 30
0.0
 11
-11.09711271243962
 21
-25.43267105180053
 31
0.0
  0
LINE
  5
3B6
102
{ACAD_XDICTIONARY
360
3B7
102
}
330
1F
100
AcDbEntity
  8
AREA_D
  6
CONTINUOUS
 62
     7
100
AcDbLine
 10
-8.613426265296063
 20
24.33927299421998
 30
0.0
 11
-8.613426265296063
 21
-0.3703583295944117
 31
0.0
  0
LINE
  5
3B9
102
{ACAD_XDICTIONARY
360
3BA
102
}
330
1F
100
AcDbEntity
  8
AREA_D
  6
CONTINUOUS
 62
     7
100
AcDbLine
 10
-8.613426265296063
 20
-0.3703583295944117
 30
0.0
 11
-11.09711271243962
 21
-0.3703583295944117
 31
0.0
  0
LINE
  5
3BC
102
{ACAD_XDICTIONARY
360
3BD
102
}
330
1F
100
AcDbEntity
  8
AREA_D
  6
CONTINUOUS
 62
     7
100
AcDbLine
 10
-11.09711271243962
 20
-0.3703583295944117
 30
0.0
 11
-11.09711271243962
 21
-11.81388996201781
 31
0.0
  0
LINE
  5
3BF
102
{ACAD_XDICTIONARY
360
3C0
102
}
330
1F
100
AcDbEntity
  8
AREA_D
  6
CONTINUOUS
 62
     7
100
AcDbLine
 10
-11.09711271243962
 20
-11.81388996201781
 30
0.0
 11
-7.712564525183758
 21
-12.19885871964721
 31
0.0
  0
LINE
  5
3C2
102
{ACAD_XDICTIONARY
360
3C3
102
}
330
1F
100
AcDbEntity
  8
AREA_D
  6
CONTINUOUS
 62
     7
100
AcDbLine
 10
-7.712564525183758
 20
-12.19885871964721
 30
0.0
 11
-8.057571467932782
 21
-15.74809692460326
 31
0.0
  0
LINE
  5
3C5
102
{ACAD_XDICTIONARY
360
3C6
102
}
330
1F
100
AcDbEntity
  8
AREA_D
  6
CONTINUOUS
 62
     7
100
AcDbLine
 10
-8.057571467932782
 20
-15.74809692460326
 30
0.0
 11
-11.09711271243962
 21
-15.39442871171264
 31
0.0
  0
LINE
  5
3C8
102
{ACAD_XDICTIONARY
360
3C9
102
}
330
1F
100
AcDbEntity
  8
AREA_D
  6
CONTINUOUS
 62
     7
100
AcDbLine
 10
-11.09711271243962
 20
-15.39442871171264
 30
0.0
 11
-11.09711271243962
 21
-18.5509552772644
 31
0.0
  0
LINE
  5
3CB
102
{ACAD_XDICTIONARY
360
3CC
102
}
330
1F
100
AcDbEntity
  8
AREA_D
  6
CONTINUOUS
 62
     7
100
AcDbLine
 10
16.12959476230116
 20
25.44338461814186
 30
0.0
 11
-8.613427202725696
 21
24.33927390036843
 31
0.0
  0
LINE
  5
3CE
102
{ACAD_XDICTIONARY
360
3CF
102
}
330
1F
100
AcDbEntity
  8
AREA_D
  6
CONTINUOUS
 62
     7
100
AcDbLine
 10
16.12959474605648
 20
25.44338561934205
 30
0.0
 11
16.13159174007503
 21
25.39463188093873
 31
0.0
  0
LINE
  5
3D1
102
{ACAD_XDICTIONARY
360
3D2
102
}
330
1F
100
AcDbEntity
  8
AREA_D
  6
CONTINUOUS
 62
     7
100
AcDbLine
 10
16.13159174007503
 20
25.39463188093873
 30
0.0
 11
16.22151655239193
 21
25.39831497114869
 31
0.0
  0
LINE
  5
3D4
102
{ACAD_XDICTIONARY
360
3D5
102
}
330
1F
100
AcDbEntity
  8
AREA_D
  6
CONTINUOUS
 62
     7
100
AcDbLine
 10
16.22151655239193
 20
25.39831497114869
 30
0.0
 11
13.82990640682308
 21
2.793287533938608
 31
0.0
  0
LINE
  5
3D7
102
{ACAD_XDICTIONARY
360
3D8
102
}
330
1F
100
AcDbEntity
  8
AREA_D
  6
CONTINUOUS
 62
     7
100
AcDbLine
 10
13.82990640682308
 20
2.793287533938608
 30
0.0
 11
11.87501329464046
 21
-23.91628692704467
 31
0.0
  0
LINE
  5
3DA
102
{ACAD_XDICTIONARY
360
3DB
102
}
330
1F
100
AcDbEntity
  8
AREA_D
  6
CONTINUOUS
 62
     7
100
AcDbLine
 10
11.87501329464046
 20
-23.91628692704467
 30
0.0
 11
11.73027605098812
 21
-23.92501304703979
 31
0.0
  0
LINE
  5
3DD
102
{ACAD_XDICTIONARY
360
3DE
102
}
330
1F
100
AcDbEntity
  8
AREA_D
  6
CONTINUOUS
 62
     7
100
AcDbLine
 10
11.73027605098812
 20
-23.92501304703979
 30
0.0
 11
11.73665994686214
 21
-24.03088615494994
 31
0.0
  0
LINE
  5
3E0
102
{ACAD_XDICTIONARY
360
3E1
102
}
330
1F
100
AcDbEntity
  8
AREA_D
  6
CONTINUOUS
 62
     7
100
AcDbLine
 10
-11.09711423831852
 20
-25.43267145920597
 30
0.0
 11
11.73665937465755
 21
-24.03088656235538
 31
0.0
  0
TEXT
  5
3E4
102
{ACAD_XDICTIONARY
360
3E5
102
}
330
1F
100
AcDbEntity
  8
AREA_D
  6
CONTINUOUS
 62
     7
100
AcDbText
 10
17.38184453215639
 20
-26.07466721873737
 30
0.0
 40
0.1611111111111111
  1
X
  7
_TCW_TXTSTY_3
 11
17.38184453215639
 21
-25.91355610762626
 31
0.0
100
AcDbText
 73
     3
  0
POINT
  5
3E7
102
{ACAD_XDICTIONARY
360
3E8
102
}
330
1F
100
AcDbEntity
  8
AREA_D
  6
CONTINUOUS
 62
     7
100
AcDbPoint
 10
-17.38305004650537
 20
25.91700667342475
 30
0.0
  0
TEXT
  5
3EA
102
{ACAD_XDICTIONARY
360
3EB
102
}
330
1F
100
AcDbEntity
  8
AREA_D
  6
CONTINUOUS
 62
     7
100
AcDbText
 10
-17.62728207596907
 20
25.92466721873737
 30
0.0
 40
0.1611111111111111
  1
X
  7
_TCW_TXTSTY_3
 11
-17.62728207596907
 21
26.08577832984848
 31
0.0
100
AcDbText
 73
     3
  0
POINT
  5
3ED
102
{ACAD_XDICTIONARY
360
3EE
102
}
330
1F
100
AcDbEntity
  8
AREA_D
  6
CONTINUOUS
 62
     7
100
AcDbPoint
 10
17.62728207596907
 20
-26.09038277933362
 30
0.0
  0
LINE
  5
3F0
102
{ACAD_XDICTIONARY
360
3F1
102
}
330
1F
100
AcDbEntity
  8
AREA_F
  6
CONTINUOUS
 62
     1
100
AcDbLine
 10
-17.76535363748564
 20
26.28509651340321
 30
0.0
 11
-17.26864071474058
 21
25.75688839151425
 31
0.0
  0
VIEWPORT
  5
3F3
330
1B
100
AcDbEntity
 67
     1
  8
0
100
AcDbViewport
 10
-0.0004926616068524
 20
-0.0002682896182407
 30
0.0
 40
77.4275724789004
 41
54.74676841942452
 68
     1
 69
     1
1001
ACAD
1000
MVIEW
1002
{
1070
    16
1010
0.0
1020
0.0
1030
0.0
1010
0.0
1020
0.0
1030
1.0
1040
0.0
1040
54.74676841942452
1040
-0.0004926616068524
1040
-0.0002682896182407
1040
50.0
1040
0.0
1040
0.0
1070
     0
1070
  1000
1070
     0
1070
     1
1070
     0
1070
     0
1070
     0
1070
     0
1040
0.0
1040
0.0
1040
0.0
1040
0.5
1040
0.5
1040
0.5
1040
0.5
1070
     0
1002
{
1002
}
1002
}
  0
ENDSEC
  0
SECTION
  2
OBJECTS
  0
DICTIONARY
  5
C
330
0
100
AcDbDictionary
  3
ACAD_GROUP
350
D
  3
ACAD_LAYOUT
350
1A
  3
ACAD_MATERIAL
350
43
  3
ACAD_MLEADERSTYLE
350
19A
  3
ACAD_MLINESTYLE
350
17
  3
ACAD_PLOTSETTINGS
350
19
  3
ACAD_SCALELIST
350
47
  3
ACAD_VISUALSTYLE
350
2A
  3
ACDBHEADERROUNDTRIPXREC
350
3F4
  3
ACDBVARIABLEDICTIONARY
350
414
  0
DICTIONARY
  5
19D
330
1F
100
AcDbDictionary
280
     1
  3
ACAD_GEOGRAPHICDATA
360
19E
  0
DICTIONARY
  5
1AC
330
1AB
100
AcDbDictionary
280
     1
  3
TC_EXTENDED_DATA
360
1AD
  0
DICTIONARY
  5
1AF
330
1AE
100
AcDbDictionary
280
     1
  3
TC_EXTENDED_DATA
360
1B0
  0
DICTIONARY
  5
1B2
330
1B1
100
AcDbDictionary
280
     1
  3
TC_EXTENDED_DATA
360
1B3
  0
DICTIONARY
  5
1B5
330
1B4
100
AcDbDictionary
280
     1
  3
TC_EXTENDED_DATA
360
1B6
  0
DICTIONARY
  5
1B8
330
1B7
100
AcDbDictionary
280
     1
  3
TC_EXTENDED_DATA
360
1B9
  0
DICTIONARY
  5
1BB
330
1BA
100
AcDbDictionary
280
     1
  3
TC_EXTENDED_DATA
360
1BC
  0
DICTIONARY
  5
1BF
330
1BE
100
AcDbDictionary
280
     1
  3
TC_EXTENDED_DATA
360
1C0
  0
DICTIONARY
  5
2DF
330
2DE
100
AcDbDictionary
280
     1
  3
TC_EXTENDED_DATA
360
2E0
  0
DICTIONARY
  5
2E2
330
2E1
100
AcDbDictionary
280
     1
  3
TC_EXTENDED_DATA
360
2E3
  0
DICTIONARY
  5
2E5
330
2E4
100
AcDbDictionary
280
     1
  3
TC_EXTENDED_DATA
360
2E6
  0
DICTIONARY
  5
2E8
330
2E7
100
AcDbDictionary
280
     1
  3
TC_EXTENDED_DATA
360
2E9
  0
DICTIONARY
  5
2EB
330
2EA
100
AcDbDictionary
280
     1
  3
TC_EXTENDED_DATA
360
2EC
  0
DICTIONARY
  5
2EE
330
2ED
100
AcDbDictionary
280
     1
  3
TC_EXTENDED_DATA
360
2EF
  0
DICTIONARY
  5
2F1
330
2F0
100
AcDbDictionary
280
     1
  3
TC_EXTENDED_DATA
360
2F2
  0
DICTIONARY
  5
2F4
330
2F3
100
AcDbDictionary
280
     1
  3
TC_EXTENDED_DATA
360
2F5
  0
DICTIONARY
  5
2F7
330
2F6
100
AcDbDictionary
280
     1
  3
TC_EXTENDED_DATA
360
2F8
  0
DICTIONARY
  5
2FA
330
2F9
100
AcDbDictionary
280
     1
  3
TC_EXTENDED_DATA
360
2FB
  0
DICTIONARY
  5
2FD
330
2FC
100
AcDbDictionary
280
     1
  3
TC_EXTENDED_DATA
360
2FE
  0
DICTIONARY
  5
300
330
2FF
100
AcDbDictionary
280
     1
  3
TC_EXTENDED_DATA
360
301
  0
DICTIONARY
  5
303
330
302
100
AcDbDictionary
280
     1
  3
TC_EXTENDED_DATA
360
304
  0
DICTIONARY
  5
306
330
305
100
AcDbDictionary
280
     1
  3
TC_EXTENDED_DATA
360
307
  0
DICTIONARY
  5
309
330
308
100
AcDbDictionary
280
     1
  3
TC_EXTENDED_DATA
360
30A
  0
DICTIONARY
  5
30C
330
30B
100
AcDbDictionary
280
     1
  3
TC_EXTENDED_DATA
360
30D
  0
DICTIONARY
  5
30F
330
30E
100
AcDbDictionary
280
     1
  3
TC_EXTENDED_DATA
360
310
  0
DICTIONARY
  5
312
330
311
100
AcDbDictionary
280
     1
  3
TC_EXTENDED_DATA
360
313
  0
DICTIONARY
  5
315
330
314
100
AcDbDictionary
280
     1
  3
TC_EXTENDED_DATA
360
316
  0
DICTIONARY
  5
318
330
317
100
AcDbDictionary
280
     1
  3
TC_EXTENDED_DATA
360
319
  0
DICTIONARY
  5
31B
330
31A
100
AcDbDictionary
280
     1
  3
TC_EXTENDED_DATA
360
31C
  0
DICTIONARY
  5
31E
330
31D
100
AcDbDictionary
280
     1
  3
TC_EXTENDED_DATA
360
31F
  0
DICTIONARY
  5
321
330
320
100
AcDbDictionary
280
     1
  3
TC_EXTENDED_DATA
360
322
  0
DICTIONARY
  5
324
330
323
100
AcDbDictionary
280
     1
  3
TC_EXTENDED_DATA
360
325
  0
DICTIONARY
  5
327
330
326
100
AcDbDictionary
280
     1
  3
TC_EXTENDED_DATA
360
328
  0
DICTIONARY
  5
32A
330
329
100
AcDbDictionary
280
     1
  3
TC_EXTENDED_DATA
360
32B
  0
DICTIONARY
  5
32D
330
32C
100
AcDbDictionary
280
     1
  3
TC_EXTENDED_DATA
360
32E
  0
DICTIONARY
  5
330
330
32F
100
AcDbDictionary
280
     1
  3
TC_EXTENDED_DATA
360
331
  0
DICTIONARY
  5
333
330
332
100
AcDbDictionary
280
     1
  3
TC_EXTENDED_DATA
360
334
  0
DICTIONARY
  5
336
330
335
100
AcDbDictionary
280
     1
  3
TC_EXTENDED_DATA
360
337
  0
DICTIONARY
  5
339
330
338
100
AcDbDictionary
280
     1
  3
TC_EXTENDED_DATA
360
33A
  0
DICTIONARY
  5
33C
330
33B
100
AcDbDictionary
280
     1
  3
TC_EXTENDED_DATA
360
33D
  0
DICTIONARY
  5
33F
330
33E
100
AcDbDictionary
280
     1
  3
TC_EXTENDED_DATA
360
340
  0
DICTIONARY
  5
342
330
341
100
AcDbDictionary
280
     1
  3
TC_EXTENDED_DATA
360
343
  0
DICTIONARY
  5
345
330
344
100
AcDbDictionary
280
     1
  3
TC_EXTENDED_DATA
360
346
  0
DICTIONARY
  5
348
330
347
100
AcDbDictionary
280
     1
  3
TC_EXTENDED_DATA
360
349
  0
DICTIONARY
  5
34B
330
34A
100
AcDbDictionary
280
     1
  3
TC_EXTENDED_DATA
360
34C
  0
DICTIONARY
  5
34E
330
34D
100
AcDbDictionary
280
     1
  3
TC_EXTENDED_DATA
360
34F
  0
DICTIONARY
  5
351
330
350
100
AcDbDictionary
280
     1
  3
TC_EXTENDED_DATA
360
352
  0
DICTIONARY
  5
354
330
353
100
AcDbDictionary
280
     1
  3
TC_EXTENDED_DATA
360
355
  0
DICTIONARY
  5
357
330
356
100
AcDbDictionary
280
     1
  3
TC_EXTENDED_DATA
360
358
  0
DICTIONARY
  5
35A
330
359
100
AcDbDictionary
280
     1
  3
TC_EXTENDED_DATA
360
35B
  0
DICTIONARY
  5
35D
330
35C
100
AcDbDictionary
280
     1
  3
TC_EXTENDED_DATA
360
35E
  0
DICTIONARY
  5
360
330
35F
100
AcDbDictionary
280
     1
  3
TC_EXTENDED_DATA
360
361
  0
DICTIONARY
  5
363
330
362
100
AcDbDictionary
280
     1
  3
TC_EXTENDED_DATA
360
364
  0
DICTIONARY
  5
366
330
365
100
AcDbDictionary
280
     1
  3
TC_EXTENDED_DATA
360
367
  0
DICTIONARY
  5
369
330
368
100
AcDbDictionary
280
     1
  3
TC_EXTENDED_DATA
360
36A
  0
DICTIONARY
  5
36C
330
36B
100
AcDbDictionary
280
     1
  3
TC_EXTENDED_DATA
360
36D
  0
DICTIONARY
  5
36F
330
36E
100
AcDbDictionary
280
     1
  3
TC_EXTENDED_DATA
360
370
  0
DICTIONARY
  5
372
330
371
100
AcDbDictionary
280
     1
  3
TC_EXTENDED_DATA
360
373
  0
DICTIONARY
  5
375
330
374
100
AcDbDictionary
280
     1
  3
TC_EXTENDED_DATA
360
376
  0
DICTIONARY
  5
378
330
377
100
AcDbDictionary
280
     1
  3
TC_EXTENDED_DATA
360
379
  0
DICTIONARY
  5
37B
330
37A
100
AcDbDictionary
280
     1
  3
TC_EXTENDED_DATA
360
37C
  0
DICTIONARY
  5
37E
330
37D
100
AcDbDictionary
280
     1
  3
TC_EXTENDED_DATA
360
37F
  0
DICTIONARY
  5
381
330
380
100
AcDbDictionary
280
     1
  3
TC_EXTENDED_DATA
360
382
  0
DICTIONARY
  5
384
330
383
100
AcDbDictionary
280
     1
  3
TC_EXTENDED_DATA
360
385
  0
DICTIONARY
  5
387
330
386
100
AcDbDictionary
280
     1
  3
TC_EXTENDED_DATA
360
388
  0
DICTIONARY
  5
38A
330
389
100
AcDbDictionary
280
     1
  3
TC_EXTENDED_DATA
360
38B
  0
DICTIONARY
  5
38D
330
38C
100
AcDbDictionary
280
     1
  3
TC_EXTENDED_DATA
360
38E
  0
DICTIONARY
  5
390
330
38F
100
AcDbDictionary
280
     1
  3
TC_EXTENDED_DATA
360
391
  0
DICTIONARY
  5
393
330
392
100
AcDbDictionary
280
     1
  3
TC_EXTENDED_DATA
360
394
  0
DICTIONARY
  5
396
330
395
100
AcDbDictionary
280
     1
  3
TC_EXTENDED_DATA
360
397
  0
DICTIONARY
  5
399
330
398
100
AcDbDictionary
280
     1
  3
TC_EXTENDED_DATA
360
39A
  0
DICTIONARY
  5
39C
330
39B
100
AcDbDictionary
280
     1
  3
TC_EXTENDED_DATA
360
39D
  0
DICTIONARY
  5
39F
330
39E
100
AcDbDictionary
280
     1
  3
TC_EXTENDED_DATA
360
3A0
  0
DICTIONARY
  5
3A2
330
3A1
100
AcDbDictionary
280
     1
  3
TC_EXTENDED_DATA
360
3A3
  0
DICTIONARY
  5
3A5
330
3A4
100
AcDbDictionary
280
     1
  3
TC_EXTENDED_DATA
360
3A6
  0
DICTIONARY
  5
3A8
330
3A7
100
AcDbDictionary
280
     1
  3
TC_EXTENDED_DATA
360
3A9
  0
DICTIONARY
  5
3AB
330
3AA
100
AcDbDictionary
280
     1
  3
TC_EXTENDED_DATA
360
3AC
  0
DICTIONARY
  5
3AE
330
3AD
100
AcDbDictionary
280
     1
  3
TC_EXTENDED_DATA
360
3AF
  0
DICTIONARY
  5
3B1
330
3B0
100
AcDbDictionary
280
     1
  3
TC_EXTENDED_DATA
360
3B2
  0
DICTIONARY
  5
3B4
330
3B3
100
AcDbDictionary
280
     1
  3
TC_EXTENDED_DATA
360
3B5
  0
DICTIONARY
  5
3B7
330
3B6
100
AcDbDictionary
280
     1
  3
TC_EXTENDED_DATA
360
3B8
  0
DICTIONARY
  5
3BA
330
3B9
100
AcDbDictionary
280
     1
  3
TC_EXTENDED_DATA
360
3BB
  0
DICTIONARY
  5
3BD
330
3BC
100
AcDbDictionary
280
     1
  3
TC_EXTENDED_DATA
360
3BE
  0
DICTIONARY
  5
3C0
330
3BF
100
AcDbDictionary
280
     1
  3
TC_EXTENDED_DATA
360
3C1
  0
DICTIONARY
  5
3C3
330
3C2
100
AcDbDictionary
280
     1
  3
TC_EXTENDED_DATA
360
3C4
  0
DICTIONARY
  5
3C6
330
3C5
100
AcDbDictionary
280
     1
  3
TC_EXTENDED_DATA
360
3C7
  0
DICTIONARY
  5
3C9
330
3C8
100
AcDbDictionary
280
     1
  3
TC_EXTENDED_DATA
360
3CA
  0
DICTIONARY
  5
3CC
330
3CB
100
AcDbDictionary
280
     1
  3
TC_EXTENDED_DATA
360
3CD
  0
DICTIONARY
  5
3CF
330
3CE
100
AcDbDictionary
280
     1
  3
TC_EXTENDED_DATA
360
3D0
  0
DICTIONARY
  5
3D2
330
3D1
100
AcDbDictionary
280
     1
  3
TC_EXTENDED_DATA
360
3D3
  0
DICTIONARY
  5
3D5
330
3D4
100
AcDbDictionary
280
     1
  3
TC_EXTENDED_DATA
360
3D6
  0
DICTIONARY
  5
3D8
330
3D7
100
AcDbDictionary
280
     1
  3
TC_EXTENDED_DATA
360
3D9
  0
DICTIONARY
  5
3DB
330
3DA
100
AcDbDictionary
280
     1
  3
TC_EXTENDED_DATA
360
3DC
  0
DICTIONARY
  5
3DE
330
3DD
100
AcDbDictionary
280
     1
  3
TC_EXTENDED_DATA
360
3DF
  0
DICTIONARY
  5
3E1
330
3E0
100
AcDbDictionary
280
     1
  3
TC_EXTENDED_DATA
360
3E2
  0
DICTIONARY
  5
3E5
330
3E4
100
AcDbDictionary
280
     1
  3
TC_EXTENDED_DATA
360
3E6
  0
DICTIONARY
  5
3E8
330
3E7
100
AcDbDictionary
280
     1
  3
TC_EXTENDED_DATA
360
3E9
  0
DICTIONARY
  5
3EB
330
3EA
100
AcDbDictionary
280
     1
  3
TC_EXTENDED_DATA
360
3EC
  0
DICTIONARY
  5
3EE
330
3ED
100
AcDbDictionary
280
     1
  3
TC_EXTENDED_DATA
360
3EF
  0
DICTIONARY
  5
3F1
330
3F0
100
AcDbDictionary
280
     1
  3
TC_EXTENDED_DATA
360
3F2
  0
DICTIONARY
  5
D
102
{ACAD_REACTORS
330
C
102
}
330
C
100
AcDbDictionary
  0
DICTIONARY
  5
1A
102
{ACAD_REACTORS
330
C
102
}
330
C
100
AcDbDictionary
  0
DICTIONARY
  5
43
102
{ACAD_REACTORS
330
C
102
}
330
C
100
AcDbDictionary
  3
BYBLOCK
350
45
  3
BYLAYER
350
44
  3
GLOBAL
350
46
  0
DICTIONARY
  5
19A
102
{ACAD_REACTORS
330
C
102
}
330
C
100
AcDbDictionary
  3
STANDARD
350
19B
  0
DICTIONARY
  5
17
102
{ACAD_REACTORS
330
C
102
}
330
C
100
AcDbDictionary
  3
STANDARD
350
18
  0
DICTIONARY
  5
19
102
{ACAD_REACTORS
330
C
102
}
330
C
100
AcDbDictionary
  0
DICTIONARY
  5
47
102
{ACAD_REACTORS
330
C
102
}
330
C
100
AcDbDictionary
  3
A0
350
48
  3
A1
350
49
  3
A2
350
4A
  3
A3
350
4B
  3
A4
350
4C
  3
A5
350
4D
  3
A6
350
4E
  3
A7
350
4F
  3
A8
350
50
  3
A9
350
51
  3
B0
350
52
  3
B1
350
53
  3
B2
350
54
  3
B3
350
55
  3
B4
350
56
  3
B5
350
57
  3
B6
350
58
  3
B7
350
59
  3
B8
350
5A
  3
B9
350
5B
  3
C0
350
5C
  3
C1
350
5D
  3
C2
350
5E
  3
C3
350
5F
  3
C4
350
60
  3
C5
350
61
  3
C6
350
62
  3
C7
350
63
  3
C8
350
64
  3
C9
350
65
  3
D0
350
66
  3
D1
350
67
  3
D2
350
68
  0
DICTIONARY
  5
2A
102
{ACAD_REACTORS
330
C
102
}
330
C
100
AcDbDictionary
  3
2DWIREFRAME
350
2F
  3
BASIC
350
32
  3
BRIGHTEN
350
36
  3
COLORCHANGE
350
3A
  3
CONCEPTUAL
350
34
  3
DIM
350
35
  3
EDGECOLOROFF
350
3D
  3
FACEPATTERN
350
39
  3
FLAT
350
2B
  3
FLATWITHEDGES
350
2C
  3
GOURAUD
350
2D
  3
GOURAUDWITHEDGES
350
2E
  3
HIDDEN
350
31
  3
JITTEROFF
350
3B
  3
LINEPATTERN
350
38
  3
OVERHANGOFF
350
3C
  3
REALISTIC
350
33
  3
SHADED
350
42
  3
SHADED_WITH_EDGES
350
41
  3
SHADES_OF_GRAY
350
3E
  3
SKETCHY
350
3F
  3
THICKEN
350
37
  3
WIREFRAME
350
30
  3
X-RAY
350
40
  0
DICTIONARY
  5
3F4
102
{ACAD_REACTORS
330
C
102
}
330
C
100
AcDbDictionary
  3
CEPSNTYPE
350
3FD
  3
DIMSTYLEDATA
350
413
  3
FINGERPRINTGUID
350
3FE
  3
HYPERLINKBASE
350
3F7
  3
INSUNITS
350
3FC
  3
LAYOUTDICT
350
3F9
  3
LWETCUNION
350
3FB
  3
PLOTSETDICT
350
3FA
  3
PSVPSCALE
350
400
  3
PUCSBASE
350
403
  3
PUCSORGBACK
350
409
  3
PUCSORGBOTTOM
350
405
  3
PUCSORGFRONT
350
408
  3
PUCSORGLEFT
350
406
  3
PUCSORGRIGHT
350
407
  3
PUCSORGTOP
350
404
  3
PUCSORTHOREF
350
401
  3
PUCSORTHOVIEW
350
402
  3
STYLESHEET
350
3F8
  3
TSTACKALIGN
350
3F5
  3
TSTACKSIZE
350
3F6
  3
UCSBASE
350
40C
  3
UCSORGBACK
350
412
  3
UCSORGBOTTOM
350
40E
  3
UCSORGFRONT
350
411
  3
UCSORGLEFT
350
40F
  3
UCSORGRIGHT
350
410
  3
UCSORGTOP
350
40D
  3
UCSORTHOREF
350
40A
  3
UCSORTHOVIEW
350
40B
  3
VERSIONGUID
350
3FF
  0
DICTIONARY
  5
414
102
{ACAD_REACTORS
330
C
102
}
330
C
100
AcDbDictionary
  3
CANNOSCALE
350
419
  3
DIMASSOC
350
417
  3
HIDETEXT
350
418
  3
MSLTSCALE
350
41A
  0
GEODATA
  5
19E
102
{ACAD_REACTORS
330
19D
102
}
330
19D
100
AcDbGeoData
 90
        1
 70
     1
330
1F
 40
-122.394
 41
37.795
 42
0.0
 91
        6
 10
0.0
 20
0.0
 30
0.0
 11
0.0
 21
0.0
 31
0.0
210
0.0
220
0.0
230
1.0
 52
0.0
 43
1.0
 44
1.0
 45
1.0
301

302
<georss:point>37.7950 -122.3940</georss:point>
 46
1.0
303

304

305

306

307

 93
        0
 96
        0
  3
CIVIL3D_DATA_BEGIN
292
     0
 14
37.795
 24
-122.394
 15
37.795
 25
-122.394
 93
        0
 94
        0
293
     0
 16
0.0
 26
0.0
 17
0.0
 27
0.0
 54
0.0
140
0.0
 95
        3
141
1.0
294
     0
142
0.0
143
0.0
  4
CIVIL3D_DATA_END
  0
TCOPTIONALDATA
  5
1AD
102
{ACAD_REACTORS
330
1AC
102
}
330
1AC
100
TcOptionalData
 70
     2
 70
    32
 40
3.0
  0
TCOPTIONALDATA
  5
1B0
102
{ACAD_REACTORS
330
1AF
102
}
330
1AF
100
TcOptionalData
 70
     2
 70
    32
 40
3.0
  0
TCOPTIONALDATA
  5
1B3
102
{ACAD_REACTORS
330
1B2
102
}
330
1B2
100
TcOptionalData
 70
     2
 70
    32
 40
3.0
  0
TCOPTIONALDATA
  5
1B6
102
{ACAD_REACTORS
330
1B5
102
}
330
1B5
100
TcOptionalData
 70
     2
 70
    32
 40
3.0
  0
TCOPTIONALDATA
  5
1B9
102
{ACAD_REACTORS
330
1B8
102
}
330
1B8
100
TcOptionalData
 70
     2
 70
    32
 40
3.0
  0
TCOPTIONALDATA
  5
1BC
102
{ACAD_REACTORS
330
1BB
102
}
330
1BB
100
TcOptionalData
 70
     2
 70
    32
 40
3.0
  0
TCOPTIONALDATA
  5
1C0
102
{ACAD_REACTORS
330
1BF
102
}
330
1BF
100
TcOptionalData
 70
     2
 70
   144
 90
        1
  1
#$AUX@_ToolInfo Properties
 70
     8
 90
        9
310
434D445F5445585440
  1
Arial
 70
     0
  0
TCOPTIONALDATA
  5
2E0
102
{ACAD_REACTORS
330
2DF
102
}
330
2DF
100
TcOptionalData
 70
     2
 70
   144
 90
        1
  1
#$AUX@_ToolInfo Properties
 70
     8
 90
        9
310
434D445F5445585440
  1
Arial
 70
     0
  0
TCOPTIONALDATA
  5
2E3
102
{ACAD_REACTORS
330
2E2
102
}
330
2E2
100
TcOptionalData
 70
     2
 70
   144
 90
        1
  1
#$AUX@_ToolInfo Properties
 70
     8
 90
        9
310
434D445F5445585440
  1
Arial
 70
     0
  0
TCOPTIONALDATA
  5
2E6
102
{ACAD_REACTORS
330
2E5
102
}
330
2E5
100
TcOptionalData
 70
     2
 70
   144
 90
        1
  1
#$AUX@_ToolInfo Properties
 70
     8
 90
        9
310
434D445F5445585440
  1
Arial
 70
     0
  0
TCOPTIONALDATA
  5
2E9
102
{ACAD_REACTORS
330
2E8
102
}
330
2E8
100
TcOptionalData
 70
     2
 70
   144
 90
        1
  1
#$AUX@_ToolInfo Properties
 70
     8
 90
        9
310
434D445F5445585440
  1
Arial
 70
     0
  0
TCOPTIONALDATA
  5
2EC
102
{ACAD_REACTORS
330
2EB
102
}
330
2EB
100
TcOptionalData
 70
     2
 70
   144
 90
        1
  1
#$AUX@_ToolInfo Properties
 70
     8
 90
        9
310
434D445F5445585440
  1
Arial
 70
     0
  0
TCOPTIONALDATA
  5
2EF
102
{ACAD_REACTORS
330
2EE
102
}
330
2EE
100
TcOptionalData
 70
     2
 70
   144
 90
        1
  1
#$AUX@_ToolInfo Properties
 70
     8
 90
        9
310
434D445F5445585440
  1
Arial
 70
     0
  0
TCOPTIONALDATA
  5
2F2
102
{ACAD_REACTORS
330
2F1
102
}
330
2F1
100
TcOptionalData
 70
     2
 70
   144
 90
        1
  1
#$AUX@_ToolInfo Properties
 70
     8
 90
        9
310
434D445F5445585440
  1
Arial
 70
     0
  0
TCOPTIONALDATA
  5
2F5
102
{ACAD_REACTORS
330
2F4
102
}
330
2F4
100
TcOptionalData
 70
     2
 70
   144
 90
        1
  1
#$AUX@_ToolInfo Properties
 70
     8
 90
        9
310
434D445F5445585440
  1
Arial
 70
     0
  0
TCOPTIONALDATA
  5
2F8
102
{ACAD_REACTORS
330
2F7
102
}
330
2F7
100
TcOptionalData
 70
     2
 70
   144
 90
        1
  1
#$AUX@_ToolInfo Properties
 70
     8
 90
        9
310
434D445F5445585440
  1
Arial
 70
     0
  0
TCOPTIONALDATA
  5
2FB
102
{ACAD_REACTORS
330
2FA
102
}
330
2FA
100
TcOptionalData
 70
     2
 70
   144
 90
        1
  1
#$AUX@_ToolInfo Properties
 70
     8
 90
        9
310
434D445F5445585440
  1
Arial
 70
     0
  0
TCOPTIONALDATA
  5
2FE
102
{ACAD_REACTORS
330
2FD
102
}
330
2FD
100
TcOptionalData
 70
     2
 70
   144
 90
        1
  1
#$AUX@_ToolInfo Properties
 70
     8
 90
        9
310
434D445F5445585440
  1
Arial
 70
     0
  0
TCOPTIONALDATA
  5
301
102
{ACAD_REACTORS
330
300
102
}
330
300
100
TcOptionalData
 70
     2
 70
   144
 90
        1
  1
#$AUX@_ToolInfo Properties
 70
     8
 90
        9
310
434D445F5445585440
  1
Arial
 70
     0
  0
TCOPTIONALDATA
  5
304
102
{ACAD_REACTORS
330
303
102
}
330
303
100
TcOptionalData
 70
     2
 70
   144
 90
        1
  1
#$AUX@_ToolInfo Properties
 70
     8
 90
        9
310
434D445F5445585440
  1
Arial
 70
     0
  0
TCOPTIONALDATA
  5
307
102
{ACAD_REACTORS
330
306
102
}
330
306
100
TcOptionalData
 70
     2
 70
   144
 90
        1
  1
#$AUX@_ToolInfo Properties
 70
     8
 90
        9
310
434D445F5445585440
  1
Arial
 70
     0
  0
TCOPTIONALDATA
  5
30A
102
{ACAD_REACTORS
330
309
102
}
330
309
100
TcOptionalData
 70
     2
 70
   144
 90
        1
  1
#$AUX@_ToolInfo Properties
 70
     8
 90
        9
310
434D445F5445585440
  1
Arial
 70
     0
  0
TCOPTIONALDATA
  5
30D
102
{ACAD_REACTORS
330
30C
102
}
330
30C
100
TcOptionalData
 70
     2
 70
   144
 90
        1
  1
#$AUX@_ToolInfo Properties
 70
     8
 90
        9
310
434D445F5445585440
  1
Arial
 70
     0
  0
TCOPTIONALDATA
  5
310
102
{ACAD_REACTORS
330
30F
102
}
330
30F
100
TcOptionalData
 70
     2
 70
   144
 90
        1
  1
#$AUX@_ToolInfo Properties
 70
     8
 90
        9
310
434D445F5445585440
  1
Arial
 70
     0
  0
TCOPTIONALDATA
  5
313
102
{ACAD_REACTORS
330
312
102
}
330
312
100
TcOptionalData
 70
     2
 70
   144
 90
        1
  1
#$AUX@_ToolInfo Properties
 70
     8
 90
        9
310
434D445F5445585440
  1
Arial
 70
     0
  0
TCOPTIONALDATA
  5
316
102
{ACAD_REACTORS
330
315
102
}
330
315
100
TcOptionalData
 70
     2
 70
   144
 90
        1
  1
#$AUX@_ToolInfo Properties
 70
     8
 90
        9
310
434D445F5445585440
  1
Arial
 70
     0
  0
TCOPTIONALDATA
  5
319
102
{ACAD_REACTORS
330
318
102
}
330
318
100
TcOptionalData
 70
     2
 70
   144
 90
        1
  1
#$AUX@_ToolInfo Properties
 70
     8
 90
        9
310
434D445F5445585440
  1
Arial
 70
     0
  0
TCOPTIONALDATA
  5
31C
102
{ACAD_REACTORS
330
31B
102
}
330
31B
100
TcOptionalData
 70
     2
 70
   144
 90
        1
  1
#$AUX@_ToolInfo Properties
 70
     8
 90
        9
310
434D445F5445585440
  1
Arial
 70
     0
  0
TCOPTIONALDATA
  5
31F
102
{ACAD_REACTORS
330
31E
102
}
330
31E
100
TcOptionalData
 70
     2
 70
   144
 90
        1
  1
#$AUX@_ToolInfo Properties
 70
     8
 90
        9
310
434D445F5445585440
  1
Arial
 70
     0
  0
TCOPTIONALDATA
  5
322
102
{ACAD_REACTORS
330
321
102
}
330
321
100
TcOptionalData
 70
     2
 70
   144
 90
        1
  1
#$AUX@_ToolInfo Properties
 70
     8
 90
        9
310
434D445F5445585440
  1
Arial
 70
     0
  0
TCOPTIONALDATA
  5
325
102
{ACAD_REACTORS
330
324
102
}
330
324
100
TcOptionalData
 70
     2
 70
   144
 90
        1
  1
#$AUX@_ToolInfo Properties
 70
     8
 90
        9
310
434D445F5445585440
  1
Arial
 70
     0
  0
TCOPTIONALDATA
  5
328
102
{ACAD_REACTORS
330
327
102
}
330
327
100
TcOptionalData
 70
     2
 70
   144
 90
        1
  1
#$AUX@_ToolInfo Properties
 70
     8
 90
        9
310
434D445F5445585440
  1
Arial
 70
     0
  0
TCOPTIONALDATA
  5
32B
102
{ACAD_REACTORS
330
32A
102
}
330
32A
100
TcOptionalData
 70
     2
 70
   144
 90
        1
  1
#$AUX@_ToolInfo Properties
 70
     8
 90
        9
310
434D445F5445585440
  1
Arial
 70
     0
  0
TCOPTIONALDATA
  5
32E
102
{ACAD_REACTORS
330
32D
102
}
330
32D
100
TcOptionalData
 70
     2
 70
   144
 90
        1
  1
#$AUX@_ToolInfo Properties
 70
     8
 90
        9
310
434D445F5445585440
  1
Arial
 70
     0
  0
TCOPTIONALDATA
  5
331
102
{ACAD_REACTORS
330
330
102
}
330
330
100
TcOptionalData
 70
     2
 70
   144
 90
        1
  1
#$AUX@_ToolInfo Properties
 70
     8
 90
        9
310
434D445F5445585440
  1
Arial
 70
     0
  0
TCOPTIONALDATA
  5
334
102
{ACAD_REACTORS
330
333
102
}
330
333
100
TcOptionalData
 70
     2
 70
   144
 90
        1
  1
#$AUX@_ToolInfo Properties
 70
     8
 90
        9
310
434D445F5445585440
  1
Arial
 70
     0
  0
TCOPTIONALDATA
  5
337
102
{ACAD_REACTORS
330
336
102
}
330
336
100
TcOptionalData
 70
     2
 70
   144
 90
        1
  1
#$AUX@_ToolInfo Properties
 70
     8
 90
        9
310
434D445F5445585440
  1
Arial
 70
     0
  0
TCOPTIONALDATA
  5
33A
102
{ACAD_REACTORS
330
339
102
}
330
339
100
TcOptionalData
 70
     2
 70
   144
 90
        1
  1
#$AUX@_ToolInfo Properties
 70
     8
 90
        9
310
434D445F5445585440
  1
Arial
 70
     0
  0
TCOPTIONALDATA
  5
33D
102
{ACAD_REACTORS
330
33C
102
}
330
33C
100
TcOptionalData
 70
     2
 70
   144
 90
        1
  1
#$AUX@_ToolInfo Properties
 70
     8
 90
        9
310
434D445F5445585440
  1
Arial
 70
     0
  0
TCOPTIONALDATA
  5
340
102
{ACAD_REACTORS
330
33F
102
}
330
33F
100
TcOptionalData
 70
     2
 70
   144
 90
        1
  1
#$AUX@_ToolInfo Properties
 70
     8
 90
        9
310
434D445F5445585440
  1
Arial
 70
     0
  0
TCOPTIONALDATA
  5
343
102
{ACAD_REACTORS
330
342
102
}
330
342
100
TcOptionalData
 70
     2
 70
   144
 90
        1
  1
#$AUX@_ToolInfo Properties
 70
     8
 90
        9
310
434D445F5445585440
  1
Arial
 70
     0
  0
TCOPTIONALDATA
  5
346
102
{ACAD_REACTORS
330
345
102
}
330
345
100
TcOptionalData
 70
     2
 70
   144
 90
        1
  1
#$AUX@_ToolInfo Properties
 70
     8
 90
        9
310
434D445F5445585440
  1
Arial
 70
     0
  0
TCOPTIONALDATA
  5
349
102
{ACAD_REACTORS
330
348
102
}
330
348
100
TcOptionalData
 70
     2
 70
   144
 90
        1
  1
#$AUX@_ToolInfo Properties
 70
     8
 90
        9
310
434D445F5445585440
  1
Arial
 70
     0
  0
TCOPTIONALDATA
  5
34C
102
{ACAD_REACTORS
330
34B
102
}
330
34B
100
TcOptionalData
 70
     2
 70
   144
 90
        1
  1
#$AUX@_ToolInfo Properties
 70
     8
 90
        9
310
434D445F5445585440
  1
Arial
 70
     0
  0
TCOPTIONALDATA
  5
34F
102
{ACAD_REACTORS
330
34E
102
}
330
34E
100
TcOptionalData
 70
     2
 70
   144
 90
        1
  1
#$AUX@_ToolInfo Properties
 70
     8
 90
        9
310
434D445F5445585440
  1
Arial
 70
     0
  0
TCOPTIONALDATA
  5
352
102
{ACAD_REACTORS
330
351
102
}
330
351
100
TcOptionalData
 70
     2
 70
   144
 90
        1
  1
#$AUX@_ToolInfo Properties
 70
     8
 90
        9
310
434D445F5445585440
  1
Arial
 70
     0
  0
TCOPTIONALDATA
  5
355
102
{ACAD_REACTORS
330
354
102
}
330
354
100
TcOptionalData
 70
     2
 70
   144
 90
        1
  1
#$AUX@_ToolInfo Properties
 70
     8
 90
        9
310
434D445F5445585440
  1
Arial
 70
     0
  0
TCOPTIONALDATA
  5
358
102
{ACAD_REACTORS
330
357
102
}
330
357
100
TcOptionalData
 70
     2
 70
   144
 90
        1
  1
#$AUX@_ToolInfo Properties
 70
     8
 90
        9
310
434D445F5445585440
  1
Arial
 70
     0
  0
TCOPTIONALDATA
  5
35B
102
{ACAD_REACTORS
330
35A
102
}
330
35A
100
TcOptionalData
 70
     2
 70
   144
 90
        1
  1
#$AUX@_ToolInfo Properties
 70
     8
 90
        9
310
434D445F5445585440
  1
Arial
 70
     0
  0
TCOPTIONALDATA
  5
35E
102
{ACAD_REACTORS
330
35D
102
}
330
35D
100
TcOptionalData
 70
     2
 70
   144
 90
        1
  1
#$AUX@_ToolInfo Properties
 70
     8
 90
        9
310
434D445F5445585440
  1
Arial
 70
     0
  0
TCOPTIONALDATA
  5
361
102
{ACAD_REACTORS
330
360
102
}
330
360
100
TcOptionalData
 70
     2
 70
   144
 90
        1
  1
#$AUX@_ToolInfo Properties
 70
     8
 90
        9
310
434D445F5445585440
  1
Arial
 70
     0
  0
TCOPTIONALDATA
  5
364
102
{ACAD_REACTORS
330
363
102
}
330
363
100
TcOptionalData
 70
     2
 70
   144
 90
        1
  1
#$AUX@_ToolInfo Properties
 70
     8
 90
        9
310
434D445F5445585440
  1
Arial
 70
     0
  0
TCOPTIONALDATA
  5
367
102
{ACAD_REACTORS
330
366
102
}
330
366
100
TcOptionalData
 70
     2
 70
   144
 90
        1
  1
#$AUX@_ToolInfo Properties
 70
     8
 90
        9
310
434D445F5445585440
  1
Arial
 70
     0
  0
TCOPTIONALDATA
  5
36A
102
{ACAD_REACTORS
330
369
102
}
330
369
100
TcOptionalData
 70
     2
 70
   144
 90
        1
  1
#$AUX@_ToolInfo Properties
 70
     8
 90
        9
310
434D445F5445585440
  1
Arial
 70
     0
  0
TCOPTIONALDATA
  5
36D
102
{ACAD_REACTORS
330
36C
102
}
330
36C
100
TcOptionalData
 70
     2
 70
   144
 90
        1
  1
#$AUX@_ToolInfo Properties
 70
     8
 90
        9
310
434D445F5445585440
  1
Arial
 70
     0
  0
TCOPTIONALDATA
  5
370
102
{ACAD_REACTORS
330
36F
102
}
330
36F
100
TcOptionalData
 70
     2
 70
   144
 90
        1
  1
#$AUX@_ToolInfo Properties
 70
     8
 90
        9
310
434D445F5445585440
  1
Arial
 70
     0
  0
TCOPTIONALDATA
  5
373
102
{ACAD_REACTORS
330
372
102
}
330
372
100
TcOptionalData
 70
     2
 70
   144
 90
        1
  1
#$AUX@_ToolInfo Properties
 70
     8
 90
        9
310
434D445F5445585440
  1
Arial
 70
     0
  0
TCOPTIONALDATA
  5
376
102
{ACAD_REACTORS
330
375
102
}
330
375
100
TcOptionalData
 70
     2
 70
   144
 90
        1
  1
#$AUX@_ToolInfo Properties
 70
     8
 90
        9
310
434D445F5445585440
  1
Arial
 70
     0
  0
TCOPTIONALDATA
  5
379
102
{ACAD_REACTORS
330
378
102
}
330
378
100
TcOptionalData
 70
     2
 70
   144
 90
        1
  1
#$AUX@_ToolInfo Properties
 70
     8
 90
        9
310
434D445F5445585440
  1
Arial
 70
     0
  0
TCOPTIONALDATA
  5
37C
102
{ACAD_REACTORS
330
37B
102
}
330
37B
100
TcOptionalData
 70
     2
 70
   144
 90
        1
  1
#$AUX@_ToolInfo Properties
 70
     8
 90
        9
310
434D445F5445585440
  1
Arial
 70
     0
  0
TCOPTIONALDATA
  5
37F
102
{ACAD_REACTORS
330
37E
102
}
330
37E
100
TcOptionalData
 70
     2
 70
   144
 90
        1
  1
#$AUX@_ToolInfo Properties
 70
     8
 90
        9
310
434D445F5445585440
  1
Arial
 70
     0
  0
TCOPTIONALDATA
  5
382
102
{ACAD_REACTORS
330
381
102
}
330
381
100
TcOptionalData
 70
     2
 70
   144
 90
        1
  1
#$AUX@_ToolInfo Properties
 70
     8
 90
        9
310
434D445F5445585440
  1
Arial
 70
     0
  0
TCOPTIONALDATA
  5
385
102
{ACAD_REACTORS
330
384
102
}
330
384
100
TcOptionalData
 70
     2
 70
   144
 90
        1
  1
#$AUX@_ToolInfo Properties
 70
     8
 90
        9
310
434D445F5445585440
  1
Arial
 70
     0
  0
TCOPTIONALDATA
  5
388
102
{ACAD_REACTORS
330
387
102
}
330
387
100
TcOptionalData
 70
     2
 70
   144
 90
        1
  1
#$AUX@_ToolInfo Properties
 70
     8
 90
        9
310
434D445F5445585440
  1
Arial
 70
     0
  0
TCOPTIONALDATA
  5
38B
102
{ACAD_REACTORS
330
38A
102
}
330
38A
100
TcOptionalData
 70
     2
 70
   144
 90
        1
  1
#$AUX@_ToolInfo Properties
 70
     8
 90
        9
310
434D445F5445585440
  1
Arial
 70
     0
  0
TCOPTIONALDATA
  5
38E
102
{ACAD_REACTORS
330
38D
102
}
330
38D
100
TcOptionalData
 70
     2
 70
   144
 90
        1
  1
#$AUX@_ToolInfo Properties
 70
     8
 90
        9
310
434D445F5445585440
  1
Arial
 70
     0
  0
TCOPTIONALDATA
  5
391
102
{ACAD_REACTORS
330
390
102
}
330
390
100
TcOptionalData
 70
     2
 70
   144
 90
        1
  1
#$AUX@_ToolInfo Properties
 70
     8
 90
        9
310
434D445F5445585440
  1
Arial
 70
     0
  0
TCOPTIONALDATA
  5
394
102
{ACAD_REACTORS
330
393
102
}
330
393
100
TcOptionalData
 70
     2
 70
   144
 90
        1
  1
#$AUX@_ToolInfo Properties
 70
     8
 90
        9
310
434D445F5445585440
  1
Arial
 70
     0
  0
TCOPTIONALDATA
  5
397
102
{ACAD_REACTORS
330
396
102
}
330
396
100
TcOptionalData
 70
     2
 70
   144
 90
        1
  1
#$AUX@_ToolInfo Properties
 70
     8
 90
        9
310
434D445F5445585440
  1
Arial
 70
     0
  0
TCOPTIONALDATA
  5
39A
102
{ACAD_REACTORS
330
399
102
}
330
399
100
TcOptionalData
 70
     2
 70
   144
 90
        1
  1
#$AUX@_ToolInfo Properties
 70
     8
 90
        9
310
434D445F5445585440
  1
Arial
 70
     0
  0
TCOPTIONALDATA
  5
39D
102
{ACAD_REACTORS
330
39C
102
}
330
39C
100
TcOptionalData
 70
     2
 70
   144
 90
        1
  1
#$AUX@_ToolInfo Properties
 70
     8
 90
        9
310
434D445F5445585440
  1
Arial
 70
     0
  0
TCOPTIONALDATA
  5
3A0
102
{ACAD_REACTORS
330
39F
102
}
330
39F
100
TcOptionalData
 70
     2
 70
   144
 90
        1
  1
#$AUX@_ToolInfo Properties
 70
     8
 90
        9
310
434D445F5445585440
  1
Arial
 70
     0
  0
TCOPTIONALDATA
  5
3A3
102
{ACAD_REACTORS
330
3A2
102
}
330
3A2
100
TcOptionalData
 70
     2
 70
   144
 90
        1
  1
#$AUX@_ToolInfo Properties
 70
     8
 90
        9
310
434D445F5445585440
  1
Arial
 70
     0
  0
TCOPTIONALDATA
  5
3A6
102
{ACAD_REACTORS
330
3A5
102
}
330
3A5
100
TcOptionalData
 70
     2
 70
   144
 90
        1
  1
#$AUX@_ToolInfo Properties
 70
     8
 90
        9
310
434D445F5445585440
  1
Arial
 70
     0
  0
TCOPTIONALDATA
  5
3A9
102
{ACAD_REACTORS
330
3A8
102
}
330
3A8
100
TcOptionalData
 70
     2
 70
   144
 90
        1
  1
#$AUX@_ToolInfo Properties
 70
     8
 90
        9
310
434D445F5445585440
  1
Arial
 70
     0
  0
TCOPTIONALDATA
  5
3AC
102
{ACAD_REACTORS
330
3AB
102
}
330
3AB
100
TcOptionalData
 70
     2
 70
   144
 90
        1
  1
#$AUX@_ToolInfo Properties
 70
     8
 90
        9
310
434D445F5445585440
  1
Arial
 70
     0
  0
TCOPTIONALDATA
  5
3AF
102
{ACAD_REACTORS
330
3AE
102
}
330
3AE
100
TcOptionalData
 70
     2
 70
   144
 90
        1
  1
#$AUX@_ToolInfo Properties
 70
     8
 90
        9
310
434D445F5445585440
  1
Arial
 70
     0
  0
TCOPTIONALDATA
  5
3B2
102
{ACAD_REACTORS
330
3B1
102
}
330
3B1
100
TcOptionalData
 70
     2
 70
   144
 90
        1
  1
#$AUX@_ToolInfo Properties
 70
     8
 90
        9
310
434D445F5445585440
  1
Arial
 70
     0
  0
TCOPTIONALDATA
  5
3B5
102
{ACAD_REACTORS
330
3B4
102
}
330
3B4
100
TcOptionalData
 70
     2
 70
   128
 90
        1
  1
#$AUX@_ToolInfo Properties
 70
     8
 90
        9
310
434D445F4C494E4540
  0
TCOPTIONALDATA
  5
3B8
102
{ACAD_REACTORS
330
3B7
102
}
330
3B7
100
TcOptionalData
 70
     2
 70
   128
 90
        1
  1
#$AUX@_ToolInfo Properties
 70
     8
 90
        9
310
434D445F4C494E4540
  0
TCOPTIONALDATA
  5
3BB
102
{ACAD_REACTORS
330
3BA
102
}
330
3BA
100
TcOptionalData
 70
     2
 70
   128
 90
        1
  1
#$AUX@_ToolInfo Properties
 70
     8
 90
        9
310
434D445F4C494E4540
  0
TCOPTIONALDATA
  5
3BE
102
{ACAD_REACTORS
330
3BD
102
}
330
3BD
100
TcOptionalData
 70
     2
 70
   128
 90
        1
  1
#$AUX@_ToolInfo Properties
 70
     8
 90
        9
310
434D445F4C494E4540
  0
TCOPTIONALDATA
  5
3C1
102
{ACAD_REACTORS
330
3C0
102
}
330
3C0
100
TcOptionalData
 70
     2
 70
   128
 90
        1
  1
#$AUX@_ToolInfo Properties
 70
     8
 90
        9
310
434D445F4C494E4540
  0
TCOPTIONALDATA
  5
3C4
102
{ACAD_REACTORS
330
3C3
102
}
330
3C3
100
TcOptionalData
 70
     2
 70
   128
 90
        1
  1
#$AUX@_ToolInfo Properties
 70
     8
 90
        9
310
434D445F4C494E4540
  0
TCOPTIONALDATA
  5
3C7
102
{ACAD_REACTORS
330
3C6
102
}
330
3C6
100
TcOptionalData
 70
     2
 70
   128
 90
        1
  1
#$AUX@_ToolInfo Properties
 70
     8
 90
        9
310
434D445F4C494E4540
  0
TCOPTIONALDATA
  5
3CA
102
{ACAD_REACTORS
330
3C9
102
}
330
3C9
100
TcOptionalData
 70
     2
 70
   128
 90
        1
  1
#$AUX@_ToolInfo Properties
 70
     8
 90
        9
310
434D445F4C494E4540
  0
TCOPTIONALDATA
  5
3CD
102
{ACAD_REACTORS
330
3CC
102
}
330
3CC
100
TcOptionalData
 70
     2
 70
   128
 90
        1
  1
#$AUX@_ToolInfo Properties
 70
     8
 90
        9
310
434D445F4C494E4540
  0
TCOPTIONALDATA
  5
3D0
102
{ACAD_REACTORS
330
3CF
102
}
330
3CF
100
TcOptionalData
 70
     2
 70
   128
 90
        1
  1
#$AUX@_ToolInfo Properties
 70
     8
 90
        9
310
434D445F4C494E4540
  0
TCOPTIONALDATA
  5
3D3
102
{ACAD_REACTORS
330
3D2
102
}
330
3D2
100
TcOptionalData
 70
     2
 70
   128
 90
        1
  1
#$AUX@_ToolInfo Properties
 70
     8
 90
        9
310
434D445F4C494E4540
  0
TCOPTIONALDATA
  5
3D6
102
{ACAD_REACTORS
330
3D5
102
}
330
3D5
100
TcOptionalData
 70
     2
 70
   128
 90
        1
  1
#$AUX@_ToolInfo Properties
 70
     8
 90
        9
310
434D445F4C494E4540
  0
TCOPTIONALDATA
  5
3D9
102
{ACAD_REACTORS
330
3D8
102
}
330
3D8
100
TcOptionalData
 70
     2
 70
   128
 90
        1
  1
#$AUX@_ToolInfo Properties
 70
     8
 90
        9
310
434D445F4C494E4540
  0
TCOPTIONALDATA
  5
3DC
102
{ACAD_REACTORS
330
3DB
102
}
330
3DB
100
TcOptionalData
 70
     2
 70
   128
 90
        1
  1
#$AUX@_ToolInfo Properties
 70
     8
 90
        9
310
434D445F4C494E4540
  0
TCOPTIONALDATA
  5
3DF
102
{ACAD_REACTORS
330
3DE
102
}
330
3DE
100
TcOptionalData
 70
     2
 70
   128
 90
        1
  1
#$AUX@_ToolInfo Properties
 70
     8
 90
        9
310
434D445F4C494E4540
  0
TCOPTIONALDATA
  5
3E2
102
{ACAD_REACTORS
330
3E1
102
}
330
3E1
100
TcOptionalData
 70
     2
 70
   128
 90
        1
  1
#$AUX@_ToolInfo Properties
 70
     8
 90
        9
310
434D445F4C494E4540
  0
TCOPTIONALDATA
  5
3E6
102
{ACAD_REACTORS
330
3E5
102
}
330
3E5
100
TcOptionalData
 70
     2
 70
   144
 90
        1
  1
#$AUX@_ToolInfo Properties
 70
     8
 90
        9
310
434D445F5445585440
  1
Arial
 70
     0
  0
TCOPTIONALDATA
  5
3E9
102
{ACAD_REACTORS
330
3E8
102
}
330
3E8
100
TcOptionalData
 70
     2
 70
   128
 90
        1
  1
#$AUX@_ToolInfo Properties
 70
     8
 90
       14
310
434D445F53544152504F494E5440
  0
TCOPTIONALDATA
  5
3EC
102
{ACAD_REACTORS
330
3EB
102
}
330
3EB
100
TcOptionalData
 70
     2
 70
   144
 90
        1
  1
#$AUX@_ToolInfo Properties
 70
     8
 90
        9
310
434D445F5445585440
  1
Arial
 70
     0
  0
TCOPTIONALDATA
  5
3EF
102
{ACAD_REACTORS
330
3EE
102
}
330
3EE
100
TcOptionalData
 70
     2
 70
   128
 90
        1
  1
#$AUX@_ToolInfo Properties
 70
     8
 90
       14
310
434D445F53544152504F494E5440
  0
TCOPTIONALDATA
  5
3F2
102
{ACAD_REACTORS
330
3F1
102
}
330
3F1
100
TcOptionalData
 70
     2
 70
   128
 90
        1
  1
#$AUX@_ToolInfo Properties
 70
     8
 90
        9
310
434D445F4C494E4540
  0
MATERIAL
  5
45
102
{ACAD_REACTORS
330
43
102
}
102
{ACAD_XDICTIONARY
360
41D
102
}
330
43
100
AcDbMaterial
  1
BYBLOCK
  0
MATERIAL
  5
44
102
{ACAD_REACTORS
330
43
102
}
102
{ACAD_XDICTIONARY
360
41B
102
}
330
43
100
AcDbMaterial
  1
BYLAYER
  0
MATERIAL
  5
46
102
{ACAD_REACTORS
330
43
102
}
102
{ACAD_XDICTIONARY
360
41F
102
}
330
43
100
AcDbMaterial
  1
GLOBAL
  0
ACAD_PROXY_OBJECT
  5
19B
102
{ACAD_REACTORS
330
19A
102
}
330
19A
100
AcDbProxyObject
 90
      499
 91
      702
 93
      538
310
40901902A4063FBFFFFFE000000000000681FC000000000000D03F8000000000000D03F90140501A0CCCCCCCCCCCF0CFC02B5E8DC0F42B1CFE5764000000000000300FC0
340
14
340
0
340
11
340
0
 94
        0
1001
ACAD_MLEADERVER
1070
     2
  0
MLINESTYLE
  5
18
102
{ACAD_REACTORS
330
17
102
}
330
17
100
AcDbMlineStyle
  2
Standard
 70
     0
  3

 62
     0
 51
90.0
 52
90.0
 71
     2
 49
0.5
 62
   256
  6
BYLAYER
 49
-0.5
 62
   256
  6
BYLAYER
  0
ACAD_PROXY_OBJECT
  5
48
102
{ACAD_REACTORS
330
47
102
}
330
47
100
AcDbProxyObject
 90
      499
 91
      503
 93
       41
310
903313A31580
  0
ACAD_PROXY_OBJECT
  5
49
102
{ACAD_REACTORS
330
47
102
}
330
47
100
AcDbProxyObject
 90
      499
 91
      503
 93
      105
310
903313A324000000000000004000
  0
ACAD_PROXY_OBJECT
  5
4A
102
{ACAD_REACTORS
330
47
102
}
330
47
100
AcDbProxyObject
 90
      499
 91
      503
 93
      105
310
903313A344000000000000104000
  0
ACAD_PROXY_OBJECT
  5
4B
102
{ACAD_REACTORS
330
47
102
}
330
47
100
AcDbProxyObject
 90
      499
 91
      503
 93
      105
310
903313A354000000000000144000
  0
ACAD_PROXY_OBJECT
  5
4C
102
{ACAD_REACTORS
330
47
102
}
330
47
100
AcDbProxyObject
 90
      499
 91
      503
 93
      105
310
903313A384000000000000204000
  0
ACAD_PROXY_OBJECT
  5
4D
102
{ACAD_REACTORS
330
47
102
}
330
47
100
AcDbProxyObject
 90
      499
 91
      503
 93
      113
310
904313A31304000000000000244000
  0
ACAD_PROXY_OBJECT
  5
4E
102
{ACAD_REACTORS
330
47
102
}
330
47
100
AcDbProxyObject
 90
      499
 91
      503
 93
      113
310
904313A31364000000000000304000
  0
ACAD_PROXY_OBJECT
  5
4F
102
{ACAD_REACTORS
330
47
102
}
330
47
100
AcDbProxyObject
 90
      499
 91
      503
 93
      113
310
904313A32304000000000000344000
  0
ACAD_PROXY_OBJECT
  5
50
102
{ACAD_REACTORS
330
47
102
}
330
47
100
AcDbProxyObject
 90
      499
 91
      503
 93
      113
310
904313A333040000000000003E4000
  0
ACAD_PROXY_OBJECT
  5
51
102
{ACAD_REACTORS
330
47
102
}
330
47
100
AcDbProxyObject
 90
      499
 91
      503
 93
      113
310
904313A34304000000000000444000
  0
ACAD_PROXY_OBJECT
  5
52
102
{ACAD_REACTORS
330
47
102
}
330
47
100
AcDbProxyObject
 90
      499
 91
      503
 93
      113
310
904313A35304000000000000494000
  0
ACAD_PROXY_OBJECT
  5
53
102
{ACAD_REACTORS
330
47
102
}
330
47
100
AcDbProxyObject
 90
      499
 91
      503
 93
      121
310
905313A3130304000000000000594000
  0
ACAD_PROXY_OBJECT
  5
54
102
{ACAD_REACTORS
330
47
102
}
330
47
100
AcDbProxyObject
 90
      499
 91
      503
 93
      105
310
903323A310000000000000010100
  0
ACAD_PROXY_OBJECT
  5
55
102
{ACAD_REACTORS
330
47
102
}
330
47
100
AcDbProxyObject
 90
      499
 91
      503
 93
      105
310
903343A310000000000000410100
  0
ACAD_PROXY_OBJECT
  5
56
102
{ACAD_REACTORS
330
47
102
}
330
47
100
AcDbProxyObject
 90
      499
 91
      503
 93
      105
310
903383A310000000000000810100
  0
ACAD_PROXY_OBJECT
  5
57
102
{ACAD_REACTORS
330
47
102
}
330
47
100
AcDbProxyObject
 90
      499
 91
      503
 93
      113
310
90431303A310000000000000910100
  0
ACAD_PROXY_OBJECT
  5
58
102
{ACAD_REACTORS
330
47
102
}
330
47
100
AcDbProxyObject
 90
      499
 91
      503
 93
      121
310
9053130303A310000000000001650100
  0
ACAD_PROXY_OBJECT
  5
59
102
{ACAD_REACTORS
330
47
102
}
330
47
100
AcDbProxyObject
 90
      499
 91
      503
 93
      257
310
90E312F31323822203D2031272D3022000000000000200FC000000000000284000
  0
ACAD_PROXY_OBJECT
  5
5A
102
{ACAD_REACTORS
330
47
102
}
330
47
100
AcDbProxyObject
 90
      499
 91
      503
 93
      249
310
90D312F363422203D2031272D3022000000000000240FC000000000000284000
  0
ACAD_PROXY_OBJECT
  5
5B
102
{ACAD_REACTORS
330
47
102
}
330
47
100
AcDbProxyObject
 90
      499
 91
      503
 93
      249
310
90D312F333222203D2031272D3022000000000000280FC000000000000284000
  0
ACAD_PROXY_OBJECT
  5
5C
102
{ACAD_REACTORS
330
47
102
}
330
47
100
AcDbProxyObject
 90
      499
 91
      503
 93
      249
310
90D312F313622203D2031272D30220000000000002C0FC000000000000284000
  0
ACAD_PROXY_OBJECT
  5
5D
102
{ACAD_REACTORS
330
47
102
}
330
47
100
AcDbProxyObject
 90
      499
 91
      503
 93
      249
310
90D332F333222203D2031272D30220000000000002E0FC000000000000284000
  0
ACAD_PROXY_OBJECT
  5
5E
102
{ACAD_REACTORS
330
47
102
}
330
47
100
AcDbProxyObject
 90
      499
 91
      503
 93
      241
310
90C312F3822203D2031272D3022000000000000300FC000000000000284000
  0
ACAD_PROXY_OBJECT
  5
5F
102
{ACAD_REACTORS
330
47
102
}
330
47
100
AcDbProxyObject
 90
      499
 91
      503
 93
      249
310
90D332F313622203D2031272D3022000000000000320FC000000000000284000
  0
ACAD_PROXY_OBJECT
  5
60
102
{ACAD_REACTORS
330
47
102
}
330
47
100
AcDbProxyObject
 90
      499
 91
      503
 93
      241
310
90C312F3422203D2031272D3022000000000000340FC000000000000284000
  0
ACAD_PROXY_OBJECT
  5
61
102
{ACAD_REACTORS
330
47
102
}
330
47
100
AcDbProxyObject
 90
      499
 91
      503
 93
      241
310
90C332F3822203D2031272D3022000000000000360FC000000000000284000
  0
ACAD_PROXY_OBJECT
  5
62
102
{ACAD_REACTORS
330
47
102
}
330
47
100
AcDbProxyObject
 90
      499
 91
      503
 93
      241
310
90C312F3222203D2031272D3022000000000000380FC000000000000284000
  0
ACAD_PROXY_OBJECT
  5
63
102
{ACAD_REACTORS
330
47
102
}
330
47
100
AcDbProxyObject
 90
      499
 91
      503
 93
      241
310
90C332F3422203D2031272D30220000000000003A0FC000000000000284000
  0
ACAD_PROXY_OBJECT
  5
64
102
{ACAD_REACTORS
330
47
102
}
330
47
100
AcDbProxyObject
 90
      499
 91
      503
 93
      161
310
90A3122203D2031272D30224000000000000284000
  0
ACAD_PROXY_OBJECT
  5
65
102
{ACAD_REACTORS
330
47
102
}
330
47
100
AcDbProxyObject
 90
      499
 91
      503
 93
      257
310
90E312D312F3222203D2031272D30220000000000003E0FC000000000000284000
  0
ACAD_PROXY_OBJECT
  5
66
102
{ACAD_REACTORS
330
47
102
}
330
47
100
AcDbProxyObject
 90
      499
 91
      503
 93
      225
310
90A3322203D2031272D302200000000000002100000000000000284000
  0
ACAD_PROXY_OBJECT
  5
67
102
{ACAD_REACTORS
330
47
102
}
330
47
100
AcDbProxyObject
 90
      499
 91
      503
 93
      225
310
90A3622203D2031272D302200000000000006100000000000000284000
  0
ACAD_PROXY_OBJECT
  5
68
102
{ACAD_REACTORS
330
47
102
}
330
47
100
AcDbProxyObject
 90
      499
 91
      503
 93
      249
310
90D31272D3022203D2031272D30220000000000000A100000000000000284000
  0
ACAD_PROXY_OBJECT
  5
2F
102
{ACAD_REACTORS
330
2A
102
}
330
2A
100
AcDbProxyObject
 90
      499
 91
      501
 93
      436
310
42CC9915DA5C99599C985B595049028333333333333E33F0000000000000F90107901411070040501600405405064090741402480A0340
1001
ACAD
1000
AcDbSavedByObjectVersion
1070
     0
  0
ACAD_PROXY_OBJECT
  5
32
102
{ACAD_REACTORS
330
2A
102
}
330
2A
100
AcDbProxyObject
 90
      499
 91
      501
 93
      388
310
4150985CDA58D07406404333333333333E33F0000000000000F90107A41107004050150841D405064090741402480A0350
1001
ACAD
1000
AcDbSavedByObjectVersion
1070
     0
  0
ACAD_PROXY_OBJECT
  5
36
102
{ACAD_REACTORS
330
2A
102
}
330
2A
100
AcDbProxyObject
 90
      499
 91
      501
 93
      428
310
42109C9A59DA1D195B90C409028333333333333E33F0000000000000F9010790141107004050150841D405064090741402480A029950
1001
ACAD
1000
AcDbSavedByObjectVersion
1070
     0
  0
ACAD_PROXY_OBJECT
  5
3A
102
{ACAD_REACTORS
330
2A
102
}
330
2A
100
AcDbProxyObject
 90
      499
 91
      501
 93
      452
310
42D0DBDB1BDC90DA185B99D95104090240C333333333333E33F0000000000000F90108901411070040501508421405064090741402480A0350
1001
ACAD
1000
AcDbSavedByObjectVersion
1070
     0
  0
ACAD_PROXY_OBJECT
  5
34
102
{ACAD_REACTORS
330
2A
102
}
330
2A
100
AcDbProxyObject
 90
      499
 91
      501
 93
      500
310
4290DBDB98D95C1D1D585B10940D028333333333333E33F0000000000000F90107902409070040501000000000018199010841D405064090740C02480A0340
1001
ACAD
1000
AcDbSavedByObjectVersion
1070
     0
  0
ACAD_PROXY_OBJECT
  5
35
102
{ACAD_REACTORS
330
2A
102
}
330
2A
100
AcDbProxyObject
 90
      499
 91
      501
 93
      412
310
40D11A5B50B409028333333333333E33F0000000000000F9010790141107004050150841D405064090741402480A02677FFFFFD0
1001
ACAD
1000
AcDbSavedByObjectVersion
1070
     0
  0
ACAD_PROXY_OBJECT
  5
3D
102
{ACAD_REACTORS
330
2A
102
}
330
2A
100
AcDbProxyObject
 90
      499
 91
      501
 93
      452
310
43115919D950DBDB1BDC93D999916409028333333333333E33F0000000000000F9010790141107004050150841D405064090741402480A0350
1001
ACAD
1000
AcDbSavedByObjectVersion
1070
     0
  0
ACAD_PROXY_OBJECT
  5
39
102
{ACAD_REACTORS
330
2A
102
}
330
2A
100
AcDbProxyObject
 90
      499
 91
      501
 93
      444
310
42D19858D95C185D1D195C9B90F409028333333333333E33F0000000000000F9010790141107004050150841D405064090741402480A0350
1001
ACAD
1000
AcDbSavedByObjectVersion
1070
     0
  0
ACAD_PROXY_OBJECT
  5
2B
102
{ACAD_REACTORS
330
2A
102
}
330
2A
100
AcDbProxyObject
 90
      499
 91
      501
 93
      380
310
41119B185D240901404333333333333E33F0000000000000F9010740A907004050150841D405064090741402480A1B50
1001
ACAD
1000
AcDbSavedByObjectVersion
1070
     0
  0
ACAD_PROXY_OBJECT
  5
2C
102
{ACAD_REACTORS
330
2A
102
}
330
2A
100
AcDbProxyObject
 90
      499
 91
      501
 93
      468
310
43519B185D15DA5D1A115919D95CD0140901404333333333333E33F0000000000000F90107409019070040501600405405064090741402480A1B50
1001
ACAD
1000
AcDbSavedByObjectVersion
1070
     0
  0
ACAD_PROXY_OBJECT
  5
2D
102
{ACAD_REACTORS
330
2A
102
}
330
2A
100
AcDbProxyObject
 90
      499
 91
      501
 93
      404
310
41D1DBDD5C985D5910240902404333333333333E33F0000000000000F9010740A9070040501641D405064090741402480A1B50
1001
ACAD
1000
AcDbSavedByObjectVersion
1070
     0
  0
ACAD_PROXY_OBJECT
  5
2E
102
{ACAD_REACTORS
330
2A
102
}
330
2A
100
AcDbProxyObject
 90
      499
 91
      501
 93
      492
310
4411DBDD5C985D5915DA5D1A115919D95CD0340902404333333333333E33F0000000000000F90107409019070040501600405405064090741402480A1B50
1001
ACAD
1000
AcDbSavedByObjectVersion
1070
     0
  0
ACAD_PROXY_OBJECT
  5
31
102
{ACAD_REACTORS
330
2A
102
}
330
2A
100
AcDbProxyObject
 90
      499
 91
      501
 93
      476
310
41921A5919195B90640502408333333333333E33F0000000000000F901079024090700405020000000000001110200405405064090740C02480A0340
1001
ACAD
1000
AcDbSavedByObjectVersion
1070
     0
  0
ACAD_PROXY_OBJECT
  5
3B
102
{ACAD_REACTORS
330
2A
102
}
330
2A
100
AcDbProxyObject
 90
      499
 91
      501
 93
      428
310
42529A5D1D195C93D999914409028333333333333E33F0000000000000F9010790141107004050150A41D405064090741402480A0350
1001
ACAD
1000
AcDbSavedByObjectVersion
1070
     0
  0
ACAD_PROXY_OBJECT
  5
38
102
{ACAD_REACTORS
330
2A
102
}
330
2A
100
AcDbProxyObject
 90
      499
 91
      501
 93
      444
310
42D31A5B995C185D1D195C9B90E409028333333333333E33F0000000000000F9010790141107004050750841D405064090741402483A0350
1001
ACAD
1000
AcDbSavedByObjectVersion
1070
     0
  0
ACAD_PROXY_OBJECT
  5
3C
102
{ACAD_REACTORS
330
2A
102
}
330
2A
100
AcDbProxyObject
 90
      499
 91
      501
 93
      444
310
42D3DD995C9A185B99D3D999915409028333333333333E33F0000000000000F9010790141107004050150941D405064090741402480A0350
1001
ACAD
1000
AcDbSavedByObjectVersion
1070
     0
  0
ACAD_PROXY_OBJECT
  5
33
102
{ACAD_REACTORS
330
2A
102
}
330
2A
100
AcDbProxyObject
 90
      499
 91
      501
 93
      428
310
425499585B1A5CDD1A58D08409038333333333333E33F0000000000000F9010740A907004050150800405405064090740C02480A1B40
1001
ACAD
1000
AcDbSavedByObjectVersion
1070
     0
  0
ACAD_PROXY_OBJECT
  5
42
102
{ACAD_REACTORS
330
2A
102
}
330
2A
100
AcDbProxyObject
 90
      499
 91
      501
 93
      420
310
4194DA1859195911B40902404333333333333E33F0000000000000F9010740A41107004050150800405405064090840C02480A0B40
1001
ACAD
1000
AcDbSavedByObjectVersion
1070
     0
  0
ACAD_PROXY_OBJECT
  5
41
102
{ACAD_REACTORS
330
2A
102
}
330
2A
100
AcDbProxyObject
 90
      499
 91
      501
 93
      516
310
4454DA18591959081DDA5D1A08195919D95CD1A40902404333333333333E33F0000000000000F901074090142907004050250800405405064090740C02480A0B40
1001
ACAD
1000
AcDbSavedByObjectVersion
1070
     0
  0
ACAD_PROXY_OBJECT
  5
3E
102
{ACAD_REACTORS
330
2A
102
}
330
2A
100
AcDbProxyObject
 90
      499
 91
      501
 93
      532
310
4394DA1859195CC81BD98811DC985E5174090240C333333333333E33F0000000000000F901079024090741D01000000000000111010841D405064090740C02480A0340
1001
ACAD
1000
AcDbSavedByObjectVersion
1070
     0
  0
ACAD_PROXY_OBJECT
  5
3F
102
{ACAD_REACTORS
330
2A
102
}
330
2A
100
AcDbProxyObject
 90
      499
 91
      501
 93
      476
310
41D4DAD95D18DA1E51840502408333333333333E33F0000000000000F901079024090741D01000000000000111010B41D405064090741802480A0340
1001
ACAD
1000
AcDbSavedByObjectVersion
1070
     0
  0
ACAD_PROXY_OBJECT
  5
37
102
{ACAD_REACTORS
330
2A
102
}
330
2A
100
AcDbProxyObject
 90
      499
 91
      501
 93
      412
310
41D51A1A58DAD95B90D409028333333333333E33F0000000000000F9010790141107004050150C41D405064090741402480A0350
1001
ACAD
1000
AcDbSavedByObjectVersion
1070
     0
  0
ACAD_PROXY_OBJECT
  5
30
102
{ACAD_REACTORS
330
2A
102
}
330
2A
100
AcDbProxyObject
 90
      499
 91
      501
 93
      420
310
4255DA5C99599C985B595059028333333333333E33F0000000000000F90107901411070040501600405405064090740C02480A0340
1001
ACAD
1000
AcDbSavedByObjectVersion
1070
     0
  0
ACAD_PROXY_OBJECT
  5
40
102
{ACAD_REACTORS
330
2A
102
}
330
2A
100
AcDbProxyObject
 90
      499
 91
      501
 93
      404
310
41560B54985E51940902404000000000000E03F0000000000000F9010740501907004050150841D405064090740C02480A1B40
1001
ACAD
1000
AcDbSavedByObjectVersion
1070
     0
  0
XRECORD
  5
3FD
102
{ACAD_REACTORS
330
3F4
102
}
330
3F4
100
AcDbXrecord
 90
        0
  0
XRECORD
  5
413
102
{ACAD_REACTORS
330
3F4
102
}
330
3F4
100
AcDbXrecord
1000
DSTYLE
1002
{
1070
   171
 70
     2
1070
   143
 40
25.4
1070
   274
 70
     2
1070
     4
  1
^B2147483648l^B
1070
    41
 40
0.18
1070
   141
 40
0.09
1070
   271
 70
     4
1070
    43
 40
0.38
1070
   278
 70
    46
1070
    44
 40
0.18
1070
    42
 40
0.0625
1070
   147
 40
0.09
1070
    77
 70
     0
1070
   272
 70
     4
1070
    73
 70
     1
1070
   172
 70
     0
1070
    74
 70
     1
1070
   283
 70
     1
1070
   340
340
11
1070
   140
 40
0.18
1070
   284
 70
     0
1070
    78
 70
     0
1070
   345
340
14
1070
   346
340
14
1070
   347
340
14
1002
}
  0
XRECORD
  5
3FE
102
{ACAD_REACTORS
330
3F4
102
}
330
3F4
100
AcDbXrecord
  1
{97EFD2A9-2A28-4CA0-A03F-8AB964C9E95C}
  0
XRECORD
  5
3F7
102
{ACAD_REACTORS
330
3F4
102
}
330
3F4
100
AcDbXrecord
  1

  0
XRECORD
  5
3FC
102
{ACAD_REACTORS
330
3F4
102
}
330
3F4
100
AcDbXrecord
 90
        0
  0
XRECORD
  5
3F9
102
{ACAD_REACTORS
330
3F4
102
}
330
3F4
100
AcDbXrecord
340
1A
  0
XRECORD
  5
3FB
102
{ACAD_REACTORS
330
3F4
102
}
330
3F4
100
AcDbXrecord
 90
    10781
  0
XRECORD
  5
3FA
102
{ACAD_REACTORS
330
3F4
102
}
330
3F4
100
AcDbXrecord
340
19
  0
XRECORD
  5
400
102
{ACAD_REACTORS
330
3F4
102
}
330
3F4
100
AcDbXrecord
 40
0.0
  0
XRECORD
  5
403
102
{ACAD_REACTORS
330
3F4
102
}
330
3F4
100
AcDbXrecord
340
0
  0
XRECORD
  5
409
102
{ACAD_REACTORS
330
3F4
102
}
330
3F4
100
AcDbXrecord
 10
0.0
 20
0.0
 30
0.0
  0
XRECORD
  5
405
102
{ACAD_REACTORS
330
3F4
102
}
330
3F4
100
AcDbXrecord
 10
0.0
 20
0.0
 30
0.0
  0
XRECORD
  5
408
102
{ACAD_REACTORS
330
3F4
102
}
330
3F4
100
AcDbXrecord
 10
0.0
 20
0.0
 30
0.0
  0
XRECORD
  5
406
102
{ACAD_REACTORS
330
3F4
102
}
330
3F4
100
AcDbXrecord
 10
0.0
 20
0.0
 30
0.0
  0
XRECORD
  5
407
102
{ACAD_REACTORS
330
3F4
102
}
330
3F4
100
AcDbXrecord
 10
0.0
 20
0.0
 30
0.0
  0
XRECORD
  5
404
102
{ACAD_REACTORS
330
3F4
102
}
330
3F4
100
AcDbXrecord
 10
0.0
 20
0.0
 30
0.0
  0
XRECORD
  5
401
102
{ACAD_REACTORS
330
3F4
102
}
330
3F4
100
AcDbXrecord
340
0
  0
XRECORD
  5
402
102
{ACAD_REACTORS
330
3F4
102
}
330
3F4
100
AcDbXrecord
 70
     0
  0
XRECORD
  5
3F8
102
{ACAD_REACTORS
330
3F4
102
}
330
3F4
100
AcDbXrecord
  1

  0
XRECORD
  5
3F5
102
{ACAD_REACTORS
330
3F4
102
}
330
3F4
100
AcDbXrecord
 90
        1
  0
XRECORD
  5
3F6
102
{ACAD_REACTORS
330
3F4
102
}
330
3F4
100
AcDbXrecord
 90
       70
  0
XRECORD
  5
40C
102
{ACAD_REACTORS
330
3F4
102
}
330
3F4
100
AcDbXrecord
340
0
  0
XRECORD
  5
412
102
{ACAD_REACTORS
330
3F4
102
}
330
3F4
100
AcDbXrecord
 10
0.0
 20
0.0
 30
0.0
  0
XRECORD
  5
40E
102
{ACAD_REACTORS
330
3F4
102
}
330
3F4
100
AcDbXrecord
 10
0.0
 20
0.0
 30
0.0
  0
XRECORD
  5
411
102
{ACAD_REACTORS
330
3F4
102
}
330
3F4
100
AcDbXrecord
 10
0.0
 20
0.0
 30
0.0
  0
XRECORD
  5
40F
102
{ACAD_REACTORS
330
3F4
102
}
330
3F4
100
AcDbXrecord
 10
0.0
 20
0.0
 30
0.0
  0
XRECORD
  5
410
102
{ACAD_REACTORS
330
3F4
102
}
330
3F4
100
AcDbXrecord
 10
0.0
 20
0.0
 30
0.0
  0
XRECORD
  5
40D
102
{ACAD_REACTORS
330
3F4
102
}
330
3F4
100
AcDbXrecord
 10
0.0
 20
0.0
 30
0.0
  0
XRECORD
  5
40A
102
{ACAD_REACTORS
330
3F4
102
}
330
3F4
100
AcDbXrecord
340
0
  0
XRECORD
  5
40B
102
{ACAD_REACTORS
330
3F4
102
}
330
3F4
100
AcDbXrecord
 70
     0
  0
XRECORD
  5
3FF
102
{ACAD_REACTORS
330
3F4
102
}
330
3F4
100
AcDbXrecord
  1
{FAEB1C32-E019-11D5-929B-00C0DF256EC4}
  0
DICTIONARYVAR
  5
419
102
{ACAD_REACTORS
330
414
102
}
330
414
100
DictionaryVariables
280
     0
  1
1:1
  0
DICTIONARYVAR
  5
417
102
{ACAD_REACTORS
330
414
102
}
330
414
100
DictionaryVariables
280
     0
  1
2
  0
DICTIONARYVAR
  5
418
102
{ACAD_REACTORS
330
414
102
}
330
414
100
DictionaryVariables
280
     0
  1
1
  0
DICTIONARYVAR
  5
41A
102
{ACAD_REACTORS
330
414
102
}
330
414
100
DictionaryVariables
280
     0
  1
1
  0
DICTIONARY
  5
41D
330
45
100
AcDbDictionary
280
     1
  3
ACAD_XREC_ROUNDTRIP
360
41E
  0
DICTIONARY
  5
41B
330
44
100
AcDbDictionary
280
     1
  3
ACAD_XREC_ROUNDTRIP
360
41C
  0
DICTIONARY
  5
41F
330
46
100
AcDbDictionary
280
     1
  3
ACAD_XREC_ROUNDTRIP
360
420
  0
XRECORD
  5
41E
102
{ACAD_REACTORS
330
41D
102
}
330
41D
100
AcDbXrecord
102
MATERIAL
148
0.0
149
0.0
149
0.0
 93
        0
 94
      127
282
     0
 72
     1
 77
     1
171
     1
175
     1
179
     1
273
     0
  0
XRECORD
  5
41C
102
{ACAD_REACTORS
330
41B
102
}
330
41B
100
AcDbXrecord
102
MATERIAL
148
0.0
149
0.0
149
0.0
 93
        0
 94
      127
282
     0
 72
     1
 77
     1
171
     1
175
     1
179
     1
273
     0
  0
XRECORD
  5
420
102
{ACAD_REACTORS
330
41F
102
}
330
41F
100
AcDbXrecord
102
MATERIAL
148
0.0
149
0.0
149
0.0
 93
        0
 94
      127
282
     0
 72
     1
 77
     1
171
     1
175
     1
179
     1
273
     0
  0
ENDSEC
  0
EOF
